<svg width="439" height="64" viewBox="0 0 439 64" fill="none" xmlns="http://www.w3.org/2000/svg">
<path fill-rule="evenodd" clip-rule="evenodd" d="M425 28.5C425 28.465 425 28.4474 425 28.4326C424.984 13.2888 412.711 1.01636 397.567 1.00002C397.553 1 397.535 1 397.5 1H55.5C55.465 1 55.4474 1 55.4326 1.00002C40.2888 1.01636 28.0164 13.2888 28 28.4326C28 28.4474 28 28.465 28 28.5V28.5C28 28.535 28 28.5526 28 28.5674C28.0164 43.7112 40.2888 55.9836 55.4326 56C55.4474 56 55.465 56 55.5 56H397.5C397.535 56 397.553 56 397.567 56C412.711 55.9836 424.984 43.7112 425 28.5674C425 28.5526 425 28.535 425 28.5V28.5Z" fill="#007AFF"/>
<path d="M415.873 37.9995C416.013 45.861 416.542 50.6953 418.549 54.6343C420.083 57.6447 422.201 60.2943 424.76 62.4419V63.0317H414.032C400.207 63.0317 389 51.8244 389 37.9995H415.873Z" fill="#007AFF"/>
<path d="M57.4754 35.1911C56.7848 35.1911 56.1713 35.0603 55.6349 34.7989C55.0986 34.5374 54.6728 34.1686 54.3577 33.6926C54.0493 33.2099 53.8951 32.6433 53.8951 31.993V31.9728C53.8951 31.3493 54.0459 30.8129 54.3476 30.3637C54.656 29.9078 55.1019 29.5491 55.6852 29.2876C56.2685 29.0262 56.9725 28.8719 57.7972 28.825L61.7496 28.5937V29.9816L58.0084 30.2129C57.2239 30.2598 56.6406 30.4308 56.2585 30.7258C55.8763 31.0208 55.6852 31.4298 55.6852 31.9527V31.9728C55.6852 32.5025 55.8864 32.9182 56.2886 33.2199C56.6976 33.5216 57.2172 33.6725 57.8475 33.6725C58.4241 33.6725 58.9403 33.5551 59.3962 33.3205C59.8522 33.0858 60.2109 32.7674 60.4723 32.3651C60.7405 31.9561 60.8746 31.4935 60.8746 30.9772V27.6986C60.8746 27.0349 60.6701 26.5253 60.2611 26.17C59.8589 25.8146 59.2655 25.637 58.4811 25.637C57.824 25.637 57.2876 25.7643 56.8719 26.0191C56.4562 26.2672 56.1847 26.6091 56.0573 27.0449L56.0473 27.0952H54.3175L54.3275 27.0148C54.408 26.4449 54.6292 25.942 54.9913 25.5062C55.36 25.0637 55.8461 24.7184 56.4495 24.4703C57.053 24.2156 57.7469 24.0882 58.5313 24.0882C59.3962 24.0882 60.1338 24.2323 60.7439 24.5206C61.354 24.8022 61.82 25.2112 62.1418 25.7476C62.4636 26.2772 62.6245 26.9075 62.6245 27.6383V35H60.8746V33.3708H60.7439C60.5293 33.7529 60.2578 34.0815 59.9293 34.3564C59.6007 34.6245 59.2286 34.8324 58.8129 34.9799C58.404 35.1207 57.9581 35.1911 57.4754 35.1911ZM65.5109 35V24.2793H67.2608V25.8683H67.3815C67.6631 25.3185 68.0654 24.886 68.5883 24.5709C69.1113 24.2491 69.7683 24.0882 70.5595 24.0882C71.7596 24.0882 72.6815 24.4368 73.3252 25.1341C73.9755 25.8247 74.3007 26.7969 74.3007 28.0506V35H72.5508V28.4428C72.5508 27.5042 72.3463 26.8036 71.9373 26.3409C71.5283 25.8716 70.9014 25.637 70.0566 25.637C69.4867 25.637 68.994 25.761 68.5783 26.0091C68.1626 26.2571 67.8374 26.6058 67.6027 27.055C67.3748 27.5042 67.2608 28.0406 67.2608 28.6641V35H65.5109ZM77.8307 38.711C77.6966 38.711 77.5524 38.7043 77.3982 38.6909C77.2507 38.6775 77.12 38.6607 77.006 38.6406V37.2125C77.0999 37.2259 77.2038 37.236 77.3178 37.2427C77.4385 37.2561 77.5558 37.2628 77.6698 37.2628C78.186 37.2628 78.6051 37.1455 78.9269 36.9108C79.2554 36.6762 79.5169 36.2504 79.7113 35.6336L79.9225 35.0101L75.95 24.2793H77.8206L81.0489 34.0044L80.4656 33.1294H81.1897L80.5964 34.0044L83.8347 24.2793H85.6751L81.4914 35.6638C81.2098 36.4281 80.9081 37.0315 80.5863 37.474C80.2645 37.9165 79.8823 38.2316 79.4398 38.4194C79.004 38.6138 78.4676 38.711 77.8307 38.711ZM91.7093 35.1911C90.7036 35.1911 89.8287 34.9665 89.0844 34.5173C88.3469 34.0681 87.7737 33.4311 87.3647 32.6064C86.9624 31.7751 86.7613 30.7895 86.7613 29.6497V29.6296C86.7613 28.4831 86.9624 27.4975 87.3647 26.6728C87.7737 25.8414 88.3469 25.2045 89.0844 24.762C89.8287 24.3128 90.7036 24.0882 91.7093 24.0882C92.7217 24.0882 93.5967 24.3128 94.3342 24.762C95.0717 25.2045 95.6416 25.8414 96.0439 26.6728C96.4529 27.4975 96.6574 28.4831 96.6574 29.6296V29.6497C96.6574 30.7895 96.4529 31.7751 96.0439 32.6064C95.6416 33.4311 95.0717 34.0681 94.3342 34.5173C93.5967 34.9665 92.7217 35.1911 91.7093 35.1911ZM91.7194 33.6423C92.3764 33.6423 92.9396 33.4847 93.4089 33.1696C93.8783 32.8545 94.237 32.3986 94.485 31.8019C94.7398 31.2052 94.8672 30.4878 94.8672 29.6497V29.6296C94.8672 28.7848 94.7398 28.064 94.485 27.4673C94.237 26.8706 93.8783 26.418 93.4089 26.1096C92.9396 25.7945 92.3731 25.637 91.7093 25.637C91.0523 25.637 90.4857 25.7945 90.0097 26.1096C89.5404 26.4247 89.1783 26.8807 88.9235 27.4774C88.6755 28.0674 88.5514 28.7848 88.5514 29.6296V29.6497C88.5514 30.4878 88.6755 31.2052 88.9235 31.8019C89.1783 32.3986 89.5404 32.8545 90.0097 33.1696C90.4857 33.4847 91.0556 33.6423 91.7194 33.6423ZM99.061 35V24.2793H100.811V25.8683H100.932C101.213 25.3185 101.615 24.886 102.138 24.5709C102.661 24.2491 103.318 24.0882 104.11 24.0882C105.31 24.0882 106.232 24.4368 106.875 25.1341C107.526 25.8247 107.851 26.7969 107.851 28.0506V35H106.101V28.4428C106.101 27.5042 105.896 26.8036 105.487 26.3409C105.078 25.8716 104.452 25.637 103.607 25.637C103.037 25.637 102.544 25.761 102.128 26.0091C101.713 26.2571 101.387 26.6058 101.153 27.055C100.925 27.5042 100.811 28.0406 100.811 28.6641V35H99.061ZM115.092 35.1911C114.073 35.1911 113.194 34.9665 112.457 34.5173C111.726 34.0681 111.163 33.4311 110.767 32.6064C110.372 31.7751 110.174 30.7995 110.174 29.6799V29.6698C110.174 28.5635 110.372 27.5914 110.767 26.7533C111.163 25.9152 111.723 25.2615 112.447 24.7922C113.171 24.3228 114.016 24.0882 114.981 24.0882C115.96 24.0882 116.798 24.3128 117.495 24.762C118.199 25.2112 118.739 25.8414 119.115 26.6527C119.49 27.4573 119.678 28.3926 119.678 29.4586V30.1324H111.069V28.7446H118.793L117.918 30.0218V29.3279C117.918 28.4898 117.79 27.7992 117.536 27.2561C117.288 26.713 116.942 26.3108 116.5 26.0493C116.057 25.7811 115.548 25.647 114.971 25.647C114.401 25.647 113.888 25.7878 113.432 26.0694C112.976 26.3443 112.614 26.7566 112.346 27.3064C112.085 27.8562 111.954 28.53 111.954 29.3279V30.0218C111.954 30.7794 112.085 31.4298 112.346 31.9728C112.608 32.5092 112.976 32.9216 113.453 33.2099C113.929 33.4982 114.488 33.6423 115.132 33.6423C115.608 33.6423 116.024 33.5753 116.379 33.4412C116.741 33.3071 117.04 33.1328 117.274 32.9182C117.509 32.697 117.673 32.4656 117.767 32.2243L117.807 32.1338H119.547L119.527 32.2243C119.433 32.6064 119.265 32.9752 119.024 33.3305C118.783 33.6859 118.474 34.0044 118.099 34.286C117.723 34.5675 117.281 34.7888 116.771 34.9497C116.268 35.1106 115.709 35.1911 115.092 35.1911ZM127.482 35V20.0553H129.232V25.9286H129.353C129.627 25.3453 130.03 24.8927 130.559 24.5709C131.089 24.2491 131.75 24.0882 132.541 24.0882C133.332 24.0882 134.009 24.2524 134.572 24.581C135.135 24.9028 135.568 25.3688 135.87 25.9789C136.171 26.589 136.322 27.3232 136.322 28.1814V35H134.572V28.5635C134.572 27.5914 134.358 26.8606 133.929 26.3711C133.499 25.8817 132.862 25.637 132.018 25.637C131.455 25.637 130.962 25.7643 130.539 26.0191C130.124 26.2672 129.802 26.6192 129.574 27.0751C129.346 27.5243 129.232 28.0607 129.232 28.6842V35H127.482ZM139.229 35V24.2793H140.978V35H139.229ZM140.114 22.298C139.792 22.298 139.517 22.1841 139.289 21.9561C139.061 21.7214 138.947 21.4432 138.947 21.1214C138.947 20.7928 139.061 20.5179 139.289 20.2967C139.517 20.0687 139.792 19.9548 140.114 19.9548C140.442 19.9548 140.72 20.0687 140.948 20.2967C141.176 20.5179 141.29 20.7928 141.29 21.1214C141.29 21.4432 141.176 21.7214 140.948 21.9561C140.72 22.1841 140.442 22.298 140.114 22.298ZM147.707 35.1207C146.641 35.1207 145.859 34.8961 145.363 34.4469C144.874 33.9909 144.629 33.2534 144.629 32.2343V25.7275H142.98V24.2793H144.629V21.4734H146.439V24.2793H148.692V25.7275H146.439V31.9326C146.439 32.5427 146.56 32.9752 146.801 33.23C147.043 33.478 147.432 33.6021 147.968 33.6021C148.109 33.6021 148.23 33.5987 148.33 33.592C148.437 33.5853 148.558 33.5753 148.692 33.5619V35.0302C148.545 35.0503 148.387 35.0704 148.219 35.0905C148.052 35.1106 147.881 35.1207 147.707 35.1207ZM154.787 35.1207C153.721 35.1207 152.94 34.8961 152.443 34.4469C151.954 33.9909 151.709 33.2534 151.709 32.2343V25.7275H150.06V24.2793H151.709V21.4734H153.52V24.2793H155.772V25.7275H153.52V31.9326C153.52 32.5427 153.64 32.9752 153.882 33.23C154.123 33.478 154.512 33.6021 155.048 33.6021C155.189 33.6021 155.31 33.5987 155.41 33.592C155.518 33.5853 155.638 33.5753 155.772 33.5619V35.0302C155.625 35.0503 155.467 35.0704 155.3 35.0905C155.132 35.1106 154.961 35.1207 154.787 35.1207ZM158.216 35V24.2793H159.966V35H158.216ZM159.101 22.298C158.779 22.298 158.504 22.1841 158.276 21.9561C158.049 21.7214 157.935 21.4432 157.935 21.1214C157.935 20.7928 158.049 20.5179 158.276 20.2967C158.504 20.0687 158.779 19.9548 159.101 19.9548C159.43 19.9548 159.708 20.0687 159.936 20.2967C160.164 20.5179 160.278 20.7928 160.278 21.1214C160.278 21.4432 160.164 21.7214 159.936 21.9561C159.708 22.1841 159.43 22.298 159.101 22.298ZM162.983 35V24.2793H164.733V25.8683H164.854C165.135 25.3185 165.538 24.886 166.061 24.5709C166.584 24.2491 167.241 24.0882 168.032 24.0882C169.232 24.0882 170.154 24.4368 170.797 25.1341C171.448 25.8247 171.773 26.7969 171.773 28.0506V35H170.023V28.4428C170.023 27.5042 169.819 26.8036 169.41 26.3409C169.001 25.8716 168.374 25.637 167.529 25.637C166.959 25.637 166.466 25.761 166.051 26.0091C165.635 26.2571 165.31 26.6058 165.075 27.055C164.847 27.5042 164.733 28.0406 164.733 28.6641V35H162.983ZM179.084 38.7915C178.219 38.7915 177.462 38.6674 176.811 38.4194C176.161 38.178 175.642 37.8361 175.253 37.3936C174.87 36.9578 174.629 36.4583 174.529 35.8951L174.539 35.8548H176.329L176.349 35.8951C176.463 36.2906 176.754 36.6125 177.224 36.8605C177.7 37.1153 178.317 37.2427 179.074 37.2427C180.033 37.2427 180.777 37.0181 181.307 36.5689C181.837 36.1197 182.101 35.4928 182.101 34.6882V32.7674H181.981C181.76 33.1629 181.481 33.5015 181.146 33.7831C180.811 34.0647 180.429 34.2792 180 34.4268C179.57 34.5743 179.108 34.648 178.612 34.648C177.693 34.648 176.895 34.4268 176.218 33.9842C175.541 33.535 175.018 32.9149 174.649 32.1237C174.28 31.3326 174.096 30.4207 174.096 29.3882V29.3681C174.096 28.3289 174.284 27.4137 174.659 26.6225C175.035 25.8314 175.561 25.2112 176.238 24.762C176.915 24.3128 177.72 24.0882 178.652 24.0882C179.155 24.0882 179.617 24.172 180.04 24.3396C180.469 24.5005 180.848 24.7285 181.176 25.0235C181.505 25.3185 181.78 25.6671 182.001 26.0694H182.091V24.2793H183.841V34.7989C183.841 35.6101 183.647 36.3141 183.258 36.9108C182.876 37.5075 182.326 37.9702 181.609 38.2987C180.898 38.6272 180.057 38.7915 179.084 38.7915ZM178.994 33.0992C179.638 33.0992 180.194 32.945 180.663 32.6366C181.133 32.3215 181.495 31.8857 181.749 31.3292C182.004 30.766 182.132 30.119 182.132 29.3882V29.3681C182.132 28.6306 182.004 27.9836 181.749 27.4271C181.495 26.8639 181.133 26.4247 180.663 26.1096C180.194 25.7945 179.638 25.637 178.994 25.637C178.337 25.637 177.777 25.7945 177.314 26.1096C176.852 26.4247 176.496 26.8639 176.248 27.4271C176.007 27.9836 175.886 28.6306 175.886 29.3681V29.3882C175.886 30.1257 176.007 30.7727 176.248 31.3292C176.496 31.8857 176.852 32.3215 177.314 32.6366C177.777 32.945 178.337 33.0992 178.994 33.0992ZM195.779 35.1207C194.713 35.1207 193.932 34.8961 193.436 34.4469C192.946 33.9909 192.702 33.2534 192.702 32.2343V25.7275H191.052V24.2793H192.702V21.4734H194.512V24.2793H196.765V25.7275H194.512V31.9326C194.512 32.5427 194.632 32.9752 194.874 33.23C195.115 33.478 195.504 33.6021 196.04 33.6021C196.181 33.6021 196.302 33.5987 196.402 33.592C196.51 33.5853 196.63 33.5753 196.765 33.5619V35.0302C196.617 35.0503 196.459 35.0704 196.292 35.0905C196.124 35.1106 195.953 35.1207 195.779 35.1207ZM199.249 35V20.0553H200.999V25.9286H201.119C201.394 25.3453 201.796 24.8927 202.326 24.5709C202.856 24.2491 203.516 24.0882 204.307 24.0882C205.098 24.0882 205.776 24.2524 206.339 24.581C206.902 24.9028 207.334 25.3688 207.636 25.9789C207.938 26.589 208.089 27.3232 208.089 28.1814V35H206.339V28.5635C206.339 27.5914 206.124 26.8606 205.695 26.3711C205.266 25.8817 204.629 25.637 203.784 25.637C203.221 25.637 202.728 25.7643 202.306 26.0191C201.89 26.2672 201.568 26.6192 201.34 27.0751C201.113 27.5243 200.999 28.0607 200.999 28.6842V35H199.249ZM215.32 35.1911C214.301 35.1911 213.422 34.9665 212.685 34.5173C211.954 34.0681 211.391 33.4311 210.995 32.6064C210.6 31.7751 210.402 30.7995 210.402 29.6799V29.6698C210.402 28.5635 210.6 27.5914 210.995 26.7533C211.391 25.9152 211.951 25.2615 212.675 24.7922C213.399 24.3228 214.244 24.0882 215.209 24.0882C216.188 24.0882 217.026 24.3128 217.723 24.762C218.427 25.2112 218.967 25.8414 219.342 26.6527C219.718 27.4573 219.906 28.3926 219.906 29.4586V30.1324H211.297V28.7446H219.021L218.146 30.0218V29.3279C218.146 28.4898 218.018 27.7992 217.764 27.2561C217.515 26.713 217.17 26.3108 216.728 26.0493C216.285 25.7811 215.776 25.647 215.199 25.647C214.629 25.647 214.116 25.7878 213.66 26.0694C213.204 26.3443 212.842 26.7566 212.574 27.3064C212.313 27.8562 212.182 28.53 212.182 29.3279V30.0218C212.182 30.7794 212.313 31.4298 212.574 31.9728C212.836 32.5092 213.204 32.9216 213.68 33.2099C214.156 33.4982 214.716 33.6423 215.36 33.6423C215.836 33.6423 216.252 33.5753 216.607 33.4412C216.969 33.3071 217.267 33.1328 217.502 32.9182C217.737 32.697 217.901 32.4656 217.995 32.2243L218.035 32.1338H219.775L219.755 32.2243C219.661 32.6064 219.493 32.9752 219.252 33.3305C219.011 33.6859 218.702 34.0044 218.327 34.286C217.951 34.5675 217.509 34.7888 216.999 34.9497C216.496 35.1106 215.936 35.1911 215.32 35.1911ZM232.014 35.1911C231.009 35.1911 230.137 34.9631 229.399 34.5072C228.662 34.0513 228.089 33.4076 227.68 32.5763C227.277 31.7382 227.076 30.7526 227.076 29.6195V29.5994C227.076 28.4797 227.277 27.5075 227.68 26.6829C228.089 25.8582 228.662 25.2213 229.399 24.7721C230.137 24.3161 231.005 24.0882 232.004 24.0882C232.876 24.0882 233.627 24.2491 234.257 24.5709C234.894 24.886 235.4 25.3051 235.776 25.828C236.151 26.351 236.386 26.9276 236.48 27.5578L236.49 27.6282H234.76L234.75 27.5779C234.616 27.0483 234.317 26.5924 233.855 26.2102C233.392 25.828 232.775 25.637 232.004 25.637C231.367 25.637 230.814 25.8012 230.345 26.1297C229.875 26.4516 229.51 26.9108 229.249 27.5075C228.994 28.0976 228.866 28.7982 228.866 29.6095V29.6195C228.866 30.4442 228.997 31.1582 229.259 31.7617C229.52 32.3651 229.886 32.831 230.355 33.1596C230.824 33.4814 231.374 33.6423 232.004 33.6423C232.735 33.6423 233.328 33.478 233.784 33.1495C234.24 32.8143 234.559 32.3483 234.74 31.7516L234.76 31.6913L236.49 31.6812L236.469 31.7818C236.342 32.4321 236.087 33.0154 235.705 33.5317C235.323 34.0479 234.824 34.4536 234.207 34.7486C233.59 35.0436 232.859 35.1911 232.014 35.1911ZM238.853 35V20.0553H240.603V35H238.853ZM247.251 35.1911C246.453 35.1911 245.776 35.0369 245.219 34.7285C244.669 34.4133 244.254 33.9608 243.972 33.3708C243.697 32.7741 243.56 32.06 243.56 31.2286V24.2793H245.31V30.8364C245.31 31.7751 245.501 32.4791 245.883 32.9484C246.272 33.411 246.889 33.6423 247.733 33.6423C248.189 33.6423 248.595 33.5719 248.95 33.4311C249.306 33.2903 249.604 33.0892 249.845 32.8277C250.093 32.5662 250.278 32.2477 250.398 31.8723C250.526 31.4968 250.59 31.0778 250.59 30.6152V24.2793H252.339V35H250.59V33.4211H250.469C250.295 33.7831 250.056 34.0982 249.755 34.3664C249.453 34.6346 249.091 34.8391 248.669 34.9799C248.253 35.1207 247.78 35.1911 247.251 35.1911ZM260.616 35.1911C260.113 35.1911 259.647 35.114 259.218 34.9598C258.796 34.8056 258.417 34.5843 258.082 34.296C257.753 34.0077 257.479 33.6624 257.257 33.2601H257.137V35H255.387V20.0553H257.137V26.0091H257.257C257.465 25.6135 257.737 25.2749 258.072 24.9933C258.407 24.705 258.793 24.4838 259.228 24.3295C259.664 24.1686 260.13 24.0882 260.626 24.0882C261.531 24.0882 262.319 24.3161 262.99 24.7721C263.667 25.228 264.193 25.8716 264.569 26.703C264.944 27.5344 265.132 28.5099 265.132 29.6296V29.6497C265.132 30.7694 264.944 31.7449 264.569 32.5763C264.193 33.4076 263.667 34.0513 262.99 34.5072C262.319 34.9631 261.528 35.1911 260.616 35.1911ZM260.234 33.6423C260.885 33.6423 261.441 33.4847 261.904 33.1696C262.366 32.8478 262.722 32.3885 262.97 31.7918C263.218 31.1884 263.342 30.4744 263.342 29.6497V29.6296C263.342 28.7982 263.218 28.0875 262.97 27.4975C262.722 26.9008 262.366 26.4415 261.904 26.1197C261.441 25.7979 260.885 25.637 260.234 25.637C259.597 25.637 259.044 25.8012 258.575 26.1297C258.105 26.4516 257.743 26.9108 257.489 27.5075C257.234 28.1043 257.106 28.8116 257.106 29.6296V29.6497C257.106 30.4609 257.234 31.1683 257.489 31.7717C257.743 32.3684 258.105 32.831 258.575 33.1596C259.044 33.4814 259.597 33.6423 260.234 33.6423ZM272.926 35V20.0553H274.676V35H272.926ZM280.72 35.1911C280.03 35.1911 279.416 35.0603 278.88 34.7989C278.343 34.5374 277.918 34.1686 277.603 33.6926C277.294 33.2099 277.14 32.6433 277.14 31.993V31.9728C277.14 31.3493 277.291 30.8129 277.592 30.3637C277.901 29.9078 278.347 29.5491 278.93 29.2876C279.513 29.0262 280.217 28.8719 281.042 28.825L284.994 28.5937V29.9816L281.253 30.2129C280.469 30.2598 279.885 30.4308 279.503 30.7258C279.121 31.0208 278.93 31.4298 278.93 31.9527V31.9728C278.93 32.5025 279.131 32.9182 279.533 33.2199C279.942 33.5216 280.462 33.6725 281.092 33.6725C281.669 33.6725 282.185 33.5551 282.641 33.3205C283.097 33.0858 283.456 32.7674 283.717 32.3651C283.985 31.9561 284.119 31.4935 284.119 30.9772V27.6986C284.119 27.0349 283.915 26.5253 283.506 26.17C283.104 25.8146 282.51 25.637 281.726 25.637C281.069 25.637 280.532 25.7643 280.117 26.0191C279.701 26.2672 279.43 26.6091 279.302 27.0449L279.292 27.0952H277.562L277.572 27.0148C277.653 26.4449 277.874 25.942 278.236 25.5062C278.605 25.0637 279.091 24.7184 279.694 24.4703C280.298 24.2156 280.992 24.0882 281.776 24.0882C282.641 24.0882 283.379 24.2323 283.989 24.5206C284.599 24.8022 285.065 25.2112 285.387 25.7476C285.708 26.2772 285.869 26.9075 285.869 27.6383V35H284.119V33.3708H283.989C283.774 33.7529 283.503 34.0815 283.174 34.3564C282.846 34.6245 282.473 34.8324 282.058 34.9799C281.649 35.1207 281.203 35.1911 280.72 35.1911ZM292.467 35.1207C291.401 35.1207 290.62 34.8961 290.123 34.4469C289.634 33.9909 289.389 33.2534 289.389 32.2343V25.7275H287.74V24.2793H289.389V21.4734H291.2V24.2793H293.452V25.7275H291.2V31.9326C291.2 32.5427 291.32 32.9752 291.562 33.23C291.803 33.478 292.192 33.6021 292.728 33.6021C292.869 33.6021 292.99 33.5987 293.09 33.592C293.198 33.5853 293.318 33.5753 293.452 33.5619V35.0302C293.305 35.0503 293.147 35.0704 292.98 35.0905C292.812 35.1106 292.641 35.1207 292.467 35.1207ZM300.02 35.1911C299 35.1911 298.122 34.9665 297.385 34.5173C296.654 34.0681 296.091 33.4311 295.695 32.6064C295.299 31.7751 295.102 30.7995 295.102 29.6799V29.6698C295.102 28.5635 295.299 27.5914 295.695 26.7533C296.091 25.9152 296.65 25.2615 297.375 24.7922C298.099 24.3228 298.943 24.0882 299.909 24.0882C300.888 24.0882 301.726 24.3128 302.423 24.762C303.127 25.2112 303.667 25.8414 304.042 26.6527C304.418 27.4573 304.606 28.3926 304.606 29.4586V30.1324H295.997V28.7446H303.721L302.846 30.0218V29.3279C302.846 28.4898 302.718 27.7992 302.463 27.2561C302.215 26.713 301.87 26.3108 301.428 26.0493C300.985 25.7811 300.475 25.647 299.899 25.647C299.329 25.647 298.816 25.7878 298.36 26.0694C297.904 26.3443 297.542 26.7566 297.274 27.3064C297.013 27.8562 296.882 28.53 296.882 29.3279V30.0218C296.882 30.7794 297.013 31.4298 297.274 31.9728C297.535 32.5092 297.904 32.9216 298.38 33.2099C298.856 33.4982 299.416 33.6423 300.06 33.6423C300.536 33.6423 300.952 33.5753 301.307 33.4412C301.669 33.3071 301.967 33.1328 302.202 32.9182C302.437 32.697 302.601 32.4656 302.695 32.2243L302.735 32.1338H304.475L304.455 32.2243C304.361 32.6064 304.193 32.9752 303.952 33.3305C303.71 33.6859 303.402 34.0044 303.027 34.286C302.651 34.5675 302.209 34.7888 301.699 34.9497C301.196 35.1106 300.636 35.1911 300.02 35.1911ZM307.019 35V24.2793H308.769V25.9387H308.89C309.091 25.3621 309.426 24.9095 309.896 24.581C310.372 24.2524 310.952 24.0882 311.635 24.0882C311.803 24.0882 311.961 24.0982 312.108 24.1183C312.262 24.1318 312.38 24.1452 312.46 24.1586V25.8582C312.313 25.8247 312.152 25.8012 311.977 25.7878C311.81 25.7677 311.625 25.7576 311.424 25.7576C310.908 25.7576 310.449 25.8649 310.046 26.0795C309.644 26.294 309.329 26.5957 309.101 26.9846C308.88 27.3735 308.769 27.8327 308.769 28.3624V35H307.019ZM323.382 35.1207C322.316 35.1207 321.535 34.8961 321.039 34.4469C320.549 33.9909 320.304 33.2534 320.304 32.2343V25.7275H318.655V24.2793H320.304V21.4734H322.115V24.2793H324.368V25.7275H322.115V31.9326C322.115 32.5427 322.235 32.9752 322.477 33.23C322.718 33.478 323.107 33.6021 323.643 33.6021C323.784 33.6021 323.905 33.5987 324.005 33.592C324.113 33.5853 324.233 33.5753 324.368 33.5619V35.0302C324.22 35.0503 324.062 35.0704 323.895 35.0905C323.727 35.1106 323.556 35.1207 323.382 35.1207ZM326.751 35V24.2793H328.501V25.8683H328.622C328.903 25.3185 329.306 24.886 329.828 24.5709C330.351 24.2491 331.008 24.0882 331.8 24.0882C333 24.0882 333.922 24.4368 334.565 25.1341C335.216 25.8247 335.541 26.7969 335.541 28.0506V35H333.791V28.4428C333.791 27.5042 333.586 26.8036 333.177 26.3409C332.768 25.8716 332.142 25.637 331.297 25.637C330.727 25.637 330.234 25.761 329.818 26.0091C329.403 26.2571 329.078 26.6058 328.843 27.055C328.615 27.5042 328.501 28.0406 328.501 28.6641V35H326.751ZM343.747 35V24.2793H345.497V35H343.747ZM344.632 22.298C344.311 22.298 344.036 22.1841 343.808 21.9561C343.58 21.7214 343.466 21.4432 343.466 21.1214C343.466 20.7928 343.58 20.5179 343.808 20.2967C344.036 20.0687 344.311 19.9548 344.632 19.9548C344.961 19.9548 345.239 20.0687 345.467 20.2967C345.695 20.5179 345.809 20.7928 345.809 21.1214C345.809 21.4432 345.695 21.7214 345.467 21.9561C345.239 22.1841 344.961 22.298 344.632 22.298ZM348.514 35V24.2793H350.264V25.8683H350.385C350.667 25.3185 351.069 24.886 351.592 24.5709C352.115 24.2491 352.772 24.0882 353.563 24.0882C354.763 24.0882 355.685 24.4368 356.329 25.1341C356.979 25.8247 357.304 26.7969 357.304 28.0506V35H355.554V28.4428C355.554 27.5042 355.35 26.8036 354.941 26.3409C354.532 25.8716 353.905 25.637 353.06 25.637C352.49 25.637 351.997 25.761 351.582 26.0091C351.166 26.2571 350.841 26.6058 350.606 27.055C350.378 27.5042 350.264 28.0406 350.264 28.6641V35H348.514ZM365.692 35V20.4878H367.502V33.3708H374.502V35H365.692ZM375.94 35L381.3 20.4878H382.678V22.7808H382.135L377.84 35H375.94ZM378.373 30.8465L378.957 29.3077H385.474L386.047 30.8465H378.373ZM386.56 35L382.255 22.7808V20.4878H383.09L388.461 35H386.56ZM391.83 30.5146V29.5893C391.83 29.1468 391.9 28.7479 392.041 28.3926C392.188 28.0305 392.41 27.6986 392.705 27.3969C393.006 27.0952 393.385 26.8069 393.841 26.532C394.23 26.2907 394.542 26.056 394.776 25.828C395.018 25.5934 395.192 25.3386 395.299 25.0637C395.407 24.7888 395.46 24.4737 395.46 24.1183V24.0982C395.46 23.6825 395.36 23.3138 395.159 22.992C394.957 22.6701 394.673 22.4154 394.304 22.2276C393.935 22.0399 393.499 21.946 392.996 21.946C392.493 21.946 392.054 22.0399 391.679 22.2276C391.31 22.4154 391.015 22.6802 390.794 23.0221C390.579 23.3641 390.452 23.7697 390.412 24.239L390.402 24.2793L388.682 24.2893L388.692 24.229C388.732 23.525 388.92 22.8813 389.255 22.298C389.59 21.708 390.073 21.2421 390.703 20.9001C391.34 20.5515 392.128 20.3771 393.067 20.3771C393.912 20.3771 394.652 20.5381 395.289 20.8599C395.933 21.175 396.432 21.6075 396.788 22.1572C397.15 22.7003 397.331 23.3171 397.331 24.0077V24.0278C397.331 24.5508 397.244 25.0268 397.069 25.4559C396.902 25.8783 396.66 26.2571 396.345 26.5924C396.03 26.9276 395.658 27.226 395.229 27.4874C394.807 27.7355 394.475 27.9735 394.233 28.2015C393.999 28.4294 393.831 28.6742 393.731 28.9356C393.637 29.1971 393.59 29.5055 393.59 29.8609V30.5146H391.83ZM392.805 35.1509C392.423 35.1509 392.108 35.0268 391.86 34.7787C391.612 34.5307 391.488 34.2156 391.488 33.8334C391.488 33.4512 391.612 33.1361 391.86 32.888C392.108 32.64 392.423 32.5159 392.805 32.5159C393.187 32.5159 393.499 32.64 393.741 32.888C393.989 33.1361 394.113 33.4512 394.113 33.8334C394.113 34.2156 393.989 34.5307 393.741 34.7787C393.499 35.0268 393.187 35.1509 392.805 35.1509Z" fill="white"/>
</svg>
