<svg width="387" height="46" viewBox="0 0 387 46" fill="none" xmlns="http://www.w3.org/2000/svg">
<path fill-rule="evenodd" clip-rule="evenodd" d="M379 23C379 22.8137 379 22.7205 378.999 22.6417C378.913 10.1732 368.827 0.0867347 356.358 0.000544704C356.279 0 356.186 0 356 0H23C22.8137 0 22.7205 0 22.6417 0.000544704C10.1732 0.0867347 0.0867442 10.1732 0.000554241 22.6417C9.53674e-06 22.7205 9.53674e-06 22.8137 9.53674e-06 23V23C9.53674e-06 23.1863 9.53674e-06 23.2795 0.000554241 23.3583C0.0867442 35.8268 10.1732 45.9133 22.6417 45.9995C22.7205 46 22.8137 46 23 46H356C356.186 46 356.279 46 356.358 45.9995C368.827 45.9133 378.913 35.8268 378.999 23.3583C379 23.2795 379 23.1863 379 23V23Z" fill="#007AFF"/>
<path d="M378.687 24.3499C378.803 30.876 379.242 34.8894 380.908 38.1594C382.182 40.6589 383.941 42.8588 386.065 44.6418V45.1311H377.159C365.682 45.1311 356.377 35.8272 356.377 24.3499H378.687Z" fill="#007AFF"/>
<path d="M15.7754 28.4121V16.4341H17.2695V28.4121H15.7754ZM24.9229 28.4121V19.4639H26.3672V20.8086H26.5C26.7269 20.3327 27.0534 19.9647 27.4795 19.7046C27.9056 19.439 28.4479 19.3062 29.1064 19.3062C30.1136 19.3062 30.8856 19.5939 31.4224 20.1694C31.9647 20.7394 32.2358 21.5557 32.2358 22.6182V28.4121H30.7915V22.9668C30.7915 22.1589 30.62 21.5612 30.2769 21.1738C29.9393 20.7809 29.4136 20.5845 28.6997 20.5845C28.2238 20.5845 27.8115 20.6868 27.4629 20.8916C27.1143 21.0964 26.8431 21.3869 26.6494 21.7632C26.4613 22.1395 26.3672 22.5905 26.3672 23.1162V28.4121H24.9229ZM38.5029 28.5698C37.6507 28.5698 36.9175 28.3817 36.3032 28.0054C35.6945 27.6291 35.2241 27.0978 34.8921 26.4116C34.5656 25.7199 34.4023 24.9064 34.4023 23.9712V23.9629C34.4023 23.0387 34.5656 22.228 34.8921 21.5308C35.2241 20.8335 35.6917 20.2884 36.2949 19.8955C36.8981 19.5026 37.6037 19.3062 38.4116 19.3062C39.2251 19.3062 39.9224 19.4943 40.5034 19.8706C41.09 20.2469 41.5382 20.7726 41.8481 21.4478C42.1636 22.1174 42.3213 22.8976 42.3213 23.7886V24.353H35.1494V23.1992H41.5825L40.8687 24.2534V23.6807C40.8687 22.9779 40.7635 22.3996 40.5532 21.9458C40.3429 21.492 40.0524 21.1545 39.6816 20.9331C39.3109 20.7062 38.8848 20.5928 38.4033 20.5928C37.9219 20.5928 37.4902 20.7118 37.1084 20.9497C36.7321 21.1821 36.4333 21.528 36.2119 21.9873C35.9906 22.4466 35.8799 23.0111 35.8799 23.6807V24.2534C35.8799 24.8898 35.9878 25.4349 36.2036 25.8887C36.4194 26.3369 36.7266 26.6828 37.125 26.9263C37.5234 27.1642 37.9938 27.2832 38.5361 27.2832C38.9401 27.2832 39.2915 27.2279 39.5903 27.1172C39.8892 27.0065 40.1354 26.8654 40.3291 26.6938C40.5228 26.5223 40.6584 26.348 40.7358 26.1709L40.769 26.0962H42.2134L42.1968 26.1626C42.1193 26.467 41.981 26.763 41.7817 27.0508C41.5881 27.333 41.3363 27.5903 41.0264 27.8228C40.7165 28.0496 40.3485 28.2323 39.9224 28.3706C39.5018 28.5034 39.0286 28.5698 38.5029 28.5698ZM48.2148 28.5698C47.3626 28.5698 46.6294 28.3817 46.0151 28.0054C45.4064 27.6291 44.936 27.0978 44.604 26.4116C44.2775 25.7199 44.1143 24.9064 44.1143 23.9712V23.9629C44.1143 23.0387 44.2775 22.228 44.604 21.5308C44.936 20.8335 45.4036 20.2884 46.0068 19.8955C46.61 19.5026 47.3156 19.3062 48.1235 19.3062C48.937 19.3062 49.6343 19.4943 50.2153 19.8706C50.8019 20.2469 51.2502 20.7726 51.5601 21.4478C51.8755 22.1174 52.0332 22.8976 52.0332 23.7886V24.353H44.8613V23.1992H51.2944L50.5806 24.2534V23.6807C50.5806 22.9779 50.4754 22.3996 50.2651 21.9458C50.0549 21.492 49.7643 21.1545 49.3936 20.9331C49.0228 20.7062 48.5967 20.5928 48.1152 20.5928C47.6338 20.5928 47.2021 20.7118 46.8203 20.9497C46.444 21.1821 46.1452 21.528 45.9238 21.9873C45.7025 22.4466 45.5918 23.0111 45.5918 23.6807V24.2534C45.5918 24.8898 45.6997 25.4349 45.9155 25.8887C46.1313 26.3369 46.4385 26.6828 46.8369 26.9263C47.2354 27.1642 47.7057 27.2832 48.248 27.2832C48.652 27.2832 49.0034 27.2279 49.3022 27.1172C49.6011 27.0065 49.8473 26.8654 50.041 26.6938C50.2347 26.5223 50.3703 26.348 50.4478 26.1709L50.481 26.0962H51.9253L51.9087 26.1626C51.8312 26.467 51.6929 26.763 51.4937 27.0508C51.3 27.333 51.0482 27.5903 50.7383 27.8228C50.4284 28.0496 50.0604 28.2323 49.6343 28.3706C49.2137 28.5034 48.7406 28.5698 48.2148 28.5698ZM57.5781 28.5698C56.8255 28.5698 56.167 28.3789 55.6025 27.9971C55.0381 27.6152 54.6009 27.0785 54.291 26.3867C53.9811 25.6895 53.8262 24.876 53.8262 23.9463V23.9297C53.8262 22.9945 53.9811 22.181 54.291 21.4893C54.6009 20.7975 55.0353 20.2607 55.5942 19.8789C56.1587 19.4971 56.82 19.3062 57.5781 19.3062C57.9876 19.3062 58.3722 19.3726 58.7319 19.5054C59.0972 19.6326 59.4209 19.8125 59.7031 20.0449C59.9854 20.2773 60.2067 20.554 60.3672 20.875H60.5V15.9111H61.9443V28.4121H60.5V26.9844H60.3672C60.1846 27.3164 59.9549 27.6014 59.6782 27.8394C59.4015 28.0718 59.0861 28.2516 58.7319 28.3789C58.3778 28.5062 57.9932 28.5698 57.5781 28.5698ZM57.9102 27.2915C58.4525 27.2915 58.9201 27.1559 59.313 26.8848C59.7059 26.6136 60.0075 26.229 60.2178 25.731C60.4281 25.2274 60.5332 24.6325 60.5332 23.9463V23.9297C60.5332 23.238 60.4281 22.6431 60.2178 22.145C60.0075 21.647 59.7059 21.2624 59.313 20.9912C58.9201 20.7201 58.4525 20.5845 57.9102 20.5845C57.3678 20.5845 56.9002 20.7201 56.5073 20.9912C56.12 21.2568 55.8211 21.6387 55.6108 22.1367C55.4061 22.6348 55.3037 23.2324 55.3037 23.9297V23.9463C55.3037 24.638 55.4061 25.2357 55.6108 25.7393C55.8211 26.2373 56.12 26.6219 56.5073 26.8931C56.9002 27.1587 57.3678 27.2915 57.9102 27.2915ZM71.9551 28.5698C71.3906 28.5698 70.8815 28.4619 70.4277 28.2461C69.9795 28.0303 69.6226 27.7231 69.3569 27.3247C69.0968 26.9263 68.9668 26.4559 68.9668 25.9136V25.897C68.9668 25.3657 69.0941 24.9119 69.3486 24.5356C69.6032 24.1538 69.974 23.855 70.4609 23.6392C70.9479 23.4233 71.5373 23.2961 72.229 23.2573L75.5161 23.0581V24.2119L72.4033 24.4111C71.7227 24.4499 71.2246 24.591 70.9092 24.8345C70.5993 25.078 70.4443 25.4211 70.4443 25.8638V25.8804C70.4443 26.3341 70.6159 26.6883 70.959 26.9429C71.3021 27.1919 71.7337 27.3164 72.2539 27.3164C72.7464 27.3164 73.1836 27.2196 73.5654 27.0259C73.9473 26.8267 74.2461 26.5583 74.4619 26.2207C74.6833 25.8831 74.7939 25.5013 74.7939 25.0752V22.2861C74.7939 21.7327 74.6252 21.3122 74.2876 21.0244C73.9556 20.7311 73.4548 20.5845 72.7852 20.5845C72.2484 20.5845 71.8084 20.6813 71.4653 20.875C71.1222 21.0632 70.8926 21.3315 70.7764 21.6802L70.7681 21.7051H69.3237L69.332 21.6553C69.4095 21.1849 69.6032 20.7754 69.9131 20.4268C70.2285 20.0726 70.6353 19.7987 71.1333 19.605C71.6313 19.4058 72.1986 19.3062 72.835 19.3062C73.5654 19.3062 74.1825 19.4251 74.686 19.6631C75.1951 19.901 75.5798 20.2441 75.8398 20.6924C76.1055 21.1351 76.2383 21.6663 76.2383 22.2861V28.4121H74.7939V27.0923H74.6611C74.473 27.4077 74.2433 27.6761 73.9722 27.8975C73.7065 28.1188 73.4049 28.2876 73.0674 28.4038C72.7298 28.5145 72.359 28.5698 71.9551 28.5698ZM83.6592 28.4121V19.4639H85.1035V20.8086H85.2363C85.4632 20.3327 85.7897 19.9647 86.2158 19.7046C86.6419 19.439 87.1842 19.3062 87.8428 19.3062C88.8499 19.3062 89.6219 19.5939 90.1587 20.1694C90.701 20.7394 90.9722 21.5557 90.9722 22.6182V28.4121H89.5278V22.9668C89.5278 22.1589 89.3563 21.5612 89.0132 21.1738C88.6756 20.7809 88.1499 20.5845 87.436 20.5845C86.9601 20.5845 86.5479 20.6868 86.1992 20.8916C85.8506 21.0964 85.5794 21.3869 85.3857 21.7632C85.1976 22.1395 85.1035 22.5905 85.1035 23.1162V28.4121H83.6592ZM97.2393 28.5698C96.387 28.5698 95.6538 28.3817 95.0396 28.0054C94.4308 27.6291 93.9604 27.0978 93.6284 26.4116C93.3019 25.7199 93.1387 24.9064 93.1387 23.9712V23.9629C93.1387 23.0387 93.3019 22.228 93.6284 21.5308C93.9604 20.8335 94.4281 20.2884 95.0312 19.8955C95.6344 19.5026 96.34 19.3062 97.1479 19.3062C97.9614 19.3062 98.6587 19.4943 99.2397 19.8706C99.8263 20.2469 100.275 20.7726 100.584 21.4478C100.9 22.1174 101.058 22.8976 101.058 23.7886V24.353H93.8857V23.1992H100.319L99.605 24.2534V23.6807C99.605 22.9779 99.4998 22.3996 99.2896 21.9458C99.0793 21.492 98.7887 21.1545 98.418 20.9331C98.0472 20.7062 97.6211 20.5928 97.1396 20.5928C96.6582 20.5928 96.2266 20.7118 95.8447 20.9497C95.4684 21.1821 95.1696 21.528 94.9482 21.9873C94.7269 22.4466 94.6162 23.0111 94.6162 23.6807V24.2534C94.6162 24.8898 94.7241 25.4349 94.9399 25.8887C95.1558 26.3369 95.4629 26.6828 95.8613 26.9263C96.2598 27.1642 96.7301 27.2832 97.2725 27.2832C97.6764 27.2832 98.0278 27.2279 98.3267 27.1172C98.6255 27.0065 98.8717 26.8654 99.0654 26.6938C99.2591 26.5223 99.3947 26.348 99.4722 26.1709L99.5054 26.0962H100.95L100.933 26.1626C100.856 26.467 100.717 26.763 100.518 27.0508C100.324 27.333 100.073 27.5903 99.7627 27.8228C99.4528 28.0496 99.0848 28.2323 98.6587 28.3706C98.2381 28.5034 97.765 28.5698 97.2393 28.5698ZM105.025 28.4121L102.519 19.4639H103.963L105.723 26.6191H105.855L107.856 19.4639H109.226L111.226 26.6191H111.359L113.119 19.4639H114.555L112.048 28.4121H110.595L108.595 21.4893H108.462L106.47 28.4121H105.025ZM124.897 28.5698C124.045 28.5698 123.312 28.3817 122.698 28.0054C122.089 27.6291 121.619 27.0978 121.287 26.4116C120.96 25.7199 120.797 24.9064 120.797 23.9712V23.9629C120.797 23.0387 120.96 22.228 121.287 21.5308C121.619 20.8335 122.086 20.2884 122.689 19.8955C123.293 19.5026 123.998 19.3062 124.806 19.3062C125.62 19.3062 126.317 19.4943 126.898 19.8706C127.485 20.2469 127.933 20.7726 128.243 21.4478C128.558 22.1174 128.716 22.8976 128.716 23.7886V24.353H121.544V23.1992H127.977L127.263 24.2534V23.6807C127.263 22.9779 127.158 22.3996 126.948 21.9458C126.737 21.492 126.447 21.1545 126.076 20.9331C125.705 20.7062 125.279 20.5928 124.798 20.5928C124.316 20.5928 123.885 20.7118 123.503 20.9497C123.127 21.1821 122.828 21.528 122.606 21.9873C122.385 22.4466 122.274 23.0111 122.274 23.6807V24.2534C122.274 24.8898 122.382 25.4349 122.598 25.8887C122.814 26.3369 123.121 26.6828 123.52 26.9263C123.918 27.1642 124.388 27.2832 124.931 27.2832C125.335 27.2832 125.686 27.2279 125.985 27.1172C126.284 27.0065 126.53 26.8654 126.724 26.6938C126.917 26.5223 127.053 26.348 127.13 26.1709L127.164 26.0962H128.608L128.591 26.1626C128.514 26.467 128.375 26.763 128.176 27.0508C127.983 27.333 127.731 27.5903 127.421 27.8228C127.111 28.0496 126.743 28.2323 126.317 28.3706C125.896 28.5034 125.423 28.5698 124.897 28.5698ZM134.261 28.5698C133.508 28.5698 132.85 28.3789 132.285 27.9971C131.721 27.6152 131.284 27.0785 130.974 26.3867C130.664 25.6895 130.509 24.876 130.509 23.9463V23.9297C130.509 22.9945 130.664 22.181 130.974 21.4893C131.284 20.7975 131.718 20.2607 132.277 19.8789C132.841 19.4971 133.503 19.3062 134.261 19.3062C134.67 19.3062 135.055 19.3726 135.415 19.5054C135.78 19.6326 136.104 19.8125 136.386 20.0449C136.668 20.2773 136.889 20.554 137.05 20.875H137.183V15.9111H138.627V28.4121H137.183V26.9844H137.05C136.867 27.3164 136.638 27.6014 136.361 27.8394C136.084 28.0718 135.769 28.2516 135.415 28.3789C135.06 28.5062 134.676 28.5698 134.261 28.5698ZM134.593 27.2915C135.135 27.2915 135.603 27.1559 135.996 26.8848C136.389 26.6136 136.69 26.229 136.9 25.731C137.111 25.2274 137.216 24.6325 137.216 23.9463V23.9297C137.216 23.238 137.111 22.6431 136.9 22.145C136.69 21.647 136.389 21.2624 135.996 20.9912C135.603 20.7201 135.135 20.5845 134.593 20.5845C134.05 20.5845 133.583 20.7201 133.19 20.9912C132.803 21.2568 132.504 21.6387 132.293 22.1367C132.089 22.6348 131.986 23.2324 131.986 23.9297V23.9463C131.986 24.638 132.089 25.2357 132.293 25.7393C132.504 26.2373 132.803 26.6219 133.19 26.8931C133.583 27.1587 134.05 27.2915 134.593 27.2915ZM141.433 28.4121V19.4639H142.877V28.4121H141.433ZM142.163 17.7373C141.892 17.7373 141.657 17.6405 141.458 17.4468C141.264 17.2476 141.167 17.0124 141.167 16.7412C141.167 16.4645 141.264 16.2293 141.458 16.0356C141.657 15.842 141.892 15.7451 142.163 15.7451C142.44 15.7451 142.675 15.842 142.869 16.0356C143.062 16.2293 143.159 16.4645 143.159 16.7412C143.159 17.0124 143.062 17.2476 142.869 17.4468C142.675 17.6405 142.44 17.7373 142.163 17.7373ZM148.779 28.4785C147.86 28.4785 147.193 28.2931 146.778 27.9224C146.369 27.5516 146.164 26.9401 146.164 26.0879V20.6592H144.753V19.4639H146.164V17.1479H147.658V19.4639H149.617V20.6592H147.658V25.7227C147.658 26.2484 147.758 26.6274 147.957 26.8599C148.156 27.0868 148.488 27.2002 148.953 27.2002C149.08 27.2002 149.188 27.1974 149.277 27.1919C149.371 27.1864 149.484 27.1781 149.617 27.167V28.3955C149.479 28.4176 149.34 28.437 149.202 28.4536C149.064 28.4702 148.923 28.4785 148.779 28.4785ZM155.336 28.5698C154.49 28.5698 153.757 28.3844 153.137 28.0137C152.522 27.6374 152.047 27.1034 151.709 26.4116C151.377 25.7199 151.211 24.8981 151.211 23.9463V23.9297C151.211 22.9723 151.377 22.1478 151.709 21.4561C152.047 20.7643 152.522 20.2331 153.137 19.8623C153.757 19.4915 154.49 19.3062 155.336 19.3062C156.189 19.3062 156.922 19.4915 157.536 19.8623C158.15 20.2331 158.624 20.7643 158.956 21.4561C159.293 22.1478 159.462 22.9723 159.462 23.9297V23.9463C159.462 24.8981 159.293 25.7199 158.956 26.4116C158.624 27.1034 158.15 27.6374 157.536 28.0137C156.922 28.3844 156.189 28.5698 155.336 28.5698ZM155.336 27.2915C155.901 27.2915 156.38 27.1587 156.772 26.8931C157.165 26.6274 157.464 26.2456 157.669 25.7476C157.879 25.2495 157.984 24.6491 157.984 23.9463V23.9297C157.984 23.2214 157.879 22.6182 157.669 22.1201C157.464 21.6221 157.165 21.243 156.772 20.9829C156.38 20.7173 155.901 20.5845 155.336 20.5845C154.772 20.5845 154.293 20.7173 153.9 20.9829C153.507 21.243 153.206 21.6221 152.996 22.1201C152.791 22.6182 152.688 23.2214 152.688 23.9297V23.9463C152.688 24.6491 152.791 25.2495 152.996 25.7476C153.206 26.2456 153.507 26.6274 153.9 26.8931C154.293 27.1587 154.772 27.2915 155.336 27.2915ZM161.703 28.4121V19.4639H163.147V20.792H163.28C163.452 20.3216 163.742 19.9564 164.152 19.6963C164.561 19.4362 165.068 19.3062 165.671 19.3062C165.809 19.3062 165.945 19.3145 166.078 19.3311C166.216 19.3421 166.321 19.3532 166.393 19.3643V20.7671C166.244 20.7394 166.097 20.7201 165.953 20.709C165.815 20.6924 165.665 20.6841 165.505 20.6841C165.046 20.6841 164.639 20.7754 164.285 20.958C163.931 21.1406 163.651 21.3952 163.446 21.7217C163.247 22.0482 163.147 22.43 163.147 22.8672V28.4121H161.703ZM173.557 28.4121V20.6592H172.071V19.4639H173.557V18.4678C173.557 17.8701 173.653 17.3776 173.847 16.9902C174.046 16.5973 174.34 16.3068 174.727 16.1187C175.114 15.925 175.59 15.8281 176.155 15.8281C176.332 15.8281 176.498 15.8364 176.653 15.853C176.813 15.8641 176.968 15.8835 177.118 15.9111V17.0649C177.029 17.0483 176.927 17.0373 176.811 17.0317C176.694 17.0262 176.573 17.0234 176.445 17.0234C175.931 17.0234 175.56 17.1479 175.333 17.397C175.112 17.646 175.001 18.0168 175.001 18.5093V19.4639H177.035V20.6592H175.001V28.4121H173.557ZM182.43 28.5698C181.583 28.5698 180.85 28.3844 180.23 28.0137C179.616 27.6374 179.14 27.1034 178.803 26.4116C178.471 25.7199 178.305 24.8981 178.305 23.9463V23.9297C178.305 22.9723 178.471 22.1478 178.803 21.4561C179.14 20.7643 179.616 20.2331 180.23 19.8623C180.85 19.4915 181.583 19.3062 182.43 19.3062C183.282 19.3062 184.016 19.4915 184.63 19.8623C185.244 20.2331 185.717 20.7643 186.049 21.4561C186.387 22.1478 186.556 22.9723 186.556 23.9297V23.9463C186.556 24.8981 186.387 25.7199 186.049 26.4116C185.717 27.1034 185.244 27.6374 184.63 28.0137C184.016 28.3844 183.282 28.5698 182.43 28.5698ZM182.43 27.2915C182.995 27.2915 183.473 27.1587 183.866 26.8931C184.259 26.6274 184.558 26.2456 184.763 25.7476C184.973 25.2495 185.078 24.6491 185.078 23.9463V23.9297C185.078 23.2214 184.973 22.6182 184.763 22.1201C184.558 21.6221 184.259 21.243 183.866 20.9829C183.473 20.7173 182.995 20.5845 182.43 20.5845C181.866 20.5845 181.387 20.7173 180.994 20.9829C180.601 21.243 180.3 21.6221 180.089 22.1201C179.885 22.6182 179.782 23.2214 179.782 23.9297V23.9463C179.782 24.6491 179.885 25.2495 180.089 25.7476C180.3 26.2456 180.601 26.6274 180.994 26.8931C181.387 27.1587 181.866 27.2915 182.43 27.2915ZM188.797 28.4121V19.4639H190.241V20.792H190.374C190.546 20.3216 190.836 19.9564 191.246 19.6963C191.655 19.4362 192.161 19.3062 192.765 19.3062C192.903 19.3062 193.039 19.3145 193.171 19.3311C193.31 19.3421 193.415 19.3532 193.487 19.3643V20.7671C193.337 20.7394 193.191 20.7201 193.047 20.709C192.909 20.6924 192.759 20.6841 192.599 20.6841C192.139 20.6841 191.733 20.7754 191.378 20.958C191.024 21.1406 190.745 21.3952 190.54 21.7217C190.341 22.0482 190.241 22.43 190.241 22.8672V28.4121H188.797ZM200.053 28.4121V19.4639H201.497V20.8252H201.63C201.829 20.3438 202.133 19.9702 202.543 19.7046C202.958 19.439 203.459 19.3062 204.045 19.3062C204.449 19.3062 204.812 19.3726 205.133 19.5054C205.454 19.6382 205.73 19.8236 205.963 20.0615C206.195 20.2939 206.381 20.5651 206.519 20.875H206.652C206.812 20.5596 207.028 20.2856 207.299 20.0532C207.57 19.8153 207.883 19.6326 208.237 19.5054C208.597 19.3726 208.982 19.3062 209.391 19.3062C210 19.3062 210.514 19.4196 210.935 19.6465C211.361 19.8734 211.685 20.2054 211.906 20.6426C212.128 21.0742 212.238 21.6027 212.238 22.228V28.4121H210.794V22.5601C210.794 22.1174 210.725 21.7521 210.586 21.4644C210.454 21.1711 210.249 20.9525 209.972 20.8086C209.695 20.6592 209.347 20.5845 208.926 20.5845C208.511 20.5845 208.149 20.6785 207.839 20.8667C207.529 21.0549 207.288 21.3066 207.117 21.6221C206.945 21.932 206.859 22.2778 206.859 22.6597V28.4121H205.415V22.3359C205.415 21.9818 205.338 21.6746 205.183 21.4146C205.033 21.1489 204.817 20.9442 204.535 20.8003C204.258 20.6564 203.932 20.5845 203.556 20.5845C203.168 20.5845 202.817 20.6868 202.501 20.8916C202.192 21.0964 201.945 21.373 201.763 21.7217C201.586 22.0648 201.497 22.4466 201.497 22.8672V28.4121H200.053ZM215.276 31.5498C215.182 31.5498 215.077 31.5443 214.961 31.5332C214.845 31.5277 214.737 31.5166 214.637 31.5V30.313C214.726 30.3296 214.823 30.3407 214.928 30.3462C215.033 30.3517 215.135 30.3545 215.235 30.3545C215.644 30.3545 215.979 30.2493 216.239 30.0391C216.505 29.8288 216.718 29.4663 216.878 28.9517L217.044 28.4204L213.732 19.4639H215.276L218.032 27.7314L217.459 26.8267H218.14L217.567 27.7314L220.315 19.4639H221.834L218.339 28.96C218.096 29.6296 217.839 30.1525 217.567 30.5288C217.296 30.9051 216.978 31.168 216.613 31.3174C216.253 31.4723 215.808 31.5498 215.276 31.5498ZM229.288 31.5498C229.194 31.5498 229.089 31.5443 228.973 31.5332C228.856 31.5277 228.749 31.5166 228.649 31.5V30.313C228.737 30.3296 228.834 30.3407 228.939 30.3462C229.045 30.3517 229.147 30.3545 229.247 30.3545C229.656 30.3545 229.991 30.2493 230.251 30.0391C230.517 29.8288 230.73 29.4663 230.89 28.9517L231.056 28.4204L227.744 19.4639H229.288L232.044 27.7314L231.471 26.8267H232.152L231.579 27.7314L234.327 19.4639H235.846L232.351 28.96C232.108 29.6296 231.85 30.1525 231.579 30.5288C231.308 30.9051 230.99 31.168 230.625 31.3174C230.265 31.4723 229.819 31.5498 229.288 31.5498ZM241.1 28.5698C240.253 28.5698 239.52 28.3844 238.9 28.0137C238.286 27.6374 237.81 27.1034 237.473 26.4116C237.141 25.7199 236.975 24.8981 236.975 23.9463V23.9297C236.975 22.9723 237.141 22.1478 237.473 21.4561C237.81 20.7643 238.286 20.2331 238.9 19.8623C239.52 19.4915 240.253 19.3062 241.1 19.3062C241.952 19.3062 242.686 19.4915 243.3 19.8623C243.914 20.2331 244.387 20.7643 244.719 21.4561C245.057 22.1478 245.226 22.9723 245.226 23.9297V23.9463C245.226 24.8981 245.057 25.7199 244.719 26.4116C244.387 27.1034 243.914 27.6374 243.3 28.0137C242.686 28.3844 241.952 28.5698 241.1 28.5698ZM241.1 27.2915C241.665 27.2915 242.143 27.1587 242.536 26.8931C242.929 26.6274 243.228 26.2456 243.433 25.7476C243.643 25.2495 243.748 24.6491 243.748 23.9463V23.9297C243.748 23.2214 243.643 22.6182 243.433 22.1201C243.228 21.6221 242.929 21.243 242.536 20.9829C242.143 20.7173 241.665 20.5845 241.1 20.5845C240.536 20.5845 240.057 20.7173 239.664 20.9829C239.271 21.243 238.97 21.6221 238.759 22.1201C238.555 22.6182 238.452 23.2214 238.452 23.9297V23.9463C238.452 24.6491 238.555 25.2495 238.759 25.7476C238.97 26.2456 239.271 26.6274 239.664 26.8931C240.057 27.1587 240.536 27.2915 241.1 27.2915ZM250.463 28.5698C249.788 28.5698 249.221 28.4425 248.762 28.188C248.302 27.9279 247.957 27.5516 247.724 27.0591C247.497 26.561 247.384 25.9606 247.384 25.2578V19.4639H248.828V24.9092C248.828 25.7116 248.983 26.3092 249.293 26.7021C249.608 27.0951 250.123 27.2915 250.837 27.2915C251.23 27.2915 251.576 27.2334 251.875 27.1172C252.179 27.001 252.433 26.835 252.638 26.6191C252.843 26.3978 252.995 26.1322 253.095 25.8223C253.2 25.5068 253.252 25.1527 253.252 24.7598V19.4639H254.697V28.4121H253.252V27.0757H253.12C252.976 27.3911 252.779 27.6623 252.53 27.8892C252.281 28.1105 251.982 28.2793 251.634 28.3955C251.291 28.5117 250.901 28.5698 250.463 28.5698ZM260.574 28.4785C259.655 28.4785 258.988 28.2931 258.573 27.9224C258.164 27.5516 257.959 26.9401 257.959 26.0879V20.6592H256.548V19.4639H257.959V17.1479H259.453V19.4639H261.412V20.6592H259.453V25.7227C259.453 26.2484 259.553 26.6274 259.752 26.8599C259.951 27.0868 260.283 27.2002 260.748 27.2002C260.875 27.2002 260.983 27.1974 261.072 27.1919C261.166 27.1864 261.279 27.1781 261.412 27.167V28.3955C261.274 28.4176 261.135 28.437 260.997 28.4536C260.859 28.4702 260.718 28.4785 260.574 28.4785ZM266.567 28.5698C265.892 28.5698 265.325 28.4425 264.865 28.188C264.406 27.9279 264.06 27.5516 263.828 27.0591C263.601 26.561 263.487 25.9606 263.487 25.2578V19.4639H264.932V24.9092C264.932 25.7116 265.087 26.3092 265.396 26.7021C265.712 27.0951 266.227 27.2915 266.94 27.2915C267.333 27.2915 267.679 27.2334 267.978 27.1172C268.282 27.001 268.537 26.835 268.742 26.6191C268.946 26.3978 269.099 26.1322 269.198 25.8223C269.303 25.5068 269.356 25.1527 269.356 24.7598V19.4639H270.8V28.4121H269.356V27.0757H269.223C269.079 27.3911 268.883 27.6623 268.634 27.8892C268.385 28.1105 268.086 28.2793 267.737 28.3955C267.394 28.5117 267.004 28.5698 266.567 28.5698ZM277.947 28.5698C277.532 28.5698 277.148 28.5062 276.793 28.3789C276.439 28.2516 276.124 28.0718 275.847 27.8394C275.57 27.6014 275.341 27.3164 275.158 26.9844H275.025V28.4121H273.581V15.9111H275.025V20.875H275.158C275.324 20.554 275.546 20.2773 275.822 20.0449C276.104 19.8125 276.425 19.6326 276.785 19.5054C277.15 19.3726 277.538 19.3062 277.947 19.3062C278.705 19.3062 279.364 19.4971 279.923 19.8789C280.487 20.2607 280.924 20.7975 281.234 21.4893C281.544 22.181 281.699 22.9945 281.699 23.9297V23.9463C281.699 24.876 281.544 25.6895 281.234 26.3867C280.924 27.0785 280.487 27.6152 279.923 27.9971C279.364 28.3789 278.705 28.5698 277.947 28.5698ZM277.615 27.2915C278.163 27.2915 278.631 27.1587 279.018 26.8931C279.405 26.6219 279.701 26.2373 279.906 25.7393C280.117 25.2357 280.222 24.638 280.222 23.9463V23.9297C280.222 23.2324 280.117 22.6348 279.906 22.1367C279.701 21.6387 279.405 21.2568 279.018 20.9912C278.631 20.7201 278.163 20.5845 277.615 20.5845C277.073 20.5845 276.605 20.7201 276.212 20.9912C275.819 21.2624 275.518 21.647 275.308 22.145C275.097 22.6431 274.992 23.238 274.992 23.9297V23.9463C274.992 24.6325 275.097 25.2274 275.308 25.731C275.518 26.229 275.819 26.6136 276.212 26.8848C276.605 27.1559 277.073 27.2915 277.615 27.2915ZM287.593 28.5698C286.741 28.5698 286.007 28.3817 285.393 28.0054C284.784 27.6291 284.314 27.0978 283.982 26.4116C283.655 25.7199 283.492 24.9064 283.492 23.9712V23.9629C283.492 23.0387 283.655 22.228 283.982 21.5308C284.314 20.8335 284.782 20.2884 285.385 19.8955C285.988 19.5026 286.694 19.3062 287.501 19.3062C288.315 19.3062 289.012 19.4943 289.593 19.8706C290.18 20.2469 290.628 20.7726 290.938 21.4478C291.253 22.1174 291.411 22.8976 291.411 23.7886V24.353H284.239V23.1992H290.672L289.958 24.2534V23.6807C289.958 22.9779 289.853 22.3996 289.643 21.9458C289.433 21.492 289.142 21.1545 288.771 20.9331C288.401 20.7062 287.975 20.5928 287.493 20.5928C287.012 20.5928 286.58 20.7118 286.198 20.9497C285.822 21.1821 285.523 21.528 285.302 21.9873C285.08 22.4466 284.97 23.0111 284.97 23.6807V24.2534C284.97 24.8898 285.078 25.4349 285.293 25.8887C285.509 26.3369 285.816 26.6828 286.215 26.9263C286.613 27.1642 287.084 27.2832 287.626 27.2832C288.03 27.2832 288.381 27.2279 288.68 27.1172C288.979 27.0065 289.225 26.8654 289.419 26.6938C289.613 26.5223 289.748 26.348 289.826 26.1709L289.859 26.0962H291.303L291.287 26.1626C291.209 26.467 291.071 26.763 290.872 27.0508C290.678 27.333 290.426 27.5903 290.116 27.8228C289.806 28.0496 289.438 28.2323 289.012 28.3706C288.592 28.5034 288.118 28.5698 287.593 28.5698ZM302.094 28.5698C301.259 28.5698 300.534 28.3789 299.919 27.9971C299.305 27.6152 298.829 27.0757 298.492 26.3784C298.154 25.6812 297.985 24.8594 297.985 23.9131V23.8965C297.985 22.9668 298.151 22.1589 298.483 21.4727C298.821 20.7865 299.297 20.2552 299.911 19.8789C300.525 19.4971 301.25 19.3062 302.086 19.3062C302.811 19.3062 303.436 19.4334 303.962 19.688C304.488 19.9425 304.908 20.2856 305.224 20.7173C305.539 21.1434 305.741 21.6221 305.83 22.1533L305.838 22.2031H304.402L304.394 22.1782C304.283 21.7355 304.031 21.3592 303.638 21.0493C303.245 20.7394 302.728 20.5845 302.086 20.5845C301.549 20.5845 301.084 20.7201 300.691 20.9912C300.299 21.2624 299.994 21.647 299.778 22.145C299.568 22.6375 299.463 23.2214 299.463 23.8965V23.9131C299.463 24.5993 299.571 25.1969 299.787 25.7061C300.002 26.2096 300.307 26.5998 300.7 26.8765C301.093 27.1532 301.555 27.2915 302.086 27.2915C302.689 27.2915 303.182 27.1615 303.563 26.9014C303.945 26.6413 304.219 26.2622 304.385 25.7642L304.402 25.7144L305.83 25.7061L305.813 25.7974C305.691 26.3341 305.475 26.8128 305.166 27.2334C304.856 27.6484 304.446 27.9749 303.937 28.2129C303.428 28.4508 302.814 28.5698 302.094 28.5698ZM308.029 28.4121V15.9111H309.474V20.8086H309.606C309.833 20.3327 310.16 19.9647 310.586 19.7046C311.012 19.439 311.554 19.3062 312.213 19.3062C312.882 19.3062 313.45 19.4362 313.915 19.6963C314.379 19.9508 314.734 20.3244 314.977 20.8169C315.221 21.3094 315.342 21.9098 315.342 22.6182V28.4121H313.898V22.9668C313.898 22.1589 313.726 21.5612 313.383 21.1738C313.046 20.7809 312.52 20.5845 311.806 20.5845C311.33 20.5845 310.918 20.6868 310.569 20.8916C310.221 21.0964 309.95 21.3869 309.756 21.7632C309.568 22.1395 309.474 22.5905 309.474 23.1162V28.4121H308.029ZM320.414 28.5698C319.85 28.5698 319.34 28.4619 318.887 28.2461C318.438 28.0303 318.082 27.7231 317.816 27.3247C317.556 26.9263 317.426 26.4559 317.426 25.9136V25.897C317.426 25.3657 317.553 24.9119 317.808 24.5356C318.062 24.1538 318.433 23.855 318.92 23.6392C319.407 23.4233 319.996 23.2961 320.688 23.2573L323.975 23.0581V24.2119L320.862 24.4111C320.182 24.4499 319.684 24.591 319.368 24.8345C319.058 25.078 318.903 25.4211 318.903 25.8638V25.8804C318.903 26.3341 319.075 26.6883 319.418 26.9429C319.761 27.1919 320.193 27.3164 320.713 27.3164C321.205 27.3164 321.643 27.2196 322.024 27.0259C322.406 26.8267 322.705 26.5583 322.921 26.2207C323.142 25.8831 323.253 25.5013 323.253 25.0752V22.2861C323.253 21.7327 323.084 21.3122 322.747 21.0244C322.415 20.7311 321.914 20.5845 321.244 20.5845C320.707 20.5845 320.267 20.6813 319.924 20.875C319.581 21.0632 319.352 21.3315 319.235 21.6802L319.227 21.7051H317.783L317.791 21.6553C317.868 21.1849 318.062 20.7754 318.372 20.4268C318.688 20.0726 319.094 19.7987 319.592 19.605C320.09 19.4058 320.658 19.3062 321.294 19.3062C322.024 19.3062 322.641 19.4251 323.145 19.6631C323.654 19.901 324.039 20.2441 324.299 20.6924C324.564 21.1351 324.697 21.6663 324.697 22.2861V28.4121H323.253V27.0923H323.12C322.932 27.4077 322.702 27.6761 322.431 27.8975C322.166 28.1188 321.864 28.2876 321.526 28.4038C321.189 28.5145 320.818 28.5698 320.414 28.5698ZM327.337 28.4121V19.4639H328.781V20.8086H328.914C329.141 20.3327 329.467 19.9647 329.894 19.7046C330.32 19.439 330.862 19.3062 331.521 19.3062C332.528 19.3062 333.3 19.5939 333.836 20.1694C334.379 20.7394 334.65 21.5557 334.65 22.6182V28.4121H333.206V22.9668C333.206 22.1589 333.034 21.5612 332.691 21.1738C332.353 20.7809 331.828 20.5845 331.114 20.5845C330.638 20.5845 330.226 20.6868 329.877 20.8916C329.528 21.0964 329.257 21.3869 329.063 21.7632C328.875 22.1395 328.781 22.5905 328.781 23.1162V28.4121H327.337ZM337.265 28.4121V19.4639H338.709V20.8086H338.842C339.069 20.3327 339.395 19.9647 339.821 19.7046C340.247 19.439 340.79 19.3062 341.448 19.3062C342.455 19.3062 343.227 19.5939 343.764 20.1694C344.306 20.7394 344.578 21.5557 344.578 22.6182V28.4121H343.133V22.9668C343.133 22.1589 342.962 21.5612 342.619 21.1738C342.281 20.7809 341.755 20.5845 341.042 20.5845C340.566 20.5845 340.153 20.6868 339.805 20.8916C339.456 21.0964 339.185 21.3869 338.991 21.7632C338.803 22.1395 338.709 22.5905 338.709 23.1162V28.4121H337.265ZM350.845 28.5698C349.993 28.5698 349.259 28.3817 348.645 28.0054C348.036 27.6291 347.566 27.0978 347.234 26.4116C346.907 25.7199 346.744 24.9064 346.744 23.9712V23.9629C346.744 23.0387 346.907 22.228 347.234 21.5308C347.566 20.8335 348.034 20.2884 348.637 19.8955C349.24 19.5026 349.945 19.3062 350.753 19.3062C351.567 19.3062 352.264 19.4943 352.845 19.8706C353.432 20.2469 353.88 20.7726 354.19 21.4478C354.505 22.1174 354.663 22.8976 354.663 23.7886V24.353H347.491V23.1992H353.924L353.21 24.2534V23.6807C353.21 22.9779 353.105 22.3996 352.895 21.9458C352.685 21.492 352.394 21.1545 352.023 20.9331C351.653 20.7062 351.227 20.5928 350.745 20.5928C350.264 20.5928 349.832 20.7118 349.45 20.9497C349.074 21.1821 348.775 21.528 348.554 21.9873C348.332 22.4466 348.222 23.0111 348.222 23.6807V24.2534C348.222 24.8898 348.33 25.4349 348.545 25.8887C348.761 26.3369 349.068 26.6828 349.467 26.9263C349.865 27.1642 350.336 27.2832 350.878 27.2832C351.282 27.2832 351.633 27.2279 351.932 27.1172C352.231 27.0065 352.477 26.8654 352.671 26.6938C352.865 26.5223 353 26.348 353.078 26.1709L353.111 26.0962H354.555L354.539 26.1626C354.461 26.467 354.323 26.763 354.124 27.0508C353.93 27.333 353.678 27.5903 353.368 27.8228C353.058 28.0496 352.69 28.2323 352.264 28.3706C351.844 28.5034 351.37 28.5698 350.845 28.5698ZM356.987 28.4121V15.9111H358.432V28.4121H356.987Z" fill="white"/>
</svg>
