<svg width="383" height="46" viewBox="0 0 383 46" fill="none" xmlns="http://www.w3.org/2000/svg">
<path fill-rule="evenodd" clip-rule="evenodd" d="M375 23C375 10.2975 364.703 0 352 0H23C10.2975 0 5.72205e-06 10.2975 5.72205e-06 23V23C5.72205e-06 35.7025 10.2975 46 23 46H352C364.703 46 375 35.7025 375 23V23Z" fill="#007AFF"/>
<path d="M374.883 24.3335C375.001 30.9366 375.446 34.9976 377.132 38.3062C378.42 40.835 380.2 43.0607 382.35 44.8647V45.3599H373.338C361.725 45.3599 352.311 35.9463 352.311 24.3335H374.883Z" fill="#007AFF"/>
<path d="M15.9463 29.4878V17.5098H17.4404V29.4878H15.9463ZM25.0938 29.4878V20.5396H26.5381V21.8843H26.6709C26.8978 21.4084 27.2243 21.0404 27.6504 20.7803C28.0765 20.5146 28.6188 20.3818 29.2773 20.3818C30.2845 20.3818 31.0565 20.6696 31.5933 21.2451C32.1356 21.8151 32.4067 22.6313 32.4067 23.6938V29.4878H30.9624V24.0425C30.9624 23.2345 30.7909 22.6369 30.4478 22.2495C30.1102 21.8566 29.5845 21.6602 28.8706 21.6602C28.3947 21.6602 27.9824 21.7625 27.6338 21.9673C27.2852 22.172 27.014 22.4626 26.8203 22.8389C26.6322 23.2152 26.5381 23.6662 26.5381 24.1919V29.4878H25.0938ZM38.6738 29.6455C37.8216 29.6455 37.0884 29.4574 36.4741 29.0811C35.8654 28.7048 35.395 28.1735 35.063 27.4873C34.7365 26.7956 34.5732 25.9821 34.5732 25.0469V25.0386C34.5732 24.1144 34.7365 23.3037 35.063 22.6064C35.395 21.9092 35.8626 21.3641 36.4658 20.9712C37.069 20.5783 37.7746 20.3818 38.5825 20.3818C39.396 20.3818 40.0933 20.57 40.6743 20.9463C41.2609 21.3226 41.7091 21.8483 42.019 22.5234C42.3345 23.193 42.4922 23.9733 42.4922 24.8643V25.4287H35.3203V24.2749H41.7534L41.0396 25.3291V24.7563C41.0396 24.0535 40.9344 23.4753 40.7241 23.0215C40.5138 22.5677 40.2233 22.2301 39.8525 22.0088C39.4818 21.7819 39.0557 21.6685 38.5742 21.6685C38.0928 21.6685 37.6611 21.7874 37.2793 22.0254C36.903 22.2578 36.6042 22.6037 36.3828 23.063C36.1615 23.5223 36.0508 24.0868 36.0508 24.7563V25.3291C36.0508 25.9655 36.1587 26.5106 36.3745 26.9644C36.5903 27.4126 36.8975 27.7585 37.2959 28.002C37.6943 28.2399 38.1647 28.3589 38.707 28.3589C39.111 28.3589 39.4624 28.3035 39.7612 28.1929C40.0601 28.0822 40.3063 27.9411 40.5 27.7695C40.6937 27.598 40.8293 27.4237 40.9067 27.2466L40.9399 27.1719H42.3843L42.3677 27.2383C42.2902 27.5426 42.1519 27.8387 41.9526 28.1265C41.759 28.4087 41.5072 28.666 41.1973 28.8984C40.8874 29.1253 40.5194 29.3079 40.0933 29.4463C39.6727 29.5791 39.1995 29.6455 38.6738 29.6455ZM48.3857 29.6455C47.5335 29.6455 46.8003 29.4574 46.186 29.0811C45.5773 28.7048 45.1069 28.1735 44.7749 27.4873C44.4484 26.7956 44.2852 25.9821 44.2852 25.0469V25.0386C44.2852 24.1144 44.4484 23.3037 44.7749 22.6064C45.1069 21.9092 45.5745 21.3641 46.1777 20.9712C46.7809 20.5783 47.4865 20.3818 48.2944 20.3818C49.1079 20.3818 49.8052 20.57 50.3862 20.9463C50.9728 21.3226 51.4211 21.8483 51.731 22.5234C52.0464 23.193 52.2041 23.9733 52.2041 24.8643V25.4287H45.0322V24.2749H51.4653L50.7515 25.3291V24.7563C50.7515 24.0535 50.6463 23.4753 50.436 23.0215C50.2257 22.5677 49.9352 22.2301 49.5645 22.0088C49.1937 21.7819 48.7676 21.6685 48.2861 21.6685C47.8047 21.6685 47.373 21.7874 46.9912 22.0254C46.6149 22.2578 46.3161 22.6037 46.0947 23.063C45.8734 23.5223 45.7627 24.0868 45.7627 24.7563V25.3291C45.7627 25.9655 45.8706 26.5106 46.0864 26.9644C46.3022 27.4126 46.6094 27.7585 47.0078 28.002C47.4062 28.2399 47.8766 28.3589 48.4189 28.3589C48.8229 28.3589 49.1743 28.3035 49.4731 28.1929C49.772 28.0822 50.0182 27.9411 50.2119 27.7695C50.4056 27.598 50.5412 27.4237 50.6187 27.2466L50.6519 27.1719H52.0962L52.0796 27.2383C52.0021 27.5426 51.8638 27.8387 51.6646 28.1265C51.4709 28.4087 51.2191 28.666 50.9092 28.8984C50.5993 29.1253 50.2313 29.3079 49.8052 29.4463C49.3846 29.5791 48.9115 29.6455 48.3857 29.6455ZM57.749 29.6455C56.9964 29.6455 56.3379 29.4546 55.7734 29.0728C55.209 28.6909 54.7718 28.1541 54.4619 27.4624C54.152 26.7651 53.9971 25.9517 53.9971 25.022V25.0054C53.9971 24.0701 54.152 23.2567 54.4619 22.5649C54.7718 21.8732 55.2062 21.3364 55.7651 20.9546C56.3296 20.5728 56.9909 20.3818 57.749 20.3818C58.1585 20.3818 58.5431 20.4482 58.9028 20.5811C59.2681 20.7083 59.5918 20.8882 59.874 21.1206C60.1562 21.353 60.3776 21.6297 60.5381 21.9507H60.6709V16.9868H62.1152V29.4878H60.6709V28.0601H60.5381C60.3555 28.3921 60.1258 28.6771 59.8491 28.915C59.5724 29.1475 59.257 29.3273 58.9028 29.4546C58.5487 29.5819 58.1641 29.6455 57.749 29.6455ZM58.0811 28.3672C58.6234 28.3672 59.091 28.2316 59.4839 27.9604C59.8768 27.6893 60.1784 27.3047 60.3887 26.8066C60.599 26.3031 60.7041 25.7082 60.7041 25.022V25.0054C60.7041 24.3136 60.599 23.7188 60.3887 23.2207C60.1784 22.7227 59.8768 22.3381 59.4839 22.0669C59.091 21.7957 58.6234 21.6602 58.0811 21.6602C57.5387 21.6602 57.0711 21.7957 56.6782 22.0669C56.2909 22.3325 55.992 22.7144 55.7817 23.2124C55.577 23.7104 55.4746 24.3081 55.4746 25.0054V25.022C55.4746 25.7137 55.577 26.3114 55.7817 26.8149C55.992 27.313 56.2909 27.6976 56.6782 27.9688C57.0711 28.2344 57.5387 28.3672 58.0811 28.3672ZM72.8481 29.5542C71.9295 29.5542 71.2627 29.3688 70.8477 28.998C70.4382 28.6273 70.2334 28.0158 70.2334 27.1636V21.7349H68.8223V20.5396H70.2334V18.2236H71.7275V20.5396H73.6865V21.7349H71.7275V26.7983C71.7275 27.3241 71.8271 27.7031 72.0264 27.9355C72.2256 28.1624 72.5576 28.2759 73.0225 28.2759C73.1497 28.2759 73.2576 28.2731 73.3462 28.2676C73.4403 28.262 73.5537 28.2537 73.6865 28.2427V29.4712C73.5482 29.4933 73.4098 29.5127 73.2715 29.5293C73.1331 29.5459 72.992 29.5542 72.8481 29.5542ZM79.4058 29.6455C78.5591 29.6455 77.8258 29.4601 77.2061 29.0894C76.5918 28.7131 76.1159 28.179 75.7783 27.4873C75.4463 26.7956 75.2803 25.9738 75.2803 25.022V25.0054C75.2803 24.048 75.4463 23.2235 75.7783 22.5317C76.1159 21.84 76.5918 21.3088 77.2061 20.938C77.8258 20.5672 78.5591 20.3818 79.4058 20.3818C80.258 20.3818 80.9912 20.5672 81.6055 20.938C82.2197 21.3088 82.6929 21.84 83.0249 22.5317C83.3625 23.2235 83.5312 24.048 83.5312 25.0054V25.022C83.5312 25.9738 83.3625 26.7956 83.0249 27.4873C82.6929 28.179 82.2197 28.7131 81.6055 29.0894C80.9912 29.4601 80.258 29.6455 79.4058 29.6455ZM79.4058 28.3672C79.9702 28.3672 80.4489 28.2344 80.8418 27.9688C81.2347 27.7031 81.5335 27.3213 81.7383 26.8232C81.9486 26.3252 82.0537 25.7248 82.0537 25.022V25.0054C82.0537 24.297 81.9486 23.6938 81.7383 23.1958C81.5335 22.6978 81.2347 22.3187 80.8418 22.0586C80.4489 21.793 79.9702 21.6602 79.4058 21.6602C78.8413 21.6602 78.3626 21.793 77.9697 22.0586C77.5768 22.3187 77.2752 22.6978 77.0649 23.1958C76.8602 23.6938 76.7578 24.297 76.7578 25.0054V25.022C76.7578 25.7248 76.8602 26.3252 77.0649 26.8232C77.2752 27.3213 77.5768 27.7031 77.9697 27.9688C78.3626 28.2344 78.8413 28.3672 79.4058 28.3672ZM93.625 29.6455C92.9609 29.6455 92.3743 29.5459 91.8652 29.3467C91.3561 29.1419 90.9466 28.8569 90.6367 28.4917C90.3324 28.1265 90.1525 27.6976 90.0972 27.2051H91.5747C91.6965 27.5758 91.9344 27.8747 92.2886 28.1016C92.6427 28.3285 93.1048 28.4419 93.6748 28.4419C94.0788 28.4419 94.4329 28.3838 94.7373 28.2676C95.0472 28.1458 95.2907 27.9826 95.4678 27.7778C95.6449 27.5675 95.7334 27.3268 95.7334 27.0557V27.0391C95.7334 26.7347 95.6117 26.4774 95.3682 26.2671C95.1247 26.0513 94.7262 25.877 94.1729 25.7441L92.7866 25.4121C92.2277 25.2793 91.7684 25.1077 91.4087 24.8975C91.049 24.6816 90.7834 24.4188 90.6118 24.1089C90.4403 23.7935 90.3545 23.4227 90.3545 22.9966V22.9883C90.3545 22.4902 90.4984 22.0448 90.7861 21.6519C91.0794 21.259 91.4779 20.9491 91.9814 20.7222C92.485 20.4953 93.0522 20.3818 93.6831 20.3818C94.3084 20.3818 94.8618 20.4814 95.3433 20.6807C95.8302 20.8743 96.2204 21.151 96.5137 21.5107C96.8125 21.8704 96.9951 22.2938 97.0615 22.7808H95.6421C95.548 22.4266 95.3322 22.1388 94.9946 21.9175C94.6571 21.6961 94.2171 21.5854 93.6748 21.5854C93.3206 21.5854 93.0052 21.6436 92.7285 21.7598C92.4518 21.8704 92.2332 22.0254 92.0728 22.2246C91.9123 22.4238 91.832 22.6562 91.832 22.9219V22.9385C91.832 23.1377 91.8846 23.3148 91.9897 23.4697C92.0949 23.6247 92.2581 23.7603 92.4795 23.8765C92.7008 23.9927 92.9858 24.0951 93.3345 24.1836L94.7124 24.5156C95.5535 24.7204 96.1789 25.0137 96.5884 25.3955C97.0034 25.7773 97.2109 26.2892 97.2109 26.9312V26.9478C97.2109 27.479 97.0532 27.9494 96.7378 28.3589C96.4224 28.7629 95.9935 29.0783 95.4512 29.3052C94.9144 29.5321 94.3057 29.6455 93.625 29.6455ZM99.5352 29.4878V16.9868H100.979V21.8843H101.112C101.339 21.4084 101.666 21.0404 102.092 20.7803C102.518 20.5146 103.06 20.3818 103.719 20.3818C104.388 20.3818 104.956 20.5119 105.42 20.772C105.885 21.0265 106.239 21.4001 106.483 21.8926C106.726 22.3851 106.848 22.9855 106.848 23.6938V29.4878H105.404V24.0425C105.404 23.2345 105.232 22.6369 104.889 22.2495C104.552 21.8566 104.026 21.6602 103.312 21.6602C102.836 21.6602 102.424 21.7625 102.075 21.9673C101.727 22.172 101.455 22.4626 101.262 22.8389C101.074 23.2152 100.979 23.6662 100.979 24.1919V29.4878H99.5352ZM109.496 29.4878V20.5396H110.94V29.4878H109.496ZM110.227 18.813C109.955 18.813 109.72 18.7161 109.521 18.5225C109.327 18.3232 109.23 18.0881 109.23 17.8169C109.23 17.5402 109.327 17.305 109.521 17.1113C109.72 16.9176 109.955 16.8208 110.227 16.8208C110.503 16.8208 110.738 16.9176 110.932 17.1113C111.126 17.305 111.223 17.5402 111.223 17.8169C111.223 18.0881 111.126 18.3232 110.932 18.5225C110.738 18.7161 110.503 18.813 110.227 18.813ZM113.663 32.4761V20.5396H115.107V21.9673H115.24C115.423 21.6353 115.653 21.353 115.929 21.1206C116.206 20.8826 116.521 20.7 116.875 20.5728C117.23 20.4455 117.614 20.3818 118.029 20.3818C118.787 20.3818 119.446 20.5755 120.005 20.9629C120.569 21.3447 121.007 21.8815 121.316 22.5732C121.626 23.265 121.781 24.0757 121.781 25.0054V25.022C121.781 25.9572 121.626 26.7707 121.316 27.4624C121.007 28.1541 120.569 28.6909 120.005 29.0728C119.446 29.4546 118.787 29.6455 118.029 29.6455C117.62 29.6455 117.232 29.5819 116.867 29.4546C116.507 29.3218 116.187 29.1392 115.904 28.9067C115.628 28.6743 115.406 28.3976 115.24 28.0767H115.107V32.4761H113.663ZM117.697 28.3672C118.245 28.3672 118.713 28.2344 119.1 27.9688C119.487 27.6976 119.784 27.313 119.988 26.8149C120.199 26.3114 120.304 25.7137 120.304 25.022V25.0054C120.304 24.3081 120.199 23.7104 119.988 23.2124C119.784 22.7144 119.487 22.3325 119.1 22.0669C118.713 21.7957 118.245 21.6602 117.697 21.6602C117.155 21.6602 116.687 21.7957 116.294 22.0669C115.902 22.3381 115.6 22.7227 115.39 23.2207C115.179 23.7188 115.074 24.3136 115.074 25.0054V25.022C115.074 25.7082 115.179 26.3031 115.39 26.8066C115.6 27.3047 115.902 27.6893 116.294 27.9604C116.687 28.2316 117.155 28.3672 117.697 28.3672ZM131.277 29.6455C130.713 29.6455 130.204 29.5376 129.75 29.3218C129.302 29.106 128.945 28.7988 128.679 28.4004C128.419 28.002 128.289 27.5316 128.289 26.9893V26.9727C128.289 26.4414 128.416 25.9876 128.671 25.6113C128.925 25.2295 129.296 24.9307 129.783 24.7148C130.27 24.499 130.86 24.3717 131.551 24.333L134.838 24.1338V25.2876L131.726 25.4868C131.045 25.5256 130.547 25.6667 130.231 25.9102C129.922 26.1536 129.767 26.4967 129.767 26.9395V26.9561C129.767 27.4098 129.938 27.764 130.281 28.0186C130.624 28.2676 131.056 28.3921 131.576 28.3921C132.069 28.3921 132.506 28.2952 132.888 28.1016C133.27 27.9023 133.568 27.634 133.784 27.2964C134.006 26.9588 134.116 26.577 134.116 26.1509V23.3618C134.116 22.8084 133.947 22.3879 133.61 22.1001C133.278 21.8068 132.777 21.6602 132.107 21.6602C131.571 21.6602 131.131 21.757 130.788 21.9507C130.444 22.1388 130.215 22.4072 130.099 22.7559L130.09 22.7808H128.646L128.654 22.731C128.732 22.2606 128.925 21.8511 129.235 21.5024C129.551 21.1483 129.958 20.8743 130.456 20.6807C130.954 20.4814 131.521 20.3818 132.157 20.3818C132.888 20.3818 133.505 20.5008 134.008 20.7388C134.517 20.9767 134.902 21.3198 135.162 21.7681C135.428 22.2108 135.561 22.742 135.561 23.3618V29.4878H134.116V28.168H133.983C133.795 28.4834 133.566 28.7518 133.294 28.9731C133.029 29.1945 132.727 29.3633 132.39 29.4795C132.052 29.5902 131.681 29.6455 131.277 29.6455ZM138.2 29.4878V20.5396H139.645V21.8843H139.777C140.004 21.4084 140.331 21.0404 140.757 20.7803C141.183 20.5146 141.725 20.3818 142.384 20.3818C143.391 20.3818 144.163 20.6696 144.7 21.2451C145.242 21.8151 145.513 22.6313 145.513 23.6938V29.4878H144.069V24.0425C144.069 23.2345 143.897 22.6369 143.554 22.2495C143.217 21.8566 142.691 21.6602 141.977 21.6602C141.501 21.6602 141.089 21.7625 140.74 21.9673C140.392 22.172 140.12 22.4626 139.927 22.8389C139.739 23.2152 139.645 23.6662 139.645 24.1919V29.4878H138.2ZM153.092 29.4878V17.5098H154.827L158.927 27.5039H159.06L163.161 17.5098H164.896V29.4878H163.501V20.3403H162.771L164.447 17.8418L159.625 29.4878H158.363L153.548 17.8418L155.217 20.3403H154.486V29.4878H153.092ZM171.412 29.4878L166.996 17.5098H168.564L172.084 27.5537H172.217L175.736 17.5098H177.305L172.889 29.4878H171.412ZM180.152 25.2129V23.8848H183.539C184.397 23.8848 185.061 23.6634 185.531 23.2207C186.002 22.7725 186.237 22.1554 186.237 21.3696V21.353C186.237 20.5617 186.002 19.9447 185.531 19.502C185.061 19.0592 184.397 18.8379 183.539 18.8379H180.152V17.5098H183.921C184.674 17.5098 185.338 17.6702 185.913 17.9912C186.489 18.3122 186.94 18.7604 187.266 19.3359C187.598 19.9115 187.764 20.5783 187.764 21.3364V21.353C187.764 22.1112 187.598 22.7808 187.266 23.3618C186.94 23.9429 186.489 24.3966 185.913 24.7231C185.338 25.0496 184.674 25.2129 183.921 25.2129H180.152ZM179.405 29.4878V17.5098H180.899V29.4878H179.405ZM194.845 29.4878V20.5396H196.289V29.4878H194.845ZM195.575 18.813C195.304 18.813 195.069 18.7161 194.87 18.5225C194.676 18.3232 194.579 18.0881 194.579 17.8169C194.579 17.5402 194.676 17.305 194.87 17.1113C195.069 16.9176 195.304 16.8208 195.575 16.8208C195.852 16.8208 196.087 16.9176 196.281 17.1113C196.474 17.305 196.571 17.5402 196.571 17.8169C196.571 18.0881 196.474 18.3232 196.281 18.5225C196.087 18.7161 195.852 18.813 195.575 18.813ZM199.012 29.4878V20.5396H200.456V21.8843H200.589C200.816 21.4084 201.142 21.0404 201.568 20.7803C201.994 20.5146 202.537 20.3818 203.195 20.3818C204.202 20.3818 204.974 20.6696 205.511 21.2451C206.054 21.8151 206.325 22.6313 206.325 23.6938V29.4878H204.88V24.0425C204.88 23.2345 204.709 22.6369 204.366 22.2495C204.028 21.8566 203.502 21.6602 202.789 21.6602C202.313 21.6602 201.9 21.7625 201.552 21.9673C201.203 22.172 200.932 22.4626 200.738 22.8389C200.55 23.2152 200.456 23.6662 200.456 24.1919V29.4878H199.012ZM217.398 29.6455C216.551 29.6455 215.818 29.4601 215.198 29.0894C214.584 28.7131 214.108 28.179 213.771 27.4873C213.438 26.7956 213.272 25.9738 213.272 25.022V25.0054C213.272 24.048 213.438 23.2235 213.771 22.5317C214.108 21.84 214.584 21.3088 215.198 20.938C215.818 20.5672 216.551 20.3818 217.398 20.3818C218.25 20.3818 218.983 20.5672 219.598 20.938C220.212 21.3088 220.685 21.84 221.017 22.5317C221.355 23.2235 221.523 24.048 221.523 25.0054V25.022C221.523 25.9738 221.355 26.7956 221.017 27.4873C220.685 28.179 220.212 28.7131 219.598 29.0894C218.983 29.4601 218.25 29.6455 217.398 29.6455ZM217.398 28.3672C217.962 28.3672 218.441 28.2344 218.834 27.9688C219.227 27.7031 219.526 27.3213 219.73 26.8232C219.941 26.3252 220.046 25.7248 220.046 25.022V25.0054C220.046 24.297 219.941 23.6938 219.73 23.1958C219.526 22.6978 219.227 22.3187 218.834 22.0586C218.441 21.793 217.962 21.6602 217.398 21.6602C216.833 21.6602 216.355 21.793 215.962 22.0586C215.569 22.3187 215.267 22.6978 215.057 23.1958C214.852 23.6938 214.75 24.297 214.75 25.0054V25.022C214.75 25.7248 214.852 26.3252 215.057 26.8232C215.267 27.3213 215.569 27.7031 215.962 27.9688C216.355 28.2344 216.833 28.3672 217.398 28.3672ZM223.765 29.4878V20.5396H225.209V21.8843H225.342C225.569 21.4084 225.895 21.0404 226.321 20.7803C226.747 20.5146 227.29 20.3818 227.948 20.3818C228.955 20.3818 229.727 20.6696 230.264 21.2451C230.806 21.8151 231.078 22.6313 231.078 23.6938V29.4878H229.633V24.0425C229.633 23.2345 229.462 22.6369 229.119 22.2495C228.781 21.8566 228.255 21.6602 227.542 21.6602C227.066 21.6602 226.653 21.7625 226.305 21.9673C225.956 22.172 225.685 22.4626 225.491 22.8389C225.303 23.2152 225.209 23.6662 225.209 24.1919V29.4878H223.765ZM237.345 29.6455C236.493 29.6455 235.759 29.4574 235.145 29.0811C234.536 28.7048 234.066 28.1735 233.734 27.4873C233.407 26.7956 233.244 25.9821 233.244 25.0469V25.0386C233.244 24.1144 233.407 23.3037 233.734 22.6064C234.066 21.9092 234.534 21.3641 235.137 20.9712C235.74 20.5783 236.445 20.3818 237.253 20.3818C238.067 20.3818 238.764 20.57 239.345 20.9463C239.932 21.3226 240.38 21.8483 240.69 22.5234C241.005 23.193 241.163 23.9733 241.163 24.8643V25.4287H233.991V24.2749H240.424L239.71 25.3291V24.7563C239.71 24.0535 239.605 23.4753 239.395 23.0215C239.185 22.5677 238.894 22.2301 238.523 22.0088C238.153 21.7819 237.727 21.6685 237.245 21.6685C236.764 21.6685 236.332 21.7874 235.95 22.0254C235.574 22.2578 235.275 22.6037 235.054 23.063C234.832 23.5223 234.722 24.0868 234.722 24.7563V25.3291C234.722 25.9655 234.83 26.5106 235.045 26.9644C235.261 27.4126 235.568 27.7585 235.967 28.002C236.365 28.2399 236.836 28.3589 237.378 28.3589C237.782 28.3589 238.133 28.3035 238.432 28.1929C238.731 28.0822 238.977 27.9411 239.171 27.7695C239.365 27.598 239.5 27.4237 239.578 27.2466L239.611 27.1719H241.055L241.039 27.2383C240.961 27.5426 240.823 27.8387 240.624 28.1265C240.43 28.4087 240.178 28.666 239.868 28.8984C239.558 29.1253 239.19 29.3079 238.764 29.4463C238.344 29.5791 237.87 29.6455 237.345 29.6455ZM248.186 29.4878V20.5396H249.63V21.9009H249.763C249.962 21.4194 250.266 21.0459 250.676 20.7803C251.091 20.5146 251.592 20.3818 252.178 20.3818C252.582 20.3818 252.945 20.4482 253.266 20.5811C253.587 20.7139 253.863 20.8993 254.096 21.1372C254.328 21.3696 254.514 21.6408 254.652 21.9507H254.785C254.945 21.6353 255.161 21.3613 255.432 21.1289C255.703 20.891 256.016 20.7083 256.37 20.5811C256.73 20.4482 257.114 20.3818 257.524 20.3818C258.133 20.3818 258.647 20.4953 259.068 20.7222C259.494 20.9491 259.818 21.2811 260.039 21.7183C260.26 22.1499 260.371 22.6784 260.371 23.3037V29.4878H258.927V23.6357C258.927 23.193 258.858 22.8278 258.719 22.54C258.586 22.2467 258.382 22.0282 258.105 21.8843C257.828 21.7349 257.48 21.6602 257.059 21.6602C256.644 21.6602 256.282 21.7542 255.972 21.9424C255.662 22.1305 255.421 22.3823 255.25 22.6978C255.078 23.0076 254.992 23.3535 254.992 23.7354V29.4878H253.548V23.4116C253.548 23.0575 253.47 22.7503 253.315 22.4902C253.166 22.2246 252.95 22.0199 252.668 21.876C252.391 21.7321 252.065 21.6602 251.688 21.6602C251.301 21.6602 250.95 21.7625 250.634 21.9673C250.324 22.172 250.078 22.4487 249.896 22.7974C249.718 23.1405 249.63 23.5223 249.63 23.9429V29.4878H248.186ZM266.655 29.6455C265.808 29.6455 265.075 29.4601 264.455 29.0894C263.841 28.7131 263.365 28.179 263.027 27.4873C262.695 26.7956 262.529 25.9738 262.529 25.022V25.0054C262.529 24.048 262.695 23.2235 263.027 22.5317C263.365 21.84 263.841 21.3088 264.455 20.938C265.075 20.5672 265.808 20.3818 266.655 20.3818C267.507 20.3818 268.24 20.5672 268.854 20.938C269.469 21.3088 269.942 21.84 270.274 22.5317C270.611 23.2235 270.78 24.048 270.78 25.0054V25.022C270.78 25.9738 270.611 26.7956 270.274 27.4873C269.942 28.179 269.469 28.7131 268.854 29.0894C268.24 29.4601 267.507 29.6455 266.655 29.6455ZM266.655 28.3672C267.219 28.3672 267.698 28.2344 268.091 27.9688C268.484 27.7031 268.783 27.3213 268.987 26.8232C269.198 26.3252 269.303 25.7248 269.303 25.022V25.0054C269.303 24.297 269.198 23.6938 268.987 23.1958C268.783 22.6978 268.484 22.3187 268.091 22.0586C267.698 21.793 267.219 21.6602 266.655 21.6602C266.09 21.6602 265.612 21.793 265.219 22.0586C264.826 22.3187 264.524 22.6978 264.314 23.1958C264.109 23.6938 264.007 24.297 264.007 25.0054V25.022C264.007 25.7248 264.109 26.3252 264.314 26.8232C264.524 27.3213 264.826 27.7031 265.219 27.9688C265.612 28.2344 266.09 28.3672 266.655 28.3672ZM273.021 29.4878V20.5396H274.466V21.8843H274.599C274.826 21.4084 275.152 21.0404 275.578 20.7803C276.004 20.5146 276.547 20.3818 277.205 20.3818C278.212 20.3818 278.984 20.6696 279.521 21.2451C280.063 21.8151 280.334 22.6313 280.334 23.6938V29.4878H278.89V24.0425C278.89 23.2345 278.719 22.6369 278.375 22.2495C278.038 21.8566 277.512 21.6602 276.798 21.6602C276.322 21.6602 275.91 21.7625 275.562 21.9673C275.213 22.172 274.942 22.4626 274.748 22.8389C274.56 23.2152 274.466 23.6662 274.466 24.1919V29.4878H273.021ZM286.128 29.5542C285.21 29.5542 284.543 29.3688 284.128 28.998C283.718 28.6273 283.514 28.0158 283.514 27.1636V21.7349H282.103V20.5396H283.514V18.2236H285.008V20.5396H286.967V21.7349H285.008V26.7983C285.008 27.3241 285.107 27.7031 285.307 27.9355C285.506 28.1624 285.838 28.2759 286.303 28.2759C286.43 28.2759 286.538 28.2731 286.626 28.2676C286.721 28.262 286.834 28.2537 286.967 28.2427V29.4712C286.828 29.4933 286.69 29.5127 286.552 29.5293C286.413 29.5459 286.272 29.5542 286.128 29.5542ZM289.208 29.4878V16.9868H290.652V21.8843H290.785C291.012 21.4084 291.339 21.0404 291.765 20.7803C292.191 20.5146 292.733 20.3818 293.392 20.3818C294.061 20.3818 294.628 20.5119 295.093 20.772C295.558 21.0265 295.912 21.4001 296.156 21.8926C296.399 22.3851 296.521 22.9855 296.521 23.6938V29.4878H295.077V24.0425C295.077 23.2345 294.905 22.6369 294.562 22.2495C294.224 21.8566 293.699 21.6602 292.985 21.6602C292.509 21.6602 292.097 21.7625 291.748 21.9673C291.399 22.172 291.128 22.4626 290.935 22.8389C290.746 23.2152 290.652 23.6662 290.652 24.1919V29.4878H289.208ZM298.771 32.5342L299.493 27.811H301.145L299.841 32.5342H298.771ZM309.047 29.4878V16.9868H310.491V21.8843H310.624C310.851 21.4084 311.177 21.0404 311.604 20.7803C312.03 20.5146 312.572 20.3818 313.23 20.3818C313.9 20.3818 314.467 20.5119 314.932 20.772C315.397 21.0265 315.751 21.4001 315.995 21.8926C316.238 22.3851 316.36 22.9855 316.36 23.6938V29.4878H314.916V24.0425C314.916 23.2345 314.744 22.6369 314.401 22.2495C314.063 21.8566 313.538 21.6602 312.824 21.6602C312.348 21.6602 311.936 21.7625 311.587 21.9673C311.238 22.172 310.967 22.4626 310.773 22.8389C310.585 23.2152 310.491 23.6662 310.491 24.1919V29.4878H309.047ZM322.627 29.6455C321.775 29.6455 321.042 29.4574 320.427 29.0811C319.819 28.7048 319.348 28.1735 319.016 27.4873C318.69 26.7956 318.526 25.9821 318.526 25.0469V25.0386C318.526 24.1144 318.69 23.3037 319.016 22.6064C319.348 21.9092 319.816 21.3641 320.419 20.9712C321.022 20.5783 321.728 20.3818 322.536 20.3818C323.349 20.3818 324.046 20.57 324.627 20.9463C325.214 21.3226 325.662 21.8483 325.972 22.5234C326.288 23.193 326.445 23.9733 326.445 24.8643V25.4287H319.273V24.2749H325.707L324.993 25.3291V24.7563C324.993 24.0535 324.888 23.4753 324.677 23.0215C324.467 22.5677 324.176 22.2301 323.806 22.0088C323.435 21.7819 323.009 21.6685 322.527 21.6685C322.046 21.6685 321.614 21.7874 321.232 22.0254C320.856 22.2578 320.557 22.6037 320.336 23.063C320.115 23.5223 320.004 24.0868 320.004 24.7563V25.3291C320.004 25.9655 320.112 26.5106 320.328 26.9644C320.543 27.4126 320.851 27.7585 321.249 28.002C321.647 28.2399 322.118 28.3589 322.66 28.3589C323.064 28.3589 323.416 28.3035 323.714 28.1929C324.013 28.0822 324.259 27.9411 324.453 27.7695C324.647 27.598 324.782 27.4237 324.86 27.2466L324.893 27.1719H326.337L326.321 27.2383C326.243 27.5426 326.105 27.8387 325.906 28.1265C325.712 28.4087 325.46 28.666 325.15 28.8984C324.84 29.1253 324.472 29.3079 324.046 29.4463C323.626 29.5791 323.153 29.6455 322.627 29.6455ZM328.77 29.4878V16.9868H330.214V29.4878H328.77ZM332.986 32.4761V20.5396H334.431V21.9673H334.563C334.746 21.6353 334.976 21.353 335.252 21.1206C335.529 20.8826 335.845 20.7 336.199 20.5728C336.553 20.4455 336.938 20.3818 337.353 20.3818C338.111 20.3818 338.769 20.5755 339.328 20.9629C339.893 21.3447 340.33 21.8815 340.64 22.5732C340.95 23.265 341.104 24.0757 341.104 25.0054V25.022C341.104 25.9572 340.95 26.7707 340.64 27.4624C340.33 28.1541 339.893 28.6909 339.328 29.0728C338.769 29.4546 338.111 29.6455 337.353 29.6455C336.943 29.6455 336.556 29.5819 336.19 29.4546C335.831 29.3218 335.51 29.1392 335.228 28.9067C334.951 28.6743 334.729 28.3976 334.563 28.0767H334.431V32.4761H332.986ZM337.021 28.3672C337.568 28.3672 338.036 28.2344 338.423 27.9688C338.811 27.6976 339.107 27.313 339.312 26.8149C339.522 26.3114 339.627 25.7137 339.627 25.022V25.0054C339.627 24.3081 339.522 23.7104 339.312 23.2124C339.107 22.7144 338.811 22.3325 338.423 22.0669C338.036 21.7957 337.568 21.6602 337.021 21.6602C336.478 21.6602 336.011 21.7957 335.618 22.0669C335.225 22.3381 334.923 22.7227 334.713 23.2207C334.503 23.7188 334.397 24.3136 334.397 25.0054V25.022C334.397 25.7082 334.503 26.3031 334.713 26.8066C334.923 27.3047 335.225 27.6893 335.618 27.9604C336.011 28.2316 336.478 28.3672 337.021 28.3672Z" fill="white"/>
</svg>
