<svg width="410" height="46" viewBox="0 0 410 46" fill="none" xmlns="http://www.w3.org/2000/svg">
<path fill-rule="evenodd" clip-rule="evenodd" d="M402.356 22.7993C402.356 10.2076 392.149 0 379.557 0H22.7988C10.207 0 -0.000531673 10.2076 -0.000531673 22.7993V22.7993C-0.000531673 35.3911 10.2071 45.5987 22.7988 45.5987H379.557C392.149 45.5987 402.356 35.3911 402.356 22.7993V22.7993Z" fill="#007AFF"/>
<path d="M401.687 24.3497C401.803 30.8759 402.242 34.8893 403.908 38.1593C405.182 40.6588 406.941 42.8587 409.065 44.6417V45.131H400.159C388.682 45.131 379.377 35.8272 379.377 24.3497H401.687Z" fill="#007AFF"/>
<path d="M15.7843 28.4122V16.3641H17.2872V28.4122H15.7843ZM26.722 28.4122L24.2005 19.4116H25.6533L27.4233 26.6088H27.5569L29.5691 19.4116H30.9468L32.959 26.6088H33.0926L34.8626 19.4116H36.3071L33.7856 28.4122H32.3244L30.3122 21.4489H30.1786L28.1748 28.4122H26.722ZM40.4484 28.5709C39.8806 28.5709 39.3685 28.4623 38.9121 28.2452C38.4612 28.0282 38.1022 27.7192 37.835 27.3185C37.5734 26.9177 37.4426 26.4446 37.4426 25.8991V25.8824C37.4426 25.348 37.5706 24.8916 37.8267 24.5131C38.0827 24.129 38.4556 23.8284 38.9455 23.6113C39.4353 23.3943 40.0281 23.2662 40.7239 23.2273L44.0302 23.0269V24.1875L40.8992 24.3878C40.2146 24.4268 39.7136 24.5687 39.3963 24.8137C39.0846 25.0586 38.9288 25.4037 38.9288 25.849V25.8657C38.9288 26.3221 39.1013 26.6783 39.4464 26.9344C39.7915 27.1849 40.2257 27.3101 40.7489 27.3101C41.2443 27.3101 41.6841 27.2127 42.0681 27.0179C42.4522 26.8175 42.7528 26.5475 42.9699 26.208C43.1925 25.8685 43.3038 25.4844 43.3038 25.0558V22.2504C43.3038 21.6938 43.1341 21.2707 42.7945 20.9813C42.4606 20.6863 41.9568 20.5388 41.2833 20.5388C40.7434 20.5388 40.3009 20.6362 39.9557 20.831C39.6106 21.0203 39.3796 21.2902 39.2627 21.6409L39.2544 21.6659H37.8016L37.81 21.6158C37.8879 21.1427 38.0827 20.7308 38.3944 20.3801C38.7117 20.0239 39.1208 19.7484 39.6218 19.5536C40.1227 19.3532 40.6933 19.253 41.3334 19.253C42.0681 19.253 42.6888 19.3727 43.1953 19.612C43.7074 19.8513 44.0942 20.1965 44.3559 20.6473C44.623 21.0926 44.7566 21.627 44.7566 22.2504V28.4122H43.3038V27.0847H43.1703C42.981 27.402 42.75 27.6719 42.4773 27.8946C42.2101 28.1172 41.9067 28.287 41.5672 28.4039C41.2276 28.5152 40.8547 28.5709 40.4484 28.5709ZM47.4117 28.4122V19.4116H48.8645V20.7642H48.9981C49.2263 20.2855 49.5547 19.9154 49.9833 19.6537C50.4119 19.3866 50.9574 19.253 51.6198 19.253C52.6329 19.253 53.4094 19.5424 53.9493 20.1213C54.4948 20.6946 54.7675 21.5157 54.7675 22.5844V28.4122H53.3147V22.935C53.3147 22.1224 53.1422 21.5212 52.7971 21.1316C52.4575 20.7364 51.9287 20.5388 51.2107 20.5388C50.732 20.5388 50.3173 20.6418 49.9666 20.8477C49.616 21.0537 49.3432 21.3459 49.1484 21.7244C48.9591 22.1029 48.8645 22.5565 48.8645 23.0853V28.4122H47.4117ZM60.5787 28.479C59.6547 28.479 58.984 28.2926 58.5665 27.9196C58.1546 27.5467 57.9486 26.9316 57.9486 26.0744V20.6139H56.5292V19.4116H57.9486V17.0821H59.4515V19.4116H61.422V20.6139H59.4515V25.707C59.4515 26.2358 59.5517 26.6171 59.7521 26.8509C59.9525 27.0791 60.2865 27.1932 60.754 27.1932C60.882 27.1932 60.9906 27.1904 61.0796 27.1849C61.1743 27.1793 61.2884 27.171 61.422 27.1598V28.3955C61.2828 28.4178 61.1437 28.4373 61.0045 28.454C60.8653 28.4707 60.7234 28.479 60.5787 28.479ZM71.5998 28.479C70.6759 28.479 70.0051 28.2926 69.5876 27.9196C69.1757 27.5467 68.9698 26.9316 68.9698 26.0744V20.6139H67.5504V19.4116H68.9698V17.0821H70.4727V19.4116H72.4431V20.6139H70.4727V25.707C70.4727 26.2358 70.5729 26.6171 70.7733 26.8509C70.9736 27.0791 71.3076 27.1932 71.7752 27.1932C71.9032 27.1932 72.0117 27.1904 72.1008 27.1849C72.1954 27.1793 72.3095 27.171 72.4431 27.1598V28.3955C72.304 28.4178 72.1648 28.4373 72.0257 28.454C71.8865 28.4707 71.7446 28.479 71.5998 28.479ZM78.1791 28.5709C77.3275 28.5709 76.59 28.3844 75.9666 28.0115C75.3487 27.633 74.87 27.0958 74.5305 26.4C74.1965 25.7043 74.0295 24.8777 74.0295 23.9203V23.9036C74.0295 22.9406 74.1965 22.1112 74.5305 21.4155C74.87 20.7197 75.3487 20.1853 75.9666 19.8124C76.59 19.4394 77.3275 19.253 78.1791 19.253C79.0363 19.253 79.7739 19.4394 80.3917 19.8124C81.0096 20.1853 81.4855 20.7197 81.8195 21.4155C82.159 22.1112 82.3288 22.9406 82.3288 23.9036V23.9203C82.3288 24.8777 82.159 25.7043 81.8195 26.4C81.4855 27.0958 81.0096 27.633 80.3917 28.0115C79.7739 28.3844 79.0363 28.5709 78.1791 28.5709ZM78.1791 27.2851C78.7469 27.2851 79.2284 27.1515 79.6236 26.8843C80.0188 26.6171 80.3194 26.233 80.5253 25.7321C80.7368 25.2311 80.8426 24.6272 80.8426 23.9203V23.9036C80.8426 23.1911 80.7368 22.5844 80.5253 22.0834C80.3194 21.5824 80.0188 21.2012 79.6236 20.9395C79.2284 20.6724 78.7469 20.5388 78.1791 20.5388C77.6114 20.5388 77.1299 20.6724 76.7347 20.9395C76.3395 21.2012 76.0361 21.5824 75.8246 22.0834C75.6187 22.5844 75.5157 23.1911 75.5157 23.9036V23.9203C75.5157 24.6272 75.6187 25.2311 75.8246 25.7321C76.0361 26.233 76.3395 26.6171 76.7347 26.8843C77.1299 27.1515 77.6114 27.2851 78.1791 27.2851ZM89.3923 28.4122V19.4116H90.8451V20.7809H90.9787C91.1791 20.2966 91.4853 19.9209 91.8972 19.6537C92.3146 19.3866 92.8184 19.253 93.4084 19.253C93.8147 19.253 94.1793 19.3198 94.5022 19.4534C94.825 19.587 95.1033 19.7734 95.3371 20.0128C95.5709 20.2466 95.7573 20.5193 95.8965 20.831H96.0301C96.1915 20.5137 96.4086 20.2382 96.6813 20.0044C96.9541 19.7651 97.2686 19.5814 97.6248 19.4534C97.9866 19.3198 98.3735 19.253 98.7854 19.253C99.3977 19.253 99.9153 19.3671 100.338 19.5953C100.767 19.8235 101.093 20.1575 101.315 20.5972C101.538 21.0314 101.649 21.563 101.649 22.192V28.4122H100.196V22.5259C100.196 22.0806 100.127 21.7133 99.9877 21.4238C99.8541 21.1288 99.6482 20.9089 99.3698 20.7642C99.0915 20.6139 98.7409 20.5388 98.3178 20.5388C97.9004 20.5388 97.5358 20.6334 97.2241 20.8227C96.9123 21.0119 96.6702 21.2652 96.4977 21.5824C96.3251 21.8942 96.2388 22.242 96.2388 22.6261V28.4122H94.786V22.3005C94.786 21.9443 94.7081 21.6353 94.5523 21.3737C94.402 21.1065 94.1849 20.9006 93.901 20.7559C93.6227 20.6111 93.2943 20.5388 92.9158 20.5388C92.5261 20.5388 92.1727 20.6418 91.8554 20.8477C91.5437 21.0537 91.296 21.332 91.1123 21.6826C90.9342 22.0277 90.8451 22.4118 90.8451 22.8349V28.4122H89.3923ZM107.945 28.5709C107.087 28.5709 106.35 28.3816 105.732 28.0031C105.12 27.6246 104.647 27.0902 104.313 26.4C103.984 25.7043 103.82 24.886 103.82 23.9453V23.937C103.82 23.0074 103.984 22.192 104.313 21.4906C104.647 20.7893 105.117 20.241 105.724 19.8458C106.33 19.4506 107.04 19.253 107.853 19.253C108.671 19.253 109.372 19.4422 109.957 19.8207C110.547 20.1992 110.998 20.728 111.309 21.4071C111.627 22.0806 111.785 22.8655 111.785 23.7616V24.3294H104.571V23.1688H111.042L110.324 24.2292V23.6531C110.324 22.9462 110.218 22.3645 110.007 21.9081C109.795 21.4516 109.503 21.1121 109.13 20.8895C108.757 20.6612 108.329 20.5471 107.844 20.5471C107.36 20.5471 106.926 20.6668 106.542 20.9062C106.163 21.1399 105.863 21.4878 105.64 21.9498C105.418 22.4118 105.306 22.9796 105.306 23.6531V24.2292C105.306 24.8693 105.415 25.4176 105.632 25.874C105.849 26.3249 106.158 26.6728 106.559 26.9177C106.959 27.157 107.433 27.2767 107.978 27.2767C108.384 27.2767 108.738 27.2211 109.038 27.1097C109.339 26.9984 109.587 26.8565 109.781 26.6839C109.976 26.5114 110.113 26.336 110.191 26.1579L110.224 26.0828H111.677L111.66 26.1496C111.582 26.4557 111.443 26.7535 111.243 27.0429C111.048 27.3268 110.795 27.5856 110.483 27.8194C110.171 28.0476 109.801 28.2313 109.372 28.3705C108.949 28.5041 108.473 28.5709 107.945 28.5709ZM117.713 28.5709C116.856 28.5709 116.119 28.3816 115.501 28.0031C114.889 27.6246 114.415 27.0902 114.081 26.4C113.753 25.7043 113.589 24.886 113.589 23.9453V23.937C113.589 23.0074 113.753 22.192 114.081 21.4906C114.415 20.7893 114.886 20.241 115.492 19.8458C116.099 19.4506 116.809 19.253 117.622 19.253C118.44 19.253 119.141 19.4422 119.726 19.8207C120.316 20.1992 120.766 20.728 121.078 21.4071C121.395 22.0806 121.554 22.8655 121.554 23.7616V24.3294H114.34V23.1688H120.811L120.093 24.2292V23.6531C120.093 22.9462 119.987 22.3645 119.776 21.9081C119.564 21.4516 119.272 21.1121 118.899 20.8895C118.526 20.6612 118.097 20.5471 117.613 20.5471C117.129 20.5471 116.695 20.6668 116.311 20.9062C115.932 21.1399 115.632 21.4878 115.409 21.9498C115.186 22.4118 115.075 22.9796 115.075 23.6531V24.2292C115.075 24.8693 115.184 25.4176 115.401 25.874C115.618 26.3249 115.927 26.6728 116.327 26.9177C116.728 27.157 117.201 27.2767 117.747 27.2767C118.153 27.2767 118.507 27.2211 118.807 27.1097C119.108 26.9984 119.355 26.8565 119.55 26.6839C119.745 26.5114 119.881 26.336 119.959 26.1579L119.993 26.0828H121.446L121.429 26.1496C121.351 26.4557 121.212 26.7535 121.011 27.0429C120.817 27.3268 120.563 27.5856 120.252 27.8194C119.94 28.0476 119.57 28.2313 119.141 28.3705C118.718 28.5041 118.242 28.5709 117.713 28.5709ZM127.006 28.479C126.082 28.479 125.412 28.2926 124.994 27.9196C124.582 27.5467 124.376 26.9316 124.376 26.0744V20.6139H122.957V19.4116H124.376V17.0821H125.879V19.4116H127.85V20.6139H125.879V25.707C125.879 26.2358 125.979 26.6171 126.18 26.8509C126.38 27.0791 126.714 27.1932 127.182 27.1932C127.31 27.1932 127.418 27.1904 127.507 27.1849C127.602 27.1793 127.716 27.171 127.85 27.1598V28.3955C127.71 28.4178 127.571 28.4373 127.432 28.454C127.293 28.4707 127.151 28.479 127.006 28.479ZM134.83 28.4122V19.4116H136.282V20.7642H136.416C136.644 20.2855 136.973 19.9154 137.401 19.6537C137.83 19.3866 138.375 19.253 139.038 19.253C140.051 19.253 140.827 19.5424 141.367 20.1213C141.913 20.6946 142.185 21.5157 142.185 22.5844V28.4122H140.733V22.935C140.733 22.1224 140.56 21.5212 140.215 21.1316C139.875 20.7364 139.347 20.5388 138.629 20.5388C138.15 20.5388 137.735 20.6418 137.385 20.8477C137.034 21.0537 136.761 21.3459 136.566 21.7244C136.377 22.1029 136.282 22.5565 136.282 23.0853V28.4122H134.83ZM148.472 28.5709C147.615 28.5709 146.878 28.3816 146.26 28.0031C145.648 27.6246 145.174 27.0902 144.84 26.4C144.512 25.7043 144.348 24.886 144.348 23.9453V23.937C144.348 23.0074 144.512 22.192 144.84 21.4906C145.174 20.7893 145.645 20.241 146.252 19.8458C146.858 19.4506 147.568 19.253 148.381 19.253C149.199 19.253 149.9 19.4422 150.485 19.8207C151.075 20.1992 151.526 20.728 151.837 21.4071C152.155 22.0806 152.313 22.8655 152.313 23.7616V24.3294H145.099V23.1688H151.57L150.852 24.2292V23.6531C150.852 22.9462 150.746 22.3645 150.535 21.9081C150.323 21.4516 150.031 21.1121 149.658 20.8895C149.285 20.6612 148.857 20.5471 148.372 20.5471C147.888 20.5471 147.454 20.6668 147.07 20.9062C146.691 21.1399 146.391 21.4878 146.168 21.9498C145.945 22.4118 145.834 22.9796 145.834 23.6531V24.2292C145.834 24.8693 145.943 25.4176 146.16 25.874C146.377 26.3249 146.686 26.6728 147.086 26.9177C147.487 27.157 147.96 27.2767 148.506 27.2767C148.912 27.2767 149.266 27.2211 149.566 27.1097C149.867 26.9984 150.115 26.8565 150.309 26.6839C150.504 26.5114 150.641 26.336 150.718 26.1579L150.752 26.0828H152.205L152.188 26.1496C152.11 26.4557 151.971 26.7535 151.77 27.0429C151.576 27.3268 151.322 27.5856 151.011 27.8194C150.699 28.0476 150.329 28.2313 149.9 28.3705C149.477 28.5041 149.001 28.5709 148.472 28.5709ZM156.304 28.4122L153.783 19.4116H155.235L157.006 26.6088H157.139L159.151 19.4116H160.529L162.541 26.6088H162.675L164.445 19.4116H165.889L163.368 28.4122H161.907L159.894 21.4489H159.761L157.757 28.4122H156.304ZM172.619 31.418V19.4116H174.072V20.8477H174.205C174.389 20.5137 174.62 20.2299 174.898 19.9961C175.177 19.7567 175.494 19.573 175.85 19.445C176.206 19.317 176.593 19.253 177.011 19.253C177.773 19.253 178.436 19.4478 178.998 19.8374C179.566 20.2215 180.005 20.7614 180.317 21.4572C180.629 22.153 180.785 22.9684 180.785 23.9036V23.9203C180.785 24.861 180.629 25.6792 180.317 26.375C180.005 27.0708 179.566 27.6107 178.998 27.9948C178.436 28.3788 177.773 28.5709 177.011 28.5709C176.599 28.5709 176.209 28.5069 175.842 28.3788C175.48 28.2452 175.157 28.0616 174.873 27.8278C174.595 27.594 174.372 27.3157 174.205 26.9928H174.072V31.418H172.619ZM176.677 27.2851C177.228 27.2851 177.698 27.1515 178.088 26.8843C178.477 26.6116 178.775 26.2247 178.981 25.7237C179.193 25.2172 179.298 24.6161 179.298 23.9203V23.9036C179.298 23.2022 179.193 22.6011 178.981 22.1001C178.775 21.5991 178.477 21.2151 178.088 20.9479C177.698 20.6752 177.228 20.5388 176.677 20.5388C176.131 20.5388 175.661 20.6752 175.266 20.9479C174.87 21.2206 174.567 21.6075 174.356 22.1085C174.144 22.6094 174.038 23.2078 174.038 23.9036V23.9203C174.038 24.6105 174.144 25.2089 174.356 25.7154C174.567 26.2163 174.87 26.6032 175.266 26.8759C175.661 27.1487 176.131 27.2851 176.677 27.2851ZM186.729 28.5709C185.872 28.5709 185.135 28.3816 184.517 28.0031C183.904 27.6246 183.431 27.0902 183.097 26.4C182.769 25.7043 182.605 24.886 182.605 23.9453V23.937C182.605 23.0074 182.769 22.192 183.097 21.4906C183.431 20.7893 183.902 20.241 184.508 19.8458C185.115 19.4506 185.825 19.253 186.637 19.253C187.456 19.253 188.157 19.4422 188.741 19.8207C189.331 20.1992 189.782 20.728 190.094 21.4071C190.411 22.0806 190.57 22.8655 190.57 23.7616V24.3294H183.356V23.1688H189.827L189.109 24.2292V23.6531C189.109 22.9462 189.003 22.3645 188.792 21.9081C188.58 21.4516 188.288 21.1121 187.915 20.8895C187.542 20.6612 187.113 20.5471 186.629 20.5471C186.145 20.5471 185.711 20.6668 185.327 20.9062C184.948 21.1399 184.647 21.4878 184.425 21.9498C184.202 22.4118 184.091 22.9796 184.091 23.6531V24.2292C184.091 24.8693 184.199 25.4176 184.416 25.874C184.634 26.3249 184.942 26.6728 185.343 26.9177C185.744 27.157 186.217 27.2767 186.763 27.2767C187.169 27.2767 187.522 27.2211 187.823 27.1097C188.124 26.9984 188.371 26.8565 188.566 26.6839C188.761 26.5114 188.897 26.336 188.975 26.1579L189.009 26.0828H190.461L190.445 26.1496C190.367 26.4557 190.228 26.7535 190.027 27.0429C189.832 27.3268 189.579 27.5856 189.267 27.8194C188.956 28.0476 188.586 28.2313 188.157 28.3705C187.734 28.5041 187.258 28.5709 186.729 28.5709ZM196.523 28.5709C195.671 28.5709 194.934 28.3844 194.31 28.0115C193.693 27.633 193.214 27.0958 192.874 26.4C192.54 25.7043 192.373 24.8777 192.373 23.9203V23.9036C192.373 22.9406 192.54 22.1112 192.874 21.4155C193.214 20.7197 193.693 20.1853 194.31 19.8124C194.934 19.4394 195.671 19.253 196.523 19.253C197.38 19.253 198.118 19.4394 198.736 19.8124C199.353 20.1853 199.829 20.7197 200.163 21.4155C200.503 22.1112 200.673 22.9406 200.673 23.9036V23.9203C200.673 24.8777 200.503 25.7043 200.163 26.4C199.829 27.0958 199.353 27.633 198.736 28.0115C198.118 28.3844 197.38 28.5709 196.523 28.5709ZM196.523 27.2851C197.091 27.2851 197.572 27.1515 197.968 26.8843C198.363 26.6171 198.663 26.233 198.869 25.7321C199.081 25.2311 199.187 24.6272 199.187 23.9203V23.9036C199.187 23.1911 199.081 22.5844 198.869 22.0834C198.663 21.5824 198.363 21.2012 197.968 20.9395C197.572 20.6724 197.091 20.5388 196.523 20.5388C195.955 20.5388 195.474 20.6724 195.079 20.9395C194.683 21.2012 194.38 21.5824 194.169 22.0834C193.963 22.5844 193.86 23.1911 193.86 23.9036V23.9203C193.86 24.6272 193.963 25.2311 194.169 25.7321C194.38 26.233 194.683 26.6171 195.079 26.8843C195.474 27.1515 195.955 27.2851 196.523 27.2851ZM202.927 31.418V19.4116H204.38V20.8477H204.513C204.697 20.5137 204.928 20.2299 205.206 19.9961C205.485 19.7567 205.802 19.573 206.158 19.445C206.514 19.317 206.901 19.253 207.319 19.253C208.081 19.253 208.744 19.4478 209.306 19.8374C209.874 20.2215 210.313 20.7614 210.625 21.4572C210.937 22.153 211.093 22.9684 211.093 23.9036V23.9203C211.093 24.861 210.937 25.6792 210.625 26.375C210.313 27.0708 209.874 27.6107 209.306 27.9948C208.744 28.3788 208.081 28.5709 207.319 28.5709C206.907 28.5709 206.517 28.5069 206.15 28.3788C205.788 28.2452 205.465 28.0616 205.181 27.8278C204.903 27.594 204.68 27.3157 204.513 26.9928H204.38V31.418H202.927ZM206.985 27.2851C207.536 27.2851 208.006 27.1515 208.396 26.8843C208.786 26.6116 209.083 26.2247 209.289 25.7237C209.501 25.2172 209.607 24.6161 209.607 23.9203V23.9036C209.607 23.2022 209.501 22.6011 209.289 22.1001C209.083 21.5991 208.786 21.2151 208.396 20.9479C208.006 20.6752 207.536 20.5388 206.985 20.5388C206.439 20.5388 205.969 20.6752 205.574 20.9479C205.179 21.2206 204.875 21.6075 204.664 22.1085C204.452 22.6094 204.346 23.2078 204.346 23.9036V23.9203C204.346 24.6105 204.452 25.2089 204.664 25.7154C204.875 26.2163 205.179 26.6032 205.574 26.8759C205.969 27.1487 206.439 27.2851 206.985 27.2851ZM213.447 28.4122V15.8381H214.9V28.4122H213.447ZM221.362 28.5709C220.505 28.5709 219.768 28.3816 219.15 28.0031C218.538 27.6246 218.064 27.0902 217.73 26.4C217.402 25.7043 217.238 24.886 217.238 23.9453V23.937C217.238 23.0074 217.402 22.192 217.73 21.4906C218.064 20.7893 218.535 20.241 219.142 19.8458C219.748 19.4506 220.458 19.253 221.271 19.253C222.089 19.253 222.79 19.4422 223.375 19.8207C223.965 20.1992 224.416 20.728 224.727 21.4071C225.045 22.0806 225.203 22.8655 225.203 23.7616V24.3294H217.989V23.1688H224.46L223.742 24.2292V23.6531C223.742 22.9462 223.636 22.3645 223.425 21.9081C223.213 21.4516 222.921 21.1121 222.548 20.8895C222.175 20.6612 221.747 20.5471 221.262 20.5471C220.778 20.5471 220.344 20.6668 219.96 20.9062C219.581 21.1399 219.281 21.4878 219.058 21.9498C218.835 22.4118 218.724 22.9796 218.724 23.6531V24.2292C218.724 24.8693 218.833 25.4176 219.05 25.874C219.267 26.3249 219.576 26.6728 219.976 26.9177C220.377 27.157 220.85 27.2767 221.396 27.2767C221.802 27.2767 222.156 27.2211 222.456 27.1097C222.757 26.9984 223.004 26.8565 223.199 26.6839C223.394 26.5114 223.53 26.336 223.608 26.1579L223.642 26.0828H225.095L225.078 26.1496C225 26.4557 224.861 26.7535 224.66 27.0429C224.466 27.3268 224.212 27.5856 223.901 27.8194C223.589 28.0476 223.219 28.2313 222.79 28.3705C222.367 28.5041 221.891 28.5709 221.362 28.5709ZM234.003 28.4122L231.482 19.4116H232.935L234.705 26.6088H234.838L236.851 19.4116H238.228L240.24 26.6088H240.374L242.144 19.4116H243.588L241.067 28.4122H239.606L237.594 21.4489H237.46L235.456 28.4122H234.003ZM245.592 28.4122V15.8381H247.045V20.7642H247.179C247.407 20.2855 247.735 19.9154 248.164 19.6537C248.593 19.3866 249.138 19.253 249.8 19.253C250.474 19.253 251.044 19.3838 251.512 19.6454C251.98 19.9014 252.336 20.2772 252.581 20.7726C252.826 21.268 252.948 21.8719 252.948 22.5844V28.4122H251.495V22.935C251.495 22.1224 251.323 21.5212 250.978 21.1316C250.638 20.7364 250.109 20.5388 249.391 20.5388C248.913 20.5388 248.498 20.6418 248.147 20.8477C247.797 21.0537 247.524 21.3459 247.329 21.7244C247.14 22.1029 247.045 22.5565 247.045 23.0853V28.4122H245.592ZM255.612 28.4122V19.4116H257.064V28.4122H255.612ZM256.346 17.6749C256.074 17.6749 255.837 17.5775 255.637 17.3827C255.442 17.1823 255.344 16.9458 255.344 16.673C255.344 16.3947 255.442 16.1581 255.637 15.9633C255.837 15.7685 256.074 15.6711 256.346 15.6711C256.625 15.6711 256.861 15.7685 257.056 15.9633C257.251 16.1581 257.348 16.3947 257.348 16.673C257.348 16.9458 257.251 17.1823 257.056 17.3827C256.861 17.5775 256.625 17.6749 256.346 17.6749ZM259.886 28.4122V15.8381H261.339V28.4122H259.886ZM267.802 28.5709C266.944 28.5709 266.207 28.3816 265.589 28.0031C264.977 27.6246 264.504 27.0902 264.17 26.4C263.841 25.7043 263.677 24.886 263.677 23.9453V23.937C263.677 23.0074 263.841 22.192 264.17 21.4906C264.504 20.7893 264.974 20.241 265.581 19.8458C266.187 19.4506 266.897 19.253 267.71 19.253C268.528 19.253 269.229 19.4422 269.814 19.8207C270.404 20.1992 270.855 20.728 271.166 21.4071C271.484 22.0806 271.642 22.8655 271.642 23.7616V24.3294H264.428V23.1688H270.899L270.181 24.2292V23.6531C270.181 22.9462 270.075 22.3645 269.864 21.9081C269.652 21.4516 269.36 21.1121 268.987 20.8895C268.614 20.6612 268.186 20.5471 267.701 20.5471C267.217 20.5471 266.783 20.6668 266.399 20.9062C266.02 21.1399 265.72 21.4878 265.497 21.9498C265.275 22.4118 265.163 22.9796 265.163 23.6531V24.2292C265.163 24.8693 265.272 25.4176 265.489 25.874C265.706 26.3249 266.015 26.6728 266.416 26.9177C266.816 27.157 267.29 27.2767 267.835 27.2767C268.241 27.2767 268.595 27.2211 268.895 27.1097C269.196 26.9984 269.444 26.8565 269.638 26.6839C269.833 26.5114 269.97 26.336 270.048 26.1579L270.081 26.0828H271.534L271.517 26.1496C271.439 26.4557 271.3 26.7535 271.1 27.0429C270.905 27.3268 270.652 27.5856 270.34 27.8194C270.028 28.0476 269.658 28.2313 269.229 28.3705C268.806 28.5041 268.33 28.5709 267.802 28.5709ZM281.795 28.5709C281.127 28.5709 280.537 28.4707 280.025 28.2703C279.513 28.0643 279.101 27.7777 278.789 27.4103C278.483 27.0429 278.302 26.6116 278.247 26.1162H279.733C279.855 26.4891 280.095 26.7897 280.451 27.0179C280.807 27.2461 281.272 27.3602 281.845 27.3602C282.252 27.3602 282.608 27.3018 282.914 27.1849C283.226 27.0624 283.471 26.8982 283.649 26.6923C283.827 26.4807 283.916 26.2386 283.916 25.9659V25.9492C283.916 25.643 283.793 25.3842 283.549 25.1727C283.304 24.9556 282.903 24.7803 282.346 24.6467L280.952 24.3127C280.39 24.1791 279.928 24.0065 279.566 23.795C279.204 23.5779 278.937 23.3136 278.764 23.0018C278.592 22.6846 278.505 22.3116 278.505 21.883V21.8747C278.505 21.3737 278.65 20.9256 278.94 20.5304C279.235 20.1352 279.635 19.8235 280.142 19.5953C280.648 19.3671 281.219 19.253 281.854 19.253C282.483 19.253 283.039 19.3532 283.523 19.5536C284.013 19.7484 284.406 20.0267 284.701 20.3885C285.001 20.7503 285.185 21.1761 285.252 21.6659H283.824C283.729 21.3097 283.512 21.0203 283.173 20.7976C282.833 20.575 282.391 20.4636 281.845 20.4636C281.489 20.4636 281.172 20.5221 280.893 20.639C280.615 20.7503 280.395 20.9062 280.234 21.1065C280.072 21.3069 279.992 21.5407 279.992 21.8079V21.8246C279.992 22.025 280.045 22.2031 280.15 22.3589C280.256 22.5148 280.42 22.6512 280.643 22.7681C280.866 22.885 281.152 22.9879 281.503 23.077L282.889 23.411C283.735 23.6169 284.364 23.9119 284.776 24.296C285.193 24.6801 285.402 25.1949 285.402 25.8406V25.8573C285.402 26.3917 285.243 26.8648 284.926 27.2767C284.609 27.6831 284.177 28.0003 283.632 28.2285C283.092 28.4568 282.48 28.5709 281.795 28.5709ZM290.771 28.479C289.847 28.479 289.176 28.2926 288.759 27.9196C288.347 27.5467 288.141 26.9316 288.141 26.0744V20.6139H286.721V19.4116H288.141V17.0821H289.644V19.4116H291.614V20.6139H289.644V25.707C289.644 26.2358 289.744 26.6171 289.944 26.8509C290.145 27.0791 290.478 27.1932 290.946 27.1932C291.074 27.1932 291.183 27.1904 291.272 27.1849C291.366 27.1793 291.48 27.171 291.614 27.1598V28.3955C291.475 28.4178 291.336 28.4373 291.197 28.454C291.057 28.4707 290.915 28.479 290.771 28.479ZM296.256 28.5709C295.689 28.5709 295.176 28.4623 294.72 28.2452C294.269 28.0282 293.91 27.7192 293.643 27.3185C293.381 26.9177 293.25 26.4446 293.25 25.8991V25.8824C293.25 25.348 293.379 24.8916 293.635 24.5131C293.891 24.129 294.264 23.8284 294.753 23.6113C295.243 23.3943 295.836 23.2662 296.532 23.2273L299.838 23.0269V24.1875L296.707 24.3878C296.022 24.4268 295.522 24.5687 295.204 24.8137C294.893 25.0586 294.737 25.4037 294.737 25.849V25.8657C294.737 26.3221 294.909 26.6783 295.254 26.9344C295.599 27.1849 296.034 27.3101 296.557 27.3101C297.052 27.3101 297.492 27.2127 297.876 27.0179C298.26 26.8175 298.561 26.5475 298.778 26.208C299 25.8685 299.112 25.4844 299.112 25.0558V22.2504C299.112 21.6938 298.942 21.2707 298.602 20.9813C298.268 20.6863 297.765 20.5388 297.091 20.5388C296.551 20.5388 296.109 20.6362 295.764 20.831C295.419 21.0203 295.188 21.2902 295.071 21.6409L295.062 21.6659H293.61L293.618 21.6158C293.696 21.1427 293.891 20.7308 294.202 20.3801C294.52 20.0239 294.929 19.7484 295.43 19.5536C295.931 19.3532 296.501 19.253 297.141 19.253C297.876 19.253 298.497 19.3727 299.003 19.612C299.515 19.8513 299.902 20.1965 300.164 20.6473C300.431 21.0926 300.565 21.627 300.565 22.2504V28.4122H299.112V27.0847H298.978C298.789 27.402 298.558 27.6719 298.285 27.8946C298.018 28.1172 297.715 28.287 297.375 28.4039C297.036 28.5152 296.663 28.5709 296.256 28.5709ZM303.654 31.5683C303.559 31.5683 303.453 31.5627 303.337 31.5516C303.22 31.546 303.111 31.5349 303.011 31.5182V30.3242C303.1 30.3409 303.197 30.3521 303.303 30.3576C303.409 30.3632 303.512 30.366 303.612 30.366C304.024 30.366 304.361 30.2602 304.622 30.0487C304.889 29.8372 305.104 29.4726 305.265 28.9549L305.432 28.4206L302.101 19.4116H303.654L306.426 27.7276L305.85 26.8175H306.534L305.958 27.7276L308.722 19.4116H310.25L306.735 28.9633C306.49 29.6368 306.231 30.1628 305.958 30.5413C305.685 30.9198 305.365 31.1842 304.998 31.3345C304.636 31.4904 304.188 31.5683 303.654 31.5683ZM312.204 28.4122V19.4116H313.656V28.4122H312.204ZM312.938 17.6749C312.666 17.6749 312.429 17.5775 312.229 17.3827C312.034 17.1823 311.936 16.9458 311.936 16.673C311.936 16.3947 312.034 16.1581 312.229 15.9633C312.429 15.7685 312.666 15.6711 312.938 15.6711C313.217 15.6711 313.453 15.7685 313.648 15.9633C313.843 16.1581 313.94 16.3947 313.94 16.673C313.94 16.9458 313.843 17.1823 313.648 17.3827C313.453 17.5775 313.217 17.6749 312.938 17.6749ZM316.395 28.4122V19.4116H317.848V20.7642H317.981C318.21 20.2855 318.538 19.9154 318.967 19.6537C319.395 19.3866 319.941 19.253 320.603 19.253C321.616 19.253 322.393 19.5424 322.932 20.1213C323.478 20.6946 323.751 21.5157 323.751 22.5844V28.4122H322.298V22.935C322.298 22.1224 322.125 21.5212 321.78 21.1316C321.441 20.7364 320.912 20.5388 320.194 20.5388C319.715 20.5388 319.301 20.6418 318.95 20.8477C318.599 21.0537 318.326 21.3459 318.132 21.7244C317.942 22.1029 317.848 22.5565 317.848 23.0853V28.4122H316.395ZM330.071 31.585C329.348 31.585 328.716 31.482 328.176 31.2761C327.636 31.0757 327.205 30.789 326.882 30.4161C326.564 30.0487 326.367 29.6201 326.289 29.1303L326.306 29.1219H327.809L327.817 29.1303C327.895 29.4698 328.129 29.7481 328.518 29.9652C328.908 30.1879 329.426 30.2992 330.071 30.2992C330.878 30.2992 331.507 30.1155 331.958 29.7481C332.415 29.3863 332.643 28.8742 332.643 28.2118V26.3917H332.509C332.32 26.7201 332.083 27.0012 331.8 27.235C331.516 27.4688 331.196 27.6469 330.839 27.7693C330.483 27.8862 330.099 27.9447 329.687 27.9447C328.913 27.9447 328.243 27.761 327.675 27.3936C327.113 27.0207 326.679 26.5086 326.372 25.8573C326.066 25.2061 325.913 24.4602 325.913 23.6197V23.603C325.913 22.7625 326.066 22.0166 326.372 21.3654C326.684 20.7085 327.124 20.1937 327.692 19.8207C328.259 19.4422 328.936 19.253 329.721 19.253C330.144 19.253 330.533 19.3198 330.889 19.4534C331.246 19.587 331.56 19.7762 331.833 20.0211C332.111 20.266 332.342 20.5583 332.526 20.8978H332.626V19.4116H334.079V28.287C334.079 28.9549 333.915 29.5366 333.586 30.032C333.263 30.5274 332.801 30.9087 332.2 31.1759C331.599 31.4486 330.889 31.585 330.071 31.585ZM330.004 26.6589C330.561 26.6589 331.037 26.5308 331.432 26.2748C331.833 26.0132 332.139 25.6542 332.351 25.1977C332.568 24.7413 332.676 24.2153 332.676 23.6197V23.603C332.676 23.0074 332.568 22.4786 332.351 22.0166C332.139 21.5546 331.833 21.1928 331.432 20.9312C331.037 20.6696 330.561 20.5388 330.004 20.5388C329.448 20.5388 328.975 20.6696 328.585 20.9312C328.201 21.1928 327.906 21.5546 327.7 22.0166C327.5 22.4786 327.399 23.0074 327.399 23.603V23.6197C327.399 24.2153 327.5 24.7413 327.7 25.1977C327.906 25.6542 328.201 26.0132 328.585 26.2748C328.975 26.5308 329.448 26.6589 330.004 26.6589ZM344.065 28.5709C343.497 28.5709 342.985 28.4623 342.528 28.2452C342.078 28.0282 341.719 27.7192 341.451 27.3185C341.19 26.9177 341.059 26.4446 341.059 25.8991V25.8824C341.059 25.348 341.187 24.8916 341.443 24.5131C341.699 24.129 342.072 23.8284 342.562 23.6113C343.052 23.3943 343.644 23.2662 344.34 23.2273L347.647 23.0269V24.1875L344.516 24.3878C343.831 24.4268 343.33 24.5687 343.013 24.8137C342.701 25.0586 342.545 25.4037 342.545 25.849V25.8657C342.545 26.3221 342.718 26.6783 343.063 26.9344C343.408 27.1849 343.842 27.3101 344.365 27.3101C344.861 27.3101 345.3 27.2127 345.685 27.0179C346.069 26.8175 346.369 26.5475 346.586 26.208C346.809 25.8685 346.92 25.4844 346.92 25.0558V22.2504C346.92 21.6938 346.75 21.2707 346.411 20.9813C346.077 20.6863 345.573 20.5388 344.9 20.5388C344.36 20.5388 343.917 20.6362 343.572 20.831C343.227 21.0203 342.996 21.2902 342.879 21.6409L342.871 21.6659H341.418L341.426 21.6158C341.504 21.1427 341.699 20.7308 342.011 20.3801C342.328 20.0239 342.737 19.7484 343.238 19.5536C343.739 19.3532 344.31 19.253 344.95 19.253C345.685 19.253 346.305 19.3727 346.812 19.612C347.324 19.8513 347.711 20.1965 347.972 20.6473C348.239 21.0926 348.373 21.627 348.373 22.2504V28.4122H346.92V27.0847H346.787C346.597 27.402 346.366 27.6719 346.094 27.8946C345.826 28.1172 345.523 28.287 345.184 28.4039C344.844 28.5152 344.471 28.5709 344.065 28.5709ZM354.71 28.5709C353.87 28.5709 353.14 28.3788 352.523 27.9948C351.905 27.6107 351.426 27.068 351.087 26.3666C350.747 25.6653 350.577 24.8387 350.577 23.8869V23.8702C350.577 22.935 350.744 22.1224 351.078 21.4322C351.418 20.7419 351.896 20.2076 352.514 19.8291C353.132 19.445 353.861 19.253 354.702 19.253C355.431 19.253 356.06 19.381 356.589 19.637C357.118 19.8931 357.541 20.2382 357.858 20.6724C358.175 21.101 358.378 21.5824 358.467 22.1168L358.476 22.1669H357.031L357.023 22.1419C356.912 21.6966 356.658 21.3181 356.263 21.0063C355.868 20.6946 355.348 20.5388 354.702 20.5388C354.162 20.5388 353.694 20.6752 353.299 20.9479C352.904 21.2206 352.598 21.6075 352.381 22.1085C352.169 22.6039 352.063 23.1911 352.063 23.8702V23.8869C352.063 24.5771 352.172 25.1782 352.389 25.6903C352.606 26.1969 352.912 26.5893 353.307 26.8676C353.703 27.1459 354.167 27.2851 354.702 27.2851C355.309 27.2851 355.804 27.1543 356.188 26.8926C356.572 26.631 356.848 26.2497 357.015 25.7488L357.031 25.6987L358.467 25.6903L358.451 25.7822C358.328 26.3221 358.111 26.8036 357.799 27.2266C357.488 27.6441 357.076 27.9725 356.564 28.2118C356.052 28.4512 355.434 28.5709 354.71 28.5709ZM363.961 28.479C363.037 28.479 362.367 28.2926 361.949 27.9196C361.537 27.5467 361.331 26.9316 361.331 26.0744V20.6139H359.912V19.4116H361.331V17.0821H362.834V19.4116H364.805V20.6139H362.834V25.707C362.834 26.2358 362.934 26.6171 363.135 26.8509C363.335 27.0791 363.669 27.1932 364.137 27.1932C364.265 27.1932 364.373 27.1904 364.462 27.1849C364.557 27.1793 364.671 27.171 364.805 27.1598V28.3955C364.665 28.4178 364.526 28.4373 364.387 28.454C364.248 28.4707 364.106 28.479 363.961 28.479ZM367.009 28.4122V19.4116H368.462V28.4122H367.009ZM367.744 17.6749C367.471 17.6749 367.234 17.5775 367.034 17.3827C366.839 17.1823 366.742 16.9458 366.742 16.673C366.742 16.3947 366.839 16.1581 367.034 15.9633C367.234 15.7685 367.471 15.6711 367.744 15.6711C368.022 15.6711 368.258 15.7685 368.453 15.9633C368.648 16.1581 368.745 16.3947 368.745 16.673C368.745 16.9458 368.648 17.1823 368.453 17.3827C368.258 17.5775 368.022 17.6749 367.744 17.6749ZM373.747 28.4122L370.415 19.4116H371.952L374.415 26.8259H374.548L377.011 19.4116H378.548L375.216 28.4122H373.747ZM383.808 28.5709C382.951 28.5709 382.213 28.3816 381.595 28.0031C380.983 27.6246 380.51 27.0902 380.176 26.4C379.847 25.7043 379.683 24.886 379.683 23.9453V23.937C379.683 23.0074 379.847 22.192 380.176 21.4906C380.51 20.7893 380.98 20.241 381.587 19.8458C382.194 19.4506 382.903 19.253 383.716 19.253C384.534 19.253 385.235 19.4422 385.82 19.8207C386.41 20.1992 386.861 20.728 387.173 21.4071C387.49 22.0806 387.648 22.8655 387.648 23.7616V24.3294H380.435V23.1688H386.905L386.187 24.2292V23.6531C386.187 22.9462 386.082 22.3645 385.87 21.9081C385.658 21.4516 385.366 21.1121 384.993 20.8895C384.62 20.6612 384.192 20.5471 383.708 20.5471C383.223 20.5471 382.789 20.6668 382.405 20.9062C382.027 21.1399 381.726 21.4878 381.503 21.9498C381.281 22.4118 381.169 22.9796 381.169 23.6531V24.2292C381.169 24.8693 381.278 25.4176 381.495 25.874C381.712 26.3249 382.021 26.6728 382.422 26.9177C382.822 27.157 383.296 27.2767 383.841 27.2767C384.247 27.2767 384.601 27.2211 384.901 27.1097C385.202 26.9984 385.45 26.8565 385.645 26.6839C385.839 26.5114 385.976 26.336 386.054 26.1579L386.087 26.0828H387.54L387.523 26.1496C387.445 26.4557 387.306 26.7535 387.106 27.0429C386.911 27.3268 386.658 27.5856 386.346 27.8194C386.034 28.0476 385.664 28.2313 385.235 28.3705C384.812 28.5041 384.337 28.5709 383.808 28.5709Z" fill="white"/>
</svg>
