<?xml version="1.0" standalone="no"?>
<!DOCTYPE svg PUBLIC "-//W3C//DTD SVG 20010904//EN"
 "http://www.w3.org/TR/2001/REC-SVG-20010904/DTD/svg10.dtd">
<svg version="1.0" xmlns="http://www.w3.org/2000/svg"
 width="403.000000pt" height="125.000000pt" viewBox="0 0 403.000000 125.000000"
 preserveAspectRatio="xMidYMid meet">

<g transform="translate(0.000000,125.000000) scale(0.100000,-0.100000)"
fill="#000000" stroke="none">
<path d="M1237 1236 c-52 -19 -75 -42 -88 -87 -27 -88 16 -151 135 -194 88
-32 116 -55 116 -95 0 -66 -116 -86 -206 -36 -26 14 -47 26 -48 26 -1 0 1 -21
4 -47 5 -47 6 -48 55 -66 60 -21 155 -18 203 7 65 34 91 120 57 189 -21 42
-46 59 -143 97 -102 39 -127 75 -82 120 15 15 33 20 73 20 33 0 67 -7 92 -20
22 -11 41 -20 42 -20 2 0 3 18 3 40 0 34 -4 42 -30 55 -43 22 -137 28 -183 11z"/>
<path d="M3278 1239 c-21 -6 -51 -26 -68 -45 -24 -28 -30 -44 -30 -82 0 -85
37 -122 169 -168 51 -18 91 -53 91 -80 0 -7 -10 -25 -23 -40 -20 -23 -30 -27
-81 -26 -42 0 -72 7 -107 26 l-49 25 0 -43 c0 -39 3 -44 35 -59 91 -43 213
-30 264 29 36 40 45 80 31 132 -14 52 -51 83 -142 117 -40 15 -81 35 -90 43
-24 20 -23 65 1 86 35 32 149 19 193 -21 17 -15 18 -13 18 31 0 45 -2 48 -37
62 -48 20 -128 26 -175 13z"/>
<path d="M3786 1236 c-59 -22 -87 -56 -93 -110 -10 -87 23 -126 144 -172 103
-39 135 -80 100 -128 -29 -40 -145 -37 -213 5 l-34 21 0 -45 c0 -45 1 -46 48
-64 70 -27 176 -25 223 5 47 29 73 82 66 135 -10 72 -31 90 -192 164 -52 24
-60 32 -63 59 -8 77 97 90 221 26 4 -2 7 15 7 38 0 38 -3 42 -37 56 -53 23
-131 27 -177 10z"/>
<path d="M0 985 l0 -255 120 0 c131 0 169 10 209 53 48 52 36 154 -23 192
l-24 16 29 29 c24 23 29 37 29 75 0 109 -55 144 -227 145 l-113 0 0 -255z
m217 174 c34 -13 43 -25 43 -65 0 -48 -30 -68 -111 -72 l-69 -4 0 76 0 76 54
0 c30 0 67 -5 83 -11z m40 -231 c28 -26 30 -67 4 -99 -17 -21 -30 -24 -100
-27 l-81 -4 0 76 0 76 77 0 c65 0 80 -3 100 -22z"/>
<path d="M540 1086 c0 -180 10 -247 46 -294 63 -82 217 -95 296 -25 49 43 58
85 58 286 l0 187 -39 0 -40 0 -3 -189 -3 -190 -29 -30 c-25 -26 -37 -31 -79
-31 -106 0 -117 25 -117 260 l0 180 -45 0 -45 0 0 -154z"/>
<path d="M1700 985 l0 -255 40 0 40 0 0 255 0 255 -40 0 -40 0 0 -255z"/>
<path d="M2030 986 l0 -256 40 0 40 0 0 167 0 168 170 -170 170 -170 0 258 0
257 -40 0 -40 0 -2 -159 -3 -160 -167 160 -168 161 0 -256z"/>
<path d="M2680 985 l0 -255 150 0 150 0 0 35 0 35 -110 0 -110 0 0 85 0 85
100 0 100 0 0 35 0 35 -100 0 -101 0 3 63 3 62 108 3 107 3 0 34 0 35 -150 0
-150 0 0 -255z"/>
<path d="M310 250 l0 -250 45 0 45 0 0 250 0 250 -45 0 -45 0 0 -250z"/>
<path d="M1375 486 c-76 -29 -111 -99 -82 -169 19 -43 43 -60 142 -97 92 -34
105 -44 105 -81 0 -71 -108 -91 -212 -38 l-38 19 0 -40 c0 -37 3 -42 34 -55
94 -39 206 -27 263 30 29 29 33 40 33 84 0 73 -35 110 -141 147 -120 43 -148
80 -93 123 36 28 96 27 162 -4 l52 -24 0 40 c0 37 -3 41 -37 56 -54 22 -140
26 -188 9z"/>
<path d="M1840 250 l0 -250 50 0 50 0 0 250 0 250 -50 0 -50 0 0 -250z"/>
<path d="M2190 250 l0 -252 133 4 c144 5 184 17 239 75 77 81 77 265 0 346
-55 59 -95 71 -239 75 l-133 4 0 -252z m235 169 c102 -28 147 -152 93 -259
-31 -61 -72 -82 -169 -88 l-79 -5 0 182 0 181 58 0 c31 0 75 -5 97 -11z"/>
<path d="M2780 250 l0 -250 155 0 155 0 0 35 0 34 -112 3 -113 3 -3 78 -3 77
106 0 105 0 0 35 0 34 -102 3 -103 3 0 60 0 60 113 3 112 3 0 34 0 35 -155 0
-155 0 0 -250z"/>
<path d="M3340 251 l0 -251 40 0 40 0 0 100 0 100 34 0 c31 0 42 -9 118 -100
81 -98 84 -100 126 -100 52 0 54 -5 -50 117 l-78 91 30 7 c41 9 80 58 81 103
2 59 -2 85 -17 114 -25 49 -66 62 -201 66 l-123 4 0 -251z m236 156 c38 -33
37 -81 0 -114 -24 -21 -37 -23 -90 -21 l-61 3 -3 64 c-4 89 -3 91 67 91 48 0
65 -5 87 -23z"/>
<path d="M660 252 l0 -242 40 0 39 0 3 155 3 154 156 -142 c86 -78 163 -148
172 -156 16 -12 17 4 17 228 l0 241 -40 0 -40 0 0 -150 c0 -82 -3 -150 -6
-150 -3 0 -71 59 -152 132 -81 72 -157 141 -169 152 l-23 19 0 -241z"/>
</g>
</svg>
