<?xml version="1.0" standalone="no"?>
<!DOCTYPE svg PUBLIC "-//W3C//DTD SVG 20010904//EN"
 "http://www.w3.org/TR/2001/REC-SVG-20010904/DTD/svg10.dtd">
<svg version="1.0" xmlns="http://www.w3.org/2000/svg"
 width="2560.000000pt" height="660.000000pt" viewBox="0 0 2560.000000 660.000000"
 preserveAspectRatio="xMidYMid meet">

<g transform="translate(0.000000,660.000000) scale(0.100000,-0.100000)"
fill="#000000" stroke="none">
<path d="M1310 6589 c-656 -59 -1031 -325 -1198 -850 -39 -121 -67 -258 -89
-439 -17 -135 -18 -271 -18 -1950 0 -1989 -3 -1879 62 -2155 141 -601 490
-978 1013 -1095 160 -36 298 -40 1349 -40 l1023 0 -6 323 c-3 177 -9 478 -12
669 l-6 347 -867 3 c-784 3 -869 5 -896 20 -39 21 -71 56 -84 91 -8 20 -11
582 -11 1843 0 1982 -4 1854 58 1906 83 70 198 54 252 -34 19 -32 20 -52 20
-530 l0 -498 781 0 782 0 -6 428 c-7 498 -22 658 -87 911 -129 507 -413 851
-815 988 -182 62 -222 66 -705 68 -245 2 -488 -1 -540 -6z"/>
<path d="M4780 6579 c-628 -58 -1000 -363 -1120 -918 -46 -210 -45 -183 -45
-2361 0 -1638 3 -2087 13 -2170 79 -638 387 -979 983 -1091 106 -20 153 -22
692 -26 644 -5 745 1 959 56 334 86 573 270 708 546 88 180 131 353 150 597
13 179 14 3985 0 4165 -31 403 -129 652 -340 863 -183 183 -375 272 -702 326
-86 14 -192 17 -653 20 -302 1 -593 -2 -645 -7z m679 -1310 c20 -11 48 -36 61
-56 l25 -37 3 -1859 c2 -1814 2 -1860 -17 -1902 -28 -63 -87 -100 -160 -99
-67 0 -110 20 -148 71 l-28 36 -3 1869 c-2 1847 -2 1869 18 1907 18 37 55 71
90 84 37 14 123 6 159 -14z"/>
<path d="M19000 3310 l0 -3240 1395 0 1395 0 0 675 0 675 -610 0 -610 0 0 630
0 630 580 0 580 0 0 670 0 670 -577 2 -578 3 -3 593 -2 592 600 0 600 0 0 670
0 670 -1385 0 -1385 0 0 -3240z"/>
<path d="M7372 3298 l3 -3233 773 -3 772 -2 1 1447 c1 797 3 1441 5 1433 2 -8
87 -656 190 -1440 102 -784 189 -1428 193 -1433 4 -4 239 -6 522 -5 l514 3
175 1438 175 1439 3 -1441 2 -1441 775 0 775 0 0 3235 0 3235 -1029 0 -1028 0
-5 -32 c-3 -18 -88 -668 -189 -1445 -101 -777 -186 -1409 -190 -1405 -3 4 -91
654 -195 1445 l-188 1437 -1028 0 -1028 0 2 -3232z"/>
<path d="M12520 3295 l0 -3235 785 0 785 0 0 1264 0 1264 383 5 c409 4 472 10
652 62 407 118 665 387 771 802 53 209 55 262 52 1155 -4 801 -4 826 -26 934
-105 534 -392 833 -903 942 -183 40 -255 42 -1394 42 l-1105 0 0 -3235z m1765
1984 c50 -14 100 -64 114 -114 17 -63 14 -1248 -3 -1298 -31 -86 -89 -116
-223 -117 l-93 0 0 763 c0 420 3 767 7 770 10 11 154 8 198 -4z"/>
<path d="M16170 3295 l0 -3235 1325 0 1325 0 0 670 0 670 -540 0 -540 0 0
2565 0 2565 -785 0 -785 0 0 -3235z"/>
<path d="M21942 6518 c3 -7 191 -759 418 -1672 l412 -1658 -422 -1552 c-232
-853 -425 -1557 -427 -1563 -4 -10 140 -13 700 -13 388 0 708 3 710 8 3 4 81
375 173 825 102 494 171 811 176 800 4 -10 70 -378 148 -818 78 -439 144 -803
146 -807 3 -4 370 -8 815 -8 767 0 810 1 805 18 -3 9 -194 763 -426 1674
l-420 1657 410 1543 c226 849 413 1551 416 1561 5 16 -31 17 -702 15 l-708 -3
-162 -795 c-90 -437 -164 -802 -166 -810 -2 -8 -46 239 -97 550 -51 311 -111
676 -133 813 l-41 247 -815 0 c-647 0 -813 -3 -810 -12z"/>
</g>
</svg>
