<?xml version="1.0" standalone="no"?>
<!DOCTYPE svg PUBLIC "-//W3C//DTD SVG 20010904//EN"
 "http://www.w3.org/TR/2001/REC-SVG-20010904/DTD/svg10.dtd">
<svg version="1.0" xmlns="http://www.w3.org/2000/svg"
 width="560.000000pt" height="115.000000pt" viewBox="0 0 560.000000 115.000000"
 preserveAspectRatio="xMidYMid meet">

<g transform="translate(0.000000,115.000000) scale(0.100000,-0.100000)"
fill="#000000" stroke="none">
<path d="M77 1103 c-4 -3 -7 -21 -7 -39 0 -31 2 -33 38 -36 l37 -3 3 -316 2
-317 -34 -6 c-29 -6 -35 -11 -39 -39 -2 -17 -3 -35 0 -39 7 -13 481 -10 489 3
3 6 3 53 -1 105 l-7 95 -51 -3 c-50 -3 -52 -4 -55 -33 -1 -16 -5 -45 -8 -62
l-5 -33 -69 0 -70 0 0 150 0 150 29 0 c23 0 30 -6 37 -32 8 -27 15 -34 42 -36
l32 -3 0 105 0 106 -34 0 c-31 0 -34 -3 -40 -35 -6 -31 -11 -35 -36 -35 l-30
0 0 140 0 140 70 0 70 0 0 -29 c0 -16 3 -43 6 -60 6 -30 9 -31 55 -31 l49 0 0
48 c0 26 3 71 6 100 l7 52 -240 0 c-132 0 -243 -3 -246 -7z"/>
<path d="M1264 972 c-40 -3 -41 -4 -58 -57 -16 -53 -18 -55 -52 -55 -35 0 -35
-1 -32 -37 3 -33 7 -38 30 -41 l27 -3 3 -210 3 -211 33 -29 c28 -25 40 -29 95
-29 94 0 107 6 107 46 0 33 -1 34 -38 34 -21 0 -43 5 -50 12 -8 8 -12 67 -12
200 l0 188 33 0 c42 0 53 8 60 48 l7 32 -50 0 -50 0 0 54 c0 30 -3 56 -7 58
-5 2 -26 2 -49 0z"/>
<path d="M871 870 c-18 -4 -46 -17 -61 -28 l-27 -21 -12 25 c-10 22 -15 24
-53 18 -110 -16 -113 -17 -116 -52 -3 -31 -2 -32 32 -32 l36 0 0 -200 0 -200
-30 -6 c-26 -6 -30 -11 -30 -41 l0 -34 123 3 122 3 3 31 c3 28 0 32 -27 37
l-31 7 0 183 c0 129 4 187 12 195 19 19 82 15 101 -6 14 -15 17 -51 19 -233
l3 -214 91 -3 92 -3 6 27 c8 30 1 40 -29 46 -19 3 -20 13 -25 203 -4 166 -8
206 -23 232 -29 53 -105 81 -176 63z"/>
<path d="M1996 865 c-62 -22 -114 -80 -136 -153 -50 -162 2 -342 113 -393 62
-28 158 -25 224 5 52 25 52 25 41 56 -8 23 -15 29 -27 24 -122 -50 -203 -12
-225 109 l-7 37 140 0 141 0 6 26 c10 39 -4 130 -28 185 -42 100 -139 141
-242 104z m101 -83 c20 -13 43 -78 43 -122 l0 -40 -80 0 c-90 0 -88 -2 -69 80
14 64 34 90 67 90 15 0 32 -4 39 -8z"/>
<path d="M2540 869 c-19 -6 -44 -19 -56 -30 -26 -24 -32 -24 -36 4 -3 20 -8
22 -55 21 -29 -1 -69 -5 -88 -8 -31 -6 -35 -11 -35 -36 0 -23 5 -30 19 -30 53
0 51 14 51 -350 l0 -339 -27 -3 c-23 -2 -29 -8 -31 -36 l-3 -33 123 3 123 3 0
30 c0 25 -4 30 -27 33 l-28 3 0 102 0 102 87 0 c76 0 92 3 121 23 42 31 68 83
83 167 13 75 7 199 -12 255 -33 99 -116 146 -209 119z m67 -116 c14 -21 19
-53 21 -153 2 -73 -1 -143 -7 -168 -10 -36 -16 -42 -46 -48 -19 -3 -51 -3 -70
0 l-35 7 0 176 c0 204 3 213 76 213 36 0 47 -5 61 -27z"/>
<path d="M3346 866 c-61 -23 -88 -48 -121 -111 -25 -49 -31 -72 -33 -147 -6
-143 38 -242 129 -288 47 -25 137 -26 202 -4 59 20 74 37 59 68 -11 24 -12 24
-58 10 -60 -18 -78 -18 -118 1 -38 18 -63 57 -72 113 l-7 42 136 0 c125 0 137
2 147 19 22 43 -3 170 -46 233 -45 64 -141 92 -218 64z m106 -93 c18 -21 38
-86 38 -125 l0 -28 -81 0 -82 0 7 52 c4 28 13 66 21 85 12 28 19 33 48 33 20
0 40 -7 49 -17z"/>
<path d="M3882 865 c-24 -7 -52 -21 -62 -30 -18 -16 -19 -16 -26 9 -6 26 -9
27 -53 20 -111 -15 -116 -18 -116 -49 0 -26 4 -30 33 -33 l32 -3 0 -200 0
-199 -31 -7 c-27 -5 -30 -9 -27 -37 l3 -31 120 0 120 0 3 31 c3 28 0 32 -27
37 l-31 7 0 175 c0 103 4 184 10 196 8 14 21 19 48 19 68 0 66 4 72 -242 l5
-223 95 0 95 0 3 31 c3 28 0 32 -27 37 l-31 7 0 192 c0 164 -3 198 -18 228
-31 62 -113 90 -190 65z"/>
<path d="M4321 865 c-100 -31 -155 -130 -155 -280 0 -72 5 -100 23 -140 26
-60 74 -112 118 -131 63 -27 190 -14 242 25 18 14 20 21 12 42 l-9 26 -61 -15
c-53 -13 -66 -13 -98 0 -44 16 -83 75 -83 126 l0 32 135 0 c134 0 136 0 145
24 11 30 -2 126 -25 183 -21 52 -71 98 -122 112 -48 14 -67 13 -122 -4z m121
-115 c9 -19 18 -55 20 -80 l3 -45 -77 -3 -78 -3 0 33 c0 39 18 108 33 126 6 8
25 12 46 10 30 -2 39 -9 53 -38z"/>
<path d="M1525 856 c-69 -11 -70 -12 -70 -41 0 -25 4 -30 28 -33 l27 -3 0
-204 c0 -204 0 -204 -22 -207 -18 -2 -23 -10 -23 -33 l0 -30 120 0 120 0 3 32
c3 28 0 32 -25 35 l-28 3 -3 191 -2 191 25 11 c35 16 33 17 37 -25 3 -36 5
-39 46 -47 23 -5 45 -7 47 -4 12 12 23 153 13 165 -16 20 -67 15 -130 -11
l-57 -23 -3 21 c-4 26 -14 27 -103 12z"/>
<path d="M2875 856 c-69 -11 -70 -11 -73 -43 -3 -31 -1 -33 27 -33 l31 0 0
-200 0 -200 -25 -10 c-19 -7 -25 -17 -25 -40 l0 -30 120 0 120 0 6 26 c7 28
-1 40 -31 46 -19 3 -20 12 -23 196 -2 192 -2 193 20 201 31 12 38 6 38 -33 0
-31 3 -34 42 -40 23 -4 45 -3 49 1 5 5 12 41 17 81 7 57 6 75 -5 84 -18 15
-93 3 -142 -22 l-39 -19 -6 24 c-4 14 -12 24 -19 24 -6 -1 -43 -6 -82 -13z"/>
<path d="M4675 863 c-66 -8 -75 -13 -75 -38 0 -20 6 -27 29 -31 l29 -6 4 -192
c3 -215 12 -245 78 -278 53 -27 139 -24 183 6 l35 24 6 -24 c6 -23 10 -24 82
-24 76 0 79 2 86 44 2 14 -4 21 -22 26 l-25 6 -5 241 c-3 133 -8 245 -12 248
-4 4 -47 4 -95 -1 l-88 -9 0 -30 c0 -25 4 -30 28 -33 l27 -3 0 -188 c0 -132
-4 -191 -12 -199 -7 -7 -31 -12 -54 -12 -70 0 -74 12 -74 240 0 107 -3 205 -6
218 -7 23 -32 26 -119 15z"/>
<path d="M5228 857 l-68 -9 0 -34 c0 -31 3 -34 30 -34 l30 0 -2 -202 c-3 -199
-3 -203 -24 -206 -21 -3 -39 -46 -27 -64 2 -5 58 -8 124 -8 l119 0 0 34 c0 28
-4 35 -22 38 -23 3 -23 4 -26 196 -2 192 -2 193 20 201 21 8 24 5 32 -29 8
-34 12 -38 49 -44 22 -4 44 -3 48 1 4 4 9 41 11 82 4 105 -6 109 -168 56 -16
-5 -23 -2 -27 14 -3 12 -11 20 -19 20 -7 -1 -43 -6 -80 -12z"/>
<path d="M5464 345 c-8 -21 2 -45 19 -45 8 0 20 7 27 15 10 12 10 18 0 30 -7
8 -19 15 -27 15 -7 0 -16 -7 -19 -15z"/>
</g>
</svg>
