<?xml version="1.0" standalone="no"?>
<!DOCTYPE svg PUBLIC "-//W3C//DTD SVG 20010904//EN"
 "http://www.w3.org/TR/2001/REC-SVG-20010904/DTD/svg10.dtd">
<svg version="1.0" xmlns="http://www.w3.org/2000/svg"
 width="439.000000pt" height="115.000000pt" viewBox="0 0 439.000000 115.000000"
 preserveAspectRatio="xMidYMid meet">

<g transform="translate(0.000000,115.000000) scale(0.100000,-0.100000)"
fill="#000000" stroke="none">
<path d="M2390 1130 c-205 -39 -225 -45 -228 -61 -2 -11 10 -19 38 -28 77 -23
75 -5 78 -537 l3 -473 57 -13 c34 -7 121 -13 212 -13 155 0 156 0 221 32 165
82 251 262 221 464 -35 242 -200 362 -420 305 -35 -9 -66 -16 -68 -16 -2 0 -4
81 -4 180 0 99 -3 180 -7 179 -5 0 -51 -9 -103 -19z m251 -423 c20 -13 46 -47
64 -82 29 -57 30 -63 30 -194 0 -154 -13 -210 -71 -297 -37 -55 -67 -74 -118
-74 l-33 0 -7 61 c-8 82 -8 594 1 602 16 17 101 6 134 -16z"/>
<path d="M0 1100 c0 -28 2 -30 41 -30 33 0 47 -6 69 -30 47 -51 52 -103 48
-494 -3 -331 -5 -354 -24 -397 -16 -34 -30 -49 -55 -58 -72 -27 -79 -31 -79
-46 0 -13 37 -15 291 -15 l290 0 -3 22 c-2 17 -13 24 -43 30 -44 10 -79 37
-94 76 -14 37 -31 204 -31 301 l0 81 63 0 c39 0 75 -6 97 -18 40 -20 80 -74
80 -108 0 -19 5 -24 25 -24 l25 0 0 185 0 185 -25 0 c-20 0 -25 -5 -25 -25 0
-35 -24 -79 -56 -104 -22 -17 -41 -21 -107 -21 l-80 0 6 158 c4 86 7 183 7
215 l0 59 113 -4 c96 -3 119 -7 161 -28 61 -31 101 -79 128 -153 15 -41 25
-56 35 -52 8 3 21 5 29 5 11 0 14 29 14 160 l0 160 -450 0 -450 0 0 -30z"/>
<path d="M1075 825 c-107 -28 -199 -101 -249 -200 -92 -186 -44 -442 103 -551
69 -51 135 -67 255 -62 82 3 111 9 157 30 154 71 227 216 217 428 -4 80 -8 98
-44 167 -46 90 -104 144 -187 173 -77 27 -178 33 -252 15z m152 -82 c68 -72
100 -221 90 -413 -9 -161 -39 -240 -104 -266 -31 -14 -38 -13 -71 3 -50 24
-88 102 -103 208 -14 101 -5 302 16 374 33 108 116 153 172 94z"/>
<path d="M1740 806 c-85 -17 -161 -35 -167 -39 -21 -13 -15 -25 21 -37 71 -23
71 -22 74 -315 4 -297 0 -317 -61 -333 -22 -6 -33 -15 -35 -30 l-3 -22 235 0
236 0 0 25 c0 22 -4 25 -39 25 -86 0 -103 57 -102 345 1 164 1 170 23 187 31
23 125 24 173 1 43 -21 40 -25 91 102 34 85 35 90 17 102 -29 22 -58 25 -116
13 -63 -13 -126 -61 -157 -119 l-19 -36 -1 83 c0 45 -3 82 -7 81 -5 0 -78 -15
-163 -33z"/>
<path d="M3305 819 c-112 -36 -187 -112 -237 -238 -18 -46 -22 -77 -22 -171
-1 -115 -1 -117 37 -192 57 -117 148 -185 276 -208 132 -24 311 32 365 114 20
32 5 57 -21 33 -30 -26 -100 -47 -161 -47 -137 0 -233 107 -249 277 l-6 63
237 0 236 0 0 33 c0 49 -27 144 -57 200 -75 136 -232 190 -398 136z m149 -68
c26 -28 46 -106 46 -175 l0 -61 -111 3 -112 3 7 47 c20 152 111 249 170 183z"/>
<path d="M4037 830 c-93 -24 -186 -103 -206 -176 -17 -60 -13 -135 7 -174 26
-49 98 -100 195 -140 140 -57 184 -121 137 -198 -24 -39 -54 -52 -119 -52 -76
0 -161 71 -197 165 -12 32 -21 44 -31 40 -8 -3 -17 -5 -19 -5 -2 0 -4 -53 -4
-118 l0 -118 95 -23 c125 -31 285 -27 355 8 57 29 97 66 121 113 25 48 26 165
3 214 -22 47 -96 109 -152 130 -147 52 -202 97 -202 163 0 49 30 87 78 101 32
8 44 6 90 -16 57 -28 95 -70 115 -130 10 -27 20 -39 33 -39 18 0 19 9 19 114
l0 115 -50 13 c-66 17 -220 25 -268 13z"/>
</g>
</svg>
