<?xml version="1.0" encoding="UTF-8" standalone="no"?>
<!-- Created with Inkscape (http://www.inkscape.org/) -->

<svg
   xmlns:dc="http://purl.org/dc/elements/1.1/"
   xmlns:cc="http://creativecommons.org/ns#"
   xmlns:rdf="http://www.w3.org/1999/02/22-rdf-syntax-ns#"
   xmlns:svg="http://www.w3.org/2000/svg"
   xmlns="http://www.w3.org/2000/svg"
   xmlns:xlink="http://www.w3.org/1999/xlink"
   xmlns:sodipodi="http://sodipodi.sourceforge.net/DTD/sodipodi-0.dtd"
   xmlns:inkscape="http://www.inkscape.org/namespaces/inkscape"
   width="1000"
   height="300.05136"
   viewBox="0 0 264.58333 250.05136"
   version="1.1"
   id="svg8"
   sodipodi:docname="Fox News Channel II (Print).svg"
   inkscape:version="0.92.2 (5c3e80d, 2017-08-06)">
  <defs
     id="defs2" />
  <sodipodi:namedview
     id="base"
     pagecolor="#ffffff"
     bordercolor="#666666"
     borderopacity="1.0"
     inkscape:pageopacity="0.0"
     inkscape:pageshadow="2"
     inkscape:zoom="0.49497475"
     inkscape:cx="346.76814"
     inkscape:cy="590.55297"
     inkscape:document-units="px"
     inkscape:current-layer="layer1"
     showgrid="false"
     units="px"
     inkscape:window-width="1366"
     inkscape:window-height="705"
     inkscape:window-x="-8"
     inkscape:window-y="-8"
     inkscape:window-maximized="1" />
  <metadata
     id="metadata5">
    <rdf:RDF>
      <cc:Work
         rdf:about="">
        <dc:format>image/svg+xml</dc:format>
        <dc:type
           rdf:resource="http://purl.org/dc/dcmitype/StillImage" />
        <dc:title></dc:title>
      </cc:Work>
    </rdf:RDF>
  </metadata>
  <g
     inkscape:label="Layer 1"
     inkscape:groupmode="layer"
     id="layer1"
     transform="translate(0,-46.94863)">
    <use
       height="1052.3622"
       width="744.09448"
       y="0"
       x="0"
       xlink:href="#id38"
       id="use3772"
       transform="matrix(3.8541216,0,0,-3.7953933,186.50656,169.73607)" />
    <use
       id="use9530"
       xlink:href="#id125"
       x="0"
       y="0"
       width="744.09448"
       height="1052.3622"
       transform="matrix(1.055214,1.9869891,1.6822669,-0.89339034,-128.34261,182.96589)" />
    <use
       id="use9540"
       xlink:href="#id128"
       x="0"
       y="0"
       width="744.09448"
       height="1052.3622"
       transform="matrix(1.3537694,2.549175,1.9808989,-1.0519862,-128.64114,185.07719)" />
    <use
       id="use9550"
       xlink:href="#id131"
       x="0"
       y="0"
       width="744.09448"
       height="1052.3622"
       transform="matrix(2.1785194,4.1021958,2.8461061,-1.5114702,-126.81741,183.55407)" />
    <use
       id="use9560"
       xlink:href="#id134"
       x="0"
       y="0"
       width="744.09448"
       height="1052.3622"
       transform="matrix(2.3307525,0,0,-0.44126273,-126.03984,182.97763)" />
    <use
       id="use9578"
       xlink:href="#id140"
       x="0"
       y="0"
       width="744.09448"
       height="1052.3622"
       transform="matrix(0,-0.52476933,-2.6327256,0,-124.90006,185.01381)" />
    <use
       id="use9588"
       xlink:href="#id143"
       x="0"
       y="0"
       width="744.09448"
       height="1052.3622"
       transform="matrix(-1.0391469,-4.6636694,-2.1323327,0.47512483,-126.5512,186.94367)" />
    <use
       id="use9598"
       xlink:href="#id146"
       x="0"
       y="0"
       width="744.09448"
       height="1052.3622"
       transform="matrix(2.3265118,0,0,-0.44134912,-128.74028,182.97766)" />
    <use
       id="use9608"
       xlink:href="#id149"
       x="0"
       y="0"
       width="744.09448"
       height="1052.3622"
       transform="matrix(2.3263751,0,0,-0.4410392,-128.74029,187.16242)" />
    <use
       id="use9618"
       xlink:href="#id152"
       x="0"
       y="0"
       width="744.09448"
       height="1052.3622"
       transform="matrix(-1.5462327,-1.5462327,-1.5462248,1.5462248,-123.92371,183.51271)" />
    <use
       id="use9628"
       xlink:href="#id155"
       x="0"
       y="0"
       width="744.09448"
       height="1052.3622"
       transform="matrix(-1.9057755,-1.9057755,-1.9057737,1.9057737,-123.56343,185.82572)" />
    <use
       id="use9638"
       xlink:href="#id158"
       x="0"
       y="0"
       width="744.09448"
       height="1052.3622"
       transform="matrix(2.3292435,0,0,-0.44463565,-126.03833,187.16248)" />
    <use
       height="1052.3622"
       width="744.09448"
       y="0"
       x="0"
       xlink:href="#id191"
       id="use10134"
       transform="matrix(3.853663,0,0,-3.707148,-10.654457,266.0342)" />
    <use
       id="use10500"
       xlink:href="#id226"
       x="0"
       y="0"
       width="744.09448"
       height="1052.3622"
       transform="matrix(30.655947,0,0,-15.370147,43.995753,152.86489)" />
    <path
       style="fill-opacity:1;fill-rule:nonzero;stroke:none;stroke-width:45.27959061"
       d="M 0.08984375 0.18164062 L 0.08984375 785.40039 L 165.00586 0.18164062 L 0.08984375 0.18164062 z M 278.22656 0.18164062 L 1.1171875 798.82227 L 2.1269531 798.82227 L 384.1543 0.18164062 L 278.22656 0.18164062 z M 511.64648 0.18164062 L 375.5 215.44336 L 330.58398 215.44336 L 330.58398 286.46289 L 185.06055 516.55078 L 144.41992 516.55078 L 144.25781 581.0625 L 6.5332031 798.82227 L 999.81836 798.73438 L 999.81836 798.73242 L 999.95312 0.18164062 L 511.64648 0.18164062 z M 340.27539 224.8125 L 500.97266 224.8125 L 505.9082 295.17773 L 415.98438 295.17773 L 415.98438 328.77539 L 489.24609 328.77539 L 489.24609 399.00391 L 415.34961 399.00391 L 415.30664 482.22852 L 340.27734 482.22852 L 340.27539 482.22852 L 340.27539 224.8125 z M 634.00391 225.17578 C 706.81344 225.17578 765.85938 283.31486 765.85938 354.94727 C 765.85937 426.62475 706.81344 484.71875 634.00391 484.71875 C 561.19429 484.71875 502.19531 426.62475 502.19531 354.94727 C 502.19531 283.31486 561.19429 225.17578 634.00391 225.17578 z M 730.94922 225.17578 L 813.71875 225.17578 L 845.6875 278.65039 L 876.61328 225.17578 L 959.1582 225.17578 L 887.29883 348.29102 L 967.17188 481.86523 L 967.17188 481.86914 L 884.12891 481.86914 L 846.32031 418.52344 L 809.41797 481.77734 L 728.18555 481.86523 L 804.93555 349.15039 L 730.94922 225.17578 z M 633.64258 274.75586 C 620.91899 274.75586 610.68555 285.94066 610.68555 298.39258 L 610.64258 407.51562 C 610.64258 419.96743 620.92098 430.11133 633.64453 430.11133 C 646.32277 430.11133 656.87305 420.2859 656.87305 407.83398 L 656.87109 407.83398 L 657.36914 298.39258 C 657.36914 285.94066 646.32081 274.75586 633.64258 274.75586 z M 888.83789 517.72656 C 928.54814 517.72656 956.30471 538.37347 969.16406 576.63477 L 917.45508 593.93164 C 911.34241 576.99705 901.42659 570.20508 884.76367 570.20508 C 872.49287 570.20508 864.02539 577.99418 864.02539 587.14062 C 864.02539 601.04142 877.15643 601.71972 901.10938 608.51172 C 920.98703 614.26216 939.36972 617.97662 955.12695 632.55664 C 967.98642 644.41997 974.73437 661.71522 974.73438 682.67969 C 974.73438 702.33093 967.71493 720.98787 954.85547 734.88867 C 938.19255 752.81947 914.82862 762.64453 887.07227 762.64453 C 835.67999 762.64453 802.08206 736.24556 792.4375 690.83008 L 849.40039 678.28906 C 853.7925 697.94041 866.37995 707.76562 888.25 707.76562 C 902.55835 707.76562 911.02539 700.65622 911.02539 691.50977 C 911.02539 674.2583 896.71602 674.89223 869.86523 666.78711 C 823.99697 653.24854 801.81055 634.23062 801.81055 595.65234 C 801.81055 550.91608 834.81937 517.72656 888.83789 517.72656 z M 366.49219 525.37891 L 518.85938 525.37891 L 518.85938 580.25781 L 425.62891 580.25781 L 425.62891 614.80664 L 502.28711 614.80664 L 502.28711 665.60938 L 425.62891 665.60938 L 425.62891 705.5918 L 520.03516 705.5918 L 520.03516 760.4707 L 366.49219 760.4707 L 366.49219 525.37891 z M 530.35938 525.37891 L 590.80859 525.37891 L 619.24414 662.57617 L 646.45703 525.37891 L 697.08008 525.37891 L 725.83203 661.21875 L 755.12695 525.37891 L 804.0293 525.37891 L 748.92383 760.4707 L 695.04102 760.4707 L 667.19531 626.66992 L 640.25391 760.4707 L 585.14844 760.4707 L 530.35938 525.37891 z M 292.91406 525.9707 L 351.46094 526.05859 L 351.46094 760.01758 L 294.45312 760.01758 L 213.76562 624.36133 L 213.76562 759.88281 L 153.54297 760.01758 L 154.13086 526.05859 L 222.23242 526.05859 L 292.91406 644.14844 L 292.91406 525.9707 z "
       transform="matrix(0.26458333,0,0,0.26458333,0,46.94863)"
       id="path10598" />
    <path
       style="fill-rule:nonzero;stroke:none;stroke-width:11.98022461"
       d="m 264.58328,296.99988 -0.0838,-33.32898 -264.43950337,0.096 V 297 H 264.58333"
       id="path10602"
       inkscape:connector-curvature="0" />
    <use
       id="use10732"
       xlink:href="#id243"
       x="0"
       y="0"
       width="744.09448"
       height="1052.3622"
       transform="matrix(6.423256,0,0,-6.4168326,110.71271,244.28822)" />
    <use
       id="use11258"
       xlink:href="#id292"
       x="0"
       y="0"
       width="744.09448"
       height="1052.3622"
       transform="matrix(-7.2370749,-10.331292,-12.007543,8.404244,109.64557,265.99408)" />
    <use
       id="use11330"
       xlink:href="#id301"
       x="0"
       y="0"
       width="744.09448"
       height="1052.3622"
       transform="matrix(8.293696,8.3631564,8.2936937,-8.3631529,-68.786258,286.59486)" />
    <use
       id="use11340"
       xlink:href="#id304"
       x="0"
       y="0"
       width="744.09448"
       height="1052.3622"
       transform="matrix(-9.1587288,2.4746311,2.5870298,9.735791,-56.80118,278.60157)" />
    <use
       id="use12378"
       xlink:href="#id351"
       x="0"
       y="0"
       width="744.09448"
       height="1052.3622"
       transform="matrix(10.699619,10.699619,10.699613,-10.699613,-91.892082,248.84764)" />
    <use
       id="use12388"
       xlink:href="#id354"
       x="0"
       y="0"
       width="744.09448"
       height="1052.3622"
       transform="matrix(0,-4.513029,-4.6071535,0,-88.005502,249.96608)" />
    <use
       id="use12398"
       xlink:href="#id357"
       x="0"
       y="0"
       width="744.09448"
       height="1052.3622"
       transform="matrix(0,-4.513029,-4.6071882,0,-69.775888,249.96608)" />
    <use
       height="1052.3622"
       width="744.09448"
       y="0"
       x="0"
       xlink:href="#id399"
       id="use14232"
       transform="matrix(16.68771,0,0,-11.114027,19.043863,114.88582)" />
    <use
       id="use14246"
       xlink:href="#id404"
       x="0"
       y="0"
       width="744.09448"
       height="1052.3622"
       transform="matrix(4.405388,0,0,-6.1676193,-107.29747,114.34961)" />
    <use
       id="use14296"
       xlink:href="#id411"
       x="0"
       y="0"
       width="744.09448"
       height="1052.3622"
       transform="matrix(22.753779,0,0,-18.938809,-86.827673,116.73079)" />
    <use
       id="use14306"
       xlink:href="#id415"
       x="0"
       y="0"
       width="744.09448"
       height="1052.3622"
       transform="matrix(23.29648,0,0,-13.931915,-54.672395,115.37912)" />
    <use
       height="1052.3622"
       width="744.09448"
       y="0"
       x="0"
       xlink:href="#id416"
       id="use14358"
       transform="matrix(29.179253,0,0,-8.1419764,78.475687,113.61903)" />
  </g>
</svg>
