<svg width="460" height="72" viewBox="0 0 460 72" fill="none" xmlns="http://www.w3.org/2000/svg">
<path fill-rule="evenodd" clip-rule="evenodd" d="M436 33C436 28.1881 436 25.7821 435.692 23.7675C433.92 12.1762 424.824 3.07979 413.232 1.30795C411.218 1 408.812 1 404 1L40 1C35.1881 1 32.7822 1 30.7675 1.30795C19.1762 3.07979 10.0798 12.1762 8.30796 23.7675C8.00001 25.7821 8.00001 28.1881 8.00001 33V33C8.00001 37.8119 8.00001 40.2179 8.30796 42.2325C10.0798 53.8238 19.1762 62.9202 30.7675 64.692C32.7822 65 35.1881 65 40 65H404C408.812 65 411.218 65 413.232 64.692C424.824 62.9202 433.92 53.8238 435.692 42.2325C436 40.2179 436 37.8119 436 33V33Z" fill="#E6E5EB"/>
<path d="M35.7598 45.9995C35.7598 59.8242 24.5532 71.0315 10.7285 71.0317H0L0 70.4458C4.4659 66.6974 7.59685 61.4169 8.60254 55.3901C8.94394 53.3442 8.94336 50.8956 8.94336 45.9995H35.7598Z" fill="#E6E5EB"/>
<path d="M30.2041 24.1899L30.1128 21.6831H30.5029L35.4502 16.022H37.6582L32.8604 21.4092L31.8726 22.2974L30.2041 24.1899ZM28.5024 28V16.022H30.3618V28H28.5024ZM35.7241 28L31.5654 22.2808L32.877 21.019L38.0483 28H35.7241ZM42.041 28.1494C41.471 28.1494 40.9591 28.0415 40.5054 27.8257C40.0571 27.6043 39.703 27.2917 39.4429 26.8877C39.1828 26.4837 39.0527 26.0106 39.0527 25.4683V25.4517C39.0527 24.9093 39.1828 24.4473 39.4429 24.0654C39.7085 23.6836 40.0903 23.3848 40.5884 23.1689C41.092 22.9476 41.7007 22.8148 42.4146 22.7705L45.7432 22.5713V23.8413L42.6636 24.0405C42.0438 24.0793 41.5872 24.2121 41.2939 24.439C41.0007 24.6603 40.854 24.973 40.854 25.377V25.3936C40.854 25.8031 41.0117 26.1268 41.3271 26.3647C41.6426 26.5972 42.041 26.7134 42.5225 26.7134C42.9707 26.7134 43.3691 26.6248 43.7178 26.4478C44.0719 26.2651 44.3486 26.0216 44.5479 25.7173C44.7471 25.4074 44.8467 25.0588 44.8467 24.6714V21.8325C44.8467 21.3345 44.6917 20.9554 44.3818 20.6953C44.0775 20.4297 43.6237 20.2969 43.0205 20.2969C42.5169 20.2969 42.1047 20.3854 41.7837 20.5625C41.4683 20.7396 41.258 20.9886 41.1528 21.3096L41.1362 21.3345H39.4014L39.4097 21.2764C39.4816 20.7783 39.6781 20.3467 39.999 19.9814C40.3255 19.6107 40.7516 19.3229 41.2773 19.1182C41.8086 18.9134 42.4146 18.811 43.0952 18.811C43.8534 18.811 44.4953 18.9328 45.021 19.1763C45.5522 19.4142 45.9535 19.7601 46.2246 20.2139C46.5013 20.6621 46.6396 21.2017 46.6396 21.8325V28H44.8467V26.7217H44.7139C44.5368 27.026 44.3154 27.2861 44.0498 27.502C43.7842 27.7122 43.4826 27.8727 43.145 27.9834C42.8075 28.0941 42.4395 28.1494 42.041 28.1494ZM52.583 28.0581C51.598 28.0581 50.8841 27.87 50.4414 27.4937C50.0042 27.1118 49.7856 26.4893 49.7856 25.626V20.4048H48.3745V18.9854H49.7856V16.7109H51.6284V18.9854H53.5625V20.4048H51.6284V25.186C51.6284 25.673 51.7253 26.0244 51.9189 26.2402C52.1126 26.4505 52.4336 26.5557 52.8818 26.5557C53.0146 26.5557 53.1281 26.5529 53.2222 26.5474C53.3218 26.5418 53.4352 26.5335 53.5625 26.5225V27.9668C53.4186 27.9889 53.2637 28.0083 53.0977 28.0249C52.9316 28.047 52.7601 28.0581 52.583 28.0581ZM55.6958 28V18.9854H57.5054V28H55.6958ZM56.6089 17.375C56.299 17.375 56.0334 17.2643 55.812 17.043C55.5907 16.8216 55.48 16.556 55.48 16.2461C55.48 15.9362 55.5907 15.6733 55.812 15.4575C56.0334 15.2362 56.299 15.1255 56.6089 15.1255C56.9188 15.1255 57.1844 15.2362 57.4058 15.4575C57.6271 15.6733 57.7378 15.9362 57.7378 16.2461C57.7378 16.556 57.6271 16.8216 57.4058 17.043C57.1844 17.2643 56.9188 17.375 56.6089 17.375ZM63.9053 28.1743C63.0254 28.1743 62.27 27.9862 61.6392 27.6099C61.0083 27.228 60.5213 26.6885 60.1782 25.9912C59.8407 25.2939 59.6719 24.4694 59.6719 23.5176V23.5093C59.6719 22.5685 59.8407 21.7467 60.1782 21.0439C60.5213 20.3411 61.0028 19.7933 61.6226 19.4004C62.2479 19.0075 62.9784 18.811 63.814 18.811C64.6551 18.811 65.3773 18.9992 65.9805 19.3755C66.5892 19.7518 67.0568 20.2803 67.3833 20.9609C67.7098 21.6361 67.873 22.4274 67.873 23.335V23.9658H60.585V22.6792H66.9766L66.1133 23.8745V23.1523C66.1133 22.5104 66.0137 21.9792 65.8145 21.5586C65.6208 21.1325 65.3524 20.8143 65.0093 20.604C64.6662 20.3937 64.2705 20.2886 63.8223 20.2886C63.374 20.2886 62.9728 20.3993 62.6187 20.6206C62.27 20.8364 61.9933 21.1574 61.7886 21.5835C61.5894 22.0096 61.4897 22.5326 61.4897 23.1523V23.8745C61.4897 24.4666 61.5894 24.973 61.7886 25.3936C61.9878 25.8141 62.27 26.1351 62.6353 26.3564C63.006 26.5778 63.4432 26.6885 63.9468 26.6885C64.3341 26.6885 64.6662 26.6359 64.9429 26.5308C65.2251 26.4201 65.4548 26.2845 65.6318 26.124C65.8145 25.9635 65.939 25.8058 66.0054 25.6509L66.0386 25.5845H67.7817L67.7651 25.6592C67.6877 25.958 67.5521 26.2568 67.3584 26.5557C67.1647 26.849 66.9074 27.1174 66.5864 27.3608C66.271 27.6043 65.8892 27.8008 65.4409 27.9502C64.9982 28.0996 64.4863 28.1743 63.9053 28.1743Z" fill="#007AFF"/>
<path d="M74.9287 28V15.499H76.373V20.3965H76.5059C76.7327 19.9206 77.0592 19.5526 77.4854 19.2925C77.9115 19.0269 78.4538 18.894 79.1123 18.894C79.7819 18.894 80.3491 19.0241 80.814 19.2842C81.2788 19.5387 81.633 19.9123 81.8765 20.4048C82.12 20.8973 82.2417 21.4977 82.2417 22.2061V28H80.7974V22.5547C80.7974 21.7467 80.6258 21.1491 80.2827 20.7617C79.9451 20.3688 79.4194 20.1724 78.7056 20.1724C78.2297 20.1724 77.8174 20.2747 77.4688 20.4795C77.1201 20.6842 76.849 20.9748 76.6553 21.3511C76.4671 21.7274 76.373 22.1784 76.373 22.7041V28H74.9287ZM88.5337 28.1577C87.687 28.1577 86.9538 27.9723 86.334 27.6016C85.7197 27.2253 85.2438 26.6912 84.9062 25.9995C84.5742 25.3078 84.4082 24.486 84.4082 23.5342V23.5176C84.4082 22.5602 84.5742 21.7357 84.9062 21.0439C85.2438 20.3522 85.7197 19.821 86.334 19.4502C86.9538 19.0794 87.687 18.894 88.5337 18.894C89.3859 18.894 90.1191 19.0794 90.7334 19.4502C91.3477 19.821 91.8208 20.3522 92.1528 21.0439C92.4904 21.7357 92.6592 22.5602 92.6592 23.5176V23.5342C92.6592 24.486 92.4904 25.3078 92.1528 25.9995C91.8208 26.6912 91.3477 27.2253 90.7334 27.6016C90.1191 27.9723 89.3859 28.1577 88.5337 28.1577ZM88.5337 26.8794C89.0981 26.8794 89.5768 26.7466 89.9697 26.481C90.3626 26.2153 90.6615 25.8335 90.8662 25.3354C91.0765 24.8374 91.1816 24.237 91.1816 23.5342V23.5176C91.1816 22.8092 91.0765 22.2061 90.8662 21.708C90.6615 21.21 90.3626 20.8309 89.9697 20.5708C89.5768 20.3052 89.0981 20.1724 88.5337 20.1724C87.9692 20.1724 87.4906 20.3052 87.0977 20.5708C86.7048 20.8309 86.4032 21.21 86.1929 21.708C85.9881 22.2061 85.8857 22.8092 85.8857 23.5176V23.5342C85.8857 24.237 85.9881 24.8374 86.1929 25.3354C86.4032 25.8335 86.7048 26.2153 87.0977 26.481C87.4906 26.7466 87.9692 26.8794 88.5337 26.8794ZM97.9717 28.1577C97.3076 28.1577 96.721 28.0581 96.2119 27.8589C95.7028 27.6541 95.2933 27.3691 94.9834 27.0039C94.679 26.6387 94.4992 26.2098 94.4438 25.7173H95.9214C96.0431 26.0881 96.2811 26.3869 96.6353 26.6138C96.9894 26.8407 97.4515 26.9541 98.0215 26.9541C98.4255 26.9541 98.7796 26.896 99.084 26.7798C99.3939 26.658 99.6374 26.4948 99.8145 26.29C99.9915 26.0798 100.08 25.839 100.08 25.5679V25.5513C100.08 25.2469 99.9583 24.9896 99.7148 24.7793C99.4714 24.5635 99.0729 24.3892 98.5195 24.2563L97.1333 23.9243C96.5744 23.7915 96.1151 23.62 95.7554 23.4097C95.3957 23.1938 95.13 22.931 94.9585 22.6211C94.7869 22.3057 94.7012 21.9349 94.7012 21.5088V21.5005C94.7012 21.0024 94.8451 20.557 95.1328 20.1641C95.4261 19.7712 95.8245 19.4613 96.3281 19.2344C96.8317 19.0075 97.3989 18.894 98.0298 18.894C98.6551 18.894 99.2085 18.9937 99.6899 19.1929C100.177 19.3866 100.567 19.6632 100.86 20.0229C101.159 20.3826 101.342 20.806 101.408 21.293H99.9888C99.8947 20.9388 99.6789 20.651 99.3413 20.4297C99.0037 20.2083 98.5638 20.0977 98.0215 20.0977C97.6673 20.0977 97.3519 20.1558 97.0752 20.272C96.7985 20.3826 96.5799 20.5376 96.4194 20.7368C96.259 20.936 96.1787 21.1685 96.1787 21.4341V21.4507C96.1787 21.6499 96.2313 21.827 96.3364 21.9819C96.4416 22.1369 96.6048 22.2725 96.8262 22.3887C97.0475 22.5049 97.3325 22.6073 97.6812 22.6958L99.0591 23.0278C99.9002 23.2326 100.526 23.5259 100.935 23.9077C101.35 24.2896 101.558 24.8014 101.558 25.4434V25.46C101.558 25.9912 101.4 26.4616 101.084 26.8711C100.769 27.2751 100.34 27.5905 99.7979 27.8174C99.2611 28.0443 98.6523 28.1577 97.9717 28.1577ZM106.895 28.0664C105.976 28.0664 105.31 27.881 104.895 27.5103C104.485 27.1395 104.28 26.528 104.28 25.6758V20.2471H102.869V19.0518H104.28V16.7358H105.774V19.0518H107.733V20.2471H105.774V25.3105C105.774 25.8363 105.874 26.2153 106.073 26.4478C106.272 26.6746 106.604 26.7881 107.069 26.7881C107.197 26.7881 107.305 26.7853 107.393 26.7798C107.487 26.7743 107.601 26.766 107.733 26.7549V27.9834C107.595 28.0055 107.457 28.0249 107.318 28.0415C107.18 28.0581 107.039 28.0664 106.895 28.0664ZM112.797 28.1577C112.133 28.1577 111.546 28.0581 111.037 27.8589C110.528 27.6541 110.118 27.3691 109.809 27.0039C109.504 26.6387 109.324 26.2098 109.269 25.7173H110.747C110.868 26.0881 111.106 26.3869 111.46 26.6138C111.815 26.8407 112.277 26.9541 112.847 26.9541C113.251 26.9541 113.605 26.896 113.909 26.7798C114.219 26.658 114.463 26.4948 114.64 26.29C114.817 26.0798 114.905 25.839 114.905 25.5679V25.5513C114.905 25.2469 114.784 24.9896 114.54 24.7793C114.297 24.5635 113.898 24.3892 113.345 24.2563L111.958 23.9243C111.4 23.7915 110.94 23.62 110.581 23.4097C110.221 23.1938 109.955 22.931 109.784 22.6211C109.612 22.3057 109.526 21.9349 109.526 21.5088V21.5005C109.526 21.0024 109.67 20.557 109.958 20.1641C110.251 19.7712 110.65 19.4613 111.153 19.2344C111.657 19.0075 112.224 18.894 112.855 18.894C113.48 18.894 114.034 18.9937 114.515 19.1929C115.002 19.3866 115.392 19.6632 115.686 20.0229C115.984 20.3826 116.167 20.806 116.233 21.293H114.814C114.72 20.9388 114.504 20.651 114.167 20.4297C113.829 20.2083 113.389 20.0977 112.847 20.0977C112.493 20.0977 112.177 20.1558 111.9 20.272C111.624 20.3826 111.405 20.5376 111.245 20.7368C111.084 20.936 111.004 21.1685 111.004 21.4341V21.4507C111.004 21.6499 111.056 21.827 111.162 21.9819C111.267 22.1369 111.43 22.2725 111.651 22.3887C111.873 22.5049 112.158 22.6073 112.506 22.6958L113.884 23.0278C114.725 23.2326 115.351 23.5259 115.76 23.9077C116.175 24.2896 116.383 24.8014 116.383 25.4434V25.46C116.383 25.9912 116.225 26.4616 115.91 26.8711C115.594 27.2751 115.165 27.5905 114.623 27.8174C114.086 28.0443 113.478 28.1577 112.797 28.1577ZM125.862 28.1577C125.298 28.1577 124.789 28.0498 124.335 27.834C123.887 27.6182 123.53 27.311 123.264 26.9126C123.004 26.5142 122.874 26.0438 122.874 25.5015V25.4849C122.874 24.9536 123.001 24.4998 123.256 24.1235C123.51 23.7417 123.881 23.4429 124.368 23.2271C124.855 23.0112 125.444 22.884 126.136 22.8452L129.423 22.646V23.7998L126.311 23.999C125.63 24.0378 125.132 24.1789 124.816 24.4224C124.507 24.6659 124.352 25.009 124.352 25.4517V25.4683C124.352 25.922 124.523 26.2762 124.866 26.5308C125.209 26.7798 125.641 26.9043 126.161 26.9043C126.654 26.9043 127.091 26.8075 127.473 26.6138C127.854 26.4146 128.153 26.1462 128.369 25.8086C128.59 25.471 128.701 25.0892 128.701 24.6631V21.874C128.701 21.3206 128.532 20.9001 128.195 20.6123C127.863 20.319 127.362 20.1724 126.692 20.1724C126.156 20.1724 125.716 20.2692 125.373 20.4629C125.029 20.651 124.8 20.9194 124.684 21.2681L124.675 21.293H123.231L123.239 21.2432C123.317 20.7728 123.51 20.3633 123.82 20.0146C124.136 19.6605 124.542 19.3866 125.041 19.1929C125.539 18.9937 126.106 18.894 126.742 18.894C127.473 18.894 128.09 19.013 128.593 19.251C129.102 19.4889 129.487 19.832 129.747 20.2803C130.013 20.723 130.146 21.2542 130.146 21.874V28H128.701V26.6802H128.568C128.38 26.9956 128.151 27.264 127.879 27.4854C127.614 27.7067 127.312 27.8755 126.975 27.9917C126.637 28.1024 126.266 28.1577 125.862 28.1577ZM139.293 28L136.786 19.0518H138.23L139.99 26.207H140.123L142.124 19.0518H143.493L145.494 26.207H145.626L147.386 19.0518H148.822L146.315 28H144.863L142.862 21.0771H142.729L140.737 28H139.293ZM154.052 28.1577C153.2 28.1577 152.466 27.9696 151.852 27.5933C151.243 27.217 150.773 26.6857 150.441 25.9995C150.114 25.3078 149.951 24.4943 149.951 23.5591V23.5508C149.951 22.6266 150.114 21.8159 150.441 21.1187C150.773 20.4214 151.241 19.8763 151.844 19.4834C152.447 19.0905 153.153 18.894 153.96 18.894C154.774 18.894 155.471 19.0822 156.052 19.4585C156.639 19.8348 157.087 20.3605 157.397 21.0356C157.712 21.7052 157.87 22.4855 157.87 23.3765V23.9409H150.698V22.7871H157.131L156.417 23.8413V23.2686C156.417 22.5658 156.312 21.9875 156.102 21.5337C155.892 21.0799 155.601 20.7424 155.23 20.521C154.86 20.2941 154.434 20.1807 153.952 20.1807C153.471 20.1807 153.039 20.2996 152.657 20.5376C152.281 20.77 151.982 21.1159 151.761 21.5752C151.539 22.0345 151.429 22.599 151.429 23.2686V23.8413C151.429 24.4777 151.537 25.0228 151.752 25.4766C151.968 25.9248 152.275 26.2707 152.674 26.5142C153.072 26.7521 153.543 26.8711 154.085 26.8711C154.489 26.8711 154.84 26.8158 155.139 26.7051C155.438 26.5944 155.684 26.4533 155.878 26.2817C156.072 26.1102 156.207 25.9359 156.285 25.7588L156.318 25.6841H157.762L157.746 25.7505C157.668 26.0549 157.53 26.3509 157.331 26.6387C157.137 26.9209 156.885 27.1782 156.575 27.4106C156.265 27.6375 155.897 27.8201 155.471 27.9585C155.051 28.0913 154.577 28.1577 154.052 28.1577ZM163.764 28.1577C162.911 28.1577 162.178 27.9696 161.564 27.5933C160.955 27.217 160.485 26.6857 160.153 25.9995C159.826 25.3078 159.663 24.4943 159.663 23.5591V23.5508C159.663 22.6266 159.826 21.8159 160.153 21.1187C160.485 20.4214 160.952 19.8763 161.556 19.4834C162.159 19.0905 162.864 18.894 163.672 18.894C164.486 18.894 165.183 19.0822 165.764 19.4585C166.351 19.8348 166.799 20.3605 167.109 21.0356C167.424 21.7052 167.582 22.4855 167.582 23.3765V23.9409H160.41V22.7871H166.843L166.129 23.8413V23.2686C166.129 22.5658 166.024 21.9875 165.814 21.5337C165.604 21.0799 165.313 20.7424 164.942 20.521C164.572 20.2941 164.146 20.1807 163.664 20.1807C163.183 20.1807 162.751 20.2996 162.369 20.5376C161.993 20.77 161.694 21.1159 161.473 21.5752C161.251 22.0345 161.141 22.599 161.141 23.2686V23.8413C161.141 24.4777 161.249 25.0228 161.464 25.4766C161.68 25.9248 161.987 26.2707 162.386 26.5142C162.784 26.7521 163.255 26.8711 163.797 26.8711C164.201 26.8711 164.552 26.8158 164.851 26.7051C165.15 26.5944 165.396 26.4533 165.59 26.2817C165.784 26.1102 165.919 25.9359 165.997 25.7588L166.03 25.6841H167.474L167.458 25.7505C167.38 26.0549 167.242 26.3509 167.042 26.6387C166.849 26.9209 166.597 27.1782 166.287 27.4106C165.977 27.6375 165.609 27.8201 165.183 27.9585C164.763 28.0913 164.289 28.1577 163.764 28.1577ZM169.906 28V15.499H171.351V28H169.906ZM175.542 28L172.048 23.6172L173.11 22.6958L177.36 28H175.542ZM171.168 24.7793L171.102 22.9614H171.483L175.352 19.0518H177.103L172.853 23.1523L172.504 23.4927L171.168 24.7793ZM179.137 28V15.499H180.581V28H179.137ZM184.117 31.1377C184.023 31.1377 183.918 31.1322 183.802 31.1211C183.686 31.1156 183.578 31.1045 183.478 31.0879V29.9009C183.567 29.9175 183.663 29.9285 183.769 29.9341C183.874 29.9396 183.976 29.9424 184.076 29.9424C184.485 29.9424 184.82 29.8372 185.08 29.627C185.346 29.4167 185.559 29.0542 185.719 28.5396L185.885 28.0083L182.573 19.0518H184.117L186.873 27.3193L186.3 26.4146H186.981L186.408 27.3193L189.156 19.0518H190.675L187.18 28.5479C186.937 29.2174 186.679 29.7404 186.408 30.1167C186.137 30.493 185.819 30.7559 185.454 30.9053C185.094 31.0602 184.648 31.1377 184.117 31.1377ZM197.365 28V19.0518H198.81V20.3799H198.942C199.114 19.9095 199.404 19.5443 199.814 19.2842C200.223 19.0241 200.73 18.894 201.333 18.894C201.471 18.894 201.607 18.9023 201.74 18.9189C201.878 18.93 201.983 18.9411 202.055 18.9521V20.355C201.906 20.3273 201.759 20.3079 201.615 20.2969C201.477 20.2803 201.327 20.272 201.167 20.272C200.708 20.272 200.301 20.3633 199.947 20.5459C199.593 20.7285 199.313 20.9831 199.108 21.3096C198.909 21.6361 198.81 22.0179 198.81 22.4551V28H197.365ZM206.836 28.1577C206.161 28.1577 205.594 28.0304 205.135 27.7759C204.675 27.5158 204.33 27.1395 204.097 26.647C203.87 26.1489 203.757 25.5485 203.757 24.8457V19.0518H205.201V24.4971C205.201 25.2995 205.356 25.8971 205.666 26.29C205.981 26.6829 206.496 26.8794 207.21 26.8794C207.603 26.8794 207.949 26.8213 208.248 26.7051C208.552 26.5889 208.806 26.4229 209.011 26.207C209.216 25.9857 209.368 25.7201 209.468 25.4102C209.573 25.0947 209.625 24.7406 209.625 24.3477V19.0518H211.07V28H209.625V26.6636H209.493C209.349 26.979 209.152 27.2502 208.903 27.4771C208.654 27.6984 208.355 27.8672 208.007 27.9834C207.664 28.0996 207.274 28.1577 206.836 28.1577ZM213.768 28V19.0518H215.212V20.3965H215.345C215.572 19.9206 215.898 19.5526 216.324 19.2925C216.75 19.0269 217.293 18.894 217.951 18.894C218.958 18.894 219.73 19.1818 220.267 19.7573C220.809 20.3273 221.081 21.1436 221.081 22.2061V28H219.636V22.5547C219.636 21.7467 219.465 21.1491 219.122 20.7617C218.784 20.3688 218.258 20.1724 217.544 20.1724C217.069 20.1724 216.656 20.2747 216.308 20.4795C215.959 20.6842 215.688 20.9748 215.494 21.3511C215.306 21.7274 215.212 22.1784 215.212 22.7041V28H213.768ZM232.137 28.1577C231.302 28.1577 230.577 27.9668 229.962 27.585C229.348 27.2031 228.872 26.6636 228.535 25.9663C228.197 25.269 228.028 24.4473 228.028 23.501V23.4844C228.028 22.5547 228.194 21.7467 228.526 21.0605C228.864 20.3743 229.34 19.8431 229.954 19.4668C230.568 19.085 231.293 18.894 232.129 18.894C232.854 18.894 233.479 19.0213 234.005 19.2759C234.531 19.5304 234.951 19.8735 235.267 20.3052C235.582 20.7313 235.784 21.21 235.873 21.7412L235.881 21.791H234.445L234.437 21.7661C234.326 21.3234 234.074 20.9471 233.681 20.6372C233.288 20.3273 232.771 20.1724 232.129 20.1724C231.592 20.1724 231.127 20.3079 230.734 20.5791C230.341 20.8503 230.037 21.2349 229.821 21.7329C229.611 22.2254 229.506 22.8092 229.506 23.4844V23.501C229.506 24.1872 229.614 24.7848 229.83 25.2939C230.045 25.7975 230.35 26.1877 230.743 26.4644C231.136 26.741 231.598 26.8794 232.129 26.8794C232.732 26.8794 233.225 26.7493 233.606 26.4893C233.988 26.2292 234.262 25.8501 234.428 25.3521L234.445 25.3022L235.873 25.2939L235.856 25.3853C235.734 25.922 235.518 26.4007 235.208 26.8213C234.899 27.2363 234.489 27.5628 233.98 27.8008C233.471 28.0387 232.857 28.1577 232.137 28.1577ZM238.072 28V15.499H239.517V28H238.072ZM245.286 28.1577C244.611 28.1577 244.043 28.0304 243.584 27.7759C243.125 27.5158 242.779 27.1395 242.546 26.647C242.319 26.1489 242.206 25.5485 242.206 24.8457V19.0518H243.65V24.4971C243.65 25.2995 243.805 25.8971 244.115 26.29C244.431 26.6829 244.945 26.8794 245.659 26.8794C246.052 26.8794 246.398 26.8213 246.697 26.7051C247.001 26.5889 247.256 26.4229 247.46 26.207C247.665 25.9857 247.817 25.7201 247.917 25.4102C248.022 25.0947 248.075 24.7406 248.075 24.3477V19.0518H249.519V28H248.075V26.6636H247.942C247.798 26.979 247.602 27.2502 247.353 27.4771C247.104 27.6984 246.805 27.8672 246.456 27.9834C246.113 28.0996 245.723 28.1577 245.286 28.1577ZM256.666 28.1577C256.251 28.1577 255.866 28.0941 255.512 27.9668C255.158 27.8395 254.843 27.6597 254.566 27.4272C254.289 27.1893 254.06 26.9043 253.877 26.5723H253.744V28H252.3V15.499H253.744V20.4629H253.877C254.043 20.1419 254.264 19.8652 254.541 19.6328C254.823 19.4004 255.144 19.2205 255.504 19.0933C255.869 18.9604 256.257 18.894 256.666 18.894C257.424 18.894 258.083 19.085 258.642 19.4668C259.206 19.8486 259.643 20.3854 259.953 21.0771C260.263 21.7689 260.418 22.5824 260.418 23.5176V23.5342C260.418 24.4639 260.263 25.2773 259.953 25.9746C259.643 26.6663 259.206 27.2031 258.642 27.585C258.083 27.9668 257.424 28.1577 256.666 28.1577ZM256.334 26.8794C256.882 26.8794 257.349 26.7466 257.737 26.481C258.124 26.2098 258.42 25.8252 258.625 25.3271C258.835 24.8236 258.94 24.2259 258.94 23.5342V23.5176C258.94 22.8203 258.835 22.2227 258.625 21.7246C258.42 21.2266 258.124 20.8447 257.737 20.5791C257.349 20.3079 256.882 20.1724 256.334 20.1724C255.792 20.1724 255.324 20.3079 254.931 20.5791C254.538 20.8503 254.237 21.2349 254.026 21.7329C253.816 22.231 253.711 22.8258 253.711 23.5176V23.5342C253.711 24.2204 253.816 24.8153 254.026 25.3188C254.237 25.8169 254.538 26.2015 254.931 26.4727C255.324 26.7438 255.792 26.8794 256.334 26.8794ZM267.474 28V19.0518H268.918V28H267.474ZM268.204 17.3252C267.933 17.3252 267.698 17.2284 267.499 17.0347C267.305 16.8354 267.208 16.6003 267.208 16.3291C267.208 16.0524 267.305 15.8172 267.499 15.6235C267.698 15.4299 267.933 15.333 268.204 15.333C268.481 15.333 268.716 15.4299 268.91 15.6235C269.103 15.8172 269.2 16.0524 269.2 16.3291C269.2 16.6003 269.103 16.8354 268.91 17.0347C268.716 17.2284 268.481 17.3252 268.204 17.3252ZM271.641 28V19.0518H273.085V20.3965H273.218C273.445 19.9206 273.771 19.5526 274.197 19.2925C274.623 19.0269 275.166 18.894 275.824 18.894C276.831 18.894 277.603 19.1818 278.14 19.7573C278.682 20.3273 278.954 21.1436 278.954 22.2061V28H277.509V22.5547C277.509 21.7467 277.338 21.1491 276.995 20.7617C276.657 20.3688 276.131 20.1724 275.417 20.1724C274.942 20.1724 274.529 20.2747 274.181 20.4795C273.832 20.6842 273.561 20.9748 273.367 21.3511C273.179 21.7274 273.085 22.1784 273.085 22.7041V28H271.641ZM286.532 28V16.022H287.985L294.85 25.8667L293.854 25.3438H294.617V16.022H296.095V28H294.642L287.777 18.1885L288.773 18.7114H288.01V28H286.532ZM302.445 28V22.8452L298.195 16.022H299.896L303.125 21.3428H303.258L306.487 16.022H308.189L303.939 22.8452V28H302.445ZM314.531 28.2822C313.446 28.2822 312.508 28.0277 311.717 27.5186C310.925 27.0094 310.314 26.2873 309.882 25.3521C309.456 24.4168 309.243 23.3073 309.243 22.0234V22.0068C309.243 20.7174 309.456 19.6051 309.882 18.6699C310.314 17.7347 310.923 17.0125 311.708 16.5034C312.5 15.9943 313.438 15.7397 314.522 15.7397C315.364 15.7397 316.127 15.9058 316.813 16.2378C317.505 16.5643 318.075 17.0208 318.523 17.6074C318.972 18.1885 319.254 18.8608 319.37 19.6245L319.362 19.6411H317.859L317.851 19.6245C317.718 19.1099 317.494 18.6672 317.179 18.2964C316.863 17.9201 316.479 17.6296 316.025 17.4248C315.577 17.2201 315.076 17.1177 314.522 17.1177C313.759 17.1177 313.095 17.3169 312.53 17.7153C311.971 18.1138 311.54 18.6782 311.235 19.4087C310.931 20.1392 310.779 21.0052 310.779 22.0068V22.0234C310.779 23.0195 310.931 23.8828 311.235 24.6133C311.54 25.3438 311.971 25.9082 312.53 26.3066C313.095 26.7051 313.762 26.9043 314.531 26.9043C315.09 26.9043 315.596 26.8158 316.05 26.6387C316.504 26.4561 316.885 26.1987 317.195 25.8667C317.505 25.5291 317.721 25.1307 317.843 24.6714L317.859 24.6548H319.37V24.6714C319.237 25.4019 318.95 26.0382 318.507 26.5806C318.064 27.1174 317.502 27.5352 316.822 27.834C316.147 28.1328 315.383 28.2822 314.531 28.2822ZM321.329 31.0464L322.051 26.3232H323.703L322.4 31.0464H321.329ZM333.249 28L330.742 19.0518H332.187L333.946 26.207H334.079L336.08 19.0518H337.449L339.45 26.207H339.583L341.342 19.0518H342.778L340.271 28H338.819L336.818 21.0771H336.686L334.693 28H333.249ZM346.896 28.1577C346.331 28.1577 345.822 28.0498 345.368 27.834C344.92 27.6182 344.563 27.311 344.297 26.9126C344.037 26.5142 343.907 26.0438 343.907 25.5015V25.4849C343.907 24.9536 344.035 24.4998 344.289 24.1235C344.544 23.7417 344.914 23.4429 345.401 23.2271C345.888 23.0112 346.478 22.884 347.169 22.8452L350.457 22.646V23.7998L347.344 23.999C346.663 24.0378 346.165 24.1789 345.85 24.4224C345.54 24.6659 345.385 25.009 345.385 25.4517V25.4683C345.385 25.922 345.556 26.2762 345.899 26.5308C346.243 26.7798 346.674 26.9043 347.194 26.9043C347.687 26.9043 348.124 26.8075 348.506 26.6138C348.888 26.4146 349.187 26.1462 349.402 25.8086C349.624 25.471 349.734 25.0892 349.734 24.6631V21.874C349.734 21.3206 349.566 20.9001 349.228 20.6123C348.896 20.319 348.395 20.1724 347.726 20.1724C347.189 20.1724 346.749 20.2692 346.406 20.4629C346.063 20.651 345.833 20.9194 345.717 21.2681L345.708 21.293H344.264L344.272 21.2432C344.35 20.7728 344.544 20.3633 344.854 20.0146C345.169 19.6605 345.576 19.3866 346.074 19.1929C346.572 18.9937 347.139 18.894 347.775 18.894C348.506 18.894 349.123 19.013 349.626 19.251C350.136 19.4889 350.52 19.832 350.78 20.2803C351.046 20.723 351.179 21.2542 351.179 21.874V28H349.734V26.6802H349.602C349.413 26.9956 349.184 27.264 348.913 27.4854C348.647 27.7067 348.345 27.8755 348.008 27.9917C347.67 28.1024 347.299 28.1577 346.896 28.1577ZM353.818 28V19.0518H355.263V20.3965H355.396C355.622 19.9206 355.949 19.5526 356.375 19.2925C356.801 19.0269 357.343 18.894 358.002 18.894C359.009 18.894 359.781 19.1818 360.318 19.7573C360.86 20.3273 361.131 21.1436 361.131 22.2061V28H359.687V22.5547C359.687 21.7467 359.515 21.1491 359.172 20.7617C358.835 20.3688 358.309 20.1724 357.595 20.1724C357.119 20.1724 356.707 20.2747 356.358 20.4795C356.01 20.6842 355.739 20.9748 355.545 21.3511C355.357 21.7274 355.263 22.1784 355.263 22.7041V28H353.818ZM366.925 28.0664C366.007 28.0664 365.34 27.881 364.925 27.5103C364.515 27.1395 364.311 26.528 364.311 25.6758V20.2471H362.899V19.0518H364.311V16.7358H365.805V19.0518H367.764V20.2471H365.805V25.3105C365.805 25.8363 365.904 26.2153 366.104 26.4478C366.303 26.6746 366.635 26.7881 367.1 26.7881C367.227 26.7881 367.335 26.7853 367.423 26.7798C367.517 26.7743 367.631 26.766 367.764 26.7549V27.9834C367.625 28.0055 367.487 28.0249 367.349 28.0415C367.21 28.0581 367.069 28.0664 366.925 28.0664ZM374.703 28V19.0518H376.147V20.4131H376.28C376.479 19.9316 376.784 19.5581 377.193 19.2925C377.608 19.0269 378.109 18.894 378.696 18.894C379.1 18.894 379.462 18.9604 379.783 19.0933C380.104 19.2261 380.381 19.4115 380.613 19.6494C380.846 19.8818 381.031 20.153 381.169 20.4629H381.302C381.463 20.1475 381.679 19.8735 381.95 19.6411C382.221 19.4032 382.534 19.2205 382.888 19.0933C383.247 18.9604 383.632 18.894 384.042 18.894C384.65 18.894 385.165 19.0075 385.585 19.2344C386.012 19.4613 386.335 19.7933 386.557 20.2305C386.778 20.6621 386.889 21.1906 386.889 21.8159V28H385.444V22.1479C385.444 21.7052 385.375 21.34 385.237 21.0522C385.104 20.759 384.899 20.5404 384.623 20.3965C384.346 20.2471 383.997 20.1724 383.577 20.1724C383.162 20.1724 382.799 20.2664 382.489 20.4546C382.179 20.6427 381.939 20.8945 381.767 21.21C381.596 21.5199 381.51 21.8657 381.51 22.2476V28H380.065V21.9238C380.065 21.5697 379.988 21.2625 379.833 21.0024C379.684 20.7368 379.468 20.5321 379.186 20.3882C378.909 20.2443 378.582 20.1724 378.206 20.1724C377.819 20.1724 377.467 20.2747 377.152 20.4795C376.842 20.6842 376.596 20.9609 376.413 21.3096C376.236 21.6527 376.147 22.0345 376.147 22.4551V28H374.703ZM393.147 28.1577C392.295 28.1577 391.562 27.9696 390.948 27.5933C390.339 27.217 389.869 26.6857 389.537 25.9995C389.21 25.3078 389.047 24.4943 389.047 23.5591V23.5508C389.047 22.6266 389.21 21.8159 389.537 21.1187C389.869 20.4214 390.336 19.8763 390.939 19.4834C391.543 19.0905 392.248 18.894 393.056 18.894C393.87 18.894 394.567 19.0822 395.148 19.4585C395.735 19.8348 396.183 20.3605 396.493 21.0356C396.808 21.7052 396.966 22.4855 396.966 23.3765V23.9409H389.794V22.7871H396.227L395.513 23.8413V23.2686C395.513 22.5658 395.408 21.9875 395.198 21.5337C394.987 21.0799 394.697 20.7424 394.326 20.521C393.955 20.2941 393.529 20.1807 393.048 20.1807C392.566 20.1807 392.135 20.2996 391.753 20.5376C391.377 20.77 391.078 21.1159 390.856 21.5752C390.635 22.0345 390.524 22.599 390.524 23.2686V23.8413C390.524 24.4777 390.632 25.0228 390.848 25.4766C391.064 25.9248 391.371 26.2707 391.77 26.5142C392.168 26.7521 392.638 26.8711 393.181 26.8711C393.585 26.8711 393.936 26.8158 394.235 26.7051C394.534 26.5944 394.78 26.4533 394.974 26.2817C395.167 26.1102 395.303 25.9359 395.38 25.7588L395.414 25.6841H396.858L396.841 25.7505C396.764 26.0549 396.625 26.3509 396.426 26.6387C396.233 26.9209 395.981 27.1782 395.671 27.4106C395.361 27.6375 394.993 27.8201 394.567 27.9585C394.146 28.0913 393.673 28.1577 393.147 28.1577ZM407.167 28.0664C406.249 28.0664 405.582 27.881 405.167 27.5103C404.757 27.1395 404.553 26.528 404.553 25.6758V20.2471H403.142V19.0518H404.553V16.7358H406.047V19.0518H408.006V20.2471H406.047V25.3105C406.047 25.8363 406.146 26.2153 406.346 26.4478C406.545 26.6746 406.877 26.7881 407.342 26.7881C407.469 26.7881 407.577 26.7853 407.666 26.7798C407.76 26.7743 407.873 26.766 408.006 26.7549V27.9834C407.868 28.0055 407.729 28.0249 407.591 28.0415C407.452 28.0581 407.311 28.0664 407.167 28.0664ZM413.725 28.1577C412.878 28.1577 412.145 27.9723 411.525 27.6016C410.911 27.2253 410.435 26.6912 410.098 25.9995C409.766 25.3078 409.6 24.486 409.6 23.5342V23.5176C409.6 22.5602 409.766 21.7357 410.098 21.0439C410.435 20.3522 410.911 19.821 411.525 19.4502C412.145 19.0794 412.878 18.894 413.725 18.894C414.577 18.894 415.311 19.0794 415.925 19.4502C416.539 19.821 417.012 20.3522 417.344 21.0439C417.682 21.7357 417.851 22.5602 417.851 23.5176V23.5342C417.851 24.486 417.682 25.3078 417.344 25.9995C417.012 26.6912 416.539 27.2253 415.925 27.6016C415.311 27.9723 414.577 28.1577 413.725 28.1577ZM413.725 26.8794C414.29 26.8794 414.768 26.7466 415.161 26.481C415.554 26.2153 415.853 25.8335 416.058 25.3354C416.268 24.8374 416.373 24.237 416.373 23.5342V23.5176C416.373 22.8092 416.268 22.2061 416.058 21.708C415.853 21.21 415.554 20.8309 415.161 20.5708C414.768 20.3052 414.29 20.1724 413.725 20.1724C413.161 20.1724 412.682 20.3052 412.289 20.5708C411.896 20.8309 411.595 21.21 411.384 21.708C411.18 22.2061 411.077 22.8092 411.077 23.5176V23.5342C411.077 24.237 411.18 24.8374 411.384 25.3354C411.595 25.8335 411.896 26.2153 412.289 26.481C412.682 26.7466 413.161 26.8794 413.725 26.8794ZM28.3447 48V39.0518H29.7891V40.4131H29.9219C30.1211 39.9316 30.4255 39.5581 30.835 39.2925C31.25 39.0269 31.7508 38.894 32.3374 38.894C32.7414 38.894 33.1038 38.9604 33.4248 39.0933C33.7458 39.2261 34.0225 39.4115 34.2549 39.6494C34.4873 39.8818 34.6727 40.153 34.811 40.4629H34.9438C35.1043 40.1475 35.3201 39.8735 35.5913 39.6411C35.8625 39.4032 36.1751 39.2205 36.5293 39.0933C36.889 38.9604 37.2736 38.894 37.6831 38.894C38.2918 38.894 38.8065 39.0075 39.2271 39.2344C39.6532 39.4613 39.9769 39.7933 40.1982 40.2305C40.4196 40.6621 40.5303 41.1906 40.5303 41.8159V48H39.0859V42.1479C39.0859 41.7052 39.0168 41.34 38.8784 41.0522C38.7456 40.759 38.5409 40.5404 38.2642 40.3965C37.9875 40.2471 37.6388 40.1724 37.2183 40.1724C36.8032 40.1724 36.4408 40.2664 36.1309 40.4546C35.821 40.6427 35.5802 40.8945 35.4087 41.21C35.2371 41.5199 35.1514 41.8657 35.1514 42.2476V48H33.707V41.9238C33.707 41.5697 33.6296 41.2625 33.4746 41.0024C33.3252 40.7368 33.1094 40.5321 32.8271 40.3882C32.5505 40.2443 32.224 40.1724 31.8477 40.1724C31.4603 40.1724 31.1089 40.2747 30.7935 40.4795C30.4836 40.6842 30.2373 40.9609 30.0547 41.3096C29.8776 41.6527 29.7891 42.0345 29.7891 42.4551V48H28.3447ZM45.5938 48.1577C45.0293 48.1577 44.5202 48.0498 44.0664 47.834C43.6182 47.6182 43.2612 47.311 42.9956 46.9126C42.7355 46.5142 42.6055 46.0438 42.6055 45.5015V45.4849C42.6055 44.9536 42.7327 44.4998 42.9873 44.1235C43.2419 43.7417 43.6126 43.4429 44.0996 43.2271C44.5866 43.0112 45.1759 42.884 45.8677 42.8452L49.1548 42.646V43.7998L46.042 43.999C45.3613 44.0378 44.8633 44.1789 44.5479 44.4224C44.238 44.6659 44.083 45.009 44.083 45.4517V45.4683C44.083 45.922 44.2546 46.2762 44.5977 46.5308C44.9408 46.7798 45.3724 46.9043 45.8926 46.9043C46.3851 46.9043 46.8223 46.8075 47.2041 46.6138C47.5859 46.4146 47.8848 46.1462 48.1006 45.8086C48.3219 45.471 48.4326 45.0892 48.4326 44.6631V41.874C48.4326 41.3206 48.2638 40.9001 47.9263 40.6123C47.5942 40.319 47.0934 40.1724 46.4238 40.1724C45.887 40.1724 45.4471 40.2692 45.104 40.4629C44.7609 40.651 44.5312 40.9194 44.415 41.2681L44.4067 41.293H42.9624L42.9707 41.2432C43.0482 40.7728 43.2419 40.3633 43.5518 40.0146C43.8672 39.6605 44.2739 39.3866 44.772 39.1929C45.27 38.9937 45.8372 38.894 46.4736 38.894C47.2041 38.894 47.8211 39.013 48.3247 39.251C48.8338 39.4889 49.2184 39.832 49.4785 40.2803C49.7441 40.723 49.877 41.2542 49.877 41.874V48H48.4326V46.6802H48.2998C48.1117 46.9956 47.882 47.264 47.6108 47.4854C47.3452 47.7067 47.0436 47.8755 46.7061 47.9917C46.3685 48.1024 45.9977 48.1577 45.5938 48.1577ZM52.5996 48V35.499H54.0439V48H52.5996ZM58.2358 48L54.7412 43.6172L55.8037 42.6958L60.0537 48H58.2358ZM53.8613 44.7793L53.7949 42.9614H54.1768L58.0449 39.0518H59.7964L55.5464 43.1523L55.1978 43.4927L53.8613 44.7793ZM64.9844 48.1577C64.1322 48.1577 63.3989 47.9696 62.7847 47.5933C62.1759 47.217 61.7056 46.6857 61.3735 45.9995C61.047 45.3078 60.8838 44.4943 60.8838 43.5591V43.5508C60.8838 42.6266 61.047 41.8159 61.3735 41.1187C61.7056 40.4214 62.1732 39.8763 62.7764 39.4834C63.3796 39.0905 64.0851 38.894 64.8931 38.894C65.7065 38.894 66.4038 39.0822 66.9849 39.4585C67.5715 39.8348 68.0197 40.3605 68.3296 41.0356C68.645 41.7052 68.8027 42.4855 68.8027 43.3765V43.9409H61.6309V42.7871H68.064L67.3501 43.8413V43.2686C67.3501 42.5658 67.245 41.9875 67.0347 41.5337C66.8244 41.0799 66.5339 40.7424 66.1631 40.521C65.7923 40.2941 65.3662 40.1807 64.8848 40.1807C64.4033 40.1807 63.9717 40.2996 63.5898 40.5376C63.2135 40.77 62.9147 41.1159 62.6934 41.5752C62.472 42.0345 62.3613 42.599 62.3613 43.2686V43.8413C62.3613 44.4777 62.4692 45.0228 62.6851 45.4766C62.9009 45.9248 63.208 46.2707 63.6064 46.5142C64.0049 46.7521 64.4753 46.8711 65.0176 46.8711C65.4215 46.8711 65.7729 46.8158 66.0718 46.7051C66.3706 46.5944 66.6169 46.4533 66.8105 46.2817C67.0042 46.1102 67.1398 45.9359 67.2173 45.7588L67.2505 45.6841H68.6948L68.6782 45.7505C68.6007 46.0549 68.4624 46.3509 68.2632 46.6387C68.0695 46.9209 67.8177 47.1782 67.5078 47.4106C67.1979 47.6375 66.8299 47.8201 66.4038 47.9585C65.9832 48.0913 65.5101 48.1577 64.9844 48.1577ZM78.2822 48.1577C77.7178 48.1577 77.2087 48.0498 76.7549 47.834C76.3066 47.6182 75.9497 47.311 75.6841 46.9126C75.424 46.5142 75.2939 46.0438 75.2939 45.5015V45.4849C75.2939 44.9536 75.4212 44.4998 75.6758 44.1235C75.9303 43.7417 76.3011 43.4429 76.7881 43.2271C77.2751 43.0112 77.8644 42.884 78.5562 42.8452L81.8433 42.646V43.7998L78.7305 43.999C78.0498 44.0378 77.5518 44.1789 77.2363 44.4224C76.9264 44.6659 76.7715 45.009 76.7715 45.4517V45.4683C76.7715 45.922 76.943 46.2762 77.2861 46.5308C77.6292 46.7798 78.0609 46.9043 78.5811 46.9043C79.0736 46.9043 79.5107 46.8075 79.8926 46.6138C80.2744 46.4146 80.5732 46.1462 80.7891 45.8086C81.0104 45.471 81.1211 45.0892 81.1211 44.6631V41.874C81.1211 41.3206 80.9523 40.9001 80.6147 40.6123C80.2827 40.319 79.7819 40.1724 79.1123 40.1724C78.5755 40.1724 78.1356 40.2692 77.7925 40.4629C77.4494 40.651 77.2197 40.9194 77.1035 41.2681L77.0952 41.293H75.6509L75.6592 41.2432C75.7367 40.7728 75.9303 40.3633 76.2402 40.0146C76.5557 39.6605 76.9624 39.3866 77.4604 39.1929C77.9585 38.9937 78.5257 38.894 79.1621 38.894C79.8926 38.894 80.5096 39.013 81.0132 39.251C81.5223 39.4889 81.9069 39.832 82.167 40.2803C82.4326 40.723 82.5654 41.2542 82.5654 41.874V48H81.1211V46.6802H80.9883C80.8001 46.9956 80.5705 47.264 80.2993 47.4854C80.0337 47.7067 79.7321 47.8755 79.3945 47.9917C79.057 48.1024 78.6862 48.1577 78.2822 48.1577ZM85.2051 48V39.0518H86.6494V40.3965H86.7822C87.0091 39.9206 87.3356 39.5526 87.7617 39.2925C88.1878 39.0269 88.7301 38.894 89.3887 38.894C90.3958 38.894 91.1678 39.1818 91.7046 39.7573C92.2469 40.3273 92.5181 41.1436 92.5181 42.2061V48H91.0737V42.5547C91.0737 41.7467 90.9022 41.1491 90.5591 40.7617C90.2215 40.3688 89.6958 40.1724 88.9819 40.1724C88.506 40.1724 88.0938 40.2747 87.7451 40.4795C87.3965 40.6842 87.1253 40.9748 86.9316 41.3511C86.7435 41.7274 86.6494 42.1784 86.6494 42.7041V48H85.2051ZM99.9473 48V39.0518H101.392V48H99.9473ZM100.678 37.3252C100.407 37.3252 100.171 37.2284 99.9722 37.0347C99.7785 36.8354 99.6816 36.6003 99.6816 36.3291C99.6816 36.0524 99.7785 35.8172 99.9722 35.6235C100.171 35.4299 100.407 35.333 100.678 35.333C100.954 35.333 101.19 35.4299 101.383 35.6235C101.577 35.8172 101.674 36.0524 101.674 36.3291C101.674 36.6003 101.577 36.8354 101.383 37.0347C101.19 37.2284 100.954 37.3252 100.678 37.3252ZM104.114 48V39.0518H105.559V40.3965H105.691C105.918 39.9206 106.245 39.5526 106.671 39.2925C107.097 39.0269 107.639 38.894 108.298 38.894C109.305 38.894 110.077 39.1818 110.614 39.7573C111.156 40.3273 111.427 41.1436 111.427 42.2061V48H109.983V42.5547C109.983 41.7467 109.811 41.1491 109.468 40.7617C109.131 40.3688 108.605 40.1724 107.891 40.1724C107.415 40.1724 107.003 40.2747 106.654 40.4795C106.306 40.6842 106.035 40.9748 105.841 41.3511C105.653 41.7274 105.559 42.1784 105.559 42.7041V48H104.114ZM117.221 48.0664C116.303 48.0664 115.636 47.881 115.221 47.5103C114.811 47.1395 114.606 46.528 114.606 45.6758V40.2471H113.195V39.0518H114.606V36.7358H116.101V39.0518H118.06V40.2471H116.101V45.3105C116.101 45.8363 116.2 46.2153 116.399 46.4478C116.599 46.6746 116.931 46.7881 117.396 46.7881C117.523 46.7881 117.631 46.7853 117.719 46.7798C117.813 46.7743 117.927 46.766 118.06 46.7549V47.9834C117.921 48.0055 117.783 48.0249 117.645 48.0415C117.506 48.0581 117.365 48.0664 117.221 48.0664ZM120.218 48V39.0518H121.662V40.3799H121.795C121.966 39.9095 122.257 39.5443 122.667 39.2842C123.076 39.0241 123.582 38.894 124.186 38.894C124.324 38.894 124.459 38.9023 124.592 38.9189C124.731 38.93 124.836 38.9411 124.908 38.9521V40.355C124.758 40.3273 124.612 40.3079 124.468 40.2969C124.329 40.2803 124.18 40.272 124.02 40.272C123.56 40.272 123.153 40.3633 122.799 40.5459C122.445 40.7285 122.166 40.9831 121.961 41.3096C121.762 41.6361 121.662 42.0179 121.662 42.4551V48H120.218ZM130.121 48.1577C129.274 48.1577 128.541 47.9723 127.921 47.6016C127.307 47.2253 126.831 46.6912 126.493 45.9995C126.161 45.3078 125.995 44.486 125.995 43.5342V43.5176C125.995 42.5602 126.161 41.7357 126.493 41.0439C126.831 40.3522 127.307 39.821 127.921 39.4502C128.541 39.0794 129.274 38.894 130.121 38.894C130.973 38.894 131.706 39.0794 132.32 39.4502C132.935 39.821 133.408 40.3522 133.74 41.0439C134.077 41.7357 134.246 42.5602 134.246 43.5176V43.5342C134.246 44.486 134.077 45.3078 133.74 45.9995C133.408 46.6912 132.935 47.2253 132.32 47.6016C131.706 47.9723 130.973 48.1577 130.121 48.1577ZM130.121 46.8794C130.685 46.8794 131.164 46.7466 131.557 46.481C131.95 46.2153 132.248 45.8335 132.453 45.3354C132.663 44.8374 132.769 44.237 132.769 43.5342V43.5176C132.769 42.8092 132.663 42.2061 132.453 41.708C132.248 41.21 131.95 40.8309 131.557 40.5708C131.164 40.3052 130.685 40.1724 130.121 40.1724C129.556 40.1724 129.077 40.3052 128.685 40.5708C128.292 40.8309 127.99 41.21 127.78 41.708C127.575 42.2061 127.473 42.8092 127.473 43.5176V43.5342C127.473 44.237 127.575 44.8374 127.78 45.3354C127.99 45.8335 128.292 46.2153 128.685 46.481C129.077 46.7466 129.556 46.8794 130.121 46.8794ZM138.405 44.2979V43.5342C138.405 43.1689 138.463 42.8397 138.579 42.5464C138.695 42.2476 138.878 41.9736 139.127 41.7246C139.376 41.4756 139.689 41.2376 140.065 41.0107C140.386 40.8115 140.643 40.6178 140.837 40.4297C141.036 40.236 141.18 40.0257 141.269 39.7988C141.357 39.5719 141.401 39.3118 141.401 39.0186V39.002C141.401 38.6589 141.318 38.3545 141.152 38.0889C140.986 37.8232 140.751 37.613 140.447 37.458C140.142 37.3031 139.783 37.2256 139.368 37.2256C138.953 37.2256 138.59 37.3031 138.28 37.458C137.97 37.613 137.724 37.8343 137.542 38.1221C137.364 38.4098 137.262 38.7502 137.234 39.1431L137.218 39.1514L135.807 39.1597V39.1431C135.84 38.5509 135.995 38.0114 136.271 37.5244C136.548 37.0374 136.949 36.6501 137.475 36.3623C138.001 36.0745 138.651 35.9307 139.426 35.9307C140.123 35.9307 140.735 36.0635 141.26 36.3291C141.792 36.5892 142.204 36.9461 142.497 37.3999C142.796 37.8481 142.945 38.3573 142.945 38.9272V38.9438C142.945 39.3755 142.873 39.7684 142.729 40.1226C142.591 40.4712 142.392 40.7839 142.132 41.0605C141.872 41.3372 141.565 41.5835 141.21 41.7993C140.862 42.0041 140.588 42.2005 140.389 42.3887C140.195 42.5768 140.057 42.7788 139.974 42.9946C139.896 43.2104 139.857 43.465 139.857 43.7583V44.2979H138.405ZM139.243 48.1494C138.906 48.1494 138.629 48.0415 138.413 47.8257C138.197 47.6099 138.089 47.3332 138.089 46.9956C138.089 46.6525 138.197 46.373 138.413 46.1572C138.629 45.9414 138.906 45.8335 139.243 45.8335C139.581 45.8335 139.855 45.9414 140.065 46.1572C140.281 46.373 140.389 46.6525 140.389 46.9956C140.389 47.3332 140.281 47.6099 140.065 47.8257C139.855 48.0415 139.581 48.1494 139.243 48.1494Z" fill="black"/>
<path d="M27 31.0879H68.7197V32.2998H27V31.0879Z" fill="#007AFF"/>
</svg>
