<svg width="388" height="64" viewBox="0 0 388 64" fill="none" xmlns="http://www.w3.org/2000/svg">
<path fill-rule="evenodd" clip-rule="evenodd" d="M387.021 31.7553C387.021 23.0808 387.021 18.7436 385.829 15.2485C383.602 8.71831 378.473 3.58958 371.943 1.36228C368.448 0.170166 364.111 0.170166 355.436 0.170166L39.5846 0.170166C30.9101 0.170166 26.5729 0.170166 23.0778 1.36228C16.5476 3.58958 11.4189 8.71831 9.19158 15.2485C7.99947 18.7436 7.99947 23.0808 7.99947 31.7553V31.7553C7.99947 40.4298 7.99947 44.7671 9.19158 48.2622C11.4189 54.7924 16.5476 59.9211 23.0778 62.1484C26.5729 63.3405 30.9101 63.3405 39.5846 63.3405H355.436C364.111 63.3405 368.448 63.3405 371.943 62.1484C378.473 59.9211 383.602 54.7924 385.829 48.2622C387.021 44.7671 387.021 40.4298 387.021 31.7553V31.7553Z" fill="#E6E5EB"/>
<path d="M30.5361 43.0784C30.536 54.5558 21.2313 63.8596 9.75391 63.8596H0.847656V63.3713C4.55401 60.2596 7.15247 55.8766 7.9873 50.8743C8.27074 49.1758 8.27051 47.143 8.27051 43.0784H30.5361Z" fill="#E6E5EB"/>
<path d="M30.4611 28V15.9519H35.1952C36.392 15.9519 37.4106 16.1856 38.2511 16.6532C39.0972 17.1152 39.7401 17.7887 40.1798 18.6738C40.6251 19.5588 40.8478 20.6303 40.8478 21.8883V21.905C40.8478 23.2019 40.6279 24.304 40.1882 25.2113C39.7484 26.1186 39.1083 26.8116 38.2678 27.2903C37.4273 27.7634 36.4031 28 35.1952 28H30.4611ZM32.9826 25.921H34.8028C35.5431 25.921 36.1721 25.7707 36.6898 25.4701C37.2074 25.164 37.5998 24.7159 37.867 24.1259C38.1398 23.5303 38.2761 22.8039 38.2761 21.9467V21.93C38.2761 21.1006 38.137 20.3965 37.8587 19.8176C37.5859 19.2332 37.1907 18.7906 36.6731 18.4901C36.1554 18.1839 35.532 18.0309 34.8028 18.0309H32.9826V25.921ZM45.4149 28.1419C44.8304 28.1419 44.3127 28.0306 43.8619 27.808C43.411 27.5797 43.0576 27.2597 42.8015 26.8478C42.5455 26.4303 42.4174 25.9433 42.4174 25.3866V25.3699C42.4174 24.8189 42.5538 24.3458 42.8266 23.9506C43.1049 23.5554 43.5084 23.2464 44.0372 23.0238C44.5716 22.7956 45.22 22.6592 45.9826 22.6147L49.3975 22.4143V23.9005L46.3416 24.0925C45.824 24.1259 45.4343 24.24 45.1727 24.4348C44.9167 24.6241 44.7887 24.8885 44.7887 25.228V25.2447C44.7887 25.5898 44.9222 25.8626 45.1894 26.0629C45.4622 26.2633 45.8101 26.3635 46.2331 26.3635C46.606 26.3635 46.94 26.2884 47.235 26.1381C47.5356 25.9878 47.7694 25.7846 47.9364 25.5286C48.1089 25.2725 48.1952 24.9831 48.1952 24.6603V21.7296C48.1952 21.3289 48.0644 21.0199 47.8028 20.8028C47.5412 20.5858 47.1599 20.4772 46.6589 20.4772C46.2192 20.4772 45.8602 20.5524 45.5818 20.7027C45.3091 20.8529 45.1226 21.0645 45.0224 21.3372L45.0141 21.3706H42.7598L42.7681 21.2871C42.8293 20.7472 43.0325 20.2796 43.3776 19.8844C43.7227 19.4836 44.1847 19.1719 44.7636 18.9493C45.3425 18.7266 46.016 18.6153 46.7842 18.6153C47.6024 18.6153 48.2954 18.7378 48.8631 18.9827C49.4309 19.2276 49.8623 19.5838 50.1573 20.0514C50.4523 20.5134 50.5998 21.0728 50.5998 21.7296V28H48.1952V26.781H48.0449C47.8946 27.0649 47.6887 27.3098 47.4271 27.5157C47.1654 27.7161 46.8649 27.872 46.5253 27.9833C46.1858 28.0891 45.8156 28.1419 45.4149 28.1419ZM52.9961 28V18.8073H55.4341V20.2267H55.5844C55.7959 19.7313 56.1243 19.3389 56.5696 19.0495C57.0149 18.76 57.566 18.6153 58.2228 18.6153C59.247 18.6153 60.0262 18.9159 60.5606 19.517C61.095 20.1126 61.3621 20.9587 61.3621 22.0553V28H58.9241V22.6147C58.9241 21.9634 58.7878 21.4708 58.515 21.1368C58.2423 20.8028 57.8192 20.6359 57.2459 20.6359C56.8674 20.6359 56.5418 20.7221 56.269 20.8947C56.0019 21.0617 55.7959 21.2982 55.6512 21.6044C55.5065 21.9105 55.4341 22.2723 55.4341 22.6898V28H52.9961ZM63.7334 28V18.8073H66.1714V28H63.7334ZM64.9524 17.3963C64.5794 17.3963 64.2566 17.2655 63.9838 17.0039C63.7167 16.7367 63.5831 16.4166 63.5831 16.0437C63.5831 15.6652 63.7167 15.3451 63.9838 15.0835C64.2566 14.8219 64.5794 14.6911 64.9524 14.6911C65.3309 14.6911 65.6537 14.8219 65.9209 15.0835C66.1936 15.3451 66.33 15.6652 66.33 16.0437C66.33 16.4166 66.1936 16.7367 65.9209 17.0039C65.6537 17.2655 65.3309 17.3963 64.9524 17.3963ZM72.6672 28.192C71.7321 28.192 70.9277 28 70.2542 27.6159C69.5863 27.2319 69.0714 26.6836 68.7096 25.9711C68.3478 25.2531 68.1669 24.4042 68.1669 23.4245V23.4162C68.1669 22.4365 68.3478 21.5877 68.7096 20.8696C69.0714 20.1516 69.5807 19.5978 70.2375 19.2081C70.8943 18.8129 71.6708 18.6153 72.567 18.6153C73.4576 18.6153 74.2285 18.8073 74.8798 19.1914C75.531 19.5699 76.032 20.1071 76.3827 20.8028C76.7389 21.4931 76.917 22.3029 76.917 23.2325V23.984H69.3859V22.456H75.7398L74.5959 23.9005V22.9319C74.5959 22.3809 74.5124 21.9217 74.3454 21.5543C74.1784 21.1814 73.9446 20.903 73.6441 20.7194C73.3491 20.5301 73.0039 20.4355 72.6087 20.4355C72.2135 20.4355 71.8629 20.5329 71.5567 20.7277C71.2561 20.917 71.0196 21.198 70.847 21.571C70.6745 21.9439 70.5882 22.3976 70.5882 22.9319V23.9088C70.5882 24.4265 70.6717 24.869 70.8387 25.2364C71.0112 25.6037 71.2561 25.8848 71.5734 26.0796C71.8963 26.2745 72.2775 26.3719 72.7173 26.3719C73.0735 26.3719 73.3769 26.319 73.6274 26.2132C73.8778 26.1075 74.0782 25.985 74.2285 25.8459C74.3844 25.7011 74.4901 25.5703 74.5458 25.4534L74.5708 25.4033H76.8419L76.8168 25.4868C76.75 25.7763 76.6192 26.0796 76.4244 26.3969C76.2351 26.7086 75.9735 27.0009 75.6396 27.2736C75.3112 27.5464 74.8993 27.769 74.4039 27.9416C73.914 28.1085 73.3351 28.192 72.6672 28.192ZM78.9793 28V15.2923H81.4173V28H78.9793Z" fill="#007AFF"/>
<path d="M88.9151 28V18.9994H90.3678V28H88.9151ZM89.6498 17.2627C89.3771 17.2627 89.1405 17.1653 88.9401 16.9705C88.7453 16.7701 88.6479 16.5335 88.6479 16.2608C88.6479 15.9825 88.7453 15.7459 88.9401 15.5511C89.1405 15.3563 89.3771 15.2589 89.6498 15.2589C89.9281 15.2589 90.1647 15.3563 90.3595 15.5511C90.5543 15.7459 90.6517 15.9825 90.6517 16.2608C90.6517 16.5335 90.5543 16.7701 90.3595 16.9705C90.1647 17.1653 89.9281 17.2627 89.6498 17.2627ZM96.1957 28.1586C95.5278 28.1586 94.9377 28.0584 94.4256 27.8581C93.9135 27.6521 93.5016 27.3654 93.1899 26.9981C92.8838 26.6307 92.7029 26.1993 92.6472 25.7039H94.1334C94.2559 26.0769 94.4952 26.3774 94.8515 26.6057C95.2077 26.8339 95.6725 26.948 96.2458 26.948C96.6521 26.948 97.0084 26.8895 97.3145 26.7726C97.6262 26.6502 97.8711 26.486 98.0493 26.28C98.2274 26.0685 98.3164 25.8264 98.3164 25.5536V25.5369C98.3164 25.2308 98.194 24.972 97.9491 24.7604C97.7042 24.5434 97.3034 24.368 96.7468 24.2344L95.3524 23.9005C94.7902 23.7669 94.3282 23.5943 93.9664 23.3828C93.6046 23.1657 93.3374 22.9013 93.1649 22.5896C92.9923 22.2723 92.9061 21.8994 92.9061 21.4708V21.4624C92.9061 20.9615 93.0508 20.5134 93.3402 20.1182C93.6352 19.723 94.036 19.4113 94.5425 19.1831C95.0491 18.9549 95.6196 18.8407 96.2541 18.8407C96.8831 18.8407 97.4398 18.9409 97.924 19.1413C98.4138 19.3361 98.8063 19.6145 99.1013 19.9763C99.4019 20.3381 99.5855 20.7639 99.6523 21.2537H98.2246C98.13 20.8975 97.9129 20.608 97.5733 20.3854C97.2338 20.1627 96.7913 20.0514 96.2458 20.0514C95.8896 20.0514 95.5723 20.1098 95.294 20.2267C95.0157 20.3381 94.7958 20.4939 94.6344 20.6943C94.4729 20.8947 94.3922 21.1285 94.3922 21.3957V21.4123C94.3922 21.6127 94.4451 21.7909 94.5509 21.9467C94.6566 22.1026 94.8208 22.2389 95.0435 22.3558C95.2661 22.4727 95.5528 22.5757 95.9035 22.6648L97.2895 22.9987C98.1355 23.2047 98.7645 23.4997 99.1764 23.8838C99.5939 24.2678 99.8026 24.7827 99.8026 25.4284V25.4451C99.8026 25.9795 99.644 26.4526 99.3267 26.8645C99.0094 27.2708 98.5781 27.5881 98.0326 27.8163C97.4926 28.0445 96.8803 28.1586 96.1957 28.1586ZM109.338 28.1586C108.77 28.1586 108.258 28.0501 107.801 27.833C107.35 27.6159 106.991 27.307 106.724 26.9062C106.463 26.5055 106.332 26.0323 106.332 25.4868V25.4701C106.332 24.9358 106.46 24.4794 106.716 24.1008C106.972 23.7168 107.345 23.4162 107.835 23.1991C108.325 22.982 108.917 22.854 109.613 22.815L112.919 22.6147V23.7752L109.788 23.9756C109.104 24.0146 108.603 24.1565 108.286 24.4014C107.974 24.6463 107.818 24.9914 107.818 25.4367V25.4534C107.818 25.9099 107.991 26.2661 108.336 26.5222C108.681 26.7726 109.115 26.8979 109.638 26.8979C110.134 26.8979 110.573 26.8005 110.957 26.6057C111.341 26.4053 111.642 26.1353 111.859 25.7958C112.082 25.4562 112.193 25.0722 112.193 24.6436V21.8382C112.193 21.2815 112.023 20.8585 111.684 20.5691C111.35 20.2741 110.846 20.1265 110.173 20.1265C109.633 20.1265 109.19 20.224 108.845 20.4188C108.5 20.608 108.269 20.878 108.152 21.2287L108.144 21.2537H106.691L106.699 21.2036C106.777 20.7305 106.972 20.3186 107.284 19.9679C107.601 19.6117 108.01 19.3361 108.511 19.1413C109.012 18.9409 109.583 18.8407 110.223 18.8407C110.957 18.8407 111.578 18.9604 112.085 19.1998C112.597 19.4391 112.983 19.7842 113.245 20.2351C113.512 20.6804 113.646 21.2147 113.646 21.8382V28H112.193V26.6725H112.059C111.87 26.9897 111.639 27.2597 111.367 27.4823C111.099 27.705 110.796 27.8748 110.456 27.9917C110.117 28.103 109.744 28.1586 109.338 28.1586ZM123.657 28L120.325 18.9994H121.862L124.325 26.4136H124.458L126.921 18.9994H128.458L125.126 28H123.657ZM130.411 28V18.9994H131.864V28H130.411ZM131.146 17.2627C130.873 17.2627 130.637 17.1653 130.436 16.9705C130.242 16.7701 130.144 16.5335 130.144 16.2608C130.144 15.9825 130.242 15.7459 130.436 15.5511C130.637 15.3563 130.873 15.2589 131.146 15.2589C131.424 15.2589 131.661 15.3563 131.856 15.5511C132.051 15.7459 132.148 15.9825 132.148 16.2608C132.148 16.5335 132.051 16.7701 131.856 16.9705C131.661 17.1653 131.424 17.2627 131.146 17.2627ZM137.926 28.1586C137.169 28.1586 136.506 27.9666 135.939 27.5825C135.371 27.1985 134.931 26.6585 134.619 25.9628C134.308 25.2614 134.152 24.4432 134.152 23.508V23.4913C134.152 22.5506 134.308 21.7324 134.619 21.0366C134.931 20.3408 135.368 19.8009 135.93 19.4169C136.498 19.0328 137.163 18.8407 137.926 18.8407C138.338 18.8407 138.725 18.9075 139.086 19.0411C139.454 19.1692 139.779 19.3501 140.063 19.5838C140.347 19.8176 140.57 20.0959 140.731 20.4188H140.865V15.4259H142.318V28H140.865V26.5639H140.731C140.548 26.8979 140.317 27.1845 140.038 27.4239C139.76 27.6577 139.443 27.8386 139.086 27.9666C138.73 28.0946 138.343 28.1586 137.926 28.1586ZM138.26 26.8728C138.805 26.8728 139.276 26.7365 139.671 26.4637C140.066 26.191 140.369 25.8041 140.581 25.3032C140.792 24.7966 140.898 24.1983 140.898 23.508V23.4913C140.898 22.7956 140.792 22.1972 140.581 21.6962C140.369 21.1953 140.066 20.8084 139.671 20.5357C139.276 20.2629 138.805 20.1265 138.26 20.1265C137.714 20.1265 137.244 20.2629 136.849 20.5357C136.459 20.8028 136.159 21.1869 135.947 21.6879C135.741 22.1888 135.638 22.79 135.638 23.4913V23.508C135.638 24.2038 135.741 24.805 135.947 25.3115C136.159 25.8125 136.459 26.1993 136.849 26.4721C137.244 26.7392 137.714 26.8728 138.26 26.8728ZM148.78 28.1586C147.923 28.1586 147.185 27.9694 146.567 27.5909C145.955 27.2124 145.482 26.678 145.148 25.9878C144.82 25.292 144.655 24.4738 144.655 23.5331V23.5247C144.655 22.5952 144.82 21.7797 145.148 21.0784C145.482 20.377 145.952 19.8288 146.559 19.4335C147.166 19.0383 147.875 18.8407 148.688 18.8407C149.506 18.8407 150.208 19.03 150.792 19.4085C151.382 19.787 151.833 20.3158 152.145 20.9949C152.462 21.6684 152.621 22.4532 152.621 23.3494V23.9172H145.407V22.7566H151.878L151.16 23.817V23.2409C151.16 22.5339 151.054 21.9523 150.842 21.4958C150.631 21.0394 150.339 20.6999 149.966 20.4772C149.593 20.249 149.164 20.1349 148.68 20.1349C148.196 20.1349 147.761 20.2546 147.377 20.4939C146.999 20.7277 146.698 21.0756 146.476 21.5376C146.253 21.9996 146.142 22.5673 146.142 23.2409V23.817C146.142 24.4571 146.25 25.0054 146.467 25.4618C146.684 25.9127 146.993 26.2605 147.394 26.5055C147.795 26.7448 148.268 26.8645 148.813 26.8645C149.22 26.8645 149.573 26.8088 149.874 26.6975C150.174 26.5862 150.422 26.4442 150.617 26.2717C150.812 26.0991 150.948 25.9238 151.026 25.7457L151.059 25.6705H152.512L152.495 25.7373C152.418 26.0435 152.278 26.3413 152.078 26.6307C151.883 26.9146 151.63 27.1734 151.318 27.4072C151.007 27.6354 150.636 27.8191 150.208 27.9583C149.785 28.0918 149.309 28.1586 148.78 28.1586ZM158.574 28.1586C157.722 28.1586 156.985 27.9722 156.361 27.5992C155.743 27.2207 155.265 26.6836 154.925 25.9878C154.591 25.292 154.424 24.4654 154.424 23.508V23.4913C154.424 22.5284 154.591 21.699 154.925 21.0032C155.265 20.3075 155.743 19.7731 156.361 19.4002C156.985 19.0272 157.722 18.8407 158.574 18.8407C159.431 18.8407 160.169 19.0272 160.786 19.4002C161.404 19.7731 161.88 20.3075 162.214 21.0032C162.554 21.699 162.723 22.5284 162.723 23.4913V23.508C162.723 24.4654 162.554 25.292 162.214 25.9878C161.88 26.6836 161.404 27.2207 160.786 27.5992C160.169 27.9722 159.431 28.1586 158.574 28.1586ZM158.574 26.8728C159.142 26.8728 159.623 26.7392 160.018 26.4721C160.413 26.2049 160.714 25.8208 160.92 25.3199C161.132 24.8189 161.237 24.215 161.237 23.508V23.4913C161.237 22.7789 161.132 22.1721 160.92 21.6712C160.714 21.1702 160.413 20.7889 160.018 20.5273C159.623 20.2601 159.142 20.1265 158.574 20.1265C158.006 20.1265 157.525 20.2601 157.129 20.5273C156.734 20.7889 156.431 21.1702 156.219 21.6712C156.013 22.1721 155.91 22.7789 155.91 23.4913V23.508C155.91 24.215 156.013 24.8189 156.219 25.3199C156.431 25.8208 156.734 26.2049 157.129 26.4721C157.525 26.7392 158.006 26.8728 158.574 26.8728ZM173.461 28.1586C172.604 28.1586 171.866 27.9694 171.248 27.5909C170.636 27.2124 170.163 26.678 169.829 25.9878C169.5 25.292 169.336 24.4738 169.336 23.5331V23.5247C169.336 22.5952 169.5 21.7797 169.829 21.0784C170.163 20.377 170.633 19.8288 171.24 19.4335C171.847 19.0383 172.556 18.8407 173.369 18.8407C174.187 18.8407 174.888 19.03 175.473 19.4085C176.063 19.787 176.514 20.3158 176.826 20.9949C177.143 21.6684 177.301 22.4532 177.301 23.3494V23.9172H170.088V22.7566H176.558L175.84 23.817V23.2409C175.84 22.5339 175.735 21.9523 175.523 21.4958C175.312 21.0394 175.019 20.6999 174.646 20.4772C174.273 20.249 173.845 20.1349 173.361 20.1349C172.876 20.1349 172.442 20.2546 172.058 20.4939C171.68 20.7277 171.379 21.0756 171.156 21.5376C170.934 21.9996 170.822 22.5673 170.822 23.2409V23.817C170.822 24.4571 170.931 25.0054 171.148 25.4618C171.365 25.9127 171.674 26.2605 172.075 26.5055C172.476 26.7448 172.949 26.8645 173.494 26.8645C173.9 26.8645 174.254 26.8088 174.555 26.6975C174.855 26.5862 175.103 26.4442 175.298 26.2717C175.492 26.0991 175.629 25.9238 175.707 25.7457L175.74 25.6705H177.193L177.176 25.7373C177.098 26.0435 176.959 26.3413 176.759 26.6307C176.564 26.9146 176.311 27.1734 175.999 27.4072C175.687 27.6354 175.317 27.8191 174.888 27.9583C174.465 28.0918 173.99 28.1586 173.461 28.1586ZM182.879 28.1586C182.122 28.1586 181.459 27.9666 180.892 27.5825C180.324 27.1985 179.884 26.6585 179.572 25.9628C179.261 25.2614 179.105 24.4432 179.105 23.508V23.4913C179.105 22.5506 179.261 21.7324 179.572 21.0366C179.884 20.3408 180.321 19.8009 180.883 19.4169C181.451 19.0328 182.116 18.8407 182.879 18.8407C183.291 18.8407 183.678 18.9075 184.039 19.0411C184.407 19.1692 184.732 19.3501 185.016 19.5838C185.3 19.8176 185.523 20.0959 185.684 20.4188H185.818V15.4259H187.271V28H185.818V26.5639H185.684C185.501 26.8979 185.27 27.1845 184.991 27.4239C184.713 27.6577 184.396 27.8386 184.039 27.9666C183.683 28.0946 183.296 28.1586 182.879 28.1586ZM183.213 26.8728C183.758 26.8728 184.229 26.7365 184.624 26.4637C185.019 26.191 185.322 25.8041 185.534 25.3032C185.745 24.7966 185.851 24.1983 185.851 23.508V23.4913C185.851 22.7956 185.745 22.1972 185.534 21.6962C185.322 21.1953 185.019 20.8084 184.624 20.5357C184.229 20.2629 183.758 20.1265 183.213 20.1265C182.667 20.1265 182.197 20.2629 181.802 20.5357C181.412 20.8028 181.112 21.1869 180.9 21.6879C180.694 22.1888 180.591 22.79 180.591 23.4913V23.508C180.591 24.2038 180.694 24.805 180.9 25.3115C181.112 25.8125 181.412 26.1993 181.802 26.4721C182.197 26.7392 182.667 26.8728 183.213 26.8728ZM190.093 28V18.9994H191.545V28H190.093ZM190.827 17.2627C190.555 17.2627 190.318 17.1653 190.118 16.9705C189.923 16.7701 189.825 16.5335 189.825 16.2608C189.825 15.9825 189.923 15.7459 190.118 15.5511C190.318 15.3563 190.555 15.2589 190.827 15.2589C191.106 15.2589 191.342 15.3563 191.537 15.5511C191.732 15.7459 191.829 15.9825 191.829 16.2608C191.829 16.5335 191.732 16.7701 191.537 16.9705C191.342 17.1653 191.106 17.2627 190.827 17.2627ZM197.482 28.0668C196.558 28.0668 195.887 27.8803 195.47 27.5074C195.058 27.1344 194.852 26.5194 194.852 25.6622V20.2017H193.432V18.9994H194.852V16.6699H196.355V18.9994H198.325V20.2017H196.355V25.2948C196.355 25.8236 196.455 26.2049 196.655 26.4387C196.856 26.6669 197.19 26.781 197.657 26.781C197.785 26.781 197.894 26.7782 197.983 26.7726C198.077 26.7671 198.192 26.7587 198.325 26.7476V27.9833C198.186 28.0056 198.047 28.025 197.908 28.0417C197.769 28.0584 197.627 28.0668 197.482 28.0668ZM204.061 28.1586C203.21 28.1586 202.472 27.9722 201.849 27.5992C201.231 27.2207 200.752 26.6836 200.412 25.9878C200.079 25.292 199.912 24.4654 199.912 23.508V23.4913C199.912 22.5284 200.079 21.699 200.412 21.0032C200.752 20.3075 201.231 19.7731 201.849 19.4002C202.472 19.0272 203.21 18.8407 204.061 18.8407C204.918 18.8407 205.656 19.0272 206.274 19.4002C206.892 19.7731 207.368 20.3075 207.701 21.0032C208.041 21.699 208.211 22.5284 208.211 23.4913V23.508C208.211 24.4654 208.041 25.292 207.701 25.9878C207.368 26.6836 206.892 27.2207 206.274 27.5992C205.656 27.9722 204.918 28.1586 204.061 28.1586ZM204.061 26.8728C204.629 26.8728 205.11 26.7392 205.506 26.4721C205.901 26.2049 206.201 25.8208 206.407 25.3199C206.619 24.8189 206.725 24.215 206.725 23.508V23.4913C206.725 22.7789 206.619 22.1721 206.407 21.6712C206.201 21.1702 205.901 20.7889 205.506 20.5273C205.11 20.2601 204.629 20.1265 204.061 20.1265C203.493 20.1265 203.012 20.2601 202.617 20.5273C202.222 20.7889 201.918 21.1702 201.707 21.6712C201.501 22.1721 201.398 22.7789 201.398 23.4913V23.508C201.398 24.215 201.501 24.8189 201.707 25.3199C201.918 25.8208 202.222 26.2049 202.617 26.4721C203.012 26.7392 203.493 26.8728 204.061 26.8728ZM210.465 28V18.9994H211.918V20.3353H212.052C212.224 19.8622 212.516 19.4948 212.928 19.2332C213.34 18.9716 213.849 18.8407 214.456 18.8407C214.595 18.8407 214.732 18.8491 214.865 18.8658C214.999 18.8769 215.102 18.8881 215.174 18.8992V20.3102C215.029 20.2824 214.885 20.2629 214.74 20.2518C214.601 20.2351 214.451 20.2267 214.289 20.2267C213.827 20.2267 213.418 20.3186 213.062 20.5023C212.706 20.686 212.424 20.942 212.218 21.2704C212.018 21.5988 211.918 21.9829 211.918 22.4226V28H210.465ZM223.524 28L221.002 18.9994H222.455L224.225 26.1965H224.358L226.371 18.9994H227.748L229.761 26.1965H229.894L231.664 18.9994H233.109L230.587 28H229.126L227.114 21.0366H226.98L224.976 28H223.524ZM235.112 28V15.4259H236.565V20.352H236.699C236.927 19.8733 237.255 19.5031 237.684 19.2415C238.113 18.9743 238.658 18.8407 239.321 18.8407C239.994 18.8407 240.565 18.9716 241.032 19.2332C241.5 19.4892 241.856 19.8649 242.101 20.3603C242.346 20.8557 242.468 21.4597 242.468 22.1721V28H241.015V22.5228C241.015 21.7101 240.843 21.109 240.498 20.7194C240.158 20.3241 239.629 20.1265 238.911 20.1265C238.433 20.1265 238.018 20.2295 237.667 20.4355C237.317 20.6414 237.044 20.9337 236.849 21.3122C236.66 21.6907 236.565 22.1443 236.565 22.6731V28H235.112ZM248.797 28.1586C247.945 28.1586 247.208 27.9722 246.584 27.5992C245.967 27.2207 245.488 26.6836 245.148 25.9878C244.814 25.292 244.647 24.4654 244.647 23.508V23.4913C244.647 22.5284 244.814 21.699 245.148 21.0032C245.488 20.3075 245.967 19.7731 246.584 19.4002C247.208 19.0272 247.945 18.8407 248.797 18.8407C249.654 18.8407 250.392 19.0272 251.01 19.4002C251.628 19.7731 252.103 20.3075 252.437 21.0032C252.777 21.699 252.947 22.5284 252.947 23.4913V23.508C252.947 24.4654 252.777 25.292 252.437 25.9878C252.103 26.6836 251.628 27.2207 251.01 27.5992C250.392 27.9722 249.654 28.1586 248.797 28.1586ZM248.797 26.8728C249.365 26.8728 249.846 26.7392 250.242 26.4721C250.637 26.2049 250.937 25.8208 251.143 25.3199C251.355 24.8189 251.461 24.215 251.461 23.508V23.4913C251.461 22.7789 251.355 22.1721 251.143 21.6712C250.937 21.1702 250.637 20.7889 250.242 20.5273C249.846 20.2601 249.365 20.1265 248.797 20.1265C248.229 20.1265 247.748 20.2601 247.353 20.5273C246.957 20.7889 246.654 21.1702 246.443 21.6712C246.237 22.1721 246.134 22.7789 246.134 23.4913V23.508C246.134 24.215 246.237 24.8189 246.443 25.3199C246.654 25.8208 246.957 26.2049 247.353 26.4721C247.748 26.7392 248.229 26.8728 248.797 26.8728ZM263.024 28.1586C262.345 28.1586 261.775 28.0306 261.313 27.7746C260.851 27.513 260.503 27.1344 260.269 26.6391C260.041 26.1381 259.927 25.5342 259.927 24.8272V18.9994H261.38V24.4766C261.38 25.2837 261.535 25.8848 261.847 26.28C262.164 26.6752 262.682 26.8728 263.4 26.8728C263.795 26.8728 264.143 26.8144 264.444 26.6975C264.75 26.5806 265.006 26.4136 265.212 26.1965C265.418 25.9739 265.571 25.7067 265.671 25.395C265.777 25.0777 265.83 24.7215 265.83 24.3263V18.9994H267.283V28H265.83V26.6558H265.696C265.551 26.973 265.354 27.2458 265.103 27.474C264.853 27.6966 264.552 27.8664 264.202 27.9833C263.857 28.1002 263.464 28.1586 263.024 28.1586ZM273.069 28.1586C272.401 28.1586 271.811 28.0584 271.299 27.8581C270.787 27.6521 270.375 27.3654 270.063 26.9981C269.757 26.6307 269.576 26.1993 269.52 25.7039H271.006C271.129 26.0769 271.368 26.3774 271.724 26.6057C272.081 26.8339 272.545 26.948 273.119 26.948C273.525 26.948 273.881 26.8895 274.187 26.7726C274.499 26.6502 274.744 26.486 274.922 26.28C275.1 26.0685 275.189 25.8264 275.189 25.5536V25.5369C275.189 25.2308 275.067 24.972 274.822 24.7604C274.577 24.5434 274.176 24.368 273.62 24.2344L272.225 23.9005C271.663 23.7669 271.201 23.5943 270.839 23.3828C270.478 23.1657 270.21 22.9013 270.038 22.5896C269.865 22.2723 269.779 21.8994 269.779 21.4708V21.4624C269.779 20.9615 269.924 20.5134 270.213 20.1182C270.508 19.723 270.909 19.4113 271.416 19.1831C271.922 18.9549 272.493 18.8407 273.127 18.8407C273.756 18.8407 274.313 18.9409 274.797 19.1413C275.287 19.3361 275.679 19.6145 275.974 19.9763C276.275 20.3381 276.459 20.7639 276.525 21.2537H275.098C275.003 20.8975 274.786 20.608 274.446 20.3854C274.107 20.1627 273.664 20.0514 273.119 20.0514C272.763 20.0514 272.445 20.1098 272.167 20.2267C271.889 20.3381 271.669 20.4939 271.507 20.6943C271.346 20.8947 271.265 21.1285 271.265 21.3957V21.4123C271.265 21.6127 271.318 21.7909 271.424 21.9467C271.53 22.1026 271.694 22.2389 271.916 22.3558C272.139 22.4727 272.426 22.5757 272.776 22.6648L274.162 22.9987C275.009 23.2047 275.638 23.4997 276.049 23.8838C276.467 24.2678 276.676 24.7827 276.676 25.4284V25.4451C276.676 25.9795 276.517 26.4526 276.2 26.8645C275.882 27.2708 275.451 27.5881 274.906 27.8163C274.366 28.0445 273.753 28.1586 273.069 28.1586ZM282.604 28.1586C281.746 28.1586 281.009 27.9694 280.391 27.5909C279.779 27.2124 279.306 26.678 278.972 25.9878C278.643 25.292 278.479 24.4738 278.479 23.5331V23.5247C278.479 22.5952 278.643 21.7797 278.972 21.0784C279.306 20.377 279.776 19.8288 280.383 19.4335C280.989 19.0383 281.699 18.8407 282.512 18.8407C283.33 18.8407 284.031 19.03 284.616 19.4085C285.206 19.787 285.657 20.3158 285.968 20.9949C286.286 21.6684 286.444 22.4532 286.444 23.3494V23.9172H279.231V22.7566H285.701L284.983 23.817V23.2409C284.983 22.5339 284.877 21.9523 284.666 21.4958C284.454 21.0394 284.162 20.6999 283.789 20.4772C283.416 20.249 282.988 20.1349 282.503 20.1349C282.019 20.1349 281.585 20.2546 281.201 20.4939C280.822 20.7277 280.522 21.0756 280.299 21.5376C280.077 21.9996 279.965 22.5673 279.965 23.2409V23.817C279.965 24.4571 280.074 25.0054 280.291 25.4618C280.508 25.9127 280.817 26.2605 281.218 26.5055C281.618 26.7448 282.092 26.8645 282.637 26.8645C283.043 26.8645 283.397 26.8088 283.697 26.6975C283.998 26.5862 284.246 26.4442 284.441 26.2717C284.635 26.0991 284.772 25.9238 284.85 25.7457L284.883 25.6705H286.336L286.319 25.7373C286.241 26.0435 286.102 26.3413 285.902 26.6307C285.707 26.9146 285.454 27.1734 285.142 27.4072C284.83 27.6354 284.46 27.8191 284.031 27.9583C283.608 28.0918 283.132 28.1586 282.604 28.1586ZM292.022 28.1586C291.265 28.1586 290.602 27.9666 290.035 27.5825C289.467 27.1985 289.027 26.6585 288.715 25.9628C288.404 25.2614 288.248 24.4432 288.248 23.508V23.4913C288.248 22.5506 288.404 21.7324 288.715 21.0366C289.027 20.3408 289.464 19.8009 290.026 19.4169C290.594 19.0328 291.259 18.8407 292.022 18.8407C292.434 18.8407 292.821 18.9075 293.182 19.0411C293.55 19.1692 293.875 19.3501 294.159 19.5838C294.443 19.8176 294.666 20.0959 294.827 20.4188H294.961V15.4259H296.414V28H294.961V26.5639H294.827C294.643 26.8979 294.412 27.1845 294.134 27.4239C293.856 27.6577 293.539 27.8386 293.182 27.9666C292.826 28.0946 292.439 28.1586 292.022 28.1586ZM292.356 26.8728C292.901 26.8728 293.372 26.7365 293.767 26.4637C294.162 26.191 294.465 25.8041 294.677 25.3032C294.888 24.7966 294.994 24.1983 294.994 23.508V23.4913C294.994 22.7956 294.888 22.1972 294.677 21.6962C294.465 21.1953 294.162 20.8084 293.767 20.5357C293.372 20.2629 292.901 20.1265 292.356 20.1265C291.81 20.1265 291.34 20.2629 290.945 20.5357C290.555 20.8028 290.254 21.1869 290.043 21.6879C289.837 22.1888 289.734 22.79 289.734 23.4913V23.508C289.734 24.2038 289.837 24.805 290.043 25.3115C290.254 25.8125 290.555 26.1993 290.945 26.4721C291.34 26.7392 291.81 26.8728 292.356 26.8728ZM307.209 28.0668C306.285 28.0668 305.615 27.8803 305.197 27.5074C304.785 27.1344 304.579 26.5194 304.579 25.6622V20.2017H303.16V18.9994H304.579V16.6699H306.082V18.9994H308.053V20.2017H306.082V25.2948C306.082 25.8236 306.182 26.2049 306.383 26.4387C306.583 26.6669 306.917 26.781 307.385 26.781C307.513 26.781 307.621 26.7782 307.71 26.7726C307.805 26.7671 307.919 26.7587 308.053 26.7476V27.9833C307.913 28.0056 307.774 28.025 307.635 28.0417C307.496 28.0584 307.354 28.0668 307.209 28.0668ZM313.789 28.1586C312.937 28.1586 312.199 27.9722 311.576 27.5992C310.958 27.2207 310.479 26.6836 310.14 25.9878C309.806 25.292 309.639 24.4654 309.639 23.508V23.4913C309.639 22.5284 309.806 21.699 310.14 21.0032C310.479 20.3075 310.958 19.7731 311.576 19.4002C312.199 19.0272 312.937 18.8407 313.789 18.8407C314.646 18.8407 315.383 19.0272 316.001 19.4002C316.619 19.7731 317.095 20.3075 317.429 21.0032C317.768 21.699 317.938 22.5284 317.938 23.4913V23.508C317.938 24.4654 317.768 25.292 317.429 25.9878C317.095 26.6836 316.619 27.2207 316.001 27.5992C315.383 27.9722 314.646 28.1586 313.789 28.1586ZM313.789 26.8728C314.356 26.8728 314.838 26.7392 315.233 26.4721C315.628 26.2049 315.929 25.8208 316.135 25.3199C316.346 24.8189 316.452 24.215 316.452 23.508V23.4913C316.452 22.7789 316.346 22.1721 316.135 21.6712C315.929 21.1702 315.628 20.7889 315.233 20.5273C314.838 20.2601 314.356 20.1265 313.789 20.1265C313.221 20.1265 312.739 20.2601 312.344 20.5273C311.949 20.7889 311.646 21.1702 311.434 21.6712C311.228 22.1721 311.125 22.7789 311.125 23.4913V23.508C311.125 24.215 311.228 24.8189 311.434 25.3199C311.646 25.8208 311.949 26.2049 312.344 26.4721C312.739 26.7392 313.221 26.8728 313.789 26.8728ZM326.738 28L324.217 18.9994H325.67L327.44 26.1965H327.573L329.586 18.9994H330.963L332.975 26.1965H333.109L334.879 18.9994H336.323L333.802 28H332.341L330.329 21.0366H330.195L328.191 28H326.738ZM341.609 28.1586C340.757 28.1586 340.019 27.9722 339.396 27.5992C338.778 27.2207 338.299 26.6836 337.96 25.9878C337.626 25.292 337.459 24.4654 337.459 23.508V23.4913C337.459 22.5284 337.626 21.699 337.96 21.0032C338.299 20.3075 338.778 19.7731 339.396 19.4002C340.019 19.0272 340.757 18.8407 341.609 18.8407C342.466 18.8407 343.203 19.0272 343.821 19.4002C344.439 19.7731 344.915 20.3075 345.249 21.0032C345.588 21.699 345.758 22.5284 345.758 23.4913V23.508C345.758 24.4654 345.588 25.292 345.249 25.9878C344.915 26.6836 344.439 27.2207 343.821 27.5992C343.203 27.9722 342.466 28.1586 341.609 28.1586ZM341.609 26.8728C342.176 26.8728 342.658 26.7392 343.053 26.4721C343.448 26.2049 343.749 25.8208 343.955 25.3199C344.166 24.8189 344.272 24.215 344.272 23.508V23.4913C344.272 22.7789 344.166 22.1721 343.955 21.6712C343.749 21.1702 343.448 20.7889 343.053 20.5273C342.658 20.2601 342.176 20.1265 341.609 20.1265C341.041 20.1265 340.559 20.2601 340.164 20.5273C339.769 20.7889 339.466 21.1702 339.254 21.6712C339.048 22.1721 338.945 22.7789 338.945 23.4913V23.508C338.945 24.215 339.048 24.8189 339.254 25.3199C339.466 25.8208 339.769 26.2049 340.164 26.4721C340.559 26.7392 341.041 26.8728 341.609 26.8728ZM348.013 28V18.9994H349.465V20.3353H349.599C349.772 19.8622 350.064 19.4948 350.476 19.2332C350.888 18.9716 351.397 18.8407 352.004 18.8407C352.143 18.8407 352.279 18.8491 352.413 18.8658C352.546 18.8769 352.649 18.8881 352.722 18.8992V20.3102C352.577 20.2824 352.432 20.2629 352.287 20.2518C352.148 20.2351 351.998 20.2267 351.837 20.2267C351.375 20.2267 350.965 20.3186 350.609 20.5023C350.253 20.686 349.972 20.942 349.766 21.2704C349.566 21.5988 349.465 21.9829 349.465 22.4226V28H348.013ZM354.609 28V15.4259H356.061V28H354.609ZM360.278 28L356.763 23.5915L357.831 22.6648L362.106 28H360.278ZM355.878 24.7604L355.811 22.9319H356.195L360.086 18.9994H361.848L357.573 23.124L357.222 23.4663L355.878 24.7604ZM30.9538 48V40.2017H29.4592V38.9994H30.9538V37.9975C30.9538 37.3963 31.0512 36.9009 31.246 36.5113C31.4464 36.1161 31.7414 35.8238 32.131 35.6346C32.5206 35.4398 32.9993 35.3424 33.5671 35.3424C33.7452 35.3424 33.9122 35.3507 34.0681 35.3674C34.2295 35.3785 34.3853 35.398 34.5356 35.4259V36.5864C34.4466 36.5697 34.3436 36.5586 34.2267 36.553C34.1098 36.5475 33.9874 36.5447 33.8593 36.5447C33.3417 36.5447 32.9687 36.6699 32.7405 36.9204C32.5179 37.1709 32.4065 37.5438 32.4065 38.0392V38.9994H34.4521V40.2017H32.4065V48H30.9538ZM39.8458 48.1586C38.9942 48.1586 38.2567 47.9722 37.6332 47.5992C37.0154 47.2207 36.5367 46.6836 36.1972 45.9878C35.8632 45.292 35.6962 44.4654 35.6962 43.508V43.4913C35.6962 42.5284 35.8632 41.699 36.1972 41.0032C36.5367 40.3075 37.0154 39.7731 37.6332 39.4002C38.2567 39.0272 38.9942 38.8407 39.8458 38.8407C40.703 38.8407 41.4406 39.0272 42.0584 39.4002C42.6763 39.7731 43.1522 40.3075 43.4862 41.0032C43.8257 41.699 43.9955 42.5284 43.9955 43.4913V43.508C43.9955 44.4654 43.8257 45.292 43.4862 45.9878C43.1522 46.6836 42.6763 47.2207 42.0584 47.5992C41.4406 47.9722 40.703 48.1586 39.8458 48.1586ZM39.8458 46.8728C40.4136 46.8728 40.8951 46.7392 41.2903 46.4721C41.6855 46.2049 41.986 45.8208 42.192 45.3199C42.4035 44.8189 42.5093 44.215 42.5093 43.508V43.4913C42.5093 42.7789 42.4035 42.1721 42.192 41.6712C41.986 41.1702 41.6855 40.7889 41.2903 40.5273C40.8951 40.2601 40.4136 40.1265 39.8458 40.1265C39.2781 40.1265 38.7966 40.2601 38.4014 40.5273C38.0062 40.7889 37.7028 41.1702 37.4913 41.6712C37.2854 42.1721 37.1824 42.7789 37.1824 43.4913V43.508C37.1824 44.215 37.2854 44.8189 37.4913 45.3199C37.7028 45.8208 38.0062 46.2049 38.4014 46.4721C38.7966 46.7392 39.2781 46.8728 39.8458 46.8728ZM46.2498 48V38.9994H47.7026V40.3353H47.8362C48.0087 39.8622 48.301 39.4948 48.7129 39.2332C49.1248 38.9716 49.6341 38.8407 50.2408 38.8407C50.3799 38.8407 50.5163 38.8491 50.6499 38.8658C50.7835 38.8769 50.8865 38.8881 50.9588 38.8992V40.3102C50.8141 40.2824 50.6694 40.2629 50.5247 40.2518C50.3855 40.2351 50.2352 40.2267 50.0738 40.2267C49.6118 40.2267 49.2027 40.3186 48.8464 40.5023C48.4902 40.686 48.2091 40.942 48.0032 41.2704C47.8028 41.5988 47.7026 41.9829 47.7026 42.4226V48H46.2498ZM57.7552 48V35.9519H59.5002L63.6248 46.0045H63.7584L67.883 35.9519H69.628V48H68.2253V38.799H67.4906L69.1772 36.2858L64.3262 48H63.0571L58.2144 36.2858L59.8927 38.799H59.1579V48H57.7552ZM72.5169 48V38.9994H73.9697V40.3353H74.1033C74.2758 39.8622 74.5681 39.4948 74.98 39.2332C75.3919 38.9716 75.9012 38.8407 76.5079 38.8407C76.647 38.8407 76.7834 38.8491 76.917 38.8658C77.0506 38.8769 77.1536 38.8881 77.2259 38.8992V40.3102C77.0812 40.2824 76.9365 40.2629 76.7918 40.2518C76.6526 40.2351 76.5023 40.2267 76.3409 40.2267C75.8789 40.2267 75.4698 40.3186 75.1135 40.5023C74.7573 40.686 74.4762 40.942 74.2703 41.2704C74.0699 41.5988 73.9697 41.9829 73.9697 42.4226V48H72.5169ZM79.1296 48.0835C78.8346 48.0835 78.5785 47.9777 78.3615 47.7662C78.1499 47.5491 78.0442 47.2931 78.0442 46.9981C78.0442 46.6975 78.1499 46.4415 78.3615 46.2299C78.5785 46.0184 78.8346 45.9127 79.1296 45.9127C79.4302 45.9127 79.6862 46.0184 79.8977 46.2299C80.1093 46.4415 80.215 46.6975 80.215 46.9981C80.215 47.2931 80.1093 47.5491 79.8977 47.7662C79.6862 47.9777 79.4302 48.0835 79.1296 48.0835ZM88.7648 48V46.6725H92.4886C93.3959 46.6725 94.0833 46.4915 94.5509 46.1297C95.0184 45.7679 95.2522 45.2419 95.2522 44.5517V44.535C95.2522 44.073 95.1437 43.6862 94.9266 43.3745C94.7095 43.0627 94.3839 42.829 93.9497 42.6731C93.5211 42.5172 92.9868 42.4393 92.3466 42.4393H88.7648V41.1452H91.9208C92.8337 41.1452 93.5183 40.9837 93.9748 40.6609C94.4368 40.3381 94.6678 39.8594 94.6678 39.2248V39.2081C94.6678 38.5958 94.459 38.1227 94.0416 37.7887C93.6297 37.4492 93.0508 37.2794 92.3049 37.2794H88.7648V35.9519H92.6222C93.3625 35.9519 93.997 36.0743 94.5258 36.3192C95.0602 36.5642 95.4693 36.912 95.7532 37.3629C96.0426 37.8082 96.1874 38.337 96.1874 38.9493V38.966C96.1874 39.3835 96.0927 39.7759 95.9035 40.1432C95.7198 40.5106 95.4721 40.8195 95.1604 41.07C94.8487 41.3205 94.498 41.4819 94.1084 41.5543V41.6879C94.6594 41.7547 95.1353 41.9189 95.5361 42.1805C95.9369 42.4421 96.2458 42.7816 96.4629 43.1991C96.6855 43.611 96.7969 44.0814 96.7969 44.6102V44.6269C96.7969 45.3282 96.6327 45.9321 96.3042 46.4387C95.9814 46.9396 95.5166 47.3265 94.9099 47.5992C94.3032 47.8664 93.5712 48 92.714 48H88.7648ZM88.0133 48V35.9519H89.5162V48H88.0133ZM102.742 48.1586C101.884 48.1586 101.147 47.9694 100.529 47.5909C99.9167 47.2124 99.4436 46.678 99.1096 45.9878C98.7812 45.292 98.617 44.4738 98.617 43.5331V43.5247C98.617 42.5952 98.7812 41.7797 99.1096 41.0784C99.4436 40.377 99.914 39.8288 100.521 39.4335C101.127 39.0383 101.837 38.8407 102.65 38.8407C103.468 38.8407 104.169 39.03 104.754 39.4085C105.344 39.787 105.795 40.3158 106.106 40.9949C106.424 41.6684 106.582 42.4532 106.582 43.3494V43.9172H99.3685V42.7566H105.839L105.121 43.817V43.2409C105.121 42.5339 105.015 41.9523 104.804 41.4958C104.592 41.0394 104.3 40.6999 103.927 40.4772C103.554 40.249 103.126 40.1349 102.641 40.1349C102.157 40.1349 101.723 40.2546 101.339 40.4939C100.96 40.7277 100.66 41.0756 100.437 41.5376C100.215 41.9996 100.103 42.5673 100.103 43.2409V43.817C100.103 44.4571 100.212 45.0054 100.429 45.4618C100.646 45.9127 100.955 46.2605 101.356 46.5055C101.756 46.7448 102.23 46.8645 102.775 46.8645C103.181 46.8645 103.535 46.8088 103.835 46.6975C104.136 46.5862 104.384 46.4442 104.578 46.2717C104.773 46.0991 104.91 45.9238 104.988 45.7457L105.021 45.6705H106.474L106.457 45.7373C106.379 46.0435 106.24 46.3413 106.04 46.6307C105.845 46.9146 105.592 47.1734 105.28 47.4072C104.968 47.6354 104.598 47.8191 104.169 47.9583C103.746 48.0918 103.27 48.1586 102.742 48.1586ZM111.308 48.1586C110.74 48.1586 110.228 48.0501 109.772 47.833C109.321 47.6159 108.962 47.307 108.695 46.9062C108.433 46.5055 108.302 46.0323 108.302 45.4868V45.4701C108.302 44.9358 108.43 44.4794 108.686 44.1008C108.942 43.7168 109.315 43.4162 109.805 43.1991C110.295 42.982 110.888 42.854 111.584 42.815L114.89 42.6147V43.7752L111.759 43.9756C111.074 44.0146 110.573 44.1565 110.256 44.4014C109.944 44.6463 109.788 44.9914 109.788 45.4367V45.4534C109.788 45.9099 109.961 46.2661 110.306 46.5222C110.651 46.7726 111.085 46.8979 111.609 46.8979C112.104 46.8979 112.544 46.8005 112.928 46.6057C113.312 46.4053 113.612 46.1353 113.83 45.7958C114.052 45.4562 114.164 45.0722 114.164 44.6436V41.8382C114.164 41.2815 113.994 40.8585 113.654 40.5691C113.32 40.2741 112.817 40.1265 112.143 40.1265C111.603 40.1265 111.161 40.224 110.815 40.4188C110.47 40.608 110.239 40.878 110.122 41.2287L110.114 41.2537H108.661L108.67 41.2036C108.748 40.7305 108.942 40.3186 109.254 39.9679C109.571 39.6117 109.981 39.3361 110.481 39.1413C110.982 38.9409 111.553 38.8407 112.193 38.8407C112.928 38.8407 113.548 38.9604 114.055 39.1998C114.567 39.4391 114.954 39.7842 115.216 40.2351C115.483 40.6804 115.616 41.2147 115.616 41.8382V48H114.164V46.6725H114.03C113.841 46.9897 113.61 47.2597 113.337 47.4823C113.07 47.705 112.766 47.8748 112.427 47.9917C112.087 48.103 111.714 48.1586 111.308 48.1586ZM121.361 48.1586C120.693 48.1586 120.103 48.0584 119.591 47.8581C119.079 47.6521 118.667 47.3654 118.355 46.9981C118.049 46.6307 117.868 46.1993 117.812 45.7039H119.298C119.421 46.0769 119.66 46.3774 120.016 46.6057C120.373 46.8339 120.837 46.948 121.411 46.948C121.817 46.948 122.173 46.8895 122.48 46.7726C122.791 46.6502 123.036 46.486 123.214 46.28C123.392 46.0685 123.481 45.8264 123.481 45.5536V45.5369C123.481 45.2308 123.359 44.972 123.114 44.7604C122.869 44.5434 122.468 44.368 121.912 44.2344L120.517 43.9005C119.955 43.7669 119.493 43.5943 119.131 43.3828C118.77 43.1657 118.502 42.9013 118.33 42.5896C118.157 42.2723 118.071 41.8994 118.071 41.4708V41.4624C118.071 40.9615 118.216 40.5134 118.505 40.1182C118.8 39.723 119.201 39.4113 119.708 39.1831C120.214 38.9549 120.785 38.8407 121.419 38.8407C122.048 38.8407 122.605 38.9409 123.089 39.1413C123.579 39.3361 123.971 39.6145 124.266 39.9763C124.567 40.3381 124.751 40.7639 124.817 41.2537H123.39C123.295 40.8975 123.078 40.608 122.738 40.3854C122.399 40.1627 121.956 40.0514 121.411 40.0514C121.055 40.0514 120.737 40.1098 120.459 40.2267C120.181 40.3381 119.961 40.4939 119.799 40.6943C119.638 40.8947 119.557 41.1285 119.557 41.3957V41.4123C119.557 41.6127 119.61 41.7909 119.716 41.9467C119.822 42.1026 119.986 42.2389 120.208 42.3558C120.431 42.4727 120.718 42.5757 121.068 42.6648L122.454 42.9987C123.301 43.2047 123.93 43.4997 124.341 43.8838C124.759 44.2678 124.968 44.7827 124.968 45.4284V45.4451C124.968 45.9795 124.809 46.4526 124.492 46.8645C124.174 47.2708 123.743 47.5881 123.198 47.8163C122.658 48.0445 122.045 48.1586 121.361 48.1586ZM130.336 48.0668C129.412 48.0668 128.742 47.8803 128.324 47.5074C127.912 47.1344 127.706 46.5194 127.706 45.6622V40.2017H126.287V38.9994H127.706V36.6699H129.209V38.9994H131.18V40.2017H129.209V45.2948C129.209 45.8236 129.309 46.2049 129.51 46.4387C129.71 46.6669 130.044 46.781 130.512 46.781C130.64 46.781 130.748 46.7782 130.837 46.7726C130.932 46.7671 131.046 46.7587 131.18 46.7476V47.9833C131.04 48.0056 130.901 48.025 130.762 48.0417C130.623 48.0584 130.481 48.0668 130.336 48.0668ZM132.983 51.0642L133.709 46.3134H135.371L134.06 51.0642H132.983ZM143.236 48V38.9994H144.689V40.3687H144.822C145.023 39.8844 145.329 39.5087 145.741 39.2415C146.158 38.9743 146.662 38.8407 147.252 38.8407C147.658 38.8407 148.023 38.9075 148.346 39.0411C148.669 39.1747 148.947 39.3612 149.181 39.6005C149.415 39.8343 149.601 40.1071 149.74 40.4188H149.874C150.035 40.1015 150.252 39.826 150.525 39.5922C150.798 39.3528 151.112 39.1692 151.469 39.0411C151.83 38.9075 152.217 38.8407 152.629 38.8407C153.241 38.8407 153.759 38.9549 154.182 39.1831C154.611 39.4113 154.936 39.7453 155.159 40.185C155.382 40.6192 155.493 41.1507 155.493 41.7797V48H154.04V42.1137C154.04 41.6684 153.971 41.301 153.831 41.0116C153.698 40.7166 153.492 40.4967 153.214 40.352C152.935 40.2017 152.585 40.1265 152.162 40.1265C151.744 40.1265 151.379 40.2212 151.068 40.4104C150.756 40.5997 150.514 40.8529 150.341 41.1702C150.169 41.4819 150.083 41.8298 150.083 42.2139V48H148.63V41.8883C148.63 41.532 148.552 41.2231 148.396 40.9615C148.246 40.6943 148.029 40.4884 147.745 40.3436C147.466 40.1989 147.138 40.1265 146.759 40.1265C146.37 40.1265 146.016 40.2295 145.699 40.4355C145.387 40.6414 145.14 40.9197 144.956 41.2704C144.778 41.6155 144.689 41.9996 144.689 42.4226V48H143.236ZM160.586 48.1586C160.018 48.1586 159.506 48.0501 159.05 47.833C158.599 47.6159 158.24 47.307 157.973 46.9062C157.711 46.5055 157.58 46.0323 157.58 45.4868V45.4701C157.58 44.9358 157.708 44.4794 157.964 44.1008C158.22 43.7168 158.593 43.4162 159.083 43.1991C159.573 42.982 160.166 42.854 160.862 42.815L164.168 42.6147V43.7752L161.037 43.9756C160.352 44.0146 159.851 44.1565 159.534 44.4014C159.222 44.6463 159.066 44.9914 159.066 45.4367V45.4534C159.066 45.9099 159.239 46.2661 159.584 46.5222C159.929 46.7726 160.363 46.8979 160.887 46.8979C161.382 46.8979 161.822 46.8005 162.206 46.6057C162.59 46.4053 162.89 46.1353 163.108 45.7958C163.33 45.4562 163.442 45.0722 163.442 44.6436V41.8382C163.442 41.2815 163.272 40.8585 162.932 40.5691C162.598 40.2741 162.094 40.1265 161.421 40.1265C160.881 40.1265 160.439 40.224 160.093 40.4188C159.748 40.608 159.517 40.878 159.4 41.2287L159.392 41.2537H157.939L157.948 41.2036C158.026 40.7305 158.22 40.3186 158.532 39.9679C158.849 39.6117 159.258 39.3361 159.759 39.1413C160.26 38.9409 160.831 38.8407 161.471 38.8407C162.206 38.8407 162.826 38.9604 163.333 39.1998C163.845 39.4391 164.232 39.7842 164.494 40.2351C164.761 40.6804 164.894 41.2147 164.894 41.8382V48H163.442V46.6725H163.308C163.119 46.9897 162.888 47.2597 162.615 47.4823C162.348 47.705 162.044 47.8748 161.705 47.9917C161.365 48.103 160.992 48.1586 160.586 48.1586ZM167.984 51.1561C167.889 51.1561 167.783 51.1505 167.666 51.1394C167.549 51.1338 167.441 51.1227 167.341 51.106V49.912C167.43 49.9287 167.527 49.9398 167.633 49.9454C167.739 49.951 167.842 49.9538 167.942 49.9538C168.354 49.9538 168.69 49.848 168.952 49.6365C169.219 49.425 169.434 49.0604 169.595 48.5427L169.762 48.0083L166.431 38.9994H167.984L170.756 47.3154L170.179 46.4053H170.864L170.288 47.3154L173.052 38.9994H174.58L171.064 48.5511C170.82 49.2246 170.561 49.7506 170.288 50.1291C170.015 50.5076 169.695 50.772 169.328 50.9223C168.966 51.0781 168.518 51.1561 167.984 51.1561ZM180.975 48.1586C180.558 48.1586 180.171 48.0946 179.815 47.9666C179.458 47.8386 179.141 47.6577 178.863 47.4239C178.584 47.1845 178.353 46.8979 178.17 46.5639H178.036V48H176.583V35.4259H178.036V40.4188H178.17C178.337 40.0959 178.559 39.8176 178.838 39.5838C179.122 39.3501 179.444 39.1692 179.806 39.0411C180.174 38.9075 180.563 38.8407 180.975 38.8407C181.738 38.8407 182.4 39.0328 182.962 39.4169C183.53 39.8009 183.97 40.3408 184.282 41.0366C184.593 41.7324 184.749 42.5506 184.749 43.4913V43.508C184.749 44.4432 184.593 45.2614 184.282 45.9628C183.97 46.6585 183.53 47.1985 182.962 47.5825C182.4 47.9666 181.738 48.1586 180.975 48.1586ZM180.641 46.8728C181.192 46.8728 181.663 46.7392 182.052 46.4721C182.442 46.1993 182.74 45.8125 182.946 45.3115C183.157 44.805 183.263 44.2038 183.263 43.508V43.4913C183.263 42.79 183.157 42.1888 182.946 41.6879C182.74 41.1869 182.442 40.8028 182.052 40.5357C181.663 40.2629 181.192 40.1265 180.641 40.1265C180.096 40.1265 179.625 40.2629 179.23 40.5357C178.835 40.8084 178.532 41.1953 178.32 41.6962C178.109 42.1972 178.003 42.7956 178.003 43.4913V43.508C178.003 44.1983 178.109 44.7966 178.32 45.3032C178.532 45.8041 178.835 46.191 179.23 46.4637C179.625 46.7365 180.096 46.8728 180.641 46.8728ZM190.677 48.1586C189.82 48.1586 189.082 47.9694 188.465 47.5909C187.852 47.2124 187.379 46.678 187.045 45.9878C186.717 45.292 186.553 44.4738 186.553 43.5331V43.5247C186.553 42.5952 186.717 41.7797 187.045 41.0784C187.379 40.377 187.849 39.8288 188.456 39.4335C189.063 39.0383 189.773 38.8407 190.585 38.8407C191.404 38.8407 192.105 39.03 192.689 39.4085C193.279 39.787 193.73 40.3158 194.042 40.9949C194.359 41.6684 194.518 42.4532 194.518 43.3494V43.9172H187.304V42.7566H193.775L193.057 43.817V43.2409C193.057 42.5339 192.951 41.9523 192.739 41.4958C192.528 41.0394 192.236 40.6999 191.863 40.4772C191.49 40.249 191.061 40.1349 190.577 40.1349C190.093 40.1349 189.659 40.2546 189.274 40.4939C188.896 40.7277 188.595 41.0756 188.373 41.5376C188.15 41.9996 188.039 42.5673 188.039 43.2409V43.817C188.039 44.4571 188.147 45.0054 188.364 45.4618C188.581 45.9127 188.89 46.2605 189.291 46.5055C189.692 46.7448 190.165 46.8645 190.711 46.8645C191.117 46.8645 191.47 46.8088 191.771 46.6975C192.071 46.5862 192.319 46.4442 192.514 46.2717C192.709 46.0991 192.845 45.9238 192.923 45.7457L192.957 45.6705H194.409L194.393 45.7373C194.315 46.0435 194.176 46.3413 193.975 46.6307C193.78 46.9146 193.527 47.1734 193.215 47.4072C192.904 47.6354 192.533 47.8191 192.105 47.9583C191.682 48.0918 191.206 48.1586 190.677 48.1586ZM201.665 48V35.4259H203.118V40.352H203.251C203.479 39.8733 203.808 39.5031 204.237 39.2415C204.665 38.9743 205.211 38.8407 205.873 38.8407C206.546 38.8407 207.117 38.9716 207.585 39.2332C208.052 39.4892 208.408 39.8649 208.653 40.3603C208.898 40.8557 209.021 41.4597 209.021 42.1721V48H207.568V42.5228C207.568 41.7101 207.395 41.109 207.05 40.7194C206.711 40.3241 206.182 40.1265 205.464 40.1265C204.985 40.1265 204.57 40.2295 204.22 40.4355C203.869 40.6414 203.596 40.9337 203.402 41.3122C203.212 41.6907 203.118 42.1443 203.118 42.6731V48H201.665ZM215.324 48.1586C214.467 48.1586 213.73 47.9694 213.112 47.5909C212.5 47.2124 212.026 46.678 211.692 45.9878C211.364 45.292 211.2 44.4738 211.2 43.5331V43.5247C211.2 42.5952 211.364 41.7797 211.692 41.0784C212.026 40.377 212.497 39.8288 213.104 39.4335C213.71 39.0383 214.42 38.8407 215.233 38.8407C216.051 38.8407 216.752 39.03 217.337 39.4085C217.927 39.787 218.378 40.3158 218.689 40.9949C219.007 41.6684 219.165 42.4532 219.165 43.3494V43.9172H211.951V42.7566H218.422L217.704 43.817V43.2409C217.704 42.5339 217.598 41.9523 217.387 41.4958C217.175 41.0394 216.883 40.6999 216.51 40.4772C216.137 40.249 215.709 40.1349 215.224 40.1349C214.74 40.1349 214.306 40.2546 213.922 40.4939C213.543 40.7277 213.243 41.0756 213.02 41.5376C212.797 41.9996 212.686 42.5673 212.686 43.2409V43.817C212.686 44.4571 212.795 45.0054 213.012 45.4618C213.229 45.9127 213.538 46.2605 213.938 46.5055C214.339 46.7448 214.812 46.8645 215.358 46.8645C215.764 46.8645 216.118 46.8088 216.418 46.6975C216.719 46.5862 216.967 46.4442 217.161 46.2717C217.356 46.0991 217.493 45.9238 217.57 45.7457L217.604 45.6705H219.057L219.04 45.7373C218.962 46.0435 218.823 46.3413 218.622 46.6307C218.428 46.9146 218.174 47.1734 217.863 47.4072C217.551 47.6354 217.181 47.8191 216.752 47.9583C216.329 48.0918 215.853 48.1586 215.324 48.1586ZM229.911 48.1586C229.07 48.1586 228.341 47.9666 227.723 47.5825C227.105 47.1985 226.627 46.6558 226.287 45.9544C225.948 45.2531 225.778 44.4265 225.778 43.4746V43.4579C225.778 42.5228 225.945 41.7101 226.279 41.0199C226.618 40.3297 227.097 39.7954 227.715 39.4169C228.333 39.0328 229.062 38.8407 229.902 38.8407C230.632 38.8407 231.261 38.9688 231.789 39.2248C232.318 39.4809 232.741 39.826 233.059 40.2601C233.376 40.6887 233.579 41.1702 233.668 41.7046L233.676 41.7547H232.232L232.224 41.7296C232.112 41.2843 231.859 40.9058 231.464 40.5941C231.069 40.2824 230.548 40.1265 229.902 40.1265C229.363 40.1265 228.895 40.2629 228.5 40.5357C228.105 40.8084 227.798 41.1953 227.581 41.6962C227.37 42.1916 227.264 42.7789 227.264 43.4579V43.4746C227.264 44.1649 227.373 44.766 227.59 45.2781C227.807 45.7846 228.113 46.1771 228.508 46.4554C228.903 46.7337 229.368 46.8728 229.902 46.8728C230.509 46.8728 231.005 46.742 231.389 46.4804C231.773 46.2188 232.048 45.8375 232.215 45.3366L232.232 45.2865L233.668 45.2781L233.651 45.3699C233.529 45.9099 233.312 46.3914 233 46.8144C232.688 47.2319 232.276 47.5603 231.764 47.7996C231.252 48.039 230.634 48.1586 229.911 48.1586ZM238.269 48.1586C237.701 48.1586 237.189 48.0501 236.732 47.833C236.281 47.6159 235.922 47.307 235.655 46.9062C235.394 46.5055 235.263 46.0323 235.263 45.4868V45.4701C235.263 44.9358 235.391 44.4794 235.647 44.1008C235.903 43.7168 236.276 43.4162 236.766 43.1991C237.255 42.982 237.848 42.854 238.544 42.815L241.85 42.6147V43.7752L238.719 43.9756C238.035 44.0146 237.534 44.1565 237.217 44.4014C236.905 44.6463 236.749 44.9914 236.749 45.4367V45.4534C236.749 45.9099 236.921 46.2661 237.267 46.5222C237.612 46.7726 238.046 46.8979 238.569 46.8979C239.065 46.8979 239.504 46.8005 239.888 46.6057C240.272 46.4053 240.573 46.1353 240.79 45.7958C241.013 45.4562 241.124 45.0722 241.124 44.6436V41.8382C241.124 41.2815 240.954 40.8585 240.615 40.5691C240.281 40.2741 239.777 40.1265 239.103 40.1265C238.564 40.1265 238.121 40.224 237.776 40.4188C237.431 40.608 237.2 40.878 237.083 41.2287L237.075 41.2537H235.622L235.63 41.2036C235.708 40.7305 235.903 40.3186 236.215 39.9679C236.532 39.6117 236.941 39.3361 237.442 39.1413C237.943 38.9409 238.513 38.8407 239.154 38.8407C239.888 38.8407 240.509 38.9604 241.015 39.1998C241.528 39.4391 241.914 39.7842 242.176 40.2351C242.443 40.6804 242.577 41.2147 242.577 41.8382V48H241.124V46.6725H240.99C240.801 46.9897 240.57 47.2597 240.297 47.4823C240.03 47.705 239.727 47.8748 239.387 47.9917C239.048 48.103 238.675 48.1586 238.269 48.1586ZM245.232 48V38.9994H246.685V40.352H246.818C247.046 39.8733 247.375 39.5031 247.804 39.2415C248.232 38.9743 248.778 38.8407 249.44 38.8407C250.453 38.8407 251.23 39.1302 251.769 39.7091C252.315 40.2824 252.588 41.1034 252.588 42.1721V48H251.135V42.5228C251.135 41.7101 250.962 41.109 250.617 40.7194C250.278 40.3241 249.749 40.1265 249.031 40.1265C248.552 40.1265 248.137 40.2295 247.787 40.4355C247.436 40.6414 247.163 40.9337 246.969 41.3122C246.779 41.6907 246.685 42.1443 246.685 42.6731V48H245.232ZM260.094 48V35.4259H261.547V40.352H261.68C261.908 39.8733 262.237 39.5031 262.665 39.2415C263.094 38.9743 263.639 38.8407 264.302 38.8407C264.975 38.8407 265.546 38.9716 266.013 39.2332C266.481 39.4892 266.837 39.8649 267.082 40.3603C267.327 40.8557 267.45 41.4597 267.45 42.1721V48H265.997V42.5228C265.997 41.7101 265.824 41.109 265.479 40.7194C265.14 40.3241 264.611 40.1265 263.893 40.1265C263.414 40.1265 262.999 40.2295 262.649 40.4355C262.298 40.6414 262.025 40.9337 261.83 41.3122C261.641 41.6907 261.547 42.1443 261.547 42.6731V48H260.094ZM273.753 48.1586C272.896 48.1586 272.159 47.9694 271.541 47.5909C270.928 47.2124 270.455 46.678 270.121 45.9878C269.793 45.292 269.629 44.4738 269.629 43.5331V43.5247C269.629 42.5952 269.793 41.7797 270.121 41.0784C270.455 40.377 270.926 39.8288 271.532 39.4335C272.139 39.0383 272.849 38.8407 273.661 38.8407C274.48 38.8407 275.181 39.03 275.766 39.4085C276.356 39.787 276.806 40.3158 277.118 40.9949C277.435 41.6684 277.594 42.4532 277.594 43.3494V43.9172H270.38V42.7566H276.851L276.133 43.817V43.2409C276.133 42.5339 276.027 41.9523 275.816 41.4958C275.604 41.0394 275.312 40.6999 274.939 40.4772C274.566 40.249 274.137 40.1349 273.653 40.1349C273.169 40.1349 272.735 40.2546 272.351 40.4939C271.972 40.7277 271.672 41.0756 271.449 41.5376C271.226 41.9996 271.115 42.5673 271.115 43.2409V43.817C271.115 44.4571 271.223 45.0054 271.441 45.4618C271.658 45.9127 271.967 46.2605 272.367 46.5055C272.768 46.7448 273.241 46.8645 273.787 46.8645C274.193 46.8645 274.547 46.8088 274.847 46.6975C275.148 46.5862 275.395 46.4442 275.59 46.2717C275.785 46.0991 275.921 45.9238 275.999 45.7457L276.033 45.6705H277.485L277.469 45.7373C277.391 46.0435 277.252 46.3413 277.051 46.6307C276.857 46.9146 276.603 47.1734 276.292 47.4072C275.98 47.6354 275.61 47.8191 275.181 47.9583C274.758 48.0918 274.282 48.1586 273.753 48.1586ZM279.932 48V35.4259H281.385V48H279.932ZM284.173 51.0058V38.9994H285.626V40.4355H285.76C285.943 40.1015 286.174 39.8176 286.453 39.5838C286.731 39.3445 287.048 39.1608 287.405 39.0328C287.761 38.9048 288.148 38.8407 288.565 38.8407C289.328 38.8407 289.99 39.0356 290.552 39.4252C291.12 39.8093 291.56 40.3492 291.871 41.045C292.183 41.7408 292.339 42.5562 292.339 43.4913V43.508C292.339 44.4487 292.183 45.267 291.871 45.9628C291.56 46.6585 291.12 47.1985 290.552 47.5825C289.99 47.9666 289.328 48.1586 288.565 48.1586C288.153 48.1586 287.764 48.0946 287.396 47.9666C287.034 47.833 286.712 47.6493 286.428 47.4155C286.149 47.1818 285.927 46.9034 285.76 46.5806H285.626V51.0058H284.173ZM288.231 46.8728C288.782 46.8728 289.253 46.7392 289.642 46.4721C290.032 46.1993 290.33 45.8125 290.536 45.3115C290.747 44.805 290.853 44.2038 290.853 43.508V43.4913C290.853 42.79 290.747 42.1888 290.536 41.6879C290.33 41.1869 290.032 40.8028 289.642 40.5357C289.253 40.2629 288.782 40.1265 288.231 40.1265C287.686 40.1265 287.215 40.2629 286.82 40.5357C286.425 40.8084 286.122 41.1953 285.91 41.6962C285.698 42.1972 285.593 42.7956 285.593 43.4913V43.508C285.593 44.1983 285.698 44.7966 285.91 45.3032C286.122 45.8041 286.425 46.191 286.82 46.4637C287.215 46.7365 287.686 46.8728 288.231 46.8728ZM296.539 44.2762V43.508C296.539 43.1407 296.597 42.8095 296.714 42.5145C296.831 42.2139 297.015 41.9384 297.265 41.6879C297.516 41.4374 297.83 41.198 298.209 40.9698C298.531 40.7694 298.79 40.5746 298.985 40.3854C299.185 40.1906 299.33 39.979 299.419 39.7508C299.508 39.5226 299.553 39.261 299.553 38.966V38.9493C299.553 38.6042 299.469 38.298 299.302 38.0309C299.135 37.7637 298.899 37.5522 298.593 37.3963C298.287 37.2404 297.925 37.1625 297.507 37.1625C297.09 37.1625 296.725 37.2404 296.414 37.3963C296.102 37.5522 295.854 37.7748 295.67 38.0643C295.492 38.3537 295.389 38.696 295.361 39.0912L295.345 39.0996L293.925 39.1079V39.0912C293.959 38.4956 294.115 37.9529 294.393 37.4631C294.671 36.9733 295.075 36.5836 295.604 36.2942C296.132 36.0047 296.786 35.86 297.566 35.86C298.267 35.86 298.882 35.9936 299.411 36.2608C299.945 36.5224 300.36 36.8814 300.655 37.3379C300.956 37.7887 301.106 38.3008 301.106 38.8741V38.8908C301.106 39.325 301.033 39.7202 300.889 40.0765C300.75 40.4271 300.549 40.7416 300.288 41.0199C300.026 41.2982 299.717 41.5459 299.361 41.763C299.01 41.969 298.735 42.1666 298.534 42.3558C298.339 42.5451 298.2 42.7482 298.117 42.9653C298.039 43.1824 298 43.4385 298 43.7335V44.2762H296.539ZM297.382 48.1503C297.042 48.1503 296.764 48.0417 296.547 47.8247C296.33 47.6076 296.221 47.3293 296.221 46.9897C296.221 46.6446 296.33 46.3635 296.547 46.1464C296.764 45.9294 297.042 45.8208 297.382 45.8208C297.722 45.8208 297.997 45.9294 298.209 46.1464C298.426 46.3635 298.534 46.6446 298.534 46.9897C298.534 47.3293 298.426 47.6076 298.209 47.8247C297.997 48.0417 297.722 48.1503 297.382 48.1503Z" fill="black"/>
<path d="M29 31.131H82.7198V32.7174H29V31.131Z" fill="#007AFF"/>
</svg>
