<svg width="483" height="78" viewBox="0 0 483 78" fill="none" xmlns="http://www.w3.org/2000/svg">
<path fill-rule="evenodd" clip-rule="evenodd" d="M483 39C483 28.5935 483 23.3902 481.575 19.1956C478.895 11.3028 472.697 5.105 464.804 2.42455C460.61 1 455.407 1 445 1L47 1C36.5935 1 31.3902 1 27.1956 2.42455C19.3028 5.105 13.105 11.3028 10.4245 19.1956C8.99997 23.3902 8.99997 28.5935 8.99997 39C8.99997 49.4065 8.99997 54.6098 10.4245 58.8044C13.105 66.6972 19.3028 72.895 27.1956 75.5755C31.3902 77 36.5935 77 47 77H445C455.407 77 460.61 77 464.804 75.5755C472.697 72.895 478.895 66.6972 481.575 58.8044C483 54.6098 483 49.4065 483 39Z" fill="#E6E5EB"/>
<path d="M35.9141 52.4536C35.9141 66.2783 24.7075 77.4856 10.8828 77.4858H0.154297V76.897C4.61832 73.1488 7.74749 67.8694 8.75293 61.8442C9.09433 59.7983 9.09473 57.3497 9.09473 52.4536H35.9141Z" fill="#E6E5EB"/>
<path d="M36.7958 35V33.1596H41.1304C42.1428 33.1596 42.9105 32.9551 43.4334 32.5461C43.9631 32.1371 44.2279 31.5471 44.2279 30.7761V30.756C44.2279 30.233 44.1039 29.7972 43.8558 29.4485C43.6145 29.0999 43.2524 28.8384 42.7697 28.6641C42.2937 28.4831 41.7003 28.3926 40.9896 28.3926H36.7958V26.6628H40.537C41.5293 26.6628 42.2836 26.4784 42.7999 26.1096C43.3161 25.7342 43.5742 25.1911 43.5742 24.4804V24.4603C43.5742 23.7831 43.3429 23.2602 42.8803 22.8914C42.4244 22.5159 41.7841 22.3282 40.9594 22.3282H36.7958V20.4878H41.4925C42.3842 20.4878 43.1519 20.6353 43.7955 20.9303C44.4459 21.2253 44.9453 21.6443 45.294 22.1874C45.6493 22.7305 45.827 23.3708 45.827 24.1083V24.1284C45.827 24.6313 45.7097 25.1073 45.475 25.5565C45.2471 26.0057 44.9386 26.3812 44.5498 26.6829C44.1609 26.9846 43.7217 27.1723 43.2323 27.2461V27.3768C43.8961 27.4506 44.476 27.645 44.9722 27.9601C45.4683 28.2752 45.8538 28.6842 46.1287 29.1871C46.4036 29.6899 46.5411 30.2565 46.5411 30.8867V30.9068C46.5411 31.7516 46.3433 32.4824 45.9477 33.0992C45.5521 33.7094 44.9856 34.1787 44.2481 34.5072C43.5106 34.8357 42.6255 35 41.593 35H36.7958ZM35.6594 35V20.4878H37.9222V35H35.6594ZM48.8642 35V24.1887H51.0466V25.8884H51.1773C51.3651 25.2917 51.6936 24.829 52.1629 24.5005C52.6389 24.1653 53.2189 23.9977 53.9028 23.9977C54.0771 23.9977 54.2447 24.0077 54.4056 24.0278C54.5665 24.0412 54.6973 24.0614 54.7978 24.0882V26.1096C54.6369 26.0694 54.4626 26.0392 54.2749 26.0191C54.0871 25.9923 53.8894 25.9789 53.6815 25.9789C53.1518 25.9789 52.6892 26.0828 52.2936 26.2907C51.9048 26.4985 51.5997 26.7969 51.3785 27.1857C51.1572 27.5679 51.0466 28.0205 51.0466 28.5434V35H48.8642ZM56.6986 35V24.1887H58.881V35H56.6986ZM57.7948 22.3383C57.4328 22.3383 57.1176 22.2109 56.8495 21.9561C56.588 21.6946 56.4572 21.3795 56.4572 21.0107C56.4572 20.642 56.588 20.3302 56.8495 20.0754C57.1176 19.814 57.4328 19.6832 57.7948 19.6832C58.1703 19.6832 58.4854 19.814 58.7402 20.0754C59.0017 20.3302 59.1324 20.642 59.1324 21.0107C59.1324 21.3795 59.0017 21.6946 58.7402 21.9561C58.4854 22.2109 58.1703 22.3383 57.7948 22.3383ZM65.7499 35.1106C64.6034 35.1106 63.7653 34.8793 63.2356 34.4167C62.7127 33.9541 62.4512 33.1998 62.4512 32.1539V25.9185H60.8019V24.1887H62.4512V21.4331H64.6838V24.1887H66.9165V25.9185H64.6838V31.7516C64.6838 32.3215 64.8012 32.7271 65.0358 32.9685C65.2705 33.2099 65.646 33.3305 66.1622 33.3305C66.3097 33.3305 66.4371 33.3272 66.5444 33.3205C66.6584 33.3071 66.7824 33.297 66.9165 33.2903V35.0101C66.7556 35.0369 66.5746 35.0603 66.3734 35.0805C66.179 35.1006 65.9711 35.1106 65.7499 35.1106ZM72.1864 35.1911C71.4958 35.1911 70.8789 35.057 70.3359 34.7888C69.7995 34.5206 69.3738 34.1452 69.0586 33.6624C68.7502 33.173 68.596 32.6031 68.596 31.9527V31.9326C68.596 31.289 68.7536 30.7392 69.0687 30.2833C69.3838 29.8207 69.8431 29.4586 70.4465 29.1971C71.0499 28.9356 71.7807 28.7781 72.6389 28.7244L76.6517 28.4831V30.0218L72.9306 30.2632C72.2065 30.3034 71.6667 30.4609 71.3114 30.7358C70.9628 31.004 70.7884 31.3761 70.7884 31.8522V31.8723C70.7884 32.3617 70.9728 32.7472 71.3416 33.0288C71.717 33.3037 72.1964 33.4412 72.7797 33.4412C73.3161 33.4412 73.7921 33.3339 74.2078 33.1193C74.6235 32.9048 74.952 32.6131 75.1934 32.2444C75.4348 31.8689 75.5554 31.4499 75.5554 30.9873V27.6483C75.5554 27.0516 75.3711 26.5924 75.0023 26.2705C74.6336 25.9487 74.0905 25.7878 73.3731 25.7878C72.763 25.7878 72.2668 25.9018 71.8846 26.1297C71.5025 26.3577 71.2511 26.6728 71.1304 27.0751L71.1103 27.1254H69.0285L69.0385 27.0449C69.1123 26.4415 69.3402 25.9118 69.7224 25.4559C70.1046 24.9933 70.6108 24.6313 71.241 24.3698C71.8779 24.1083 72.6155 23.9775 73.4535 23.9775C74.3587 23.9775 75.1297 24.1251 75.7666 24.4201C76.4036 24.7084 76.8897 25.124 77.2249 25.6671C77.5668 26.2035 77.7378 26.8438 77.7378 27.588V35H75.5554V33.411H75.4247C75.2169 33.7798 74.952 34.0982 74.6302 34.3664C74.3084 34.6346 73.9396 34.8391 73.5239 34.9799C73.115 35.1207 72.6691 35.1911 72.1864 35.1911ZM80.5035 35V24.1887H82.6858V25.828H82.8166C83.0915 25.2581 83.4938 24.8089 84.0234 24.4804C84.5531 24.1452 85.2135 23.9775 86.0047 23.9775C87.2115 23.9775 88.1367 24.3295 88.7804 25.0335C89.4307 25.7375 89.7559 26.7265 89.7559 28.0003V35H87.5735V28.4831C87.5735 27.6115 87.3825 26.9544 87.0003 26.5119C86.6248 26.0694 86.0415 25.8481 85.2504 25.8481C84.7274 25.8481 84.2748 25.9655 83.8927 26.2001C83.5105 26.4281 83.2122 26.7533 82.9976 27.1757C82.7898 27.5914 82.6858 28.0875 82.6858 28.6641V35H80.5035ZM93.3563 38.7412C93.2021 38.7412 93.0378 38.7345 92.8635 38.7211C92.6892 38.7077 92.535 38.6909 92.4009 38.6708V36.9611C92.4948 36.9745 92.6054 36.9846 92.7328 36.9913C92.8602 37.0047 92.9909 37.0114 93.125 37.0114C93.6345 37.0114 94.0435 36.9008 94.3519 36.6795C94.6671 36.465 94.9084 36.0895 95.076 35.5531L95.247 35.0101L91.3147 24.1887H93.6781L96.6751 33.7831L96.0918 32.878H96.826L96.2527 33.7831L99.2396 24.1887H101.543L97.5199 35.4425C97.2249 36.2672 96.893 36.9209 96.5242 37.4036C96.1622 37.8864 95.7264 38.2283 95.2168 38.4294C94.7073 38.6373 94.0871 38.7412 93.3563 38.7412Z" fill="#007AFF"/>
<path d="M111.811 35.1911C111.12 35.1911 110.507 35.0603 109.97 34.7989C109.434 34.5374 109.008 34.1686 108.693 33.6926C108.385 33.2099 108.231 32.6433 108.231 31.993V31.9728C108.231 31.3493 108.381 30.8129 108.683 30.3637C108.992 29.9078 109.437 29.5491 110.021 29.2876C110.604 29.0262 111.308 28.8719 112.133 28.825L116.085 28.5937V29.9816L112.344 30.2129C111.559 30.2598 110.976 30.4308 110.594 30.7258C110.212 31.0208 110.021 31.4298 110.021 31.9527V31.9728C110.021 32.5025 110.222 32.9182 110.624 33.2199C111.033 33.5216 111.553 33.6725 112.183 33.6725C112.76 33.6725 113.276 33.5551 113.732 33.3205C114.188 33.0858 114.546 32.7674 114.808 32.3651C115.076 31.9561 115.21 31.4935 115.21 30.9772V27.6986C115.21 27.0349 115.006 26.5253 114.597 26.17C114.194 25.8146 113.601 25.637 112.817 25.637C112.16 25.637 111.623 25.7643 111.207 26.0191C110.792 26.2672 110.52 26.6091 110.393 27.0449L110.383 27.0952H108.653L108.663 27.0148C108.743 26.4449 108.965 25.942 109.327 25.5062C109.696 25.0637 110.182 24.7184 110.785 24.4703C111.388 24.2156 112.082 24.0882 112.867 24.0882C113.732 24.0882 114.469 24.2323 115.079 24.5206C115.69 24.8022 116.155 25.2112 116.477 25.7476C116.799 26.2772 116.96 26.9075 116.96 27.6383V35H115.21V33.3708H115.079C114.865 33.7529 114.593 34.0815 114.265 34.3564C113.936 34.6245 113.564 34.8324 113.148 34.9799C112.739 35.1207 112.294 35.1911 111.811 35.1911ZM119.846 35V24.2793H121.596V25.8683H121.717C121.999 25.3185 122.401 24.886 122.924 24.5709C123.447 24.2491 124.104 24.0882 124.895 24.0882C126.095 24.0882 127.017 24.4368 127.661 25.1341C128.311 25.8247 128.636 26.7969 128.636 28.0506V35H126.886V28.4428C126.886 27.5042 126.682 26.8036 126.273 26.3409C125.864 25.8716 125.237 25.637 124.392 25.637C123.822 25.637 123.329 25.761 122.914 26.0091C122.498 26.2571 122.173 26.6058 121.938 27.055C121.71 27.5042 121.596 28.0406 121.596 28.6641V35H119.846ZM135.475 35.1911C134.57 35.1911 133.775 34.9631 133.091 34.5072C132.414 34.0513 131.888 33.4076 131.512 32.5763C131.144 31.7449 130.959 30.7694 130.959 29.6497V29.6296C130.959 28.5099 131.147 27.5344 131.523 26.703C131.898 25.8716 132.421 25.228 133.091 24.7721C133.769 24.3161 134.56 24.0882 135.465 24.0882C135.961 24.0882 136.427 24.1686 136.863 24.3295C137.299 24.4838 137.684 24.705 138.019 24.9933C138.361 25.2749 138.633 25.6135 138.834 26.0091H138.955V20.0553H140.705V35H138.955V33.2601H138.834C138.613 33.6624 138.334 34.0077 137.999 34.296C137.671 34.5843 137.292 34.8056 136.863 34.9598C136.44 35.114 135.978 35.1911 135.475 35.1911ZM135.857 33.6423C136.494 33.6423 137.047 33.4814 137.517 33.1596C137.986 32.831 138.348 32.3684 138.603 31.7717C138.857 31.1683 138.985 30.4609 138.985 29.6497V29.6296C138.985 28.8116 138.854 28.1043 138.593 27.5075C138.338 26.9108 137.976 26.4516 137.506 26.1297C137.044 25.8012 136.494 25.637 135.857 25.637C135.213 25.637 134.657 25.7979 134.188 26.1197C133.725 26.4415 133.37 26.9008 133.122 27.4975C132.874 28.0875 132.749 28.7982 132.749 29.6296V29.6497C132.749 30.4744 132.874 31.1884 133.122 31.7918C133.37 32.3885 133.725 32.8478 134.188 33.1696C134.657 33.4847 135.213 33.6423 135.857 33.6423ZM149.132 35V20.0553H150.882V25.9286H151.003C151.278 25.3453 151.68 24.8927 152.21 24.5709C152.739 24.2491 153.4 24.0882 154.191 24.0882C154.982 24.0882 155.659 24.2524 156.222 24.581C156.786 24.9028 157.218 25.3688 157.52 25.9789C157.822 26.589 157.972 27.3232 157.972 28.1814V35H156.222V28.5635C156.222 27.5914 156.008 26.8606 155.579 26.3711C155.15 25.8817 154.513 25.637 153.668 25.637C153.105 25.637 152.612 25.7643 152.19 26.0191C151.774 26.2672 151.452 26.6192 151.224 27.0751C150.996 27.5243 150.882 28.0607 150.882 28.6842V35H149.132ZM165.203 35.1911C164.184 35.1911 163.306 34.9665 162.568 34.5173C161.838 34.0681 161.274 33.4311 160.879 32.6064C160.483 31.7751 160.286 30.7995 160.286 29.6799V29.6698C160.286 28.5635 160.483 27.5914 160.879 26.7533C161.274 25.9152 161.834 25.2615 162.558 24.7922C163.282 24.3228 164.127 24.0882 165.093 24.0882C166.072 24.0882 166.91 24.3128 167.607 24.762C168.311 25.2112 168.851 25.8414 169.226 26.6527C169.602 27.4573 169.789 28.3926 169.789 29.4586V30.1324H161.181V28.7446H168.904L168.029 30.0218V29.3279C168.029 28.4898 167.902 27.7992 167.647 27.2561C167.399 26.713 167.054 26.3108 166.611 26.0493C166.169 25.7811 165.659 25.647 165.083 25.647C164.513 25.647 164 25.7878 163.544 26.0694C163.088 26.3443 162.726 26.7566 162.458 27.3064C162.196 27.8562 162.066 28.53 162.066 29.3279V30.0218C162.066 30.7794 162.196 31.4298 162.458 31.9728C162.719 32.5092 163.088 32.9216 163.564 33.2099C164.04 33.4982 164.6 33.6423 165.244 33.6423C165.72 33.6423 166.135 33.5753 166.491 33.4412C166.853 33.3071 167.151 33.1328 167.386 32.9182C167.62 32.697 167.785 32.4656 167.879 32.2243L167.919 32.1338H169.659L169.639 32.2243C169.545 32.6064 169.377 32.9752 169.136 33.3305C168.894 33.6859 168.586 34.0044 168.21 34.286C167.835 34.5675 167.392 34.7888 166.883 34.9497C166.38 35.1106 165.82 35.1911 165.203 35.1911ZM172.203 35V24.2793H173.953V25.9387H174.074C174.275 25.3621 174.61 24.9095 175.079 24.581C175.555 24.2524 176.135 24.0882 176.819 24.0882C176.987 24.0882 177.144 24.0982 177.292 24.1183C177.446 24.1318 177.563 24.1452 177.644 24.1586V25.8582C177.496 25.8247 177.335 25.8012 177.161 25.7878C176.994 25.7677 176.809 25.7576 176.608 25.7576C176.092 25.7576 175.632 25.8649 175.23 26.0795C174.828 26.294 174.513 26.5957 174.285 26.9846C174.064 27.3735 173.953 27.8327 173.953 28.3624V35H172.203ZM185.529 35V25.7275H183.839V24.2793H185.529V23.0523C185.529 22.3416 185.643 21.7583 185.87 21.3024C186.098 20.8398 186.44 20.4945 186.896 20.2665C187.352 20.0386 187.915 19.9246 188.586 19.9246C188.794 19.9246 188.991 19.9346 189.179 19.9548C189.374 19.9682 189.555 19.9883 189.722 20.0151V21.4231C189.615 21.403 189.491 21.3896 189.35 21.3828C189.216 21.3761 189.075 21.3728 188.928 21.3728C188.344 21.3728 187.922 21.5169 187.661 21.8052C187.399 22.0868 187.268 22.5126 187.268 23.0825V24.2793H189.632V25.7275H187.278V35H185.529ZM191.935 35V24.2793H193.685V25.9387H193.805C194.007 25.3621 194.342 24.9095 194.811 24.581C195.287 24.2524 195.867 24.0882 196.551 24.0882C196.719 24.0882 196.876 24.0982 197.024 24.1183C197.178 24.1318 197.295 24.1452 197.376 24.1586V25.8582C197.228 25.8247 197.067 25.8012 196.893 25.7878C196.725 25.7677 196.541 25.7576 196.34 25.7576C195.824 25.7576 195.364 25.8649 194.962 26.0795C194.56 26.294 194.245 26.5957 194.017 26.9846C193.795 27.3735 193.685 27.8327 193.685 28.3624V35H191.935ZM199.357 35V24.2793H201.107V35H199.357ZM200.242 22.298C199.92 22.298 199.645 22.1841 199.417 21.9561C199.189 21.7214 199.075 21.4432 199.075 21.1214C199.075 20.7928 199.189 20.5179 199.417 20.2967C199.645 20.0687 199.92 19.9548 200.242 19.9548C200.57 19.9548 200.849 20.0687 201.077 20.2967C201.305 20.5179 201.419 20.7928 201.419 21.1214C201.419 21.4432 201.305 21.7214 201.077 21.9561C200.849 22.1841 200.57 22.298 200.242 22.298ZM208.509 35.1911C207.49 35.1911 206.611 34.9665 205.874 34.5173C205.143 34.0681 204.58 33.4311 204.184 32.6064C203.789 31.7751 203.591 30.7995 203.591 29.6799V29.6698C203.591 28.5635 203.789 27.5914 204.184 26.7533C204.58 25.9152 205.14 25.2615 205.864 24.7922C206.588 24.3228 207.433 24.0882 208.398 24.0882C209.377 24.0882 210.215 24.3128 210.912 24.762C211.616 25.2112 212.156 25.8414 212.532 26.6527C212.907 27.4573 213.095 28.3926 213.095 29.4586V30.1324H204.486V28.7446H212.21L211.335 30.0218V29.3279C211.335 28.4898 211.207 27.7992 210.953 27.2561C210.705 26.713 210.359 26.3108 209.917 26.0493C209.474 25.7811 208.965 25.647 208.388 25.647C207.818 25.647 207.305 25.7878 206.849 26.0694C206.393 26.3443 206.031 26.7566 205.763 27.3064C205.502 27.8562 205.371 28.53 205.371 29.3279V30.0218C205.371 30.7794 205.502 31.4298 205.763 31.9728C206.025 32.5092 206.393 32.9216 206.869 33.2099C207.345 33.4982 207.905 33.6423 208.549 33.6423C209.025 33.6423 209.441 33.5753 209.796 33.4412C210.158 33.3071 210.456 33.1328 210.691 32.9182C210.926 32.697 211.09 32.4656 211.184 32.2243L211.224 32.1338H212.964L212.944 32.2243C212.85 32.6064 212.682 32.9752 212.441 33.3305C212.2 33.6859 211.891 34.0044 211.516 34.286C211.14 34.5675 210.698 34.7888 210.188 34.9497C209.685 35.1106 209.126 35.1911 208.509 35.1911ZM215.508 35V24.2793H217.258V25.8683H217.379C217.661 25.3185 218.063 24.886 218.586 24.5709C219.109 24.2491 219.766 24.0882 220.557 24.0882C221.757 24.0882 222.679 24.4368 223.323 25.1341C223.973 25.8247 224.298 26.7969 224.298 28.0506V35H222.548V28.4428C222.548 27.5042 222.344 26.8036 221.935 26.3409C221.526 25.8716 220.899 25.637 220.054 25.637C219.484 25.637 218.991 25.761 218.576 26.0091C218.16 26.2571 217.835 26.6058 217.6 27.055C217.372 27.5042 217.258 28.0406 217.258 28.6641V35H215.508ZM231.137 35.1911C230.232 35.1911 229.437 34.9631 228.753 34.5072C228.076 34.0513 227.55 33.4076 227.174 32.5763C226.806 31.7449 226.621 30.7694 226.621 29.6497V29.6296C226.621 28.5099 226.809 27.5344 227.185 26.703C227.56 25.8716 228.083 25.228 228.753 24.7721C229.431 24.3161 230.222 24.0882 231.127 24.0882C231.623 24.0882 232.089 24.1686 232.525 24.3295C232.961 24.4838 233.346 24.705 233.681 24.9933C234.023 25.2749 234.295 25.6135 234.496 26.0091H234.617V20.0553H236.367V35H234.617V33.2601H234.496C234.275 33.6624 233.996 34.0077 233.661 34.296C233.333 34.5843 232.954 34.8056 232.525 34.9598C232.102 35.114 231.64 35.1911 231.137 35.1911ZM231.519 33.6423C232.156 33.6423 232.709 33.4814 233.179 33.1596C233.648 32.831 234.01 32.3684 234.265 31.7717C234.519 31.1683 234.647 30.4609 234.647 29.6497V29.6296C234.647 28.8116 234.516 28.1043 234.255 27.5075C234 26.9108 233.638 26.4516 233.168 26.1297C232.706 25.8012 232.156 25.637 231.519 25.637C230.875 25.637 230.319 25.7979 229.85 26.1197C229.387 26.4415 229.032 26.9008 228.784 27.4975C228.536 28.0875 228.411 28.7982 228.411 29.6296V29.6497C228.411 30.4744 228.536 31.1884 228.784 31.7918C229.032 32.3885 229.387 32.8478 229.85 33.1696C230.319 33.4847 230.875 33.6423 231.519 33.6423ZM247.701 35.1911C247.01 35.1911 246.397 35.0603 245.86 34.7989C245.324 34.5374 244.898 34.1686 244.583 33.6926C244.275 33.2099 244.121 32.6433 244.121 31.993V31.9728C244.121 31.3493 244.271 30.8129 244.573 30.3637C244.881 29.9078 245.327 29.5491 245.911 29.2876C246.494 29.0262 247.198 28.8719 248.023 28.825L251.975 28.5937V29.9816L248.234 30.2129C247.449 30.2598 246.866 30.4308 246.484 30.7258C246.102 31.0208 245.911 31.4298 245.911 31.9527V31.9728C245.911 32.5025 246.112 32.9182 246.514 33.2199C246.923 33.5216 247.443 33.6725 248.073 33.6725C248.649 33.6725 249.166 33.5551 249.622 33.3205C250.078 33.0858 250.436 32.7674 250.698 32.3651C250.966 31.9561 251.1 31.4935 251.1 30.9772V27.6986C251.1 27.0349 250.896 26.5253 250.487 26.17C250.084 25.8146 249.491 25.637 248.706 25.637C248.049 25.637 247.513 25.7643 247.097 26.0191C246.682 26.2672 246.41 26.6091 246.283 27.0449L246.273 27.0952H244.543L244.553 27.0148C244.633 26.4449 244.855 25.942 245.217 25.5062C245.585 25.0637 246.072 24.7184 246.675 24.4703C247.278 24.2156 247.972 24.0882 248.757 24.0882C249.622 24.0882 250.359 24.2323 250.969 24.5206C251.579 24.8022 252.045 25.2112 252.367 25.7476C252.689 26.2772 252.85 26.9075 252.85 27.6383V35H251.1V33.3708H250.969C250.755 33.7529 250.483 34.0815 250.155 34.3564C249.826 34.6245 249.454 34.8324 249.038 34.9799C248.629 35.1207 248.184 35.1911 247.701 35.1911ZM255.736 35V24.2793H257.486V25.9387H257.607C257.808 25.3621 258.143 24.9095 258.613 24.581C259.089 24.2524 259.669 24.0882 260.352 24.0882C260.52 24.0882 260.678 24.0982 260.825 24.1183C260.979 24.1318 261.097 24.1452 261.177 24.1586V25.8582C261.03 25.8247 260.869 25.8012 260.694 25.7878C260.527 25.7677 260.342 25.7576 260.141 25.7576C259.625 25.7576 259.166 25.8649 258.763 26.0795C258.361 26.294 258.046 26.5957 257.818 26.9846C257.597 27.3735 257.486 27.8327 257.486 28.3624V35H255.736ZM267.121 35.1911C266.102 35.1911 265.223 34.9665 264.486 34.5173C263.755 34.0681 263.192 33.4311 262.796 32.6064C262.401 31.7751 262.203 30.7995 262.203 29.6799V29.6698C262.203 28.5635 262.401 27.5914 262.796 26.7533C263.192 25.9152 263.752 25.2615 264.476 24.7922C265.2 24.3228 266.045 24.0882 267.01 24.0882C267.989 24.0882 268.827 24.3128 269.524 24.762C270.228 25.2112 270.768 25.8414 271.144 26.6527C271.519 27.4573 271.707 28.3926 271.707 29.4586V30.1324H263.098V28.7446H270.822L269.947 30.0218V29.3279C269.947 28.4898 269.819 27.7992 269.565 27.2561C269.317 26.713 268.971 26.3108 268.529 26.0493C268.086 25.7811 267.577 25.647 267 25.647C266.43 25.647 265.917 25.7878 265.461 26.0694C265.005 26.3443 264.643 26.7566 264.375 27.3064C264.114 27.8562 263.983 28.53 263.983 29.3279V30.0218C263.983 30.7794 264.114 31.4298 264.375 31.9728C264.637 32.5092 265.005 32.9216 265.482 33.2099C265.958 33.4982 266.517 33.6423 267.161 33.6423C267.637 33.6423 268.053 33.5753 268.408 33.4412C268.77 33.3071 269.069 33.1328 269.303 32.9182C269.538 32.697 269.702 32.4656 269.796 32.2243L269.836 32.1338H271.576L271.556 32.2243C271.462 32.6064 271.294 32.9752 271.053 33.3305C270.812 33.6859 270.503 34.0044 270.128 34.286C269.752 34.5675 269.31 34.7888 268.8 34.9497C268.297 35.1106 267.738 35.1911 267.121 35.1911ZM279.511 35V20.0553H281.261V25.9286H281.382C281.657 25.3453 282.059 24.8927 282.588 24.5709C283.118 24.2491 283.779 24.0882 284.57 24.0882C285.361 24.0882 286.038 24.2524 286.601 24.581C287.164 24.9028 287.597 25.3688 287.899 25.9789C288.2 26.589 288.351 27.3232 288.351 28.1814V35H286.601V28.5635C286.601 27.5914 286.387 26.8606 285.958 26.3711C285.528 25.8817 284.891 25.637 284.047 25.637C283.484 25.637 282.991 25.7643 282.568 26.0191C282.153 26.2672 281.831 26.6192 281.603 27.0751C281.375 27.5243 281.261 28.0607 281.261 28.6842V35H279.511ZM291.258 35V24.2793H293.007V35H291.258ZM292.143 22.298C291.821 22.298 291.546 22.1841 291.318 21.9561C291.09 21.7214 290.976 21.4432 290.976 21.1214C290.976 20.7928 291.09 20.5179 291.318 20.2967C291.546 20.0687 291.821 19.9548 292.143 19.9548C292.471 19.9548 292.749 20.0687 292.977 20.2967C293.205 20.5179 293.319 20.7928 293.319 21.1214C293.319 21.4432 293.205 21.7214 292.977 21.9561C292.749 22.1841 292.471 22.298 292.143 22.298ZM299.736 35.1207C298.67 35.1207 297.888 34.8961 297.392 34.4469C296.903 33.9909 296.658 33.2534 296.658 32.2343V25.7275H295.009V24.2793H296.658V21.4734H298.468V24.2793H300.721V25.7275H298.468V31.9326C298.468 32.5427 298.589 32.9752 298.83 33.23C299.072 33.478 299.461 33.6021 299.997 33.6021C300.138 33.6021 300.259 33.5987 300.359 33.592C300.466 33.5853 300.587 33.5753 300.721 33.5619V35.0302C300.574 35.0503 300.416 35.0704 300.249 35.0905C300.081 35.1106 299.91 35.1207 299.736 35.1207ZM306.816 35.1207C305.75 35.1207 304.969 34.8961 304.472 34.4469C303.983 33.9909 303.738 33.2534 303.738 32.2343V25.7275H302.089V24.2793H303.738V21.4734H305.549V24.2793H307.801V25.7275H305.549V31.9326C305.549 32.5427 305.669 32.9752 305.911 33.23C306.152 33.478 306.541 33.6021 307.077 33.6021C307.218 33.6021 307.339 33.5987 307.439 33.592C307.547 33.5853 307.667 33.5753 307.801 33.5619V35.0302C307.654 35.0503 307.496 35.0704 307.329 35.0905C307.161 35.1106 306.99 35.1207 306.816 35.1207ZM310.245 35V24.2793H311.995V35H310.245ZM311.13 22.298C310.808 22.298 310.533 22.1841 310.305 21.9561C310.078 21.7214 309.964 21.4432 309.964 21.1214C309.964 20.7928 310.078 20.5179 310.305 20.2967C310.533 20.0687 310.808 19.9548 311.13 19.9548C311.459 19.9548 311.737 20.0687 311.965 20.2967C312.193 20.5179 312.307 20.7928 312.307 21.1214C312.307 21.4432 312.193 21.7214 311.965 21.9561C311.737 22.1841 311.459 22.298 311.13 22.298ZM315.012 35V24.2793H316.762V25.8683H316.883C317.164 25.3185 317.567 24.886 318.09 24.5709C318.613 24.2491 319.27 24.0882 320.061 24.0882C321.261 24.0882 322.183 24.4368 322.826 25.1341C323.477 25.8247 323.802 26.7969 323.802 28.0506V35H322.052V28.4428C322.052 27.5042 321.848 26.8036 321.439 26.3409C321.03 25.8716 320.403 25.637 319.558 25.637C318.988 25.637 318.495 25.761 318.08 26.0091C317.664 26.2571 317.339 26.6058 317.104 27.055C316.876 27.5042 316.762 28.0406 316.762 28.6641V35H315.012ZM331.113 38.7915C330.248 38.7915 329.491 38.6674 328.841 38.4194C328.19 38.178 327.671 37.8361 327.282 37.3936C326.9 36.9578 326.658 36.4583 326.558 35.8951L326.568 35.8548H328.358L328.378 35.8951C328.492 36.2906 328.784 36.6125 329.253 36.8605C329.729 37.1153 330.346 37.2427 331.103 37.2427C332.062 37.2427 332.806 37.0181 333.336 36.5689C333.866 36.1197 334.13 35.4928 334.13 34.6882V32.7674H334.01C333.789 33.1629 333.51 33.5015 333.175 33.7831C332.84 34.0647 332.458 34.2792 332.029 34.4268C331.599 34.5743 331.137 34.648 330.641 34.648C329.722 34.648 328.924 34.4268 328.247 33.9842C327.57 33.535 327.047 32.9149 326.678 32.1237C326.309 31.3326 326.125 30.4207 326.125 29.3882V29.3681C326.125 28.3289 326.313 27.4137 326.688 26.6225C327.064 25.8314 327.59 25.2112 328.267 24.762C328.944 24.3128 329.749 24.0882 330.681 24.0882C331.184 24.0882 331.646 24.172 332.069 24.3396C332.498 24.5005 332.877 24.7285 333.205 25.0235C333.534 25.3185 333.809 25.6671 334.03 26.0694H334.12V24.2793H335.87V34.7989C335.87 35.6101 335.676 36.3141 335.287 36.9108C334.905 37.5075 334.355 37.9702 333.638 38.2987C332.927 38.6272 332.086 38.7915 331.113 38.7915ZM331.023 33.0992C331.667 33.0992 332.223 32.945 332.692 32.6366C333.162 32.3215 333.524 31.8857 333.778 31.3292C334.033 30.766 334.161 30.119 334.161 29.3882V29.3681C334.161 28.6306 334.033 27.9836 333.778 27.4271C333.524 26.8639 333.162 26.4247 332.692 26.1096C332.223 25.7945 331.667 25.637 331.023 25.637C330.366 25.637 329.806 25.7945 329.343 26.1096C328.881 26.4247 328.525 26.8639 328.277 27.4271C328.036 27.9836 327.915 28.6306 327.915 29.3681V29.3882C327.915 30.1257 328.036 30.7727 328.277 31.3292C328.525 31.8857 328.881 32.3215 329.343 32.6366C329.806 32.945 330.366 33.0992 331.023 33.0992ZM344.338 35V20.4878H353.329V22.117H346.149V26.7734H352.957V28.3825H346.149V33.3708H353.329V35H344.338ZM355.24 35L358.901 29.6396L355.23 24.2793H357.251L359.816 28.2819H359.937L362.461 24.2793H364.412L360.781 29.5692L364.432 35H362.421L359.876 30.947H359.756L357.191 35H355.24ZM370.527 35.1911C369.521 35.1911 368.649 34.9631 367.912 34.5072C367.174 34.0513 366.601 33.4076 366.192 32.5763C365.79 31.7382 365.589 30.7526 365.589 29.6195V29.5994C365.589 28.4797 365.79 27.5075 366.192 26.6829C366.601 25.8582 367.174 25.2213 367.912 24.7721C368.649 24.3161 369.518 24.0882 370.517 24.0882C371.388 24.0882 372.139 24.2491 372.769 24.5709C373.406 24.886 373.913 25.3051 374.288 25.828C374.663 26.351 374.898 26.9276 374.992 27.5578L375.002 27.6282H373.272L373.262 27.5779C373.128 27.0483 372.83 26.5924 372.367 26.2102C371.904 25.828 371.288 25.637 370.517 25.637C369.88 25.637 369.327 25.8012 368.857 26.1297C368.388 26.4516 368.023 26.9108 367.761 27.5075C367.506 28.0976 367.379 28.7982 367.379 29.6095V29.6195C367.379 30.4442 367.51 31.1582 367.771 31.7617C368.033 32.3651 368.398 32.831 368.867 33.1596C369.337 33.4814 369.886 33.6423 370.517 33.6423C371.247 33.6423 371.841 33.478 372.297 33.1495C372.753 32.8143 373.071 32.3483 373.252 31.7516L373.272 31.6913L375.002 31.6812L374.982 31.7818C374.855 32.4321 374.6 33.0154 374.218 33.5317C373.835 34.0479 373.336 34.4536 372.719 34.7486C372.102 35.0436 371.371 35.1911 370.527 35.1911ZM377.365 35V20.0553H379.115V25.9286H379.236C379.511 25.3453 379.913 24.8927 380.443 24.5709C380.973 24.2491 381.633 24.0882 382.424 24.0882C383.215 24.0882 383.892 24.2524 384.456 24.581C385.019 24.9028 385.451 25.3688 385.753 25.9789C386.055 26.589 386.206 27.3232 386.206 28.1814V35H384.456V28.5635C384.456 27.5914 384.241 26.8606 383.812 26.3711C383.383 25.8817 382.746 25.637 381.901 25.637C381.338 25.637 380.845 25.7643 380.423 26.0191C380.007 26.2672 379.685 26.6192 379.457 27.0751C379.229 27.5243 379.115 28.0607 379.115 28.6842V35H377.365ZM392.059 35.1911C391.368 35.1911 390.755 35.0603 390.218 34.7989C389.682 34.5374 389.256 34.1686 388.941 33.6926C388.633 33.2099 388.478 32.6433 388.478 31.993V31.9728C388.478 31.3493 388.629 30.8129 388.931 30.3637C389.239 29.9078 389.685 29.5491 390.269 29.2876C390.852 29.0262 391.556 28.8719 392.381 28.825L396.333 28.5937V29.9816L392.592 30.2129C391.807 30.2598 391.224 30.4308 390.842 30.7258C390.46 31.0208 390.269 31.4298 390.269 31.9527V31.9728C390.269 32.5025 390.47 32.9182 390.872 33.2199C391.281 33.5216 391.801 33.6725 392.431 33.6725C393.007 33.6725 393.524 33.5551 393.98 33.3205C394.435 33.0858 394.794 32.7674 395.056 32.3651C395.324 31.9561 395.458 31.4935 395.458 30.9772V27.6986C395.458 27.0349 395.253 26.5253 394.844 26.17C394.442 25.8146 393.849 25.637 393.064 25.637C392.407 25.637 391.871 25.7643 391.455 26.0191C391.04 26.2672 390.768 26.6091 390.641 27.0449L390.631 27.0952H388.901L388.911 27.0148C388.991 26.4449 389.213 25.942 389.575 25.5062C389.943 25.0637 390.429 24.7184 391.033 24.4703C391.636 24.2156 392.33 24.0882 393.115 24.0882C393.98 24.0882 394.717 24.2323 395.327 24.5206C395.937 24.8022 396.403 25.2112 396.725 25.7476C397.047 26.2772 397.208 26.9075 397.208 27.6383V35H395.458V33.3708H395.327C395.113 33.7529 394.841 34.0815 394.513 34.3564C394.184 34.6245 393.812 34.8324 393.396 34.9799C392.987 35.1207 392.541 35.1911 392.059 35.1911ZM400.094 35V24.2793H401.844V25.8683H401.965C402.246 25.3185 402.649 24.886 403.172 24.5709C403.695 24.2491 404.352 24.0882 405.143 24.0882C406.343 24.0882 407.265 24.4368 407.908 25.1341C408.559 25.8247 408.884 26.7969 408.884 28.0506V35H407.134V28.4428C407.134 27.5042 406.93 26.8036 406.521 26.3409C406.112 25.8716 405.485 25.637 404.64 25.637C404.07 25.637 403.577 25.761 403.162 26.0091C402.746 26.2571 402.421 26.6058 402.186 27.055C401.958 27.5042 401.844 28.0406 401.844 28.6641V35H400.094ZM416.195 38.7915C415.331 38.7915 414.573 38.6674 413.923 38.4194C413.272 38.178 412.753 37.8361 412.364 37.3936C411.982 36.9578 411.74 36.4583 411.64 35.8951L411.65 35.8548H413.44L413.46 35.8951C413.574 36.2906 413.866 36.6125 414.335 36.8605C414.811 37.1153 415.428 37.2427 416.185 37.2427C417.144 37.2427 417.888 37.0181 418.418 36.5689C418.948 36.1197 419.213 35.4928 419.213 34.6882V32.7674H419.092C418.871 33.1629 418.592 33.5015 418.257 33.7831C417.922 34.0647 417.54 34.2792 417.111 34.4268C416.682 34.5743 416.219 34.648 415.723 34.648C414.804 34.648 414.006 34.4268 413.329 33.9842C412.652 33.535 412.129 32.9149 411.76 32.1237C411.392 31.3326 411.207 30.4207 411.207 29.3882V29.3681C411.207 28.3289 411.395 27.4137 411.77 26.6225C412.146 25.8314 412.672 25.2112 413.349 24.762C414.026 24.3128 414.831 24.0882 415.763 24.0882C416.266 24.0882 416.728 24.172 417.151 24.3396C417.58 24.5005 417.959 24.7285 418.287 25.0235C418.616 25.3185 418.891 25.6671 419.112 26.0694H419.202V24.2793H420.952V34.7989C420.952 35.6101 420.758 36.3141 420.369 36.9108C419.987 37.5075 419.437 37.9702 418.72 38.2987C418.009 38.6272 417.168 38.7915 416.195 38.7915ZM416.105 33.0992C416.749 33.0992 417.305 32.945 417.774 32.6366C418.244 32.3215 418.606 31.8857 418.861 31.3292C419.115 30.766 419.243 30.119 419.243 29.3882V29.3681C419.243 28.6306 419.115 27.9836 418.861 27.4271C418.606 26.8639 418.244 26.4247 417.774 26.1096C417.305 25.7945 416.749 25.637 416.105 25.637C415.448 25.637 414.888 25.7945 414.425 26.1096C413.963 26.4247 413.607 26.8639 413.359 27.4271C413.118 27.9836 412.997 28.6306 412.997 29.3681V29.3882C412.997 30.1257 413.118 30.7727 413.359 31.3292C413.607 31.8857 413.963 32.3215 414.425 32.6366C414.888 32.945 415.448 33.0992 416.105 33.0992ZM428.274 35.1911C427.255 35.1911 426.376 34.9665 425.639 34.5173C424.908 34.0681 424.345 33.4311 423.949 32.6064C423.554 31.7751 423.356 30.7995 423.356 29.6799V29.6698C423.356 28.5635 423.554 27.5914 423.949 26.7533C424.345 25.9152 424.905 25.2615 425.629 24.7922C426.353 24.3228 427.198 24.0882 428.163 24.0882C429.142 24.0882 429.98 24.3128 430.677 24.762C431.381 25.2112 431.921 25.8414 432.297 26.6527C432.672 27.4573 432.86 28.3926 432.86 29.4586V30.1324H424.251V28.7446H431.975L431.1 30.0218V29.3279C431.1 28.4898 430.973 27.7992 430.718 27.2561C430.47 26.713 430.124 26.3108 429.682 26.0493C429.239 25.7811 428.73 25.647 428.153 25.647C427.583 25.647 427.07 25.7878 426.614 26.0694C426.159 26.3443 425.797 26.7566 425.528 27.3064C425.267 27.8562 425.136 28.53 425.136 29.3279V30.0218C425.136 30.7794 425.267 31.4298 425.528 31.9728C425.79 32.5092 426.159 32.9216 426.635 33.2099C427.111 33.4982 427.67 33.6423 428.314 33.6423C428.79 33.6423 429.206 33.5753 429.561 33.4412C429.923 33.3071 430.222 33.1328 430.456 32.9182C430.691 32.697 430.855 32.4656 430.949 32.2243L430.989 32.1338H432.729L432.709 32.2243C432.615 32.6064 432.448 32.9752 432.206 33.3305C431.965 33.6859 431.656 34.0044 431.281 34.286C430.905 34.5675 430.463 34.7888 429.953 34.9497C429.451 35.1106 428.891 35.1911 428.274 35.1911ZM444.275 35.1207C443.208 35.1207 442.427 34.8961 441.931 34.4469C441.442 33.9909 441.197 33.2534 441.197 32.2343V25.7275H439.548V24.2793H441.197V21.4734H443.007V24.2793H445.26V25.7275H443.007V31.9326C443.007 32.5427 443.128 32.9752 443.369 33.23C443.611 33.478 444 33.6021 444.536 33.6021C444.677 33.6021 444.797 33.5987 444.898 33.592C445.005 33.5853 445.126 33.5753 445.26 33.5619V35.0302C445.113 35.0503 444.955 35.0704 444.787 35.0905C444.62 35.1106 444.449 35.1207 444.275 35.1207ZM447.644 35V24.2793H449.394V25.8683H449.514C449.796 25.3185 450.198 24.886 450.721 24.5709C451.244 24.2491 451.901 24.0882 452.692 24.0882C453.892 24.0882 454.814 24.4368 455.458 25.1341C456.108 25.8247 456.433 26.7969 456.433 28.0506V35H454.683V28.4428C454.683 27.5042 454.479 26.8036 454.07 26.3409C453.661 25.8716 453.034 25.637 452.189 25.637C451.619 25.637 451.127 25.761 450.711 26.0091C450.295 26.2571 449.97 26.6058 449.735 27.055C449.508 27.5042 449.394 28.0406 449.394 28.6641V35H447.644ZM458.767 38.4194L459.642 32.9584H461.593L460.044 38.4194H458.767ZM37.5602 60L34.5531 49.2793H36.303L38.415 57.8981H38.5458L40.9494 49.2793H42.6188L45.0225 57.8981H45.1431L47.2652 49.2793H49.005L45.998 60H44.238L41.8344 51.703H41.7137L39.3101 60H37.5602ZM55.1699 60.1911C54.1642 60.1911 53.2893 59.9665 52.5451 59.5173C51.8076 59.0681 51.2343 58.4311 50.8253 57.6064C50.423 56.7751 50.2219 55.7895 50.2219 54.6497V54.6296C50.2219 53.4831 50.423 52.4975 50.8253 51.6728C51.2343 50.8414 51.8076 50.2045 52.5451 49.762C53.2893 49.3128 54.1642 49.0882 55.1699 49.0882C56.1823 49.0882 57.0573 49.3128 57.7948 49.762C58.5323 50.2045 59.1022 50.8414 59.5045 51.6728C59.9135 52.4975 60.118 53.4831 60.118 54.6296V54.6497C60.118 55.7895 59.9135 56.7751 59.5045 57.6064C59.1022 58.4311 58.5323 59.0681 57.7948 59.5173C57.0573 59.9665 56.1823 60.1911 55.1699 60.1911ZM55.18 58.6423C55.8371 58.6423 56.4002 58.4847 56.8696 58.1696C57.3389 57.8545 57.6976 57.3986 57.9457 56.8019C58.2004 56.2052 58.3278 55.4878 58.3278 54.6497V54.6296C58.3278 53.7848 58.2004 53.064 57.9457 52.4673C57.6976 51.8706 57.3389 51.418 56.8696 51.1096C56.4002 50.7945 55.8337 50.637 55.1699 50.637C54.5129 50.637 53.9463 50.7945 53.4703 51.1096C53.001 51.4247 52.6389 51.8807 52.3842 52.4774C52.1361 53.0674 52.0121 53.7848 52.0121 54.6296V54.6497C52.0121 55.4878 52.1361 56.2052 52.3842 56.8019C52.6389 57.3986 53.001 57.8545 53.4703 58.1696C53.9463 58.4847 54.5162 58.6423 55.18 58.6423ZM66.1321 60.1911C65.3342 60.1911 64.657 60.0369 64.1005 59.7285C63.5508 59.4133 63.1351 58.9608 62.8535 58.3708C62.5786 57.7741 62.4411 57.06 62.4411 56.2286V49.2793H64.1911V55.8364C64.1911 56.7751 64.3821 57.4791 64.7643 57.9484C65.1532 58.411 65.77 58.6423 66.6148 58.6423C67.0707 58.6423 67.4763 58.5719 67.8317 58.4311C68.187 58.2903 68.4854 58.0892 68.7268 57.8277C68.9748 57.5662 69.1592 57.2477 69.2799 56.8723C69.4073 56.4968 69.471 56.0778 69.471 55.6152V49.2793H71.2209V60H69.471V58.4211H69.3503C69.176 58.7831 68.938 59.0982 68.6362 59.3664C68.3345 59.6346 67.9725 59.8391 67.5501 59.9799C67.1344 60.1207 66.6617 60.1911 66.1321 60.1911ZM74.2681 60V45.0553H76.0181V60H74.2681ZM83.0378 60.1911C82.1327 60.1911 81.3382 59.9631 80.6543 59.5072C79.9772 59.0513 79.4508 58.4076 79.0754 57.5763C78.7066 56.7449 78.5223 55.7694 78.5223 54.6497V54.6296C78.5223 53.5099 78.71 52.5344 79.0854 51.703C79.4609 50.8716 79.9839 50.228 80.6543 49.7721C81.3315 49.3161 82.1227 49.0882 83.0278 49.0882C83.5239 49.0882 83.9899 49.1686 84.4257 49.3295C84.8615 49.4838 85.247 49.705 85.5823 49.9933C85.9242 50.2749 86.1957 50.6135 86.3969 51.0091H86.5176V45.0553H88.2675V60H86.5176V58.2601H86.3969C86.1756 58.6624 85.8974 59.0077 85.5621 59.296C85.2336 59.5843 84.8548 59.8056 84.4257 59.9598C84.0033 60.114 83.5407 60.1911 83.0378 60.1911ZM83.42 58.6423C84.0569 58.6423 84.6101 58.4814 85.0794 58.1596C85.5487 57.831 85.9108 57.3684 86.1656 56.7717C86.4203 56.1683 86.5477 55.4609 86.5477 54.6497V54.6296C86.5477 53.8116 86.417 53.1043 86.1555 52.5075C85.9007 51.9108 85.5387 51.4516 85.0693 51.1297C84.6067 50.8012 84.0569 50.637 83.42 50.637C82.7764 50.637 82.2199 50.7979 81.7505 51.1197C81.2879 51.4415 80.9326 51.9008 80.6845 52.4975C80.4364 53.0875 80.3124 53.7982 80.3124 54.6296V54.6497C80.3124 55.4744 80.4364 56.1884 80.6845 56.7918C80.9326 57.3885 81.2879 57.8478 81.7505 58.1696C82.2199 58.4847 82.7764 58.6423 83.42 58.6423ZM100.205 60.1911C99.4072 60.1911 98.7301 60.0369 98.1736 59.7285C97.6238 59.4133 97.2081 58.9608 96.9265 58.3708C96.6516 57.7741 96.5142 57.06 96.5142 56.2286V49.2793H98.2641V55.8364C98.2641 56.7751 98.4552 57.4791 98.8374 57.9484C99.2262 58.411 99.8431 58.6423 100.688 58.6423C101.144 58.6423 101.549 58.5719 101.905 58.4311C102.26 58.2903 102.558 58.0892 102.8 57.8277C103.048 57.5662 103.232 57.2477 103.353 56.8723C103.48 56.4968 103.544 56.0778 103.544 55.6152V49.2793H105.294V60H103.544V58.4211H103.423C103.249 58.7831 103.011 59.0982 102.709 59.3664C102.408 59.6346 102.046 59.8391 101.623 59.9799C101.207 60.1207 100.735 60.1911 100.205 60.1911ZM115.622 60L112.615 49.2793H114.365L116.477 57.8981H116.608L119.012 49.2793H120.681L123.085 57.8981H123.205L125.327 49.2793H127.067L124.06 60H122.3L119.897 51.703H119.776L117.372 60H115.622ZM131.844 60.1911C131.154 60.1911 130.54 60.0603 130.004 59.7989C129.468 59.5374 129.042 59.1686 128.727 58.6926C128.418 58.2099 128.264 57.6433 128.264 56.993V56.9728C128.264 56.3493 128.415 55.8129 128.717 55.3637C129.025 54.9078 129.471 54.5491 130.054 54.2876C130.638 54.0262 131.342 53.8719 132.166 53.825L136.119 53.5937V54.9816L132.377 55.2129C131.593 55.2598 131.01 55.4308 130.627 55.7258C130.245 56.0208 130.054 56.4298 130.054 56.9527V56.9728C130.054 57.5025 130.255 57.9182 130.658 58.2199C131.067 58.5216 131.586 58.6725 132.216 58.6725C132.793 58.6725 133.309 58.5551 133.765 58.3205C134.221 58.0858 134.58 57.7674 134.841 57.3651C135.11 56.9561 135.244 56.4935 135.244 55.9772V52.6986C135.244 52.0349 135.039 51.5253 134.63 51.17C134.228 50.8146 133.635 50.637 132.85 50.637C132.193 50.637 131.657 50.7643 131.241 51.0191C130.825 51.2672 130.554 51.6091 130.426 52.0449L130.416 52.0952H128.686L128.697 52.0148C128.777 51.4449 128.998 50.942 129.36 50.5062C129.729 50.0637 130.215 49.7184 130.819 49.4703C131.422 49.2156 132.116 49.0882 132.9 49.0882C133.765 49.0882 134.503 49.2323 135.113 49.5206C135.723 49.8022 136.189 50.2112 136.511 50.7476C136.833 51.2772 136.994 51.9075 136.994 52.6383V60H135.244V58.3708H135.113C134.898 58.7529 134.627 59.0815 134.298 59.3564C133.97 59.6245 133.598 59.8324 133.182 59.9799C132.773 60.1207 132.327 60.1911 131.844 60.1911ZM139.88 60V49.2793H141.63V50.8683H141.75C142.032 50.3185 142.434 49.886 142.957 49.5709C143.48 49.2491 144.137 49.0882 144.928 49.0882C146.129 49.0882 147.051 49.4368 147.694 50.1341C148.345 50.8247 148.67 51.7969 148.67 53.0506V60H146.92V53.4428C146.92 52.5042 146.715 51.8036 146.306 51.3409C145.897 50.8716 145.27 50.637 144.426 50.637C143.856 50.637 143.363 50.761 142.947 51.0091C142.532 51.2571 142.206 51.6058 141.972 52.055C141.744 52.5042 141.63 53.0406 141.63 53.6641V60H139.88ZM155.237 60.1207C154.171 60.1207 153.39 59.8961 152.894 59.4469C152.404 58.9909 152.159 58.2534 152.159 57.2343V50.7275H150.51V49.2793H152.159V46.4734H153.97V49.2793H156.222V50.7275H153.97V56.9326C153.97 57.5427 154.09 57.9752 154.332 58.23C154.573 58.478 154.962 58.6021 155.498 58.6021C155.639 58.6021 155.76 58.5987 155.86 58.592C155.968 58.5853 156.088 58.5753 156.222 58.5619V60.0302C156.075 60.0503 155.917 60.0704 155.75 60.0905C155.582 60.1106 155.411 60.1207 155.237 60.1207ZM166.903 60.1911C166.212 60.1911 165.599 60.0603 165.063 59.7989C164.526 59.5374 164.1 59.1686 163.785 58.6926C163.477 58.2099 163.323 57.6433 163.323 56.993V56.9728C163.323 56.3493 163.474 55.8129 163.775 55.3637C164.084 54.9078 164.53 54.5491 165.113 54.2876C165.696 54.0262 166.4 53.8719 167.225 53.825L171.177 53.5937V54.9816L167.436 55.2129C166.652 55.2598 166.068 55.4308 165.686 55.7258C165.304 56.0208 165.113 56.4298 165.113 56.9527V56.9728C165.113 57.5025 165.314 57.9182 165.716 58.2199C166.125 58.5216 166.645 58.6725 167.275 58.6725C167.852 58.6725 168.368 58.5551 168.824 58.3205C169.28 58.0858 169.638 57.7674 169.9 57.3651C170.168 56.9561 170.302 56.4935 170.302 55.9772V52.6986C170.302 52.0349 170.098 51.5253 169.689 51.17C169.287 50.8146 168.693 50.637 167.909 50.637C167.252 50.637 166.715 50.7643 166.3 51.0191C165.884 51.2672 165.612 51.6091 165.485 52.0449L165.475 52.0952H163.745L163.755 52.0148C163.836 51.4449 164.057 50.942 164.419 50.5062C164.788 50.0637 165.274 49.7184 165.877 49.4703C166.481 49.2156 167.175 49.0882 167.959 49.0882C168.824 49.0882 169.561 49.2323 170.172 49.5206C170.782 49.8022 171.248 50.2112 171.569 50.7476C171.891 51.2772 172.052 51.9075 172.052 52.6383V60H170.302V58.3708H170.172C169.957 58.7529 169.685 59.0815 169.357 59.3564C169.028 59.6245 168.656 59.8324 168.241 59.9799C167.832 60.1207 167.386 60.1911 166.903 60.1911ZM174.939 60V49.2793H176.688V50.8683H176.809C177.091 50.3185 177.493 49.886 178.016 49.5709C178.539 49.2491 179.196 49.0882 179.987 49.0882C181.187 49.0882 182.109 49.4368 182.753 50.1341C183.403 50.8247 183.728 51.7969 183.728 53.0506V60H181.978V53.4428C181.978 52.5042 181.774 51.8036 181.365 51.3409C180.956 50.8716 180.329 50.637 179.484 50.637C178.914 50.637 178.422 50.761 178.006 51.0091C177.59 51.2571 177.265 51.6058 177.03 52.055C176.802 52.5042 176.688 53.0406 176.688 53.6641V60H174.939ZM191.935 60V49.2793H193.685V60H191.935ZM192.82 47.298C192.498 47.298 192.223 47.1841 191.995 46.9561C191.767 46.7214 191.653 46.4432 191.653 46.1214C191.653 45.7928 191.767 45.5179 191.995 45.2967C192.223 45.0687 192.498 44.9548 192.82 44.9548C193.148 44.9548 193.427 45.0687 193.655 45.2967C193.883 45.5179 193.997 45.7928 193.997 46.1214C193.997 46.4432 193.883 46.7214 193.655 46.9561C193.427 47.1841 193.148 47.298 192.82 47.298ZM196.702 60V49.2793H198.452V50.8683H198.572C198.854 50.3185 199.256 49.886 199.779 49.5709C200.302 49.2491 200.959 49.0882 201.75 49.0882C202.951 49.0882 203.872 49.4368 204.516 50.1341C205.166 50.8247 205.492 51.7969 205.492 53.0506V60H203.742V53.4428C203.742 52.5042 203.537 51.8036 203.128 51.3409C202.719 50.8716 202.092 50.637 201.248 50.637C200.678 50.637 200.185 50.761 199.769 51.0091C199.354 51.2571 199.028 51.6058 198.794 52.055C198.566 52.5042 198.452 53.0406 198.452 53.6641V60H196.702ZM212.059 60.1207C210.993 60.1207 210.212 59.8961 209.716 59.4469C209.226 58.9909 208.981 58.2534 208.981 57.2343V50.7275H207.332V49.2793H208.981V46.4734H210.792V49.2793H213.044V50.7275H210.792V56.9326C210.792 57.5427 210.912 57.9752 211.154 58.23C211.395 58.478 211.784 58.6021 212.32 58.6021C212.461 58.6021 212.582 58.5987 212.682 58.592C212.79 58.5853 212.91 58.5753 213.044 58.5619V60.0302C212.897 60.0503 212.739 60.0704 212.572 60.0905C212.404 60.1106 212.233 60.1207 212.059 60.1207ZM215.428 60V49.2793H217.178V50.9387H217.299C217.5 50.3621 217.835 49.9095 218.304 49.581C218.78 49.2524 219.36 49.0882 220.044 49.0882C220.212 49.0882 220.369 49.0982 220.517 49.1183C220.671 49.1318 220.788 49.1452 220.869 49.1586V50.8582C220.721 50.8247 220.56 50.8012 220.386 50.7878C220.218 50.7677 220.034 50.7576 219.833 50.7576C219.317 50.7576 218.857 50.8649 218.455 51.0795C218.053 51.294 217.738 51.5957 217.51 51.9846C217.288 52.3735 217.178 52.8327 217.178 53.3624V60H215.428ZM226.843 60.1911C225.837 60.1911 224.962 59.9665 224.218 59.5173C223.48 59.0681 222.907 58.4311 222.498 57.6064C222.096 56.7751 221.895 55.7895 221.895 54.6497V54.6296C221.895 53.4831 222.096 52.4975 222.498 51.6728C222.907 50.8414 223.48 50.2045 224.218 49.762C224.962 49.3128 225.837 49.0882 226.843 49.0882C227.855 49.0882 228.73 49.3128 229.467 49.762C230.205 50.2045 230.775 50.8414 231.177 51.6728C231.586 52.4975 231.791 53.4831 231.791 54.6296V54.6497C231.791 55.7895 231.586 56.7751 231.177 57.6064C230.775 58.4311 230.205 59.0681 229.467 59.5173C228.73 59.9665 227.855 60.1911 226.843 60.1911ZM226.853 58.6423C227.51 58.6423 228.073 58.4847 228.542 58.1696C229.012 57.8545 229.37 57.3986 229.618 56.8019C229.873 56.2052 230.001 55.4878 230.001 54.6497V54.6296C230.001 53.7848 229.873 53.064 229.618 52.4673C229.37 51.8706 229.012 51.418 228.542 51.1096C228.073 50.7945 227.506 50.637 226.843 50.637C226.186 50.637 225.619 50.7945 225.143 51.1096C224.674 51.4247 224.312 51.8807 224.057 52.4774C223.809 53.0674 223.685 53.7848 223.685 54.6296V54.6497C223.685 55.4878 223.809 56.2052 224.057 56.8019C224.312 57.3986 224.674 57.8545 225.143 58.1696C225.619 58.4847 226.189 58.6423 226.853 58.6423ZM236.598 55.5146V54.5893C236.598 54.1468 236.668 53.7479 236.809 53.3926C236.957 53.0305 237.178 52.6986 237.473 52.3969C237.775 52.0952 238.153 51.8069 238.609 51.532C238.998 51.2907 239.31 51.056 239.545 50.828C239.786 50.5934 239.96 50.3386 240.068 50.0637C240.175 49.7888 240.228 49.4737 240.228 49.1183V49.0982C240.228 48.6825 240.128 48.3138 239.927 47.992C239.726 47.6701 239.441 47.4154 239.072 47.2276C238.703 47.0399 238.267 46.946 237.764 46.946C237.262 46.946 236.822 47.0399 236.447 47.2276C236.078 47.4154 235.783 47.6802 235.562 48.0221C235.347 48.3641 235.22 48.7697 235.18 49.239L235.17 49.2793L233.45 49.2893L233.46 49.229C233.5 48.525 233.688 47.8813 234.023 47.298C234.359 46.708 234.841 46.2421 235.471 45.9001C236.108 45.5515 236.896 45.3771 237.835 45.3771C238.68 45.3771 239.421 45.5381 240.057 45.8599C240.701 46.175 241.201 46.6075 241.556 47.1572C241.918 47.7003 242.099 48.3171 242.099 49.0077V49.0278C242.099 49.5508 242.012 50.0268 241.838 50.4559C241.67 50.8783 241.429 51.2571 241.113 51.5924C240.798 51.9276 240.426 52.226 239.997 52.4874C239.575 52.7355 239.243 52.9735 239.001 53.2015C238.767 53.4294 238.599 53.6742 238.499 53.9356C238.405 54.1971 238.358 54.5055 238.358 54.8609V55.5146H236.598ZM237.573 60.1509C237.191 60.1509 236.876 60.0268 236.628 59.7787C236.38 59.5307 236.256 59.2156 236.256 58.8334C236.256 58.4512 236.38 58.1361 236.628 57.888C236.876 57.64 237.191 57.5159 237.573 57.5159C237.956 57.5159 238.267 57.64 238.509 57.888C238.757 58.1361 238.881 58.4512 238.881 58.8334C238.881 59.2156 238.757 59.5307 238.509 59.7787C238.267 60.0268 237.956 60.1509 237.573 60.1509Z" fill="black"/>
<path d="M34 38.7412H102.046V40.2095H34V38.7412Z" fill="#007AFF"/>
</svg>
