<svg width="466" height="78" viewBox="0 0 466 78" fill="none" xmlns="http://www.w3.org/2000/svg">
<path fill-rule="evenodd" clip-rule="evenodd" d="M465.307 38.8155C465.307 28.3669 465.307 23.1426 463.871 18.9326C461.188 11.0669 455.01 4.88927 447.145 2.20643C442.935 0.770508 437.71 0.770508 427.262 0.770508L46.8119 0.770508C36.3633 0.770508 31.139 0.770508 26.9291 2.20643C19.0634 4.88927 12.8857 11.0669 10.2029 18.9326C8.76697 23.1426 8.76697 28.3669 8.76697 38.8155C8.76697 49.2641 8.76697 54.4884 10.2029 58.6983C12.8857 66.564 19.0634 72.7417 26.9291 75.4245C31.139 76.8605 36.3633 76.8605 46.812 76.8605H427.262C437.71 76.8605 442.935 76.8605 447.145 75.4245C455.01 72.7417 461.188 66.564 463.871 58.6983C465.307 54.4884 465.307 49.2641 465.307 38.8155Z" fill="#E6E5EB"/>
<path d="M35.9121 52.4536C35.9121 66.2783 24.7055 77.4856 10.8809 77.4858H0.152344V76.8999C4.61824 73.1516 7.74919 67.871 8.75488 61.8442C9.09629 59.7983 9.0957 57.3497 9.0957 52.4536H35.9121Z" fill="#E6E5EB"/>
<path d="M37.7097 34V19.4878H39.5199V34H37.7097ZM48.6617 34V24.7275H46.9722V23.2793H48.6617V22.0523C48.6617 21.3416 48.7757 20.7583 49.0037 20.3024C49.2316 19.8398 49.5736 19.4945 50.0295 19.2665C50.4854 19.0386 51.0486 18.9246 51.7191 18.9246C51.9269 18.9246 52.1247 18.9346 52.3124 18.9548C52.5069 18.9682 52.6879 18.9883 52.8555 19.0151V20.4231C52.7482 20.403 52.6242 20.3896 52.4834 20.3828C52.3493 20.3761 52.2085 20.3728 52.061 20.3728C51.4777 20.3728 51.0553 20.5169 50.7938 20.8052C50.5323 21.0868 50.4016 21.5126 50.4016 22.0825V23.2793H52.765V24.7275H50.4117V34H48.6617ZM58.8595 34.1911C57.8538 34.1911 56.9789 33.9665 56.2346 33.5173C55.4971 33.0681 54.9239 32.4311 54.5149 31.6064C54.1126 30.7751 53.9115 29.7895 53.9115 28.6497V28.6296C53.9115 27.4831 54.1126 26.4975 54.5149 25.6728C54.9239 24.8414 55.4971 24.2045 56.2346 23.762C56.9789 23.3128 57.8538 23.0882 58.8595 23.0882C59.8719 23.0882 60.7469 23.3128 61.4844 23.762C62.2219 24.2045 62.7918 24.8414 63.1941 25.6728C63.6031 26.4975 63.8076 27.4831 63.8076 28.6296V28.6497C63.8076 29.7895 63.6031 30.7751 63.1941 31.6064C62.7918 32.4311 62.2219 33.0681 61.4844 33.5173C60.7469 33.9665 59.8719 34.1911 58.8595 34.1911ZM58.8696 32.6423C59.5266 32.6423 60.0898 32.4847 60.5591 32.1696C61.0285 31.8545 61.3872 31.3986 61.6352 30.8019C61.89 30.2052 62.0174 29.4878 62.0174 28.6497V28.6296C62.0174 27.7848 61.89 27.064 61.6352 26.4673C61.3872 25.8706 61.0285 25.418 60.5591 25.1096C60.0898 24.7945 59.5233 24.637 58.8595 24.637C58.2025 24.637 57.6359 24.7945 57.1599 25.1096C56.6906 25.4247 56.3285 25.8807 56.0737 26.4774C55.8257 27.0674 55.7016 27.7848 55.7016 28.6296V28.6497C55.7016 29.4878 55.8257 30.2052 56.0737 30.8019C56.3285 31.3986 56.6906 31.8545 57.1599 32.1696C57.6359 32.4847 58.2058 32.6423 58.8696 32.6423ZM69.8216 34.1911C69.0238 34.1911 68.3466 34.0369 67.7901 33.7285C67.2403 33.4133 66.8246 32.9608 66.5431 32.3708C66.2682 31.7741 66.1307 31.06 66.1307 30.2286V23.2793H67.8806V29.8364C67.8806 30.7751 68.0717 31.4791 68.4539 31.9484C68.8427 32.411 69.4596 32.6423 70.3044 32.6423C70.7603 32.6423 71.1659 32.5719 71.5213 32.4311C71.8766 32.2903 72.175 32.0892 72.4163 31.8277C72.6644 31.5662 72.8488 31.2477 72.9695 30.8723C73.0969 30.4968 73.1605 30.0778 73.1605 29.6152V23.2793H74.9105V34H73.1605V32.4211H73.0399C72.8655 32.7831 72.6275 33.0982 72.3258 33.3664C72.0241 33.6346 71.6621 33.8391 71.2397 33.9799C70.824 34.1207 70.3513 34.1911 69.8216 34.1911ZM77.8572 34V23.2793H79.6071V24.8683H79.7278C80.0093 24.3185 80.4116 23.886 80.9346 23.5709C81.4576 23.2491 82.1146 23.0882 82.9058 23.0882C84.1059 23.0882 85.0278 23.4368 85.6714 24.1341C86.3218 24.8247 86.647 25.7969 86.647 27.0506V34H84.897V27.4428C84.897 26.5042 84.6925 25.8036 84.2836 25.3409C83.8746 24.8716 83.2477 24.637 82.4029 24.637C81.833 24.637 81.3402 24.761 80.9245 25.0091C80.5088 25.2571 80.1837 25.6058 79.949 26.055C79.721 26.5042 79.6071 27.0406 79.6071 27.6641V34H77.8572ZM93.4857 34.1911C92.5806 34.1911 91.7861 33.9631 91.1022 33.5072C90.425 33.0513 89.8987 32.4076 89.5232 31.5763C89.1545 30.7449 88.9701 29.7694 88.9701 28.6497V28.6296C88.9701 27.5099 89.1578 26.5344 89.5333 25.703C89.9088 24.8716 90.4317 24.228 91.1022 23.7721C91.7794 23.3161 92.5705 23.0882 93.4756 23.0882C93.9718 23.0882 94.4378 23.1686 94.8736 23.3295C95.3094 23.4838 95.6949 23.705 96.0301 23.9933C96.3721 24.2749 96.6436 24.6135 96.8447 25.0091H96.9654V19.0553H98.7153V34H96.9654V32.2601H96.8447C96.6235 32.6624 96.3452 33.0077 96.01 33.296C95.6815 33.5843 95.3027 33.8056 94.8736 33.9598C94.4512 34.114 93.9885 34.1911 93.4857 34.1911ZM93.8679 32.6423C94.5048 32.6423 95.0579 32.4814 95.5273 32.1596C95.9966 31.831 96.3586 31.3684 96.6134 30.7717C96.8682 30.1683 96.9956 29.4609 96.9956 28.6497V28.6296C96.9956 27.8116 96.8648 27.1043 96.6034 26.5075C96.3486 25.9108 95.9865 25.4516 95.5172 25.1297C95.0546 24.8012 94.5048 24.637 93.8679 24.637C93.2242 24.637 92.6677 24.7979 92.1984 25.1197C91.7358 25.4415 91.3804 25.9008 91.1324 26.4975C90.8843 27.0875 90.7603 27.7982 90.7603 28.6296V28.6497C90.7603 29.4744 90.8843 30.1884 91.1324 30.7918C91.3804 31.3885 91.7358 31.8478 92.1984 32.1696C92.6677 32.4847 93.2242 32.6423 93.8679 32.6423ZM152.641 37.4194L153.516 31.9584H155.467L153.918 37.4194H152.641ZM164.377 34V24.7275H162.688V23.2793H164.377V22.0523C164.377 21.3416 164.491 20.7583 164.719 20.3024C164.947 19.8398 165.289 19.4945 165.745 19.2665C166.201 19.0386 166.764 18.9246 167.435 18.9246C167.643 18.9246 167.84 18.9346 168.028 18.9548C168.222 18.9682 168.404 18.9883 168.571 19.0151V20.4231C168.464 20.403 168.34 20.3896 168.199 20.3828C168.065 20.3761 167.924 20.3728 167.777 20.3728C167.193 20.3728 166.771 20.5169 166.509 20.8052C166.248 21.0868 166.117 21.5126 166.117 22.0825V23.2793H168.481V24.7275H166.127V34H164.377ZM174.575 34.1911C173.569 34.1911 172.694 33.9665 171.95 33.5173C171.213 33.0681 170.64 32.4311 170.231 31.6064C169.828 30.7751 169.627 29.7895 169.627 28.6497V28.6296C169.627 27.4831 169.828 26.4975 170.231 25.6728C170.64 24.8414 171.213 24.2045 171.95 23.762C172.694 23.3128 173.569 23.0882 174.575 23.0882C175.588 23.0882 176.462 23.3128 177.2 23.762C177.938 24.2045 178.507 24.8414 178.91 25.6728C179.319 26.4975 179.523 27.4831 179.523 28.6296V28.6497C179.523 29.7895 179.319 30.7751 178.91 31.6064C178.507 32.4311 177.938 33.0681 177.2 33.5173C176.462 33.9665 175.588 34.1911 174.575 34.1911ZM174.585 32.6423C175.242 32.6423 175.805 32.4847 176.275 32.1696C176.744 31.8545 177.103 31.3986 177.351 30.8019C177.606 30.2052 177.733 29.4878 177.733 28.6497V28.6296C177.733 27.7848 177.606 27.064 177.351 26.4673C177.103 25.8706 176.744 25.418 176.275 25.1096C175.805 24.7945 175.239 24.637 174.575 24.637C173.918 24.637 173.352 24.7945 172.876 25.1096C172.406 25.4247 172.044 25.8807 171.789 26.4774C171.541 27.0674 171.417 27.7848 171.417 28.6296V28.6497C171.417 29.4878 171.541 30.2052 171.789 30.8019C172.044 31.3986 172.406 31.8545 172.876 32.1696C173.352 32.4847 173.921 32.6423 174.585 32.6423ZM181.927 34V23.2793H183.677V24.9387H183.797C183.999 24.3621 184.334 23.9095 184.803 23.581C185.279 23.2524 185.859 23.0882 186.543 23.0882C186.711 23.0882 186.868 23.0982 187.016 23.1183C187.17 23.1318 187.287 23.1452 187.368 23.1586V24.8582C187.22 24.8247 187.059 24.8012 186.885 24.7878C186.717 24.7677 186.533 24.7576 186.332 24.7576C185.815 24.7576 185.356 24.8649 184.954 25.0795C184.552 25.294 184.237 25.5957 184.009 25.9846C183.787 26.3735 183.677 26.8327 183.677 27.3624V34H181.927ZM189.429 34V23.2793H191.179V24.8884H191.3C191.541 24.3319 191.91 23.8927 192.406 23.5709C192.909 23.2491 193.509 23.0882 194.206 23.0882C194.696 23.0882 195.132 23.1686 195.514 23.3295C195.903 23.4905 196.238 23.7151 196.519 24.0034C196.801 24.2917 197.022 24.6336 197.183 25.0292H197.314C197.508 24.6336 197.767 24.2917 198.088 24.0034C198.417 23.7084 198.796 23.4838 199.225 23.3295C199.661 23.1686 200.123 23.0882 200.613 23.0882C201.337 23.0882 201.954 23.229 202.463 23.5106C202.979 23.7855 203.372 24.1844 203.64 24.7073C203.915 25.2303 204.052 25.8606 204.052 26.5981V34H202.302V27.0003C202.302 26.4774 202.218 26.0416 202.051 25.6929C201.883 25.3443 201.635 25.0828 201.307 24.9085C200.978 24.7275 200.566 24.637 200.07 24.637C199.58 24.637 199.151 24.7476 198.782 24.9688C198.414 25.1901 198.125 25.4918 197.917 25.874C197.71 26.2494 197.606 26.6685 197.606 27.1311V34H195.856V26.7489C195.856 26.3265 195.765 25.9578 195.584 25.6426C195.403 25.3208 195.145 25.0728 194.81 24.8984C194.481 24.7241 194.092 24.637 193.643 24.637C193.174 24.637 192.751 24.7576 192.376 24.999C192.007 25.2404 191.716 25.5655 191.501 25.9745C191.286 26.3768 191.179 26.8294 191.179 27.3322V34H189.429ZM211.293 34.1911C210.274 34.1911 209.396 33.9665 208.658 33.5173C207.927 33.0681 207.364 32.4311 206.969 31.6064C206.573 30.7751 206.375 29.7995 206.375 28.6799V28.6698C206.375 27.5635 206.573 26.5914 206.969 25.7533C207.364 24.9152 207.924 24.2615 208.648 23.7922C209.372 23.3228 210.217 23.0882 211.183 23.0882C212.161 23.0882 213 23.3128 213.697 23.762C214.401 24.2112 214.941 24.8414 215.316 25.6527C215.691 26.4573 215.879 27.3926 215.879 28.4586V29.1324H207.27V27.7446H214.994L214.119 29.0218V28.3279C214.119 27.4898 213.992 26.7992 213.737 26.2561C213.489 25.713 213.144 25.3108 212.701 25.0493C212.259 24.7811 211.749 24.647 211.172 24.647C210.603 24.647 210.09 24.7878 209.634 25.0694C209.178 25.3443 208.816 25.7566 208.548 26.3064C208.286 26.8562 208.155 27.53 208.155 28.3279V29.0218C208.155 29.7794 208.286 30.4298 208.548 30.9728C208.809 31.5092 209.178 31.9216 209.654 32.2099C210.13 32.4982 210.69 32.6423 211.333 32.6423C211.809 32.6423 212.225 32.5753 212.58 32.4412C212.943 32.3071 213.241 32.1328 213.476 31.9182C213.71 31.697 213.874 31.4656 213.968 31.2243L214.009 31.1338H215.748L215.728 31.2243C215.634 31.6064 215.467 31.9752 215.225 32.3305C214.984 32.6859 214.676 33.0044 214.3 33.286C213.925 33.5675 213.482 33.7888 212.973 33.9497C212.47 34.1106 211.91 34.1911 211.293 34.1911ZM218.293 34V23.2793H220.043V24.9387H220.163C220.365 24.3621 220.7 23.9095 221.169 23.581C221.645 23.2524 222.225 23.0882 222.909 23.0882C223.077 23.0882 223.234 23.0982 223.382 23.1183C223.536 23.1318 223.653 23.1452 223.734 23.1586V24.8582C223.586 24.8247 223.425 24.8012 223.251 24.7878C223.083 24.7677 222.899 24.7576 222.698 24.7576C222.182 24.7576 221.722 24.8649 221.32 25.0795C220.918 25.294 220.603 25.5957 220.375 25.9846C220.153 26.3735 220.043 26.8327 220.043 27.3624V34H218.293ZM231.618 34V24.7275H229.929V23.2793H231.618V22.0523C231.618 21.3416 231.732 20.7583 231.96 20.3024C232.188 19.8398 232.53 19.4945 232.986 19.2665C233.442 19.0386 234.005 18.9246 234.676 18.9246C234.883 18.9246 235.081 18.9346 235.269 18.9548C235.463 18.9682 235.644 18.9883 235.812 19.0151V20.4231C235.705 20.403 235.581 20.3896 235.44 20.3828C235.306 20.3761 235.165 20.3728 235.018 20.3728C234.434 20.3728 234.012 20.5169 233.75 20.8052C233.489 21.0868 233.358 21.5126 233.358 22.0825V23.2793H235.722V24.7275H233.368V34H231.618ZM241.816 34.1911C240.81 34.1911 239.935 33.9665 239.191 33.5173C238.454 33.0681 237.88 32.4311 237.472 31.6064C237.069 30.7751 236.868 29.7895 236.868 28.6497V28.6296C236.868 27.4831 237.069 26.4975 237.472 25.6728C237.88 24.8414 238.454 24.2045 239.191 23.762C239.935 23.3128 240.81 23.0882 241.816 23.0882C242.829 23.0882 243.703 23.3128 244.441 23.762C245.179 24.2045 245.748 24.8414 246.151 25.6728C246.56 26.4975 246.764 27.4831 246.764 28.6296V28.6497C246.764 29.7895 246.56 30.7751 246.151 31.6064C245.748 32.4311 245.179 33.0681 244.441 33.5173C243.703 33.9665 242.829 34.1911 241.816 34.1911ZM241.826 32.6423C242.483 32.6423 243.046 32.4847 243.516 32.1696C243.985 31.8545 244.344 31.3986 244.592 30.8019C244.847 30.2052 244.974 29.4878 244.974 28.6497V28.6296C244.974 27.7848 244.847 27.064 244.592 26.4673C244.344 25.8706 243.985 25.418 243.516 25.1096C243.046 24.7945 242.48 24.637 241.816 24.637C241.159 24.637 240.593 24.7945 240.116 25.1096C239.647 25.4247 239.285 25.8807 239.03 26.4774C238.782 27.0674 238.658 27.7848 238.658 28.6296V28.6497C238.658 29.4878 238.782 30.2052 239.03 30.8019C239.285 31.3986 239.647 31.8545 240.116 32.1696C240.593 32.4847 241.162 32.6423 241.826 32.6423ZM252.778 34.1911C251.98 34.1911 251.303 34.0369 250.747 33.7285C250.197 33.4133 249.781 32.9608 249.5 32.3708C249.225 31.7741 249.087 31.06 249.087 30.2286V23.2793H250.837V29.8364C250.837 30.7751 251.028 31.4791 251.41 31.9484C251.799 32.411 252.416 32.6423 253.261 32.6423C253.717 32.6423 254.123 32.5719 254.478 32.4311C254.833 32.2903 255.132 32.0892 255.373 31.8277C255.621 31.5662 255.805 31.2477 255.926 30.8723C256.053 30.4968 256.117 30.0778 256.117 29.6152V23.2793H257.867V34H256.117V32.4211H255.996C255.822 32.7831 255.584 33.0982 255.282 33.3664C254.981 33.6346 254.619 33.8391 254.196 33.9799C253.781 34.1207 253.308 34.1911 252.778 34.1911ZM260.814 34V23.2793H262.564V24.8683H262.684C262.966 24.3185 263.368 23.886 263.891 23.5709C264.414 23.2491 265.071 23.0882 265.862 23.0882C267.062 23.0882 267.984 23.4368 268.628 24.1341C269.278 24.8247 269.604 25.7969 269.604 27.0506V34H267.854V27.4428C267.854 26.5042 267.649 25.8036 267.24 25.3409C266.831 24.8716 266.204 24.637 265.36 24.637C264.79 24.637 264.297 24.761 263.881 25.0091C263.465 25.2571 263.14 25.6058 262.906 26.055C262.678 26.5042 262.564 27.0406 262.564 27.6641V34H260.814ZM276.442 34.1911C275.537 34.1911 274.743 33.9631 274.059 33.5072C273.382 33.0513 272.855 32.4076 272.48 31.5763C272.111 30.7449 271.927 29.7694 271.927 28.6497V28.6296C271.927 27.5099 272.114 26.5344 272.49 25.703C272.865 24.8716 273.388 24.228 274.059 23.7721C274.736 23.3161 275.527 23.0882 276.432 23.0882C276.928 23.0882 277.394 23.1686 277.83 23.3295C278.266 23.4838 278.651 23.705 278.987 23.9933C279.329 24.2749 279.6 24.6135 279.801 25.0091H279.922V19.0553H281.672V34H279.922V32.2601H279.801C279.58 32.6624 279.302 33.0077 278.967 33.296C278.638 33.5843 278.259 33.8056 277.83 33.9598C277.408 34.114 276.945 34.1911 276.442 34.1911ZM276.824 32.6423C277.461 32.6423 278.015 32.4814 278.484 32.1596C278.953 31.831 279.315 31.3684 279.57 30.7717C279.825 30.1683 279.952 29.4609 279.952 28.6497V28.6296C279.952 27.8116 279.821 27.1043 279.56 26.5075C279.305 25.9108 278.943 25.4516 278.474 25.1297C278.011 24.8012 277.461 24.637 276.824 24.637C276.181 24.637 275.624 24.7979 275.155 25.1197C274.692 25.4415 274.337 25.9008 274.089 26.4975C273.841 27.0875 273.717 27.7982 273.717 28.6296V28.6497C273.717 29.4744 273.841 30.1884 274.089 30.7918C274.337 31.3885 274.692 31.8478 275.155 32.1696C275.624 32.4847 276.181 32.6423 276.824 32.6423ZM284.769 34V23.2793H286.519V34H284.769ZM285.654 21.298C285.333 21.298 285.058 21.1841 284.83 20.9561C284.602 20.7214 284.488 20.4432 284.488 20.1214C284.488 19.7928 284.602 19.5179 284.83 19.2967C285.058 19.0687 285.333 18.9548 285.654 18.9548C285.983 18.9548 286.261 19.0687 286.489 19.2967C286.717 19.5179 286.831 19.7928 286.831 20.1214C286.831 20.4432 286.717 20.7214 286.489 20.9561C286.261 21.1841 285.983 21.298 285.654 21.298ZM289.536 34V23.2793H291.286V24.8683H291.407C291.689 24.3185 292.091 23.886 292.614 23.5709C293.137 23.2491 293.794 23.0882 294.585 23.0882C295.785 23.0882 296.707 23.4368 297.351 24.1341C298.001 24.8247 298.326 25.7969 298.326 27.0506V34H296.576V27.4428C296.576 26.5042 296.372 25.8036 295.963 25.3409C295.554 24.8716 294.927 24.637 294.082 24.637C293.512 24.637 293.02 24.761 292.604 25.0091C292.188 25.2571 291.863 25.6058 291.628 26.055C291.4 26.5042 291.286 27.0406 291.286 27.6641V34H289.536ZM305.638 37.7915C304.773 37.7915 304.015 37.6674 303.365 37.4194C302.714 37.178 302.195 36.8361 301.806 36.3936C301.424 35.9578 301.182 35.4583 301.082 34.8951L301.092 34.8548H302.882L302.902 34.8951C303.016 35.2906 303.308 35.6125 303.777 35.8605C304.253 36.1153 304.87 36.2427 305.628 36.2427C306.586 36.2427 307.331 36.0181 307.86 35.5689C308.39 35.1197 308.655 34.4928 308.655 33.6882V31.7674H308.534C308.313 32.1629 308.035 32.5015 307.699 32.7831C307.364 33.0647 306.982 33.2792 306.553 33.4268C306.124 33.5743 305.661 33.648 305.165 33.648C304.246 33.648 303.449 33.4268 302.771 32.9842C302.094 32.535 301.571 31.9149 301.203 31.1237C300.834 30.3326 300.649 29.4207 300.649 28.3882V28.3681C300.649 27.3289 300.837 26.4137 301.213 25.6225C301.588 24.8314 302.114 24.2112 302.792 23.762C303.469 23.3128 304.273 23.0882 305.205 23.0882C305.708 23.0882 306.171 23.172 306.593 23.3396C307.022 23.5005 307.401 23.7285 307.73 24.0235C308.058 24.3185 308.333 24.6671 308.554 25.0694H308.645V23.2793H310.395V33.7989C310.395 34.6101 310.2 35.3141 309.811 35.9108C309.429 36.5075 308.879 36.9702 308.162 37.2987C307.451 37.6272 306.61 37.7915 305.638 37.7915ZM305.547 32.0992C306.191 32.0992 306.747 31.945 307.217 31.6366C307.686 31.3215 308.048 30.8857 308.303 30.3292C308.558 29.766 308.685 29.119 308.685 28.3882V28.3681C308.685 27.6306 308.558 26.9836 308.303 26.4271C308.048 25.8639 307.686 25.4247 307.217 25.1096C306.747 24.7945 306.191 24.637 305.547 24.637C304.89 24.637 304.33 24.7945 303.868 25.1096C303.405 25.4247 303.05 25.8639 302.802 26.4271C302.56 26.9836 302.44 27.6306 302.44 28.3681V28.3882C302.44 29.1257 302.56 29.7727 302.802 30.3292C303.05 30.8857 303.405 31.3215 303.868 31.6366C304.33 31.945 304.89 32.0992 305.547 32.0992ZM323.006 34.1911C321.987 34.1911 321.109 33.9665 320.371 33.5173C319.64 33.0681 319.077 32.4311 318.682 31.6064C318.286 30.7751 318.088 29.7995 318.088 28.6799V28.6698C318.088 27.5635 318.286 26.5914 318.682 25.7533C319.077 24.9152 319.637 24.2615 320.361 23.7922C321.085 23.3228 321.93 23.0882 322.895 23.0882C323.874 23.0882 324.712 23.3128 325.41 23.762C326.114 24.2112 326.653 24.8414 327.029 25.6527C327.404 26.4573 327.592 27.3926 327.592 28.4586V29.1324H318.983V27.7446H326.707L325.832 29.0218V28.3279C325.832 27.4898 325.705 26.7992 325.45 26.2561C325.202 25.713 324.857 25.3108 324.414 25.0493C323.972 24.7811 323.462 24.647 322.885 24.647C322.316 24.647 321.803 24.7878 321.347 25.0694C320.891 25.3443 320.529 25.7566 320.261 26.3064C319.999 26.8562 319.868 27.53 319.868 28.3279V29.0218C319.868 29.7794 319.999 30.4298 320.261 30.9728C320.522 31.5092 320.891 31.9216 321.367 32.2099C321.843 32.4982 322.403 32.6423 323.046 32.6423C323.522 32.6423 323.938 32.5753 324.293 32.4412C324.655 32.3071 324.954 32.1328 325.188 31.9182C325.423 31.697 325.587 31.4656 325.681 31.2243L325.722 31.1338H327.461L327.441 31.2243C327.347 31.6064 327.18 31.9752 326.938 32.3305C326.697 32.6859 326.389 33.0044 326.013 33.286C325.638 33.5675 325.195 33.7888 324.686 33.9497C324.183 34.1106 323.623 34.1911 323.006 34.1911ZM330.006 34V23.2793H331.756V24.8683H331.876C332.158 24.3185 332.56 23.886 333.083 23.5709C333.606 23.2491 334.263 23.0882 335.054 23.0882C336.255 23.0882 337.176 23.4368 337.82 24.1341C338.47 24.8247 338.796 25.7969 338.796 27.0506V34H337.046V27.4428C337.046 26.5042 336.841 25.8036 336.432 25.3409C336.023 24.8716 335.396 24.637 334.552 24.637C333.982 24.637 333.489 24.761 333.073 25.0091C332.657 25.2571 332.332 25.6058 332.098 26.055C331.87 26.5042 331.756 27.0406 331.756 27.6641V34H330.006ZM346.107 37.7915C345.242 37.7915 344.484 37.6674 343.834 37.4194C343.184 37.178 342.664 36.8361 342.275 36.3936C341.893 35.9578 341.652 35.4583 341.551 34.8951L341.561 34.8548H343.351L343.372 34.8951C343.485 35.2906 343.777 35.6125 344.246 35.8605C344.722 36.1153 345.339 36.2427 346.097 36.2427C347.056 36.2427 347.8 36.0181 348.33 35.5689C348.859 35.1197 349.124 34.4928 349.124 33.6882V31.7674H349.003C348.782 32.1629 348.504 32.5015 348.169 32.7831C347.833 33.0647 347.451 33.2792 347.022 33.4268C346.593 33.5743 346.13 33.648 345.634 33.648C344.716 33.648 343.918 33.4268 343.241 32.9842C342.564 32.535 342.041 31.9149 341.672 31.1237C341.303 30.3326 341.119 29.4207 341.119 28.3882V28.3681C341.119 27.3289 341.306 26.4137 341.682 25.6225C342.057 24.8314 342.584 24.2112 343.261 23.762C343.938 23.3128 344.743 23.0882 345.675 23.0882C346.177 23.0882 346.64 23.172 347.062 23.3396C347.492 23.5005 347.87 23.7285 348.199 24.0235C348.527 24.3185 348.802 24.6671 349.024 25.0694H349.114V23.2793H350.864V33.7989C350.864 34.6101 350.67 35.3141 350.281 35.9108C349.898 36.5075 349.349 36.9702 348.631 37.2987C347.921 37.6272 347.079 37.7915 346.107 37.7915ZM346.016 32.0992C346.66 32.0992 347.217 31.945 347.686 31.6366C348.155 31.3215 348.517 30.8857 348.772 30.3292C349.027 29.766 349.154 29.119 349.154 28.3882V28.3681C349.154 27.6306 349.027 26.9836 348.772 26.4271C348.517 25.8639 348.155 25.4247 347.686 25.1096C347.217 24.7945 346.66 24.637 346.016 24.637C345.359 24.637 344.8 24.7945 344.337 25.1096C343.874 25.4247 343.519 25.8639 343.271 26.4271C343.03 26.9836 342.909 27.6306 342.909 28.3681V28.3882C342.909 29.1257 343.03 29.7727 343.271 30.3292C343.519 30.8857 343.874 31.3215 344.337 31.6366C344.8 31.945 345.359 32.0992 346.016 32.0992ZM359.151 34V23.2793H360.901V34H359.151ZM360.036 21.298C359.714 21.298 359.439 21.1841 359.211 20.9561C358.983 20.7214 358.869 20.4432 358.869 20.1214C358.869 19.7928 358.983 19.5179 359.211 19.2967C359.439 19.0687 359.714 18.9548 360.036 18.9548C360.364 18.9548 360.643 19.0687 360.871 19.2967C361.099 19.5179 361.213 19.7928 361.213 20.1214C361.213 20.4432 361.099 20.7214 360.871 20.9561C360.643 21.1841 360.364 21.298 360.036 21.298ZM363.918 34V23.2793H365.668V24.8683H365.789C366.07 24.3185 366.472 23.886 366.995 23.5709C367.518 23.2491 368.175 23.0882 368.967 23.0882C370.167 23.0882 371.089 23.4368 371.732 24.1341C372.383 24.8247 372.708 25.7969 372.708 27.0506V34H370.958V27.4428C370.958 26.5042 370.753 25.8036 370.344 25.3409C369.935 24.8716 369.308 24.637 368.464 24.637C367.894 24.637 367.401 24.761 366.985 25.0091C366.57 25.2571 366.244 25.6058 366.01 26.055C365.782 26.5042 365.668 27.0406 365.668 27.6641V34H363.918ZM384.575 34.1911C383.764 34.1911 383.053 34.067 382.443 33.819C381.833 33.5709 381.347 33.2223 380.985 32.773C380.623 32.3171 380.405 31.7875 380.331 31.184V31.1539H382.111V31.184C382.245 31.6601 382.52 32.0389 382.936 32.3205C383.358 32.5954 383.918 32.7328 384.615 32.7328C385.105 32.7328 385.527 32.6658 385.882 32.5317C386.244 32.3909 386.526 32.1998 386.727 31.9584C386.935 31.7104 387.039 31.4254 387.039 31.1036V31.0835C387.039 30.7147 386.901 30.4063 386.627 30.1582C386.352 29.9102 385.892 29.7057 385.249 29.5448L383.569 29.1425C382.899 28.9816 382.346 28.7737 381.91 28.5189C381.481 28.2575 381.159 27.939 380.944 27.5635C380.737 27.1881 380.633 26.7422 380.633 26.226V26.2159C380.633 25.6125 380.804 25.0761 381.146 24.6068C381.494 24.1375 381.967 23.7687 382.564 23.5005C383.167 23.2256 383.848 23.0882 384.605 23.0882C385.363 23.0882 386.03 23.2122 386.606 23.4603C387.19 23.7084 387.656 24.057 388.004 24.5062C388.353 24.9487 388.561 25.465 388.628 26.055L388.638 26.0952H386.928V26.0751C386.828 25.6192 386.576 25.2504 386.174 24.9688C385.778 24.6872 385.252 24.5464 384.595 24.5464C384.173 24.5464 383.797 24.6135 383.469 24.7476C383.14 24.8817 382.882 25.0694 382.694 25.3108C382.513 25.5454 382.423 25.8203 382.423 26.1354V26.1556C382.423 26.3969 382.483 26.6115 382.604 26.7992C382.724 26.9869 382.916 27.1512 383.177 27.292C383.439 27.4328 383.774 27.5535 384.183 27.654L385.852 28.0563C386.885 28.3111 387.639 28.6664 388.115 29.1224C388.591 29.5783 388.829 30.1884 388.829 30.9527V30.9728C388.829 31.6098 388.641 32.1696 388.266 32.6524C387.897 33.1351 387.391 33.5139 386.747 33.7888C386.11 34.057 385.386 34.1911 384.575 34.1911ZM391.927 34V24.7275H390.237V23.2793H391.927V22.0523C391.927 21.3416 392.041 20.7583 392.269 20.3024C392.497 19.8398 392.838 19.4945 393.294 19.2665C393.75 19.0386 394.313 18.9246 394.984 18.9246C395.192 18.9246 395.39 18.9346 395.577 18.9548C395.772 18.9682 395.953 18.9883 396.12 19.0151V20.4231C396.013 20.403 395.889 20.3896 395.748 20.3828C395.614 20.3761 395.473 20.3728 395.326 20.3728C394.743 20.3728 394.32 20.5169 394.059 20.8052C393.797 21.0868 393.666 21.5126 393.666 22.0825V23.2793H396.03V24.7275H393.677V34H391.927ZM398.665 34.1106C398.316 34.1106 398.018 33.9899 397.77 33.7486C397.528 33.5005 397.408 33.2021 397.408 32.8535C397.408 32.5049 397.528 32.2099 397.77 31.9685C398.018 31.7271 398.316 31.6064 398.665 31.6064C399.013 31.6064 399.308 31.7271 399.55 31.9685C399.798 32.2099 399.922 32.5049 399.922 32.8535C399.922 33.2021 399.798 33.5005 399.55 33.7486C399.308 33.9899 399.013 34.1106 398.665 34.1106ZM408.128 34V19.4878H409.939V25.7633H417.904V19.4878H419.714V34H417.904V27.3926H409.939V34H408.128ZM427.277 34.1911C426.258 34.1911 425.379 33.9665 424.642 33.5173C423.911 33.0681 423.348 32.4311 422.952 31.6064C422.557 30.7751 422.359 29.7995 422.359 28.6799V28.6698C422.359 27.5635 422.557 26.5914 422.952 25.7533C423.348 24.9152 423.908 24.2615 424.632 23.7922C425.356 23.3228 426.201 23.0882 427.166 23.0882C428.145 23.0882 428.983 23.3128 429.681 23.762C430.385 24.2112 430.924 24.8414 431.3 25.6527C431.675 26.4573 431.863 27.3926 431.863 28.4586V29.1324H423.254V27.7446H430.978L430.103 29.0218V28.3279C430.103 27.4898 429.976 26.7992 429.721 26.2561C429.473 25.713 429.127 25.3108 428.685 25.0493C428.242 24.7811 427.733 24.647 427.156 24.647C426.586 24.647 426.073 24.7878 425.617 25.0694C425.162 25.3443 424.8 25.7566 424.531 26.3064C424.27 26.8562 424.139 27.53 424.139 28.3279V29.0218C424.139 29.7794 424.27 30.4298 424.531 30.9728C424.793 31.5092 425.162 31.9216 425.638 32.2099C426.114 32.4982 426.673 32.6423 427.317 32.6423C427.793 32.6423 428.209 32.5753 428.564 32.4412C428.926 32.3071 429.225 32.1328 429.459 31.9182C429.694 31.697 429.858 31.4656 429.952 31.2243L429.992 31.1338H431.732L431.712 31.2243C431.618 31.6064 431.451 31.9752 431.209 32.3305C430.968 32.6859 430.659 33.0044 430.284 33.286C429.908 33.5675 429.466 33.7888 428.956 33.9497C428.454 34.1106 427.894 34.1911 427.277 34.1911ZM433.915 24.9487L434.8 19.4878H436.741L435.202 24.9487H433.915ZM441.94 34.1911C441.129 34.1911 440.418 34.067 439.808 33.819C439.198 33.5709 438.712 33.2223 438.35 32.773C437.988 32.3171 437.77 31.7875 437.696 31.184V31.1539H439.476V31.184C439.61 31.6601 439.885 32.0389 440.301 32.3205C440.723 32.5954 441.283 32.7328 441.98 32.7328C442.47 32.7328 442.892 32.6658 443.247 32.5317C443.609 32.3909 443.891 32.1998 444.092 31.9584C444.3 31.7104 444.404 31.4254 444.404 31.1036V31.0835C444.404 30.7147 444.266 30.4063 443.992 30.1582C443.717 29.9102 443.257 29.7057 442.614 29.5448L440.934 29.1425C440.264 28.9816 439.711 28.7737 439.275 28.5189C438.846 28.2575 438.524 27.939 438.309 27.5635C438.102 27.1881 437.998 26.7422 437.998 26.226V26.2159C437.998 25.6125 438.169 25.0761 438.511 24.6068C438.859 24.1375 439.332 23.7687 439.929 23.5005C440.532 23.2256 441.213 23.0882 441.97 23.0882C442.728 23.0882 443.395 23.2122 443.971 23.4603C444.555 23.7084 445.021 24.057 445.369 24.5062C445.718 24.9487 445.926 25.465 445.993 26.055L446.003 26.0952H444.293V26.0751C444.193 25.6192 443.941 25.2504 443.539 24.9688C443.143 24.6872 442.617 24.5464 441.96 24.5464C441.538 24.5464 441.162 24.6135 440.834 24.7476C440.505 24.8817 440.247 25.0694 440.059 25.3108C439.878 25.5454 439.788 25.8203 439.788 26.1354V26.1556C439.788 26.3969 439.848 26.6115 439.969 26.7992C440.089 26.9869 440.281 27.1512 440.542 27.292C440.804 27.4328 441.139 27.5535 441.548 27.654L443.217 28.0563C444.25 28.3111 445.004 28.6664 445.48 29.1224C445.956 29.5783 446.194 30.1884 446.194 30.9527V30.9728C446.194 31.6098 446.006 32.1696 445.631 32.6524C445.262 33.1351 444.756 33.5139 444.112 33.7888C443.475 34.057 442.751 34.1911 441.94 34.1911ZM37.5689 59V44.0553H39.3188V59H37.5689ZM46.771 59.1911C45.7653 59.1911 44.8904 58.9665 44.1462 58.5173C43.4086 58.0681 42.8354 57.4311 42.4264 56.6064C42.0241 55.7751 41.823 54.7895 41.823 53.6497V53.6296C41.823 52.4831 42.0241 51.4975 42.4264 50.6728C42.8354 49.8414 43.4086 49.2045 44.1462 48.762C44.8904 48.3128 45.7653 48.0882 46.771 48.0882C47.7834 48.0882 48.6584 48.3128 49.3959 48.762C50.1334 49.2045 50.7033 49.8414 51.1056 50.6728C51.5146 51.4975 51.7191 52.4831 51.7191 53.6296V53.6497C51.7191 54.7895 51.5146 55.7751 51.1056 56.6064C50.7033 57.4311 50.1334 58.0681 49.3959 58.5173C48.6584 58.9665 47.7834 59.1911 46.771 59.1911ZM46.7811 57.6423C47.4381 57.6423 48.0013 57.4847 48.4707 57.1696C48.94 56.8545 49.2987 56.3986 49.5468 55.8019C49.8015 55.2052 49.9289 54.4878 49.9289 53.6497V53.6296C49.9289 52.7848 49.8015 52.064 49.5468 51.4673C49.2987 50.8706 48.94 50.418 48.4707 50.1096C48.0013 49.7945 47.4348 49.637 46.771 49.637C46.114 49.637 45.5474 49.7945 45.0714 50.1096C44.6021 50.4247 44.24 50.8807 43.9852 51.4774C43.7372 52.0674 43.6131 52.7848 43.6131 53.6296V53.6497C43.6131 54.4878 43.7372 55.2052 43.9852 55.8019C44.24 56.3986 44.6021 56.8545 45.0714 57.1696C45.5474 57.4847 46.1173 57.6423 46.7811 57.6423ZM58.5377 59.1911C57.532 59.1911 56.657 58.9665 55.9128 58.5173C55.1753 58.0681 54.6021 57.4311 54.1931 56.6064C53.7908 55.7751 53.5897 54.7895 53.5897 53.6497V53.6296C53.5897 52.4831 53.7908 51.4975 54.1931 50.6728C54.6021 49.8414 55.1753 49.2045 55.9128 48.762C56.657 48.3128 57.532 48.0882 58.5377 48.0882C59.5501 48.0882 60.4251 48.3128 61.1626 48.762C61.9001 49.2045 62.47 49.8414 62.8723 50.6728C63.2812 51.4975 63.4857 52.4831 63.4857 53.6296V53.6497C63.4857 54.7895 63.2812 55.7751 62.8723 56.6064C62.47 57.4311 61.9001 58.0681 61.1626 58.5173C60.4251 58.9665 59.5501 59.1911 58.5377 59.1911ZM58.5478 57.6423C59.2048 57.6423 59.768 57.4847 60.2373 57.1696C60.7066 56.8545 61.0653 56.3986 61.3134 55.8019C61.5682 55.2052 61.6956 54.4878 61.6956 53.6497V53.6296C61.6956 52.7848 61.5682 52.064 61.3134 51.4673C61.0653 50.8706 60.7066 50.418 60.2373 50.1096C59.768 49.7945 59.2015 49.637 58.5377 49.637C57.8806 49.637 57.3141 49.7945 56.8381 50.1096C56.3687 50.4247 56.0067 50.8807 55.7519 51.4774C55.5038 52.0674 55.3798 52.7848 55.3798 53.6296V53.6497C55.3798 54.4878 55.5038 55.2052 55.7519 55.8019C56.0067 56.3986 56.3687 56.8545 56.8381 57.1696C57.3141 57.4847 57.884 57.6423 58.5478 57.6423ZM66 59V44.0553H67.7499V59H66ZM72.7583 59L68.6047 53.7905L69.8619 52.654L74.9105 59H72.7583ZM67.4784 55.2085L67.4281 52.9759H67.8806L72.527 48.2793H74.649L69.5601 53.2373L69.2383 53.5189L67.4784 55.2085ZM76.7509 59V48.2793H78.5008V59H76.7509ZM77.6359 46.298C77.3141 46.298 77.0392 46.1841 76.8112 45.9561C76.5833 45.7214 76.4693 45.4432 76.4693 45.1214C76.4693 44.7928 76.5833 44.5179 76.8112 44.2967C77.0392 44.0687 77.3141 43.9548 77.6359 43.9548C77.9644 43.9548 78.2427 44.0687 78.4706 44.2967C78.6986 44.5179 78.8126 44.7928 78.8126 45.1214C78.8126 45.4432 78.6986 45.7214 78.4706 45.9561C78.2427 46.1841 77.9644 46.298 77.6359 46.298ZM81.5179 59V48.2793H83.2678V49.8683H83.3885C83.6701 49.3185 84.0724 48.886 84.5953 48.5709C85.1183 48.2491 85.7754 48.0882 86.5665 48.0882C87.7666 48.0882 88.6885 48.4368 89.3322 49.1341C89.9825 49.8247 90.3077 50.7969 90.3077 52.0506V59H88.5578V52.4428C88.5578 51.5042 88.3533 50.8036 87.9443 50.3409C87.5353 49.8716 86.9084 49.637 86.0637 49.637C85.4938 49.637 85.001 49.761 84.5853 50.0091C84.1696 50.2571 83.8444 50.6058 83.6097 51.055C83.3818 51.5042 83.2678 52.0406 83.2678 52.6641V59H81.5179ZM97.6191 62.7915C96.7542 62.7915 95.9966 62.6674 95.3462 62.4194C94.6959 62.178 94.1763 61.8361 93.7874 61.3936C93.4052 60.9578 93.1639 60.4583 93.0633 59.8951L93.0734 59.8548H94.8635L94.8836 59.8951C94.9976 60.2906 95.2893 60.6125 95.7586 60.8605C96.2346 61.1153 96.8514 61.2427 97.6091 61.2427C98.5678 61.2427 99.312 61.0181 99.8417 60.5689C100.371 60.1197 100.636 59.4928 100.636 58.6882V56.7674H100.516C100.294 57.1629 100.016 57.5015 99.6808 57.7831C99.3456 58.0647 98.9634 58.2792 98.5343 58.4268C98.1052 58.5743 97.6426 58.648 97.1464 58.648C96.2279 58.648 95.4301 58.4268 94.7529 57.9842C94.0757 57.535 93.5527 56.9149 93.184 56.1237C92.8152 55.3326 92.6309 54.4207 92.6309 53.3882V53.3681C92.6309 52.3289 92.8186 51.4137 93.1941 50.6225C93.5695 49.8314 94.0958 49.2112 94.773 48.762C95.4502 48.3128 96.2547 48.0882 97.1867 48.0882C97.6895 48.0882 98.1521 48.172 98.5745 48.3396C99.0036 48.5005 99.3824 48.7285 99.711 49.0235C100.04 49.3185 100.314 49.6671 100.536 50.0694H100.626V48.2793H102.376V58.7989C102.376 59.6101 102.182 60.3141 101.793 60.9108C101.411 61.5075 100.861 61.9702 100.143 62.2987C99.4327 62.6272 98.5913 62.7915 97.6191 62.7915ZM97.5286 57.0992C98.1723 57.0992 98.7287 56.945 99.1981 56.6366C99.6674 56.3215 100.029 55.8857 100.284 55.3292C100.539 54.766 100.666 54.119 100.666 53.3882V53.3681C100.666 52.6306 100.539 51.9836 100.284 51.4271C100.029 50.8639 99.6674 50.4247 99.1981 50.1096C98.7287 49.7945 98.1723 49.637 97.5286 49.637C96.8716 49.637 96.3117 49.7945 95.8491 50.1096C95.3865 50.4247 95.0311 50.8639 94.7831 51.4271C94.5417 51.9836 94.421 52.6306 94.421 53.3681V53.3882C94.421 54.1257 94.5417 54.7727 94.7831 55.3292C95.0311 55.8857 95.3865 56.3215 95.8491 56.6366C96.3117 56.945 96.8716 57.0992 97.5286 57.0992ZM111.276 59V49.7275H109.587V48.2793H111.276V47.0523C111.276 46.3416 111.39 45.7583 111.618 45.3024C111.846 44.8398 112.188 44.4945 112.644 44.2665C113.1 44.0386 113.663 43.9246 114.334 43.9246C114.542 43.9246 114.739 43.9346 114.927 43.9548C115.122 43.9682 115.303 43.9883 115.47 44.0151V45.4231C115.363 45.403 115.239 45.3896 115.098 45.3828C114.964 45.3761 114.823 45.3728 114.676 45.3728C114.092 45.3728 113.67 45.5169 113.409 45.8052C113.147 46.0868 113.016 46.5126 113.016 47.0825V48.2793H115.38V49.7275H113.026V59H111.276ZM121.474 59.1911C120.469 59.1911 119.594 58.9665 118.849 58.5173C118.112 58.0681 117.539 57.4311 117.13 56.6064C116.727 55.7751 116.526 54.7895 116.526 53.6497V53.6296C116.526 52.4831 116.727 51.4975 117.13 50.6728C117.539 49.8414 118.112 49.2045 118.849 48.762C119.594 48.3128 120.469 48.0882 121.474 48.0882C122.487 48.0882 123.362 48.3128 124.099 48.762C124.837 49.2045 125.407 49.8414 125.809 50.6728C126.218 51.4975 126.422 52.4831 126.422 53.6296V53.6497C126.422 54.7895 126.218 55.7751 125.809 56.6064C125.407 57.4311 124.837 58.0681 124.099 58.5173C123.362 58.9665 122.487 59.1911 121.474 59.1911ZM121.484 57.6423C122.141 57.6423 122.705 57.4847 123.174 57.1696C123.643 56.8545 124.002 56.3986 124.25 55.8019C124.505 55.2052 124.632 54.4878 124.632 53.6497V53.6296C124.632 52.7848 124.505 52.064 124.25 51.4673C124.002 50.8706 123.643 50.418 123.174 50.1096C122.705 49.7945 122.138 49.637 121.474 49.637C120.817 49.637 120.251 49.7945 119.775 50.1096C119.305 50.4247 118.943 50.8807 118.688 51.4774C118.44 52.0674 118.316 52.7848 118.316 53.6296V53.6497C118.316 54.4878 118.44 55.2052 118.688 55.8019C118.943 56.3986 119.305 56.8545 119.775 57.1696C120.251 57.4847 120.821 57.6423 121.484 57.6423ZM128.826 59V48.2793H130.576V49.9387H130.697C130.898 49.3621 131.233 48.9095 131.702 48.581C132.178 48.2524 132.758 48.0882 133.442 48.0882C133.61 48.0882 133.767 48.0982 133.915 48.1183C134.069 48.1318 134.186 48.1452 134.267 48.1586V49.8582C134.119 49.8247 133.958 49.8012 133.784 49.7878C133.616 49.7677 133.432 49.7576 133.231 49.7576C132.715 49.7576 132.255 49.8649 131.853 50.0795C131.451 50.294 131.136 50.5957 130.908 50.9846C130.686 51.3735 130.576 51.8327 130.576 52.3624V59H128.826ZM144.485 59.1911C143.794 59.1911 143.181 59.0603 142.644 58.7989C142.108 58.5374 141.682 58.1686 141.367 57.6926C141.059 57.2099 140.904 56.6433 140.904 55.993V55.9728C140.904 55.3493 141.055 54.8129 141.357 54.3637C141.665 53.9078 142.111 53.5491 142.695 53.2876C143.278 53.0262 143.982 52.8719 144.806 52.825L148.759 52.5937V53.9816L145.018 54.2129C144.233 54.2598 143.65 54.4308 143.268 54.7258C142.886 55.0208 142.695 55.4298 142.695 55.9527V55.9728C142.695 56.5025 142.896 56.9182 143.298 57.2199C143.707 57.5216 144.227 57.6725 144.857 57.6725C145.433 57.6725 145.95 57.5551 146.406 57.3205C146.861 57.0858 147.22 56.7674 147.482 56.3651C147.75 55.9561 147.884 55.4935 147.884 54.9772V51.6986C147.884 51.0349 147.679 50.5253 147.27 50.17C146.868 49.8146 146.275 49.637 145.49 49.637C144.833 49.637 144.297 49.7643 143.881 50.0191C143.466 50.2672 143.194 50.6091 143.067 51.0449L143.057 51.0952H141.327L141.337 51.0148C141.417 50.4449 141.639 49.942 142.001 49.5062C142.369 49.0637 142.855 48.7184 143.459 48.4703C144.062 48.2156 144.756 48.0882 145.541 48.0882C146.406 48.0882 147.143 48.2323 147.753 48.5206C148.363 48.8022 148.829 49.2112 149.151 49.7476C149.473 50.2772 149.634 50.9075 149.634 51.6383V59H147.884V57.3708H147.753C147.539 57.7529 147.267 58.0815 146.939 58.3564C146.61 58.6245 146.238 58.8324 145.822 58.9799C145.413 59.1207 144.967 59.1911 144.485 59.1911ZM157.81 59V48.2793H159.56V49.8683H159.681C159.962 49.3185 160.365 48.886 160.888 48.5709C161.411 48.2491 162.068 48.0882 162.859 48.0882C164.059 48.0882 164.981 48.4368 165.624 49.1341C166.275 49.8247 166.6 50.7969 166.6 52.0506V59H164.85V52.4428C164.85 51.5042 164.646 50.8036 164.237 50.3409C163.828 49.8716 163.201 49.637 162.356 49.637C161.786 49.637 161.293 49.761 160.878 50.0091C160.462 50.2571 160.137 50.6058 159.902 51.055C159.674 51.5042 159.56 52.0406 159.56 52.6641V59H157.81ZM173.841 59.1911C172.822 59.1911 171.944 58.9665 171.206 58.5173C170.475 58.0681 169.912 57.4311 169.516 56.6064C169.121 55.7751 168.923 54.7995 168.923 53.6799V53.6698C168.923 52.5635 169.121 51.5914 169.516 50.7533C169.912 49.9152 170.472 49.2615 171.196 48.7922C171.92 48.3228 172.765 48.0882 173.73 48.0882C174.709 48.0882 175.547 48.3128 176.245 48.762C176.949 49.2112 177.488 49.8414 177.864 50.6527C178.239 51.4573 178.427 52.3926 178.427 53.4586V54.1324H169.818V52.7446H177.542L176.667 54.0218V53.3279C176.667 52.4898 176.54 51.7992 176.285 51.2561C176.037 50.713 175.691 50.3108 175.249 50.0493C174.806 49.7811 174.297 49.647 173.72 49.647C173.15 49.647 172.638 49.7878 172.182 50.0694C171.726 50.3443 171.364 50.7566 171.095 51.3064C170.834 51.8562 170.703 52.53 170.703 53.3279V54.0218C170.703 54.7794 170.834 55.4298 171.095 55.9728C171.357 56.5092 171.726 56.9216 172.202 57.2099C172.678 57.4982 173.238 57.6423 173.881 57.6423C174.357 57.6423 174.773 57.5753 175.128 57.4412C175.49 57.3071 175.789 57.1328 176.023 56.9182C176.258 56.697 176.422 56.4656 176.516 56.2243L176.556 56.1338H178.296L178.276 56.2243C178.182 56.6064 178.015 56.9752 177.773 57.3305C177.532 57.6859 177.223 58.0044 176.848 58.286C176.473 58.5675 176.03 58.7888 175.521 58.9497C175.018 59.1106 174.458 59.1911 173.841 59.1911ZM182.932 59L179.925 48.2793H181.675L183.787 56.8981H183.918L186.322 48.2793H187.991L190.395 56.8981H190.515L192.637 48.2793H194.377L191.37 59H189.61L187.207 50.703H187.086L184.682 59H182.932ZM201.699 62.5903V48.2793H203.449V50.0292H203.569C203.791 49.6202 204.066 49.2749 204.394 48.9933C204.729 48.705 205.111 48.4838 205.541 48.3295C205.97 48.1686 206.432 48.0882 206.928 48.0882C207.84 48.0882 208.635 48.3195 209.312 48.7821C209.989 49.238 210.512 49.8817 210.881 50.713C211.256 51.5444 211.444 52.5166 211.444 53.6296V53.6497C211.444 54.7761 211.256 55.7549 210.881 56.5863C210.505 57.411 209.979 58.0513 209.302 58.5072C208.631 58.9631 207.844 59.1911 206.939 59.1911C206.449 59.1911 205.986 59.114 205.551 58.9598C205.115 58.7989 204.726 58.5776 204.384 58.296C204.049 58.0077 203.777 57.6691 203.569 57.2803H203.449V62.5903H201.699ZM206.546 57.6423C207.197 57.6423 207.753 57.4814 208.216 57.1596C208.678 56.8377 209.034 56.3785 209.282 55.7818C209.53 55.1851 209.654 54.4744 209.654 53.6497V53.6296C209.654 52.7982 209.53 52.0875 209.282 51.4975C209.034 50.9008 208.678 50.4415 208.216 50.1197C207.753 49.7979 207.197 49.637 206.546 49.637C205.916 49.637 205.363 49.8012 204.887 50.1297C204.418 50.4516 204.056 50.9108 203.801 51.5075C203.546 52.1043 203.419 52.8116 203.419 53.6296V53.6497C203.419 54.4677 203.546 55.175 203.801 55.7717C204.062 56.3684 204.428 56.831 204.897 57.1596C205.366 57.4814 205.916 57.6423 206.546 57.6423ZM213.868 59V48.2793H215.618V49.9387H215.738C215.94 49.3621 216.275 48.9095 216.744 48.581C217.22 48.2524 217.8 48.0882 218.484 48.0882C218.652 48.0882 218.809 48.0982 218.957 48.1183C219.111 48.1318 219.228 48.1452 219.309 48.1586V49.8582C219.161 49.8247 219 49.8012 218.826 49.7878C218.658 49.7677 218.474 49.7576 218.273 49.7576C217.756 49.7576 217.297 49.8649 216.895 50.0795C216.493 50.294 216.178 50.5957 215.95 50.9846C215.728 51.3735 215.618 51.8327 215.618 52.3624V59H213.868ZM225.282 59.1911C224.277 59.1911 223.402 58.9665 222.658 58.5173C221.92 58.0681 221.347 57.4311 220.938 56.6064C220.536 55.7751 220.334 54.7895 220.334 53.6497V53.6296C220.334 52.4831 220.536 51.4975 220.938 50.6728C221.347 49.8414 221.92 49.2045 222.658 48.762C223.402 48.3128 224.277 48.0882 225.282 48.0882C226.295 48.0882 227.17 48.3128 227.907 48.762C228.645 49.2045 229.215 49.8414 229.617 50.6728C230.026 51.4975 230.23 52.4831 230.23 53.6296V53.6497C230.23 54.7895 230.026 55.7751 229.617 56.6064C229.215 57.4311 228.645 58.0681 227.907 58.5173C227.17 58.9665 226.295 59.1911 225.282 59.1911ZM225.292 57.6423C225.95 57.6423 226.513 57.4847 226.982 57.1696C227.451 56.8545 227.81 56.3986 228.058 55.8019C228.313 55.2052 228.44 54.4878 228.44 53.6497V53.6296C228.44 52.7848 228.313 52.064 228.058 51.4673C227.81 50.8706 227.451 50.418 226.982 50.1096C226.513 49.7945 225.946 49.637 225.282 49.637C224.625 49.637 224.059 49.7945 223.583 50.1096C223.113 50.4247 222.751 50.8807 222.497 51.4774C222.249 52.0674 222.125 52.7848 222.125 53.6296V53.6497C222.125 54.4878 222.249 55.2052 222.497 55.8019C222.751 56.3986 223.113 56.8545 223.583 57.1696C224.059 57.4847 224.629 57.6423 225.292 57.6423ZM231.136 62.6607C231.089 62.6607 231.038 62.6607 230.985 62.6607C230.931 62.6607 230.877 62.6607 230.824 62.6607V61.112C230.871 61.112 230.914 61.112 230.955 61.112C230.995 61.112 231.038 61.112 231.085 61.112C231.669 61.112 232.081 60.9946 232.322 60.76C232.564 60.532 232.684 60.123 232.684 59.533V48.2793H234.434V59.5028C234.434 60.6024 234.166 61.4036 233.63 61.9065C233.1 62.4093 232.269 62.6607 231.136 62.6607ZM233.559 46.298C233.238 46.298 232.963 46.1841 232.735 45.9561C232.507 45.7214 232.393 45.4432 232.393 45.1214C232.393 44.7928 232.507 44.5179 232.735 44.2967C232.963 44.0687 233.238 43.9548 233.559 43.9548C233.888 43.9548 234.166 44.0687 234.394 44.2967C234.622 44.5179 234.736 44.7928 234.736 45.1214C234.736 45.4432 234.622 45.7214 234.394 45.9561C234.166 46.1841 233.888 46.298 233.559 46.298ZM241.826 59.1911C240.807 59.1911 239.929 58.9665 239.191 58.5173C238.46 58.0681 237.897 57.4311 237.502 56.6064C237.106 55.7751 236.908 54.7995 236.908 53.6799V53.6698C236.908 52.5635 237.106 51.5914 237.502 50.7533C237.897 49.9152 238.457 49.2615 239.181 48.7922C239.905 48.3228 240.75 48.0882 241.716 48.0882C242.694 48.0882 243.533 48.3128 244.23 48.762C244.934 49.2112 245.474 49.8414 245.849 50.6527C246.224 51.4573 246.412 52.3926 246.412 53.4586V54.1324H237.803V52.7446H245.527L244.652 54.0218V53.3279C244.652 52.4898 244.525 51.7992 244.27 51.2561C244.022 50.713 243.677 50.3108 243.234 50.0493C242.792 49.7811 242.282 49.647 241.705 49.647C241.136 49.647 240.623 49.7878 240.167 50.0694C239.711 50.3443 239.349 50.7566 239.081 51.3064C238.819 51.8562 238.688 52.53 238.688 53.3279V54.0218C238.688 54.7794 238.819 55.4298 239.081 55.9728C239.342 56.5092 239.711 56.9216 240.187 57.2099C240.663 57.4982 241.223 57.6423 241.866 57.6423C242.342 57.6423 242.758 57.5753 243.113 57.4412C243.476 57.3071 243.774 57.1328 244.009 56.9182C244.243 56.697 244.407 56.4656 244.501 56.2243L244.542 56.1338H246.281L246.261 56.2243C246.167 56.6064 246 56.9752 245.758 57.3305C245.517 57.6859 245.209 58.0044 244.833 58.286C244.458 58.5675 244.015 58.7888 243.506 58.9497C243.003 59.1106 242.443 59.1911 241.826 59.1911ZM253.231 59.1911C252.225 59.1911 251.353 58.9631 250.616 58.5072C249.878 58.0513 249.305 57.4076 248.896 56.5763C248.494 55.7382 248.293 54.7526 248.293 53.6195V53.5994C248.293 52.4797 248.494 51.5075 248.896 50.6829C249.305 49.8582 249.878 49.2213 250.616 48.7721C251.353 48.3161 252.222 48.0882 253.221 48.0882C254.092 48.0882 254.843 48.2491 255.473 48.5709C256.11 48.886 256.617 49.3051 256.992 49.828C257.368 50.351 257.602 50.9276 257.696 51.5578L257.706 51.6282H255.976L255.966 51.5779C255.832 51.0483 255.534 50.5924 255.071 50.2102C254.609 49.828 253.992 49.637 253.221 49.637C252.584 49.637 252.031 49.8012 251.561 50.1297C251.092 50.4516 250.727 50.9108 250.465 51.5075C250.21 52.0976 250.083 52.7982 250.083 53.6095V53.6195C250.083 54.4442 250.214 55.1582 250.475 55.7617C250.737 56.3651 251.102 56.831 251.571 57.1596C252.041 57.4814 252.59 57.6423 253.221 57.6423C253.952 57.6423 254.545 57.478 255.001 57.1495C255.457 56.8143 255.775 56.3483 255.956 55.7516L255.976 55.6913L257.706 55.6812L257.686 55.7818C257.559 56.4321 257.304 57.0154 256.922 57.5317C256.54 58.0479 256.04 58.4536 255.423 58.7486C254.806 59.0436 254.076 59.1911 253.231 59.1911ZM263.821 59.1207C262.755 59.1207 261.974 58.8961 261.478 58.4469C260.988 57.9909 260.743 57.2534 260.743 56.2343V49.7275H259.094V48.2793H260.743V45.4734H262.554V48.2793H264.806V49.7275H262.554V55.9326C262.554 56.5427 262.674 56.9752 262.916 57.23C263.157 57.478 263.546 57.6021 264.082 57.6021C264.223 57.6021 264.344 57.5987 264.444 57.592C264.552 57.5853 264.672 57.5753 264.806 57.5619V59.0302C264.659 59.0503 264.501 59.0704 264.334 59.0905C264.166 59.1106 263.995 59.1207 263.821 59.1207ZM268.507 59.1106C268.159 59.1106 267.86 58.9899 267.612 58.7486C267.371 58.5005 267.25 58.2021 267.25 57.8535C267.25 57.5049 267.371 57.2099 267.612 56.9685C267.86 56.7271 268.159 56.6064 268.507 56.6064C268.856 56.6064 269.151 56.7271 269.392 56.9685C269.64 57.2099 269.764 57.5049 269.764 57.8535C269.764 58.2021 269.64 58.5005 269.392 58.7486C269.151 58.9899 268.856 59.1106 268.507 59.1106Z" fill="black"/>
<path d="M110.643 34.3218C109.972 34.3218 109.372 34.2246 108.843 34.0302C108.313 33.8357 107.86 33.5642 107.485 33.2156C107.116 32.8602 106.828 32.4412 106.62 31.9584C106.419 31.4757 106.302 30.9427 106.268 30.3594L106.258 30.2387H108.481L108.491 30.3292C108.524 30.6913 108.621 31.0231 108.782 31.3248C108.95 31.6198 109.188 31.8579 109.496 32.0389C109.805 32.2132 110.18 32.3004 110.623 32.3004C111.367 32.3004 111.934 32.0825 112.322 31.6467C112.718 31.2109 112.916 30.5806 112.916 29.756V19.4878H115.169V29.7761C115.169 30.7281 114.991 31.5427 114.636 32.2199C114.28 32.8971 113.764 33.4167 113.087 33.7787C112.41 34.1408 111.595 34.3218 110.643 34.3218ZM122.812 34.2112C121.759 34.2112 120.851 33.9866 120.086 33.5374C119.322 33.0815 118.729 32.4345 118.306 31.5964C117.891 30.7583 117.683 29.7593 117.683 28.5994V28.5793C117.683 27.4194 117.891 26.4237 118.306 25.5924C118.729 24.7543 119.322 24.1106 120.086 23.6614C120.857 23.2055 121.763 22.9775 122.802 22.9775C123.854 22.9775 124.763 23.2022 125.527 23.6514C126.292 24.1006 126.882 24.7442 127.297 25.5823C127.72 26.4204 127.931 27.4194 127.931 28.5793V28.5994C127.931 29.7593 127.72 30.7583 127.297 31.5964C126.882 32.4345 126.292 33.0815 125.527 33.5374C124.77 33.9866 123.864 34.2112 122.812 34.2112ZM122.812 32.3808C123.415 32.3808 123.932 32.2333 124.361 31.9383C124.79 31.6366 125.118 31.2042 125.346 30.641C125.581 30.0778 125.698 29.3973 125.698 28.5994V28.5793C125.698 27.7814 125.581 27.1009 125.346 26.5377C125.118 25.9745 124.79 25.5454 124.361 25.2504C123.932 24.9554 123.412 24.8079 122.802 24.8079C122.205 24.8079 121.689 24.9588 121.253 25.2605C120.824 25.5555 120.492 25.9846 120.257 26.5478C120.029 27.1043 119.915 27.7814 119.915 28.5793V28.5994C119.915 29.3973 120.029 30.0778 120.257 30.641C120.492 31.2042 120.824 31.6366 121.253 31.9383C121.689 32.2333 122.208 32.3808 122.812 32.3808ZM134.206 34.2112C133.328 34.2112 132.567 34.0805 131.923 33.819C131.28 33.5575 130.77 33.1921 130.395 32.7228C130.019 32.2534 129.795 31.7104 129.721 31.0935V31.0533H131.893L131.913 31.0935C132.034 31.5226 132.289 31.8679 132.678 32.1294C133.067 32.3909 133.59 32.5216 134.247 32.5216C134.689 32.5216 135.075 32.4613 135.403 32.3406C135.732 32.2132 135.987 32.0422 136.168 31.8277C136.355 31.6064 136.449 31.3483 136.449 31.0533V31.0332C136.449 30.6913 136.322 30.4097 136.067 30.1884C135.812 29.9604 135.376 29.7727 134.76 29.6252L133.03 29.233C132.346 29.0721 131.779 28.8609 131.33 28.5994C130.888 28.3312 130.556 28.0027 130.334 27.6138C130.12 27.2182 130.013 26.759 130.013 26.236V26.226C130.013 25.589 130.19 25.0258 130.546 24.5364C130.901 24.0469 131.394 23.6648 132.024 23.3899C132.661 23.115 133.388 22.9775 134.206 22.9775C135.038 22.9775 135.762 23.1116 136.379 23.3798C136.996 23.6413 137.478 24.0067 137.827 24.476C138.182 24.9387 138.387 25.4683 138.44 26.065V26.1053H136.369L136.359 26.0751C136.271 25.6661 136.043 25.3309 135.675 25.0694C135.306 24.8012 134.813 24.6671 134.196 24.6671C133.801 24.6671 133.452 24.7275 133.15 24.8481C132.855 24.9688 132.621 25.1364 132.446 25.351C132.279 25.5655 132.195 25.817 132.195 26.1053V26.1254C132.195 26.3466 132.252 26.5444 132.366 26.7187C132.48 26.8864 132.658 27.0372 132.899 27.1713C133.147 27.2987 133.469 27.4093 133.864 27.5032L135.594 27.9055C136.66 28.1468 137.438 28.5022 137.928 28.9715C138.417 29.4341 138.662 30.0577 138.662 30.8421V30.8522C138.662 31.5159 138.467 32.1026 138.078 32.6121C137.696 33.115 137.17 33.5072 136.499 33.7888C135.829 34.0704 135.065 34.2112 134.206 34.2112ZM141.075 34V19.0151H143.258V24.8683H143.388C143.657 24.2715 144.059 23.8089 144.595 23.4804C145.132 23.1452 145.795 22.9775 146.587 22.9775C147.384 22.9775 148.062 23.1418 148.618 23.4703C149.181 23.7989 149.614 24.2715 149.915 24.8884C150.217 25.4985 150.368 26.236 150.368 27.1009V34H148.176V27.5836C148.176 26.6852 147.978 26.0047 147.582 25.5421C147.193 25.0795 146.603 24.8481 145.812 24.8481C145.289 24.8481 144.837 24.9655 144.454 25.2001C144.072 25.4348 143.777 25.7633 143.569 26.1857C143.362 26.6081 143.258 27.1076 143.258 27.6842V34H141.075Z" fill="#007AFF"/>
<path d="M105.574 37.7412H151.696V39.2095H105.574V37.7412Z" fill="#007AFF"/>
</svg>
