<svg width="594" height="251" viewBox="0 0 594 251" fill="none" xmlns="http://www.w3.org/2000/svg">
<path d="M169.904 209.197C160.178 209.197 151.682 207.732 144.416 204.803C137.15 201.873 131.408 197.684 127.189 192.234C123.029 186.785 120.686 180.281 120.158 172.723L120.07 171.404H141.691L141.867 172.459C142.512 176.092 144.094 179.227 146.613 181.863C149.133 184.5 152.443 186.551 156.545 188.016C160.705 189.422 165.422 190.125 170.695 190.125C176.027 190.125 180.627 189.393 184.494 187.928C188.42 186.463 191.438 184.383 193.547 181.688C195.656 178.934 196.711 175.74 196.711 172.107V172.02C196.711 167.273 194.924 163.523 191.35 160.77C187.834 158.016 181.975 155.76 173.771 154.002L160.148 151.189C147.727 148.611 138.41 144.393 132.199 138.533C125.988 132.615 122.883 124.939 122.883 115.506V115.418C122.941 107.918 124.963 101.385 128.947 95.8184C132.99 90.1934 138.557 85.8281 145.646 82.7227C152.736 79.5586 160.822 77.9766 169.904 77.9766C179.104 77.9766 187.16 79.5 194.074 82.5469C200.988 85.5938 206.408 89.8418 210.334 95.291C214.318 100.74 216.516 107.068 216.926 114.275L217.014 115.77H195.393L195.217 114.627C194.689 110.936 193.312 107.801 191.086 105.223C188.859 102.586 185.93 100.564 182.297 99.1582C178.664 97.752 174.475 97.0488 169.729 97.0488C164.807 97.0488 160.529 97.7812 156.896 99.2461C153.322 100.652 150.539 102.645 148.547 105.223C146.613 107.801 145.646 110.789 145.646 114.188V114.275C145.646 118.729 147.434 122.361 151.008 125.174C154.641 127.928 160.266 130.096 167.883 131.678L181.506 134.49C190.354 136.307 197.561 138.768 203.127 141.873C208.693 144.979 212.795 148.875 215.432 153.562C218.127 158.25 219.475 163.875 219.475 170.438V170.525C219.475 178.377 217.482 185.203 213.498 191.004C209.572 196.805 203.889 201.287 196.447 204.451C189.064 207.615 180.217 209.197 169.904 209.197ZM271.597 208.846C262.281 208.846 254.254 206.883 247.515 202.957C240.836 199.031 235.709 193.465 232.134 186.258C228.56 179.051 226.773 170.525 226.773 160.682V160.594C226.773 150.809 228.56 142.283 232.134 135.018C235.767 127.693 240.836 122.01 247.339 117.967C253.902 113.924 261.636 111.902 270.543 111.902C279.39 111.902 287.037 113.865 293.482 117.791C299.986 121.658 304.966 127.107 308.423 134.139C311.939 141.17 313.697 149.373 313.697 158.748V165.779H237.584V151.189H303.238L292.691 164.812V156.375C292.691 150.281 291.754 145.213 289.879 141.17C288.004 137.127 285.425 134.109 282.144 132.117C278.863 130.066 275.084 129.041 270.806 129.041C266.47 129.041 262.603 130.096 259.205 132.205C255.865 134.256 253.228 137.332 251.295 141.434C249.42 145.535 248.482 150.516 248.482 156.375V164.812C248.482 170.496 249.42 175.359 251.295 179.402C253.228 183.387 255.953 186.463 259.468 188.631C262.984 190.74 267.173 191.795 272.037 191.795C275.67 191.795 278.863 191.238 281.617 190.125C284.371 188.953 286.627 187.459 288.384 185.643C290.201 183.826 291.461 181.863 292.164 179.754L292.339 179.139H312.73L312.554 180.105C311.793 183.68 310.386 187.195 308.336 190.652C306.285 194.051 303.531 197.127 300.074 199.881C296.617 202.635 292.515 204.832 287.769 206.473C283.023 208.055 277.632 208.846 271.597 208.846ZM324.071 207V113.836H345.868V129.92H346.396C347.802 124.295 350.351 119.9 354.042 116.736C357.792 113.514 362.363 111.902 367.753 111.902C369.101 111.902 370.39 111.99 371.62 112.166C372.851 112.342 373.876 112.547 374.696 112.781V132.557C373.818 132.205 372.558 131.912 370.917 131.678C369.335 131.443 367.607 131.326 365.732 131.326C361.63 131.326 358.085 132.176 355.097 133.875C352.109 135.516 349.823 137.947 348.241 141.17C346.659 144.393 345.868 148.318 345.868 152.947V207H324.071ZM382.962 207V113.836H404.846V207H382.962ZM393.86 100.477C390.462 100.477 387.591 99.3047 385.247 96.9609C382.903 94.6172 381.731 91.8047 381.731 88.5234C381.731 85.1836 382.903 82.3711 385.247 80.0859C387.591 77.7422 390.462 76.5703 393.86 76.5703C397.317 76.5703 400.218 77.7422 402.561 80.0859C404.905 82.3711 406.077 85.1836 406.077 88.5234C406.077 91.8047 404.905 94.6172 402.561 96.9609C400.218 99.3047 397.317 100.477 393.86 100.477ZM460.836 208.846C451.52 208.846 443.493 206.883 436.754 202.957C430.075 199.031 424.948 193.465 421.373 186.258C417.799 179.051 416.012 170.525 416.012 160.682V160.594C416.012 150.809 417.799 142.283 421.373 135.018C425.006 127.693 430.075 122.01 436.579 117.967C443.141 113.924 450.875 111.902 459.782 111.902C468.629 111.902 476.276 113.865 482.721 117.791C489.225 121.658 494.205 127.107 497.663 134.139C501.178 141.17 502.936 149.373 502.936 158.748V165.779H426.823V151.189H492.477L481.93 164.812V156.375C481.93 150.281 480.993 145.213 479.118 141.17C477.243 137.127 474.664 134.109 471.383 132.117C468.102 130.066 464.323 129.041 460.045 129.041C455.709 129.041 451.842 130.096 448.444 132.205C445.104 134.256 442.467 137.332 440.534 141.434C438.659 145.535 437.721 150.516 437.721 156.375V164.812C437.721 170.496 438.659 175.359 440.534 179.402C442.467 183.387 445.192 186.463 448.707 188.631C452.223 190.74 456.413 191.795 461.276 191.795C464.909 191.795 468.102 191.238 470.856 190.125C473.61 188.953 475.866 187.459 477.623 185.643C479.44 183.826 480.7 181.863 481.403 179.754L481.579 179.139H501.969L501.793 180.105C501.032 183.68 499.625 187.195 497.575 190.652C495.524 194.051 492.77 197.127 489.313 199.881C485.856 202.635 481.754 204.832 477.008 206.473C472.262 208.055 466.871 208.846 460.836 208.846ZM549.697 208.846C541.553 208.846 534.58 207.645 528.779 205.242C523.037 202.84 518.525 199.471 515.244 195.135C512.021 190.74 510.059 185.672 509.355 179.93L509.268 179.139H530.801L530.977 179.93C531.797 183.973 533.73 187.107 536.777 189.334C539.883 191.561 544.219 192.674 549.785 192.674C553.359 192.674 556.406 192.234 558.926 191.355C561.445 190.477 563.379 189.188 564.727 187.488C566.133 185.789 566.836 183.797 566.836 181.512V181.424C566.836 178.67 565.898 176.443 564.023 174.744C562.148 172.986 558.779 171.551 553.916 170.438L538.447 167.01C532.529 165.662 527.578 163.816 523.594 161.473C519.609 159.129 516.621 156.229 514.629 152.771C512.637 149.256 511.641 145.184 511.641 140.555V140.467C511.641 134.783 513.193 129.803 516.299 125.525C519.404 121.248 523.77 117.908 529.395 115.506C535.02 113.104 541.553 111.902 548.994 111.902C556.729 111.902 563.35 113.191 568.857 115.77C574.365 118.348 578.613 121.805 581.602 126.141C584.648 130.477 586.289 135.34 586.523 140.73L586.611 141.697H566.221L566.133 140.994C565.664 137.244 563.965 134.168 561.035 131.766C558.105 129.305 554.092 128.074 548.994 128.074C545.771 128.074 542.959 128.543 540.557 129.48C538.213 130.418 536.396 131.736 535.107 133.436C533.877 135.135 533.262 137.127 533.262 139.412V139.5C533.262 141.258 533.701 142.84 534.58 144.246C535.459 145.652 536.865 146.883 538.799 147.938C540.732 148.934 543.311 149.812 546.533 150.574L562.002 154.002C571.67 156.17 578.555 159.275 582.656 163.318C586.758 167.303 588.809 172.664 588.809 179.402V179.49C588.809 185.35 587.139 190.506 583.799 194.959C580.459 199.354 575.83 202.781 569.912 205.242C564.053 207.645 557.314 208.846 549.697 208.846Z" fill="black"/>
<path d="M14.298 57V21.082H1.6418V14.7246H34.4543V21.082H21.8273V57H14.298ZM40.3125 57V14.7246H47.6074V31.1602H47.7539C48.5742 29.2852 49.7949 27.8398 51.416 26.8242C53.0566 25.8086 55.0293 25.3008 57.334 25.3008C59.5801 25.3008 61.5234 25.8184 63.1641 26.8535C64.8047 27.8691 66.0742 29.3047 66.9727 31.1602C67.8711 32.9961 68.3203 35.1641 68.3203 37.6641V57H61.0254V39.0996C61.0254 36.7168 60.4492 34.8516 59.2969 33.5039C58.1445 32.1367 56.5234 31.4531 54.4336 31.4531C53.0664 31.4531 51.8652 31.7852 50.8301 32.4492C49.8145 33.0938 49.0234 33.9922 48.457 35.1445C47.8906 36.2773 47.6074 37.5957 47.6074 39.0996V57H40.3125ZM89.0613 57.6152C85.9559 57.6152 83.2801 56.9609 81.034 55.6523C78.8074 54.3438 77.0984 52.4883 75.907 50.0859C74.7156 47.6836 74.1199 44.8418 74.1199 41.5605V41.5312C74.1199 38.2695 74.7156 35.4277 75.907 33.0059C77.118 30.5645 78.8074 28.6699 80.9754 27.3223C83.1629 25.9746 85.741 25.3008 88.7098 25.3008C91.659 25.3008 94.2078 25.9551 96.3562 27.2637C98.5242 28.5527 100.184 30.3691 101.337 32.7129C102.509 35.0566 103.095 37.791 103.095 40.916V43.2598H77.7234V38.3965H99.6082L96.0926 42.9375V40.125C96.0926 38.0938 95.7801 36.4043 95.1551 35.0566C94.5301 33.709 93.6707 32.7031 92.577 32.0391C91.4832 31.3555 90.2234 31.0137 88.7977 31.0137C87.3523 31.0137 86.0633 31.3652 84.9305 32.0684C83.8172 32.752 82.9383 33.7773 82.2937 35.1445C81.6687 36.5117 81.3562 38.1719 81.3562 40.125V42.9375C81.3562 44.832 81.6687 46.4531 82.2937 47.8008C82.9383 49.1289 83.8465 50.1543 85.0184 50.877C86.1902 51.5801 87.5867 51.9316 89.2078 51.9316C90.4187 51.9316 91.4832 51.7461 92.4012 51.375C93.3191 50.9844 94.0711 50.4863 94.657 49.8809C95.2625 49.2754 95.6824 48.6211 95.9168 47.918L95.9754 47.7129H102.772L102.714 48.0352C102.46 49.2266 101.991 50.3984 101.307 51.5508C100.624 52.6836 99.7059 53.709 98.5535 54.627C97.4012 55.5449 96.034 56.2773 94.452 56.8242C92.8699 57.3516 91.073 57.6152 89.0613 57.6152Z" fill="black"/>
</svg>
